<?xml version="1.0" standalone="no"?>
<!DOCTYPE svg PUBLIC "-//W3C//DTD SVG 1.1//EN" "http://www.w3.org/Graphics/SVG/1.1/DTD/svg11.dtd" >
<svg xmlns="http://www.w3.org/2000/svg" xmlns:xlink="http://www.w3.org/1999/xlink" version="1.1">
<metadata>
Created by FontForge 20200314 at Fri May  5 19:18:43 2017
 By www-data
Copyright (c) 2015 Indian Type Foundry (info@indiantypefoundry.com)
</metadata>
<defs>
<font id="HindVadodara-SemiBold" horiz-adv-x="263" >
  <font-face 
    font-family="Hind Vadodara SemiBold"
    font-weight="600"
    font-stretch="normal"
    units-per-em="1000"
    panose-1="2 0 0 0 0 0 0 0 0 0"
    ascent="800"
    descent="-200"
    x-height="507"
    cap-height="674"
    bbox="-457 -372 2317 1091"
    underline-thickness="50"
    underline-position="-150"
    unicode-range="U+0020-FB02"
  />
<missing-glyph horiz-adv-x="754" 
d="M588 0h-422v701h422v-701zM239 633v-565h277v565h-277z" />
    <glyph glyph-name=".notdef" horiz-adv-x="754" 
d="M588 0h-422v701h422v-701zM239 633v-565h277v565h-277z" />
    <glyph glyph-name=".null" horiz-adv-x="0" 
 />
    <glyph glyph-name="nonmarkingreturn" horiz-adv-x="333" 
 />
    <glyph glyph-name="space" unicode=" " horiz-adv-x="248" 
 />
    <glyph glyph-name="exclam" unicode="!" horiz-adv-x="275" 
d="M195 224h-115v450h115v-450zM215 71q0 -34 -23 -56.5t-56 -22.5q-34 0 -56.5 22.5t-22.5 56.5q0 33 22.5 56t56.5 23q33 0 56 -23t23 -56z" />
    <glyph glyph-name="quotedbl" unicode="&#x22;" horiz-adv-x="352" 
d="M311 429h-103v252h103v-252zM144 429h-102v252h102v-252z" />
    <glyph glyph-name="numbersign" unicode="#" horiz-adv-x="739" 
d="M478 0h-104l34 160h-153l-34 -160h-103l34 160h-104v93h123l35 162h-116v96h136l34 162h104l-34 -162h153l34 162h103l-34 -162h105v-96h-125l-35 -162h119v-93h-138zM428 253l34 162h-153l-34 -162h153z" />
    <glyph glyph-name="dollar" unicode="$" horiz-adv-x="510" 
d="M286 -115h-101v110q-83 8 -139 40v129q86 -62 188 -62q46 0 74 22.5t28 60.5q0 11 -3.5 20.5t-8 17t-14.5 15.5t-17 13t-22.5 13t-23.5 11.5t-28 12t-28 12.5q-69 32 -109.5 74t-40.5 115q0 78 52 128t141 60v110h102v-112q58 -8 101 -29v-122q-75 45 -160 45
q-47 0 -73.5 -21t-26.5 -54q0 -18 8.5 -32.5t28.5 -28t35.5 -21.5t46.5 -22q38 -17 63 -31t53.5 -37.5t42.5 -57t14 -75.5q0 -78 -49.5 -129.5t-133.5 -63.5v-111z" />
    <glyph glyph-name="percent" unicode="%" horiz-adv-x="925" 
d="M329 -1h-110l371 692h111zM403 525q0 -73 -52.5 -125.5t-125.5 -52.5q-74 0 -126 52t-52 126t52 126t126 52t126 -52t52 -126zM145 525q0 -32 23.5 -55.5t56.5 -23.5q32 0 55.5 23.5t23.5 55.5q0 33 -23.5 56.5t-55.5 23.5q-33 0 -56.5 -23.5t-23.5 -56.5zM879 170
q0 -74 -52.5 -126t-125.5 -52q-74 0 -126 52t-52 126t52 126t126 52q73 0 125.5 -52t52.5 -126zM622 170q0 -32 23 -55.5t56 -23.5q32 0 55.5 23.5t23.5 55.5q0 33 -23.5 56.5t-55.5 23.5q-33 0 -56 -23.5t-23 -56.5z" />
    <glyph glyph-name="ampersand" unicode="&#x26;" horiz-adv-x="727" 
d="M250 511q0 -47 76 -125q94 48 94 115q0 40 -23.5 63.5t-65.5 23.5q-35 0 -58 -20t-23 -57zM724 0h-152l-49 47q-82 -55 -195 -55q-125 0 -198.5 54t-73.5 135q0 61 36 103t114 68q-79 85 -79 158q0 84 57.5 131.5t147.5 47.5q96 0 153 -49.5t57 -132.5q0 -119 -149 -188
l126 -121q21 40 22 90h110q-3 -96 -53 -167zM328 94q66 0 116 28l-158 152l-9 9q-53 -18 -75.5 -41.5t-22.5 -56.5q0 -41 42 -66t107 -25z" />
    <glyph glyph-name="quotesingle" unicode="'" horiz-adv-x="186" 
d="M144 429h-102v252h102v-252z" />
    <glyph glyph-name="parenleft" unicode="(" horiz-adv-x="328" 
d="M344 -196h-130q-162 203 -162 456q0 256 156 447h127q-75 -95 -115.5 -217t-40.5 -234q0 -109 42 -230.5t123 -221.5z" />
    <glyph glyph-name="parenright" unicode=")" horiz-adv-x="328" 
d="M113 -196h-129q80 100 122 221.5t42 230.5q0 112 -40 234t-115 217h127q156 -193 156 -447q0 -252 -163 -456z" />
    <glyph glyph-name="asterisk" unicode="*" horiz-adv-x="470" 
d="M393 338l-79 -57l-57 78q-15 23 -21 42q-6 -19 -22 -41l-58 -79l-79 57l58 79q16 20 34 33h-3q-22 0 -45 8l-93 30l31 93l92 -30q25 -8 43 -23q-8 22 -8 49v97h98v-97q0 -27 -8 -48q16 13 43 22l93 30l30 -93l-92 -30q-24 -7 -45 -7h-4q20 -13 35 -34z" />
    <glyph glyph-name="plus" unicode="+" horiz-adv-x="576" 
d="M526 285h-184v-183h-111v183h-181v108h181v185h111v-185h184v-108z" />
    <glyph glyph-name="comma" unicode="," horiz-adv-x="268" 
d="M97 -126h-104l98 247h139z" />
    <glyph glyph-name="hyphen" unicode="-" horiz-adv-x="353" 
d="M304 214h-254v101h254v-101z" />
    <glyph glyph-name="period" unicode="." horiz-adv-x="223" 
d="M189 70q0 -32 -22.5 -55t-54.5 -23t-55 23t-23 55t23 54.5t55 22.5t54.5 -22.5t22.5 -54.5z" />
    <glyph glyph-name="slash" unicode="/" horiz-adv-x="441" 
d="M119 -103h-124l361 810h125z" />
    <glyph glyph-name="zero" unicode="0" horiz-adv-x="546" 
d="M508 330q0 -154 -60.5 -246t-175.5 -92q-112 0 -173 92t-61 246q0 155 61 245.5t173 90.5q113 0 174.5 -90.5t61.5 -245.5zM161 330q0 -110 29.5 -169.5t81.5 -59.5q54 0 83.5 59t29.5 170t-30.5 169t-82.5 58q-51 0 -81 -58.5t-30 -168.5z" />
    <glyph glyph-name="one" unicode="1" horiz-adv-x="358" 
d="M292 0h-119v524l-160 -97v125l173 102h106v-654z" />
    <glyph glyph-name="two" unicode="2" horiz-adv-x="498" 
d="M460 0h-427v96q117 83 202 177.5t85 170.5q0 50 -29 78t-84 28q-83 0 -159 -62v117q33 25 82 41t98 16q96 0 156.5 -52.5t60.5 -147.5q0 -178 -246 -359h261v-103z" />
    <glyph glyph-name="three" unicode="3" horiz-adv-x="476" 
d="M435 180q0 -82 -60.5 -133.5t-169.5 -51.5q-101 0 -172 33v117q78 -42 164 -42q54 0 84.5 25.5t30.5 65.5q0 87 -141 87h-38v101h38q53 0 89 23t36 65q0 84 -103 84q-68 0 -136 -42v113q68 37 143 37q103 0 161.5 -50t58.5 -128q0 -113 -103 -154q56 -14 87 -52.5
t31 -97.5z" />
    <glyph glyph-name="four" unicode="4" horiz-adv-x="554" 
d="M154 250h172v329zM446 0h-120v147h-291v103l218 405h193v-405h86v-103h-86v-147z" />
    <glyph glyph-name="five" unicode="5" horiz-adv-x="504" 
d="M468 213q0 -100 -66 -160t-185 -60q-103 0 -173 35v115q66 -40 153 -40q147 0 147 113q0 44 -31.5 69t-89.5 25q-76 0 -149 -34v379h352v-103h-234v-144q29 6 56 6q105 0 162.5 -54t57.5 -147z" />
    <glyph glyph-name="six" unicode="6" horiz-adv-x="533" 
d="M504 212q0 -99 -60 -163.5t-163 -64.5q-117 0 -178 85.5t-61 228.5q0 166 87 268.5t227 102.5q54 0 98 -16v-113q-39 20 -90 20q-80 0 -130 -54t-64 -139q60 55 142 55q87 0 139.5 -57t52.5 -153zM282 92q45 0 71.5 32.5t26.5 86.5q0 49 -26 78t-71 29q-65 0 -118 -55
q6 -88 37.5 -129.5t79.5 -41.5z" />
    <glyph glyph-name="seven" unicode="7" horiz-adv-x="469" 
d="M192 0h-128l261 551h-308v104h435v-104z" />
    <glyph glyph-name="eight" unicode="8" horiz-adv-x="541" 
d="M500 178q0 -84 -65 -135.5t-167 -51.5t-164.5 49t-62.5 133q0 110 103 155q-93 47 -93 145q0 90 62.5 140.5t154.5 50.5q96 0 158 -48t62 -143t-90 -142q102 -40 102 -153zM162 177q0 -37 27 -62.5t80 -25.5q54 0 82 27t28 65q0 40 -28.5 67t-81.5 27q-53 -1 -80 -29.5
t-27 -68.5zM173 475q0 -45 28 -69t70 -24q41 0 68.5 24t27.5 69q0 40 -23 65.5t-76 25.5q-46 0 -70.5 -26.5t-24.5 -64.5z" />
    <glyph glyph-name="nine" unicode="9" horiz-adv-x="522" 
d="M253 330q69 0 111 53q-4 84 -33.5 127.5t-79.5 43.5q-46 0 -73.5 -30t-27.5 -82q0 -51 28 -81.5t75 -30.5zM484 358q0 -179 -79.5 -272.5t-221.5 -93.5q-65 0 -117 19v115q52 -24 106 -24q164 0 188 178q-45 -50 -137 -50q-85 0 -141 57.5t-56 152.5q0 96 59 159.5
t160 63.5q115 0 177 -83.5t62 -221.5z" />
    <glyph glyph-name="colon" unicode=":" horiz-adv-x="267" 
d="M210 404q0 -32 -22.5 -54.5t-54.5 -22.5t-54 22.5t-22 54.5t22 54.5t54 22.5t54.5 -22.5t22.5 -54.5zM210 76q0 -32 -22.5 -54t-54.5 -22t-54 22t-22 54t22 54.5t54 22.5t54.5 -22.5t22.5 -54.5z" />
    <glyph glyph-name="semicolon" unicode=";" horiz-adv-x="268" 
d="M97 -126h-104l98 247h139zM226 404q0 -32 -23 -54.5t-55 -22.5t-54 22.5t-22 54.5t22 54.5t54 22.5t55 -22.5t23 -54.5z" />
    <glyph glyph-name="less" unicode="&#x3c;" horiz-adv-x="565" 
d="M519 221v-120l-469 182v115l469 182v-121l-348 -118z" />
    <glyph glyph-name="equal" unicode="=" horiz-adv-x="576" 
d="M526 399h-476v100h476v-100zM526 181h-476v101h476v-101z" />
    <glyph glyph-name="greater" unicode="&#x3e;" horiz-adv-x="565" 
d="M516 283l-469 -182v120l347 120l-347 118v121l469 -182v-115z" />
    <glyph glyph-name="question" unicode="?" horiz-adv-x="456" 
d="M245 224h-111l-3 157q169 0 169 106q0 42 -26 67t-77 25q-70 0 -139 -45v115q63 33 155 33q94 0 152 -49t58 -134q0 -45 -18 -81t-45.5 -57t-56.5 -32t-56 -13zM267 71q0 -34 -23 -56.5t-56 -22.5q-34 0 -56.5 22.5t-22.5 56.5q0 33 22.5 56t56.5 23q33 0 56 -23t23 -56z
" />
    <glyph glyph-name="at" unicode="@" horiz-adv-x="950" 
d="M636 -159q-81 -39 -188 -39q-186 0 -293 114t-107 283q0 125 62.5 229t168 162.5t230.5 58.5q166 0 283.5 -103.5t117.5 -273.5q0 -117 -57.5 -190.5t-135.5 -73.5q-108 0 -139 101q-46 -101 -151 -101q-78 0 -123.5 57.5t-45.5 143.5q0 99 59 161.5t142 62.5
q80 0 119 -69q2 22 4 66h98l-7 -65q-9 -135 -9 -157q0 -106 57 -106q38 0 63 44t25 118q0 140 -85.5 213t-219.5 73q-149 0 -248.5 -104.5t-99.5 -249.5q0 -138 84.5 -216.5t207.5 -78.5q102 0 192 45zM458 97q36 0 67.5 27t43.5 76q1 7 1 21t1 21q-7 50 -32 76t-64 26
q-46 0 -77.5 -38.5t-31.5 -102.5q0 -48 26.5 -77t65.5 -29z" />
    <glyph glyph-name="A" unicode="A" horiz-adv-x="674" 
d="M250 285l-9 -29h190l-9 30q-34 108 -55.5 181.5t-26.5 92.5l-4 20q-9 -50 -86 -295zM160 0h-132l228 674h163l228 -674h-136l-48 153h-255z" />
    <glyph glyph-name="B" unicode="B" horiz-adv-x="592" 
d="M343 0h-273v674h239q108 0 168 -51t60 -132q0 -55 -30 -95.5t-77 -53.5q54 -13 89 -52.5t35 -107.5q0 -80 -56 -131t-155 -51zM293 571h-97v-181h76q68 0 102 27t34 69q0 39 -28.5 62t-86.5 23zM299 289h-103v-186h108q121 0 121 92q0 94 -126 94z" />
    <glyph glyph-name="C" unicode="C" horiz-adv-x="609" 
d="M562 32q-62 -40 -174 -40q-150 0 -247.5 94.5t-97.5 250.5q0 153 96.5 249.5t248.5 96.5q111 0 173 -37v-123q-76 44 -168 44t-153.5 -62.5t-61.5 -167.5t61.5 -167t160.5 -62q95 0 162 50v-126z" />
    <glyph glyph-name="D" unicode="D" horiz-adv-x="675" 
d="M290 0h-220v674h220q151 0 247 -93t96 -235q0 -155 -93 -250.5t-250 -95.5zM286 568h-87v-463h89q106 0 161 65.5t55 175.5q0 97 -58.5 159.5t-159.5 62.5z" />
    <glyph glyph-name="E" unicode="E" horiz-adv-x="528" 
d="M472 0h-402v674h398v-103h-271v-183h241v-102h-241v-183h275v-103z" />
    <glyph glyph-name="F" unicode="F" horiz-adv-x="499" 
d="M431 269h-234v-269h-127v674h395v-103h-268v-199h234v-103z" />
    <glyph glyph-name="G" unicode="G" horiz-adv-x="693" 
d="M630 58q-92 -66 -230 -66q-160 0 -258.5 93t-98.5 253q0 156 101.5 252t256.5 96q115 0 197 -43v-129q-92 55 -195 55q-101 0 -163 -63t-62 -168q0 -107 60.5 -168.5t166.5 -61.5q52 0 101 18v159h-124v108h248v-324h-1z" />
    <glyph glyph-name="H" unicode="H" horiz-adv-x="670" 
d="M600 0h-127v283h-277v-283h-126v674h126v-282h277v282h127v-674z" />
    <glyph glyph-name="I" unicode="I" horiz-adv-x="282" 
d="M204 0h-126v674h126v-674z" />
    <glyph glyph-name="J" unicode="J" horiz-adv-x="379" 
d="M313 192q0 -95 -48 -144t-132 -49q-63 0 -103 21v114q38 -24 80 -24q77 0 77 82v481h126v-481z" />
    <glyph glyph-name="K" unicode="K" horiz-adv-x="628" 
d="M607 0h-159l-242 334l233 340h151l-234 -338zM196 0h-126v674h126v-674z" />
    <glyph glyph-name="L" unicode="L" horiz-adv-x="484" 
d="M459 0h-389v674h126v-562h263v-112z" />
    <glyph glyph-name="M" unicode="M" horiz-adv-x="880" 
d="M184 0h-126l54 674h144l92 -245q24 -62 45 -123.5t30 -91.5l9 -31q31 104 86 246l94 245h144l66 -674h-126l-24 263l-18 236q-36 -103 -86 -236l-94 -253h-86l-92 253l-79 233q0 -49 -13 -233z" />
    <glyph glyph-name="N" unicode="N" horiz-adv-x="688" 
d="M196 0h-126v674h143l162 -281q40 -69 71.5 -128.5t42.5 -84.5l11 -25q-8 83 -8 238v281h127v-674h-144l-164 280q-39 66 -70.5 126.5t-43.5 87.5l-12 28q11 -95 11 -241v-281z" />
    <glyph glyph-name="O" unicode="O" horiz-adv-x="723" 
d="M680 339q0 -156 -86.5 -251t-231.5 -95t-232 95t-87 251q0 157 86.5 252t231.5 95q147 0 233 -94.5t86 -252.5zM178 339q0 -106 50 -168t134 -62q85 0 134 61.5t49 168.5t-49 169t-135 62q-85 0 -134 -62t-49 -169z" />
    <glyph glyph-name="P" unicode="P" horiz-adv-x="556" 
d="M284 229h-88v-229h-126v674h211q114 0 182.5 -62t68.5 -159q0 -103 -70.5 -163.5t-177.5 -60.5zM270 571h-74v-240h71q69 0 103 33t34 89q0 55 -34 86.5t-100 31.5z" />
    <glyph glyph-name="Q" unicode="Q" horiz-adv-x="729" 
d="M680 339q0 -110 -44 -191t-124 -121l205 -119l-142 -55l-198 140h-15q-145 0 -232 95t-87 251q0 157 86.5 252t231.5 95q147 0 233 -94.5t86 -252.5zM178 339q0 -106 50 -168t134 -62q85 0 134 61.5t49 168.5t-49 169t-135 62q-85 0 -134 -62t-49 -169z" />
    <glyph glyph-name="R" unicode="R" horiz-adv-x="589" 
d="M278 570h-82v-220h84q58 0 87 29.5t29 82.5q0 52 -30.5 80t-87.5 28zM196 0h-126v674h208q115 0 180.5 -58t65.5 -155q-1 -72 -35 -121.5t-93 -73.5l173 -266h-151l-153 246h-69v-246z" />
    <glyph glyph-name="S" unicode="S" horiz-adv-x="518" 
d="M477 189q0 -90 -64.5 -143.5t-169.5 -53.5q-114 0 -189 43v129q86 -62 188 -62q46 0 74 22.5t28 60.5q0 18 -7 32t-28.5 28t-33 20t-47.5 22q-10 5 -15 7q-37 17 -60 30.5t-50 36.5t-40.5 55t-13.5 73q0 86 63.5 138t168.5 52q95 0 164 -33v-122q-75 45 -160 45
q-47 0 -73.5 -21t-26.5 -54t28.5 -54.5t85.5 -47.5q40 -18 65 -31.5t54.5 -37.5t44 -57.5t14.5 -76.5z" />
    <glyph glyph-name="T" unicode="T" horiz-adv-x="520" 
d="M495 570h-171v-570h-127v570h-171v104h469v-104z" />
    <glyph glyph-name="U" unicode="U" horiz-adv-x="659" 
d="M593 259q0 -131 -70.5 -199.5t-193.5 -68.5q-120 0 -191.5 67.5t-71.5 193.5v422h126v-421q0 -77 38 -111.5t99 -34.5q138 0 138 151v416h126v-415z" />
    <glyph glyph-name="V" unicode="V" horiz-adv-x="651" 
d="M395 0h-144l-226 674h137l83 -268q25 -80 45 -153t28 -106l7 -33q24 112 81 292l84 268h135z" />
    <glyph glyph-name="W" unicode="W" horiz-adv-x="958" 
d="M350 0h-145l-180 674h133l63 -249q16 -67 32 -139t24 -110l8 -39q32 126 78 288l68 239h102l69 -239l80 -290q25 139 62 291l61 248h128l-172 -674h-146l-61 213q-25 85 -42.5 150t-23.5 87l-5 23q-14 -70 -70 -260z" />
    <glyph glyph-name="X" unicode="X" horiz-adv-x="644" 
d="M183 0h-151l214 341l-204 333h147l129 -221l125 221h153l-204 -333l221 -341h-150l-143 233z" />
    <glyph glyph-name="Y" unicode="Y" horiz-adv-x="624" 
d="M374 0h-126v246l-230 428h147l45 -98q39 -85 64 -142.5t30 -71.5l6 -15q9 37 103 229l46 98h147l-232 -424v-250z" />
    <glyph glyph-name="Z" unicode="Z" horiz-adv-x="601" 
d="M544 0h-487v96l322 475h-317v103h469v-93l-323 -478h336v-103z" />
    <glyph glyph-name="bracketleft" unicode="[" horiz-adv-x="343" 
d="M332 -191h-262v898h262v-105h-147v-687h147v-106z" />
    <glyph glyph-name="backslash" unicode="\" horiz-adv-x="441" 
d="M446 -103h-125l-362 810h126z" />
    <glyph glyph-name="bracketright" unicode="]" horiz-adv-x="343" 
d="M273 -191h-262v106h147v687h-147v105h262v-898z" />
    <glyph glyph-name="asciicircum" unicode="^" horiz-adv-x="480" 
d="M151 332h-113l147 262h111l146 -262h-114l-88 169z" />
    <glyph glyph-name="underscore" unicode="_" horiz-adv-x="552" 
d="M529 -141h-506v101h506v-101z" />
    <glyph glyph-name="grave" unicode="`" horiz-adv-x="470" 
d="M344 629h-101l-116 169h126z" />
    <glyph glyph-name="a" unicode="a" horiz-adv-x="507" 
d="M239 85q40 0 62.5 23.5t22.5 61.5v48h-62q-47 0 -72 -19.5t-25 -49.5q0 -64 74 -64zM329 61q-35 -65 -132 -65q-72 0 -114.5 42t-42.5 106q0 72 54 113t156 41h74v31q0 42 -22 64t-75 22q-81 0 -149 -45v111q57 35 164 35q206 0 206 -192v-324h-119v61z" />
    <glyph glyph-name="b" unicode="b" horiz-adv-x="595" 
d="M187 0h-121v707h121v-277q53 84 152 84q95 0 156.5 -70.5t61.5 -190.5q0 -108 -58.5 -184t-158.5 -76t-153 85v-78zM187 258q0 -79 36 -120.5t90 -41.5q52 0 87 43t35 112q0 76 -35.5 118.5t-87.5 42.5q-49 0 -87 -38.5t-38 -115.5z" />
    <glyph glyph-name="c" unicode="c" horiz-adv-x="470" 
d="M432 22q-53 -31 -132 -31q-117 0 -189.5 74t-72.5 187q1 111 72.5 187t195.5 76q74 0 126 -28v-106q-50 32 -114 32q-70 0 -113 -44t-44 -117q2 -72 43.5 -116t112.5 -44q62 0 115 34v-104z" />
    <glyph glyph-name="d" unicode="d" horiz-adv-x="594" 
d="M161 251q0 -69 35 -112t87 -43q54 0 90 41.5t36 120.5q0 77 -38 115.5t-87 38.5q-52 0 -87.5 -42.5t-35.5 -118.5zM529 0h-120v79q-52 -86 -154 -86q-100 0 -158.5 76t-58.5 184q0 120 61.5 190.5t157.5 70.5q99 0 152 -85v278h120v-707z" />
    <glyph glyph-name="e" unicode="e" horiz-adv-x="529" 
d="M452 28q-53 -33 -153 -33q-121 0 -191 72t-70 186q0 121 66 190t165 69t157 -60t58 -175q0 -28 -7 -72h-318q13 -55 54.5 -84t103.5 -29q80 0 135 40v-104zM272 418q-43 0 -74.5 -31.5t-40.5 -91.5h213v15q-2 49 -26.5 78.5t-71.5 29.5z" />
    <glyph glyph-name="f" unicode="f" horiz-adv-x="340" 
d="M325 417h-101v-417h-120v417h-74v90h74v30q0 85 47 133t130 48q38 0 66 -9v-101q-26 10 -50 10q-73 0 -73 -82v-29h101v-90z" />
    <glyph glyph-name="g" unicode="g" horiz-adv-x="571" 
d="M512 46q0 -120 -69.5 -180.5t-176.5 -60.5q-100 0 -175 36v122q68 -48 163 -48q138 0 138 132v44q-46 -75 -144 -75q-85 0 -145.5 62.5t-60.5 181.5q0 110 57.5 181.5t151.5 71.5q95 0 141 -79v73h120v-461zM167 260q0 -71 31 -108.5t79 -37.5q49 0 82 38.5t33 100.5
q0 81 -32 119t-81 38q-52 0 -82 -40.5t-30 -109.5z" />
    <glyph glyph-name="h" unicode="h" horiz-adv-x="565" 
d="M505 0h-120v311q0 48 -24.5 75t-63.5 27q-43 0 -77.5 -33t-34.5 -108v-272h-120v707h120v-286q41 92 155 92q74 0 119.5 -46.5t45.5 -134.5v-332z" />
    <glyph glyph-name="i" unicode="i" horiz-adv-x="260" 
d="M190 0h-120v507h120v-507zM202 659q0 -31 -21 -52t-51 -21t-51 21t-21 52q0 30 21 51t51 21t51 -21t21 -51z" />
    <glyph glyph-name="j" unicode="j" horiz-adv-x="257" 
d="M192 -34q0 -75 -41 -119t-117 -44q-36 0 -76 16v95q35 -15 61 -15q53 0 53 69v539h120v-541zM204 659q0 -31 -21 -52t-52 -21q-30 0 -51 21t-21 52q0 30 21 51t51 21q31 0 52 -21t21 -51z" />
    <glyph glyph-name="k" unicode="k" horiz-adv-x="522" 
d="M185 0h-120v695h120v-426l179 238h140l-186 -242l190 -265h-141l-182 262v-262z" />
    <glyph glyph-name="l" unicode="l" horiz-adv-x="260" 
d="M190 0h-120v707h120v-707z" />
    <glyph glyph-name="m" unicode="m" horiz-adv-x="843" 
d="M784 0h-121v311q0 102 -78 102q-39 0 -69.5 -34t-30.5 -107v-272h-121v311q0 102 -78 102q-39 0 -70 -34t-31 -107v-272h-120v507h120v-80q43 86 143 86q111 0 144 -96q20 46 60 71t91 25q77 0 119 -46.5t42 -132.5v-334z" />
    <glyph glyph-name="n" unicode="n" horiz-adv-x="565" 
d="M505 0h-120v312q0 50 -24 75.5t-65 25.5q-47 0 -79 -36.5t-32 -104.5v-272h-120v507h120v-87q43 93 156 93q76 0 120 -46t44 -130v-337z" />
    <glyph glyph-name="o" unicode="o" horiz-adv-x="565" 
d="M527 255q0 -115 -64.5 -189t-180.5 -74q-115 0 -179.5 72t-64.5 184q0 116 67 191.5t177 75.5q117 0 181 -73.5t64 -186.5zM164 252q0 -70 31 -117t88 -47q59 0 89 46t30 117q0 73 -29 119.5t-91 46.5q-57 0 -87.5 -47t-30.5 -118z" />
    <glyph glyph-name="p" unicode="p" horiz-adv-x="594" 
d="M185 -191h-120v698h120v-78q54 85 155 85q99 0 157.5 -71t58.5 -187q0 -114 -58.5 -188.5t-158.5 -74.5q-102 0 -154 83v-267zM185 257q0 -77 37 -119t89 -42q54 0 88 41.5t34 116.5t-34 116.5t-86 41.5t-90 -39t-38 -116z" />
    <glyph glyph-name="q" unicode="q" horiz-adv-x="594" 
d="M161 254q0 -73 35.5 -115.5t88.5 -42.5q51 0 87.5 42t36.5 119t-37.5 116t-89.5 39q-51 0 -86 -42.5t-35 -115.5zM529 -191h-120v269q-52 -85 -153 -85q-100 0 -159 74.5t-59 188.5q0 116 59.5 187t158.5 71t153 -85v78h120v-698z" />
    <glyph glyph-name="r" unicode="r" horiz-adv-x="353" 
d="M185 0h-121l1 507h120v-90q35 94 128 94q21 0 34 -3v-116q-23 10 -51 10q-49 0 -80 -40t-31 -100v-262z" />
    <glyph glyph-name="s" unicode="s" horiz-adv-x="427" 
d="M396 146q0 -71 -51 -111t-136 -40q-94 0 -152 31v110q67 -45 145 -45q33 0 51.5 12.5t18.5 34.5q0 13 -6 23.5t-23 20.5t-26.5 14.5t-37.5 16.5q-3 1 -4.5 2t-4.5 2t-5 2q-111 50 -111 144q0 70 53 110t133 40q77 0 128 -22v-106q-50 30 -125 30q-31 0 -48.5 -13.5
t-17.5 -34.5q0 -8 2.5 -15t9 -13.5t12.5 -11.5t17 -10.5l19 -9.5t22 -10t22 -10q53 -26 84 -58t31 -83z" />
    <glyph glyph-name="t" unicode="t" horiz-adv-x="379" 
d="M345 12q-35 -17 -90 -17q-164 0 -164 166v256h-76v90h76v122h120v-122h126v-90h-126v-258q0 -32 17 -48.5t47 -16.5q38 0 70 21v-103z" />
    <glyph glyph-name="u" unicode="u" horiz-adv-x="565" 
d="M500 0h-121v83q-40 -88 -156 -88q-77 0 -120 44t-43 125v343h120v-315q0 -48 23.5 -73t64.5 -25q52 0 81.5 35t29.5 106v272h121v-507z" />
    <glyph glyph-name="v" unicode="v" horiz-adv-x="524" 
d="M326 0h-130l-183 507h126l67 -215q20 -63 34 -112.5t18 -67.5l3 -18q10 56 57 198l70 215h124z" />
    <glyph glyph-name="w" unicode="w" horiz-adv-x="801" 
d="M303 0h-130l-160 507h125l46 -167q20 -72 33.5 -128.5t16.5 -76.5l4 -20q10 61 58 225l49 167h109l49 -167q22 -74 36.5 -130.5t18.5 -75.5l3 -20q10 59 59 226l48 167h120l-161 -507h-130l-45 166q-18 65 -31 118.5t-17 73.5l-4 21q-13 -66 -52 -213z" />
    <glyph glyph-name="x" unicode="x" horiz-adv-x="508" 
d="M151 0h-132l177 256l-166 251h135l95 -165l100 165h134l-176 -252l170 -255h-133l-100 170z" />
    <glyph glyph-name="y" unicode="y" horiz-adv-x="517" 
d="M325 14q-76 -203 -232 -203q-29 0 -50 5v99q16 -4 34 -4q91 0 129 99l-200 497h133l59 -162q27 -72 43.5 -121t20.5 -62l3 -14q10 35 64 197l53 162h126z" />
    <glyph glyph-name="z" unicode="z" horiz-adv-x="469" 
d="M428 0h-386v89l235 322h-226v96h364v-84l-236 -326h249v-97z" />
    <glyph glyph-name="braceleft" unicode="{" horiz-adv-x="363" 
d="M342 -189q-31 -11 -59 -11q-64 0 -106 47.5t-42 121.5q0 24 8 65t8 60q0 41 -22.5 71t-63.5 34h-22v117q11 0 22 1q40 2 63 32.5t23 71.5q0 18 -8 59.5t-8 65.5q0 74 42 121t106 47q30 0 59 -10v-113q-15 9 -32 9q-24 0 -39.5 -18t-15.5 -45q0 -17 7.5 -61t7.5 -70
q0 -59 -33 -99.5t-85 -48.5q52 -8 85 -49.5t33 -100.5q0 -26 -7.5 -69.5t-7.5 -61.5q0 -27 15 -44.5t40 -17.5q17 0 32 9v-113z" />
    <glyph glyph-name="bar" unicode="|" horiz-adv-x="260" 
d="M187 -194h-114v889h114v-889z" />
    <glyph glyph-name="braceright" unicode="}" horiz-adv-x="363" 
d="M227 -31q0 -74 -42 -121.5t-106 -47.5q-27 0 -58 11v113q15 -9 31 -9q25 0 40.5 17.5t15.5 44.5q0 18 -7.5 61.5t-7.5 69.5q0 59 33 100.5t85 49.5q-52 8 -85 48.5t-33 99.5q0 26 7.5 70t7.5 61q0 27 -15.5 45t-40.5 18q-16 0 -31 -9v113q29 10 58 10q64 0 106 -47
t42 -121q0 -24 -7.5 -65.5t-7.5 -59.5q0 -41 22.5 -71.5t63.5 -32.5q10 -1 22 -1v-117h-22q-41 -4 -63.5 -34t-22.5 -71q0 -19 7.5 -60t7.5 -65z" />
    <glyph glyph-name="asciitilde" unicode="~" horiz-adv-x="633" 
d="M222 249q-60 0 -108 -62l-83 67q31 44 74.5 74t91.5 30q61 0 127.5 -29t93.5 -29q31 0 53.5 15t45.5 44l84 -66q-67 -102 -161 -102q-54 0 -120.5 29t-97.5 29z" />
    <glyph glyph-name="exclamdown" unicode="&#xa1;" horiz-adv-x="275" 
d="M195 -165h-115v450h115v-450zM215 438q0 -33 -23 -56t-56 -23q-34 0 -56.5 23t-22.5 56q0 34 22.5 56.5t56.5 22.5q33 0 56 -22.5t23 -56.5z" />
    <glyph glyph-name="cent" unicode="&#xa2;" horiz-adv-x="468" 
d="M428 20q-36 -18 -79 -24v-107h-101v107q-96 16 -154 86.5t-58 169.5q1 97 57 168t155 89v109h101v-107q41 -6 79 -25v-104q-50 30 -109 30q-70 0 -114.5 -43.5t-45.5 -116.5q2 -72 44.5 -115.5t113.5 -43.5q58 0 111 31v-104z" />
    <glyph glyph-name="sterling" unicode="&#xa3;" horiz-adv-x="533" 
d="M498 0h-447v100q47 24 65 59t18 91q0 18 -1 27h-81v89h70q-5 38 -5 65q0 109 57 169t166 60q74 0 126 -30v-115q-48 31 -103 31q-115 0 -115 -117q0 -19 4 -63h172v-89h-162q1 -9 1 -27q0 -104 -68 -147h303v-103z" />
    <glyph glyph-name="currency" unicode="&#xa4;" horiz-adv-x="561" 
d="M161 124l-59 -58l-72 70l59 57q-32 53 -32 117q0 66 32 117l-59 59l72 69l59 -58q53 33 121 33q64 0 118 -31l58 56l72 -69l-58 -58q32 -51 32 -115q0 -66 -34 -119l60 -58l-72 -70l-60 58q-53 -31 -119 -31q-65 0 -118 31zM158 312q0 -52 35 -88t88 -36t87.5 36t34.5 87
q0 52 -34.5 88t-87.5 36t-88 -36t-35 -87z" />
    <glyph glyph-name="yen" unicode="&#xa5;" horiz-adv-x="616" 
d="M546 132h-177v-132h-126v132h-175v78h175v42l-17 31h-158v78h114l-164 294h147l140 -275l146 275h146l-166 -294h115v-78h-159l-18 -31v-42h177v-78z" />
    <glyph glyph-name="brokenbar" unicode="&#xa6;" horiz-adv-x="260" 
d="M187 368h-114v335h114v-335zM187 -140h-114v335h114v-335z" />
    <glyph glyph-name="section" unicode="&#xa7;" horiz-adv-x="566" 
d="M305 183q54 -24 63 -29q14 21 14 47q0 13 -3 23.5t-11.5 20t-15 16t-23 16t-25 14t-33 16.5t-34.5 17q-7 4 -21.5 11t-21.5 10q-17 -24 -17 -51q0 -35 29 -58t99 -53zM503 199q0 -67 -41 -115q34 -42 34 -97q0 -85 -63 -132.5t-168 -47.5q-116 0 -189 43v129
q84 -62 188 -62q102 0 102 69q0 32 -29.5 53.5t-134.5 67.5q-70 31 -108.5 75.5t-38.5 113.5q0 64 44 115q-33 40 -33 91q0 83 61.5 130.5t164.5 47.5q93 0 163 -33v-122q-73 45 -159 45q-48 0 -73 -17.5t-25 -48.5q0 -14 5.5 -25t21.5 -22t29.5 -18t46.5 -22.5t54 -26.5
q48 -24 76.5 -44.5t50 -58.5t21.5 -88z" />
    <glyph glyph-name="dieresis" unicode="&#xa8;" horiz-adv-x="470" 
d="M427 715q0 -30 -20 -50t-51 -20q-30 0 -50.5 20t-20.5 50q0 29 20.5 49t50.5 20q31 0 51 -20t20 -49zM184 715q0 -30 -20 -50t-50 -20q-31 0 -51 20t-20 50q0 29 20 49t51 20q30 0 50 -20t20 -49z" />
    <glyph glyph-name="copyright" unicode="&#xa9;" horiz-adv-x="767" 
d="M490 183q-36 -21 -91 -21q-76 0 -126.5 49t-50.5 125q1 77 49.5 127t131.5 50q48 0 87 -21v-83q-34 22 -79 22q-38 0 -65 -25.5t-28 -69.5q2 -42 27.5 -68t64.5 -26q44 0 80 25v-84zM729 337q0 -142 -101.5 -243.5t-243.5 -101.5q-143 0 -244.5 101.5t-101.5 243.5
q0 143 102 244.5t244 101.5t243.5 -102t101.5 -244zM124 337q0 -112 74.5 -186.5t185.5 -74.5q110 0 185 75t75 186q0 110 -75 185t-185 75q-111 0 -185.5 -75t-74.5 -185z" />
    <glyph glyph-name="ordfeminine" unicode="&#xaa;" horiz-adv-x="381" 
d="M176 464q32 0 52 19.5t20 49.5v43h-50q-41 0 -63 -16t-22 -43q0 -53 63 -53zM252 445q-34 -56 -112 -56q-62 0 -97.5 34.5t-35.5 89.5q0 61 46 96t132 35h63v25q0 36 -19 54.5t-64 18.5q-70 0 -126 -37v93q52 29 139 29q89 0 131 -39.5t42 -121.5v-274h-99v53z" />
    <glyph glyph-name="guillemotleft" unicode="&#xab;" horiz-adv-x="549" 
d="M366 253l146 -162h-127l-152 162l152 162h127zM305 91h-127l-152 162l152 162h127l-146 -162z" />
    <glyph glyph-name="logicalnot" unicode="&#xac;" horiz-adv-x="583" 
d="M541 145h-103v172h-400v99h503v-271z" />
    <glyph glyph-name="uni00AD" unicode="&#xad;" horiz-adv-x="353" 
d="M304 214h-254v101h254v-101z" />
    <glyph glyph-name="registered" unicode="&#xae;" horiz-adv-x="476" 
d="M218 453h-50v228h67q87 0 87 -72q0 -46 -37 -64l58 -92h-61l-49 83h-15v-83zM238 639h-20v-62h24q28 0 28 32q0 30 -32 30zM466 559q0 -99 -64.5 -162.5t-163.5 -63.5t-163.5 63.5t-64.5 162.5q0 100 64.5 164t163.5 64t163.5 -64.5t64.5 -163.5zM67 559q0 -77 47 -124.5
t125 -47.5t124.5 47.5t46.5 124.5q0 78 -46.5 126t-124.5 48t-125 -48t-47 -126z" />
    <glyph glyph-name="macron" unicode="&#xaf;" horiz-adv-x="470" 
d="M399 667h-328v83h328v-83z" />
    <glyph glyph-name="degree" unicode="&#xb0;" horiz-adv-x="408" 
d="M378 509q0 -73 -51 -123t-124 -50t-123 49.5t-50 122.5t50.5 123.5t123.5 50.5q74 0 124 -50t50 -123zM117 509q0 -36 25.5 -62t61.5 -26t61 26t25 62t-25.5 61.5t-61.5 25.5t-61 -25.5t-25 -61.5z" />
    <glyph glyph-name="plusminus" unicode="&#xb1;" horiz-adv-x="576" 
d="M526 328h-184v-151h-111v151h-181v101h181v150h111v-150h184v-101zM526 29h-476v101h476v-101z" />
    <glyph glyph-name="twosuperior" unicode="&#xb2;" horiz-adv-x="365" 
d="M329 392h-289v66q77 57 128.5 116.5t51.5 107.5q0 61 -67 61q-49 0 -102 -39v91q53 33 114 33q65 0 107 -36t42 -99q0 -116 -158 -224h173v-77z" />
    <glyph glyph-name="threesuperior" unicode="&#xb3;" horiz-adv-x="343" 
d="M308 509q0 -54 -40 -87.5t-109 -33.5q-75 0 -124 26v81q56 -29 112 -29q32 0 50 14.5t18 38.5q0 52 -90 52h-18v76h18q35 0 57.5 13.5t22.5 38.5q0 49 -60 49q-49 0 -95 -33v86q46 27 101 27q69 0 108 -33.5t39 -85.5q0 -39 -21.5 -65t-58.5 -34q38 -3 64 -30t26 -71z
" />
    <glyph glyph-name="acute" unicode="&#xb4;" horiz-adv-x="470" 
d="M228 629h-101l91 169h126z" />
    <glyph glyph-name="uni00B5" unicode="&#xb5;" horiz-adv-x="570" 
d="M185 -180h-120v687h120v-315q0 -47 29 -72.5t72 -25.5q99 0 99 141v272h120v-507h-120v67q-34 -72 -115 -72q-46 0 -85 22v-197z" />
    <glyph glyph-name="paragraph" unicode="&#xb6;" horiz-adv-x="574" 
d="M310 -148h-96v474q-95 0 -146.5 50.5t-51.5 123.5q0 72 53 123t158 51h83v-822zM506 -148h-96l1 822h95v-822z" />
    <glyph glyph-name="periodcentered" unicode="&#xb7;" horiz-adv-x="254" 
d="M205 278q0 -32 -22.5 -55t-54.5 -23t-55 23t-23 55t23 54.5t55 22.5t54.5 -22.5t22.5 -54.5z" />
    <glyph glyph-name="cedilla" unicode="&#xb8;" horiz-adv-x="470" 
d="M319 -124q0 -59 -43 -98t-126 -40v78q79 3 79 67q0 29 -25 66h97q18 -27 18 -73z" />
    <glyph glyph-name="onesuperior" unicode="&#xb9;" horiz-adv-x="268" 
d="M210 392h-88v335l-112 -61v85l128 73h72v-432z" />
    <glyph glyph-name="ordmasculine" unicode="&#xba;" horiz-adv-x="417" 
d="M413 609q0 -97 -54 -160t-150 -63q-98 0 -151.5 61t-53.5 156q0 98 56 162t149 64q97 0 150.5 -62t53.5 -158zM110 607q0 -60 26 -99.5t73 -39.5q48 0 72.5 38.5t24.5 98.5q0 142 -99 142q-47 0 -72 -40t-25 -100z" />
    <glyph glyph-name="guillemotright" unicode="&#xbb;" horiz-adv-x="550" 
d="M522 253l-151 -162h-127l146 162l-146 162h127zM164 91h-127l146 162l-146 162h127l151 -162z" />
    <glyph glyph-name="onequarter" unicode="&#xbc;" horiz-adv-x="830" 
d="M226 0h-95l437 711h94zM231 279h-88v335l-112 -61v86l128 72h72v-432zM560 163h106v202zM752 0h-86v91h-195v72l145 267h136v-267h56v-72h-56v-91z" />
    <glyph glyph-name="onehalf" unicode="&#xbd;" horiz-adv-x="833" 
d="M226 0h-95l437 711h94zM231 279h-88v335l-112 -61v86l128 72h72v-432zM808 0h-289v66q181 134 181 224q0 30 -18 45.5t-49 15.5q-49 0 -102 -39v91q53 33 114 33q65 0 107 -36t42 -99q0 -116 -158 -224h172v-77z" />
    <glyph glyph-name="threequarters" unicode="&#xbe;" horiz-adv-x="886" 
d="M280 0h-95l437 711h95zM314 396q0 -54 -39.5 -87.5t-108.5 -33.5q-75 0 -124 26v81q53 -29 112 -29q32 0 50 14.5t18 38.5q0 52 -90 52h-19v76h18q36 0 58 13t22 38q0 50 -60 50q-48 0 -95 -34v87q46 26 102 26q69 0 108 -33.5t39 -85.5q0 -39 -21.5 -64.5t-58.5 -33.5
q37 -4 63 -31t26 -70zM614 163h106v202zM806 0h-86v91h-195v72l145 267h136v-267h56v-72h-56v-91z" />
    <glyph glyph-name="questiondown" unicode="&#xbf;" horiz-adv-x="456" 
d="M423 -140q-66 -32 -156 -32q-95 0 -152 48.5t-57 134.5q0 45 17.5 81t45.5 57t56.5 32t55.5 13l2 92h112l2 -157q-169 0 -169 -106q0 -42 26 -67.5t77 -25.5q69 0 140 46v-116zM371 439q0 -33 -22.5 -56t-56.5 -23q-33 0 -56 23t-23 56t23 56t56 23q34 0 56.5 -23
t22.5 -56z" />
    <glyph glyph-name="Agrave" unicode="&#xc0;" horiz-adv-x="674" 
d="M250 285l-9 -29h190l-9 30q-34 108 -55.5 181.5t-26.5 92.5l-4 20q-9 -50 -86 -295zM160 0h-132l228 674h163l228 -674h-136l-48 153h-255zM386 723h-101l-116 169h126z" />
    <glyph glyph-name="Aacute" unicode="&#xc1;" horiz-adv-x="674" 
d="M250 285l-9 -29h190l-9 30q-34 108 -55.5 181.5t-26.5 92.5l-4 20q-9 -50 -86 -295zM160 0h-132l228 674h163l228 -674h-136l-48 153h-255zM398 723h-101l91 169h126z" />
    <glyph glyph-name="Acircumflex" unicode="&#xc2;" horiz-adv-x="674" 
d="M250 285l-9 -29h190l-9 30q-34 108 -55.5 181.5t-26.5 92.5l-4 20q-9 -50 -86 -295zM160 0h-132l228 674h163l228 -674h-136l-48 153h-255zM258 723h-117l145 169h106l145 -169h-117l-81 99z" />
    <glyph glyph-name="Atilde" unicode="&#xc3;" horiz-adv-x="674" 
d="M250 285l-9 -29h190l-9 30q-34 108 -55.5 181.5t-26.5 92.5l-4 20q-9 -50 -86 -295zM160 0h-132l228 674h163l228 -674h-136l-48 153h-255zM281 785q-24 0 -39 -9.5t-33 -34.5l-57 53q16 33 45.5 55.5t65.5 22.5q34 0 75 -19t60 -19q43 0 64 43l64 -51q-39 -79 -122 -79
q-30 0 -69 19t-54 19z" />
    <glyph glyph-name="Adieresis" unicode="&#xc4;" horiz-adv-x="674" 
d="M250 285l-9 -29h190l-9 30q-34 108 -55.5 181.5t-26.5 92.5l-4 20q-9 -50 -86 -295zM160 0h-132l228 674h163l228 -674h-136l-48 153h-255zM535 809q0 -30 -20 -50t-51 -20q-30 0 -50.5 20t-20.5 50q0 29 20.5 49t50.5 20q31 0 51 -20t20 -49zM292 809q0 -30 -20 -50
t-50 -20q-31 0 -51 20t-20 50q0 29 20 49t51 20q30 0 50 -20t20 -49z" />
    <glyph glyph-name="Aring" unicode="&#xc5;" horiz-adv-x="674" 
d="M250 285l-9 -29h190l-9 30q-34 108 -55.5 181.5t-26.5 92.5l-4 20q-9 -50 -86 -295zM160 0h-132l228 674h163l228 -674h-136l-48 153h-255zM466 837q0 -52 -36.5 -88.5t-88.5 -36.5t-88.5 36.5t-36.5 88.5t36.5 88.5t88.5 36.5t88.5 -36.5t36.5 -88.5zM288 839
q0 -22 15 -38.5t38 -16.5t38 16.5t15 38.5t-15 38.5t-38 16.5t-38 -16.5t-15 -38.5z" />
    <glyph glyph-name="AE" unicode="&#xc6;" horiz-adv-x="917" 
d="M147 0h-133l347 674h496v-103h-271v-183h241v-102h-241v-183h275v-103h-398v153h-235zM298 285l-15 -29h180v355q-47 -110 -165 -326z" />
    <glyph glyph-name="Ccedilla" unicode="&#xc7;" horiz-adv-x="609" 
d="M562 32q-62 -40 -174 -40q-150 0 -247.5 94.5t-97.5 250.5q0 153 96.5 249.5t248.5 96.5q111 0 173 -37v-123q-76 44 -168 44t-153.5 -62.5t-61.5 -167.5t61.5 -167t160.5 -62q95 0 162 50v-126zM439 -124q0 -59 -43 -98t-126 -40v78q79 3 79 67q0 29 -25 66h97
q18 -27 18 -73z" />
    <glyph glyph-name="Egrave" unicode="&#xc8;" horiz-adv-x="528" 
d="M472 0h-402v674h398v-103h-271v-183h241v-102h-241v-183h275v-103zM336 723h-101l-116 169h126z" />
    <glyph glyph-name="Eacute" unicode="&#xc9;" horiz-adv-x="528" 
d="M472 0h-402v674h398v-103h-271v-183h241v-102h-241v-183h275v-103zM332 723h-101l91 169h126z" />
    <glyph glyph-name="Ecircumflex" unicode="&#xca;" horiz-adv-x="528" 
d="M472 0h-402v674h398v-103h-271v-183h241v-102h-241v-183h275v-103zM192 723h-117l145 169h106l145 -169h-117l-81 99z" />
    <glyph glyph-name="Edieresis" unicode="&#xcb;" horiz-adv-x="528" 
d="M472 0h-402v674h398v-103h-271v-183h241v-102h-241v-183h275v-103zM463 807q0 -30 -20 -50t-51 -20q-30 0 -50.5 20t-20.5 50q0 29 20.5 49t50.5 20q31 0 51 -20t20 -49zM220 807q0 -30 -20 -50t-50 -20q-31 0 -51 20t-20 50q0 29 20 49t51 20q30 0 50 -20t20 -49z" />
    <glyph glyph-name="Igrave" unicode="&#xcc;" horiz-adv-x="282" 
d="M204 0h-126v674h126v-674zM187 723h-101l-116 169h126z" />
    <glyph glyph-name="Iacute" unicode="&#xcd;" horiz-adv-x="282" 
d="M204 0h-126v674h126v-674zM195 723h-101l91 169h126z" />
    <glyph glyph-name="Icircumflex" unicode="&#xce;" horiz-adv-x="282" 
d="M204 0h-126v674h126v-674zM62 723h-117l145 169h106l145 -169h-117l-81 99z" />
    <glyph glyph-name="Idieresis" unicode="&#xcf;" horiz-adv-x="282" 
d="M204 0h-126v674h126v-674zM338 808q0 -30 -20 -50t-51 -20q-30 0 -50.5 20t-20.5 50q0 29 20.5 49t50.5 20q31 0 51 -20t20 -49zM95 808q0 -30 -20 -50t-50 -20q-31 0 -51 20t-20 50q0 29 20 49t51 20q30 0 50 -20t20 -49z" />
    <glyph glyph-name="Eth" unicode="&#xd0;" horiz-adv-x="742" 
d="M357 0h-220v282h-73v103h73v289h220q151 0 247 -93t96 -235q0 -156 -92.5 -251t-250.5 -95zM418 282h-152v-177h89q106 0 161.5 65.5t55.5 175.5q0 97 -59 159.5t-160 62.5h-87v-183h152v-103z" />
    <glyph glyph-name="Ntilde" unicode="&#xd1;" horiz-adv-x="688" 
d="M196 0h-126v674h143l162 -281q40 -69 71.5 -128.5t42.5 -84.5l11 -25q-8 83 -8 238v281h127v-674h-144l-164 280q-39 66 -70.5 126.5t-43.5 87.5l-12 28q11 -95 11 -241v-281zM292 785q-24 0 -39 -9.5t-33 -34.5l-57 53q16 33 45.5 55.5t65.5 22.5q34 0 75 -19t60 -19
q43 0 64 43l64 -51q-39 -79 -122 -79q-31 0 -69 19t-54 19z" />
    <glyph glyph-name="Ograve" unicode="&#xd2;" horiz-adv-x="723" 
d="M680 339q0 -156 -86.5 -251t-231.5 -95t-232 95t-87 251q0 157 86.5 252t231.5 95q147 0 233 -94.5t86 -252.5zM178 339q0 -106 50 -168t134 -62q85 0 134 61.5t49 168.5t-49 169t-135 62q-85 0 -134 -62t-49 -169zM421 723h-101l-116 169h126z" />
    <glyph glyph-name="Oacute" unicode="&#xd3;" horiz-adv-x="723" 
d="M680 339q0 -156 -86.5 -251t-231.5 -95t-232 95t-87 251q0 157 86.5 252t231.5 95q147 0 233 -94.5t86 -252.5zM178 339q0 -106 50 -168t134 -62q85 0 134 61.5t49 168.5t-49 169t-135 62q-85 0 -134 -62t-49 -169zM417 723h-101l91 169h126z" />
    <glyph glyph-name="Ocircumflex" unicode="&#xd4;" horiz-adv-x="723" 
d="M680 339q0 -156 -86.5 -251t-231.5 -95t-232 95t-87 251q0 157 86.5 252t231.5 95q147 0 233 -94.5t86 -252.5zM178 339q0 -106 50 -168t134 -62q85 0 134 61.5t49 168.5t-49 169t-135 62q-85 0 -134 -62t-49 -169zM286 723h-117l145 169h106l145 -169h-117l-81 99z" />
    <glyph glyph-name="Otilde" unicode="&#xd5;" horiz-adv-x="723" 
d="M680 339q0 -156 -86.5 -251t-231.5 -95t-232 95t-87 251q0 157 86.5 252t231.5 95q147 0 233 -94.5t86 -252.5zM178 339q0 -106 50 -168t134 -62q85 0 134 61.5t49 168.5t-49 169t-135 62q-85 0 -134 -62t-49 -169zM304 785q-24 0 -39 -9.5t-33 -34.5l-57 53
q16 33 45.5 55.5t65.5 22.5q34 0 75 -19t60 -19q43 0 64 43l64 -51q-39 -79 -122 -79q-31 0 -69 19t-54 19z" />
    <glyph glyph-name="Odieresis" unicode="&#xd6;" horiz-adv-x="723" 
d="M680 339q0 -156 -86.5 -251t-231.5 -95t-232 95t-87 251q0 157 86.5 252t231.5 95q147 0 233 -94.5t86 -252.5zM178 339q0 -106 50 -168t134 -62q85 0 134 61.5t49 168.5t-49 169t-135 62q-85 0 -134 -62t-49 -169zM560 809q0 -30 -20 -50t-51 -20q-30 0 -50.5 20
t-20.5 50q0 29 20.5 49t50.5 20q31 0 51 -20t20 -49zM317 809q0 -30 -20 -50t-50 -20q-31 0 -51 20t-20 50q0 29 20 49t51 20q30 0 50 -20t20 -49z" />
    <glyph glyph-name="multiply" unicode="&#xd7;" horiz-adv-x="515" 
d="M465 209l-77 -76l-130 129l-129 -128l-78 78l128 128l-131 131l77 77l131 -131l130 130l79 -78l-130 -130z" />
    <glyph glyph-name="Oslash" unicode="&#xd8;" horiz-adv-x="699" 
d="M676 339q0 -156 -86.5 -251t-231.5 -95q-94 0 -164 41l-31 -42h-123l78 105q-79 93 -79 242q0 157 86.5 252t231.5 95q94 0 167 -42l30 41h123l-78 -105q77 -92 77 -241zM169 339q0 -79 27 -136l258 347q-41 26 -97 26q-87 0 -137.5 -63.5t-50.5 -173.5zM358 103
q87 0 137.5 63.5t50.5 172.5q0 78 -26 135l-256 -346q38 -25 94 -25z" />
    <glyph glyph-name="Ugrave" unicode="&#xd9;" horiz-adv-x="659" 
d="M593 259q0 -131 -70.5 -199.5t-193.5 -68.5q-120 0 -191.5 67.5t-71.5 193.5v422h126v-421q0 -77 38 -111.5t99 -34.5q138 0 138 151v416h126v-415zM386 723h-101l-116 169h126z" />
    <glyph glyph-name="Uacute" unicode="&#xda;" horiz-adv-x="659" 
d="M593 259q0 -131 -70.5 -199.5t-193.5 -68.5q-120 0 -191.5 67.5t-71.5 193.5v422h126v-421q0 -77 38 -111.5t99 -34.5q138 0 138 151v416h126v-415zM393 723h-101l91 169h126z" />
    <glyph glyph-name="Ucircumflex" unicode="&#xdb;" horiz-adv-x="659" 
d="M593 259q0 -131 -70.5 -199.5t-193.5 -68.5q-120 0 -191.5 67.5t-71.5 193.5v422h126v-421q0 -77 38 -111.5t99 -34.5q138 0 138 151v416h126v-415zM248 723h-117l145 169h106l145 -169h-117l-81 99z" />
    <glyph glyph-name="Udieresis" unicode="&#xdc;" horiz-adv-x="659" 
d="M593 259q0 -131 -70.5 -199.5t-193.5 -68.5q-120 0 -191.5 67.5t-71.5 193.5v422h126v-421q0 -77 38 -111.5t99 -34.5q138 0 138 151v416h126v-415zM525 808q0 -30 -20 -50t-51 -20q-30 0 -50.5 20t-20.5 50q0 29 20.5 49t50.5 20q31 0 51 -20t20 -49zM282 808
q0 -30 -20 -50t-50 -20q-31 0 -51 20t-20 50q0 29 20 49t51 20q30 0 50 -20t20 -49z" />
    <glyph glyph-name="Yacute" unicode="&#xdd;" horiz-adv-x="624" 
d="M374 0h-126v246l-230 428h147l45 -98q39 -85 64 -142.5t30 -71.5l6 -15q9 37 103 229l46 98h147l-232 -424v-250zM378 723h-101l91 169h126z" />
    <glyph glyph-name="Thorn" unicode="&#xde;" horiz-adv-x="553" 
d="M281 115h-85v-115h-126v674h126v-115h82q116 0 183.5 -62t67.5 -159q0 -103 -69.5 -163t-178.5 -60zM271 456h-75v-239h79q63 0 94.5 33t31.5 84q0 52 -31 87t-99 35z" />
    <glyph glyph-name="germandbls" unicode="&#xdf;" horiz-adv-x="576" 
d="M553 151q0 -71 -47.5 -115t-128.5 -44q-72 0 -105 19v106q45 -28 95 -28q32 0 52 16t20 43t-23 51.5t-50.5 41t-50.5 46t-23 64.5q0 40 33 88.5t33 77.5q0 30 -20 48t-56 18q-98 0 -98 -102v-481h-118v474q0 105 55.5 160.5t156.5 55.5q91 0 146.5 -48.5t55.5 -115.5
q0 -41 -16 -72t-31.5 -52.5t-15.5 -38.5q0 -15 21.5 -34t46.5 -37.5t46.5 -56t21.5 -84.5z" />
    <glyph glyph-name="agrave" unicode="&#xe0;" horiz-adv-x="507" 
d="M239 85q40 0 62.5 23.5t22.5 61.5v48h-62q-47 0 -72 -19.5t-25 -49.5q0 -64 74 -64zM329 61q-35 -65 -132 -65q-72 0 -114.5 42t-42.5 106q0 72 54 113t156 41h74v31q0 42 -22 64t-75 22q-81 0 -149 -45v111q57 35 164 35q206 0 206 -192v-324h-119v61zM313 556h-101
l-116 169h126z" />
    <glyph glyph-name="aacute" unicode="&#xe1;" horiz-adv-x="507" 
d="M239 85q40 0 62.5 23.5t22.5 61.5v48h-62q-47 0 -72 -19.5t-25 -49.5q0 -64 74 -64zM329 61q-35 -65 -132 -65q-72 0 -114.5 42t-42.5 106q0 72 54 113t156 41h74v31q0 42 -22 64t-75 22q-81 0 -149 -45v111q57 35 164 35q206 0 206 -192v-324h-119v61zM306 556h-101
l91 169h126z" />
    <glyph glyph-name="acircumflex" unicode="&#xe2;" horiz-adv-x="507" 
d="M239 85q40 0 62.5 23.5t22.5 61.5v48h-62q-47 0 -72 -19.5t-25 -49.5q0 -64 74 -64zM329 61q-35 -65 -132 -65q-72 0 -114.5 42t-42.5 106q0 72 54 113t156 41h74v31q0 42 -22 64t-75 22q-81 0 -149 -45v111q57 35 164 35q206 0 206 -192v-324h-119v61zM174 556h-117
l145 169h106l145 -169h-117l-81 99z" />
    <glyph glyph-name="atilde" unicode="&#xe3;" horiz-adv-x="507" 
d="M239 85q40 0 62.5 23.5t22.5 61.5v48h-62q-47 0 -72 -19.5t-25 -49.5q0 -64 74 -64zM329 61q-35 -65 -132 -65q-72 0 -114.5 42t-42.5 106q0 72 54 113t156 41h74v31q0 42 -22 64t-75 22q-81 0 -149 -45v111q57 35 164 35q206 0 206 -192v-324h-119v61zM196 618
q-24 0 -39 -9.5t-33 -34.5l-57 53q16 33 45.5 55.5t65.5 22.5q34 0 75 -19t60 -19q43 0 64 43l64 -51q-39 -79 -122 -79q-31 0 -69 19t-54 19z" />
    <glyph glyph-name="adieresis" unicode="&#xe4;" horiz-adv-x="507" 
d="M239 85q40 0 62.5 23.5t22.5 61.5v48h-62q-47 0 -72 -19.5t-25 -49.5q0 -64 74 -64zM329 61q-35 -65 -132 -65q-72 0 -114.5 42t-42.5 106q0 72 54 113t156 41h74v31q0 42 -22 64t-75 22q-81 0 -149 -45v111q57 35 164 35q206 0 206 -192v-324h-119v61zM452 640
q0 -30 -20 -50t-51 -20q-30 0 -50.5 20t-20.5 50q0 29 20.5 49t50.5 20q31 0 51 -20t20 -49zM209 640q0 -30 -20 -50t-50 -20q-31 0 -51 20t-20 50q0 29 20 49t51 20q30 0 50 -20t20 -49z" />
    <glyph glyph-name="aring" unicode="&#xe5;" horiz-adv-x="507" 
d="M239 85q40 0 62.5 23.5t22.5 61.5v48h-62q-47 0 -72 -19.5t-25 -49.5q0 -64 74 -64zM329 61q-35 -65 -132 -65q-72 0 -114.5 42t-42.5 106q0 72 54 113t156 41h74v31q0 42 -22 64t-75 22q-81 0 -149 -45v111q57 35 164 35q206 0 206 -192v-324h-119v61zM383 670
q0 -52 -36.5 -88.5t-88.5 -36.5t-88.5 36.5t-36.5 88.5t36.5 88.5t88.5 36.5t88.5 -36.5t36.5 -88.5zM205 672q0 -22 15 -38.5t38 -16.5t38 16.5t15 38.5t-15 38.5t-38 16.5t-38 -16.5t-15 -38.5z" />
    <glyph glyph-name="ae" unicode="&#xe6;" horiz-adv-x="812" 
d="M394 92q-18 -41 -62.5 -68.5t-114.5 -27.5q-81 0 -126.5 39.5t-45.5 107.5q0 73 54.5 114t156.5 41h73v31q0 42 -22 64t-75 22q-83 0 -149 -45v111q60 35 157 35q119 0 155 -81q52 77 164 77q100 0 156.5 -60t56.5 -177q0 -26 -7 -70h-316q13 -54 55 -83.5t101 -29.5
q79 0 134 40v-104q-54 -33 -147 -33q-60 0 -114.5 25t-83.5 72zM170 149q0 -63 74 -63q38 0 61.5 23.5t23.5 63.5v44h-57q-49 0 -75.5 -18t-26.5 -50zM562 418q-42 0 -74.5 -31.5t-41.5 -91.5h212v14q-2 51 -26.5 80t-69.5 29z" />
    <glyph glyph-name="ccedilla" unicode="&#xe7;" horiz-adv-x="470" 
d="M432 22q-53 -31 -132 -31q-117 0 -189.5 74t-72.5 187q1 111 72.5 187t195.5 76q74 0 126 -28v-106q-50 32 -114 32q-70 0 -113 -44t-44 -117q2 -72 43.5 -116t112.5 -44q62 0 115 34v-104zM358 -124q0 -59 -43 -98t-126 -40v78q79 3 79 67q0 29 -25 66h97q18 -27 18 -73
z" />
    <glyph glyph-name="egrave" unicode="&#xe8;" horiz-adv-x="529" 
d="M452 28q-53 -33 -153 -33q-121 0 -191 72t-70 186q0 121 66 190t165 69t157 -60t58 -175q0 -28 -7 -72h-318q13 -55 54.5 -84t103.5 -29q80 0 135 40v-104zM272 418q-43 0 -74.5 -31.5t-40.5 -91.5h213v15q-2 49 -26.5 78.5t-71.5 29.5zM329 556h-101l-116 169h126z" />
    <glyph glyph-name="eacute" unicode="&#xe9;" horiz-adv-x="529" 
d="M452 28q-53 -33 -153 -33q-121 0 -191 72t-70 186q0 121 66 190t165 69t157 -60t58 -175q0 -28 -7 -72h-318q13 -55 54.5 -84t103.5 -29q80 0 135 40v-104zM272 418q-43 0 -74.5 -31.5t-40.5 -91.5h213v15q-2 49 -26.5 78.5t-71.5 29.5zM336 556h-101l91 169h126z" />
    <glyph glyph-name="ecircumflex" unicode="&#xea;" horiz-adv-x="529" 
d="M452 28q-53 -33 -153 -33q-121 0 -191 72t-70 186q0 121 66 190t165 69t157 -60t58 -175q0 -28 -7 -72h-318q13 -55 54.5 -84t103.5 -29q80 0 135 40v-104zM272 418q-43 0 -74.5 -31.5t-40.5 -91.5h213v15q-2 49 -26.5 78.5t-71.5 29.5zM193 556h-117l145 169h106
l145 -169h-117l-81 99z" />
    <glyph glyph-name="edieresis" unicode="&#xeb;" horiz-adv-x="529" 
d="M452 28q-53 -33 -153 -33q-121 0 -191 72t-70 186q0 121 66 190t165 69t157 -60t58 -175q0 -28 -7 -72h-318q13 -55 54.5 -84t103.5 -29q80 0 135 40v-104zM272 418q-43 0 -74.5 -31.5t-40.5 -91.5h213v15q-2 49 -26.5 78.5t-71.5 29.5zM475 641q0 -30 -20 -50t-51 -20
q-30 0 -50.5 20t-20.5 50q0 29 20.5 49t50.5 20q31 0 51 -20t20 -49zM232 641q0 -30 -20 -50t-50 -20q-31 0 -51 20t-20 50q0 29 20 49t51 20q30 0 50 -20t20 -49z" />
    <glyph glyph-name="igrave" unicode="&#xec;" horiz-adv-x="260" 
d="M190 0h-120v507h120v-507zM172 556h-101l-116 169h126z" />
    <glyph glyph-name="iacute" unicode="&#xed;" horiz-adv-x="260" 
d="M190 0h-120v507h120v-507zM187 556h-101l91 169h126z" />
    <glyph glyph-name="icircumflex" unicode="&#xee;" horiz-adv-x="260" 
d="M190 0h-120v507h120v-507zM50 556h-117l145 169h106l145 -169h-117l-81 99z" />
    <glyph glyph-name="idieresis" unicode="&#xef;" horiz-adv-x="260" 
d="M190 0h-120v507h120v-507zM323 642q0 -30 -20 -50t-51 -20q-30 0 -50.5 20t-20.5 50q0 29 20.5 49t50.5 20q31 0 51 -20t20 -49zM80 642q0 -30 -20 -50t-50 -20q-31 0 -51 20t-20 50q0 29 20 49t51 20q30 0 50 -20t20 -49z" />
    <glyph glyph-name="eth" unicode="&#xf0;" horiz-adv-x="542" 
d="M495 282q0 -136 -60.5 -214t-172.5 -78q-104 0 -165 62.5t-61 150.5q0 92 55.5 146.5t139.5 54.5q85 0 141 -56q-14 91 -72 173l-141 -71v74l98 49q-50 53 -128 101h161q32 -21 64 -53l117 58v-73l-74 -37q98 -132 98 -287zM261 99q103 0 114 144q-49 57 -117 57
q-45 0 -71.5 -27.5t-26.5 -76.5q0 -44 27.5 -70.5t73.5 -26.5z" />
    <glyph glyph-name="ntilde" unicode="&#xf1;" horiz-adv-x="565" 
d="M505 0h-120v312q0 50 -24 75.5t-65 25.5q-47 0 -79 -36.5t-32 -104.5v-272h-120v507h120v-87q43 93 156 93q76 0 120 -46t44 -130v-337zM229 618q-24 0 -39 -9.5t-33 -34.5l-57 53q16 33 45.5 55.5t65.5 22.5q34 0 75 -19t60 -19q43 0 64 43l64 -51q-39 -79 -122 -79
q-30 0 -69 19t-54 19z" />
    <glyph glyph-name="ograve" unicode="&#xf2;" horiz-adv-x="565" 
d="M527 255q0 -115 -64.5 -189t-180.5 -74q-115 0 -179.5 72t-64.5 184q0 116 67 191.5t177 75.5q117 0 181 -73.5t64 -186.5zM164 252q0 -70 31 -117t88 -47q59 0 89 46t30 117q0 73 -29 119.5t-91 46.5q-57 0 -87.5 -47t-30.5 -118zM340 556h-101l-116 169h126z" />
    <glyph glyph-name="oacute" unicode="&#xf3;" horiz-adv-x="565" 
d="M527 255q0 -115 -64.5 -189t-180.5 -74q-115 0 -179.5 72t-64.5 184q0 116 67 191.5t177 75.5q117 0 181 -73.5t64 -186.5zM164 252q0 -70 31 -117t88 -47q59 0 89 46t30 117q0 73 -29 119.5t-91 46.5q-57 0 -87.5 -47t-30.5 -118zM345 556h-101l91 169h126z" />
    <glyph glyph-name="ocircumflex" unicode="&#xf4;" horiz-adv-x="565" 
d="M527 255q0 -115 -64.5 -189t-180.5 -74q-115 0 -179.5 72t-64.5 184q0 116 67 191.5t177 75.5q117 0 181 -73.5t64 -186.5zM164 252q0 -70 31 -117t88 -47q59 0 89 46t30 117q0 73 -29 119.5t-91 46.5q-57 0 -87.5 -47t-30.5 -118zM205 555h-117l145 169h106l145 -169
h-117l-81 99z" />
    <glyph glyph-name="otilde" unicode="&#xf5;" horiz-adv-x="565" 
d="M527 255q0 -115 -64.5 -189t-180.5 -74q-115 0 -179.5 72t-64.5 184q0 116 67 191.5t177 75.5q117 0 181 -73.5t64 -186.5zM164 252q0 -70 31 -117t88 -47q59 0 89 46t30 117q0 73 -29 119.5t-91 46.5q-57 0 -87.5 -47t-30.5 -118zM228 618q-24 0 -39 -9.5t-33 -34.5
l-57 53q16 33 45.5 55.5t65.5 22.5q34 0 75 -19t60 -19q43 0 64 43l64 -51q-39 -79 -122 -79q-31 0 -69 19t-54 19z" />
    <glyph glyph-name="odieresis" unicode="&#xf6;" horiz-adv-x="565" 
d="M527 255q0 -115 -64.5 -189t-180.5 -74q-115 0 -179.5 72t-64.5 184q0 116 67 191.5t177 75.5q117 0 181 -73.5t64 -186.5zM164 252q0 -70 31 -117t88 -47q59 0 89 46t30 117q0 73 -29 119.5t-91 46.5q-57 0 -87.5 -47t-30.5 -118zM485 641q0 -30 -20 -50t-51 -20
q-30 0 -50.5 20t-20.5 50q0 29 20.5 49t50.5 20q31 0 51 -20t20 -49zM242 641q0 -30 -20 -50t-50 -20q-31 0 -51 20t-20 50q0 29 20 49t51 20q30 0 50 -20t20 -49z" />
    <glyph glyph-name="divide" unicode="&#xf7;" horiz-adv-x="576" 
d="M526 286h-476v108h476v-108zM352 163q0 -27 -20 -47t-47 -20q-28 0 -47.5 20t-19.5 47t19.5 47t47.5 20q27 0 47 -20t20 -47zM352 517q0 -27 -20 -47t-47 -20q-28 0 -47.5 20t-19.5 47t19.5 47t47.5 20q27 0 47 -20t20 -47z" />
    <glyph glyph-name="oslash" unicode="&#xf8;" horiz-adv-x="562" 
d="M532 255q0 -115 -64.5 -189t-180.5 -74q-69 0 -119 26l-19 -26h-106l58 79q-58 70 -58 177q0 115 67 191t177 76q69 0 119 -26l19 26h107l-58 -80q58 -72 58 -180zM155 252q0 -48 15 -87l181 249q-25 15 -64 15q-64 0 -98 -50.5t-34 -126.5zM288 76q65 0 98.5 49
t33.5 126q0 54 -14 92l-182 -249q27 -18 64 -18z" />
    <glyph glyph-name="ugrave" unicode="&#xf9;" horiz-adv-x="565" 
d="M500 0h-121v83q-40 -88 -156 -88q-77 0 -120 44t-43 125v343h120v-315q0 -48 23.5 -73t64.5 -25q52 0 81.5 35t29.5 106v272h121v-507zM333 555h-101l-116 169h126z" />
    <glyph glyph-name="uacute" unicode="&#xfa;" horiz-adv-x="565" 
d="M500 0h-121v83q-40 -88 -156 -88q-77 0 -120 44t-43 125v343h120v-315q0 -48 23.5 -73t64.5 -25q52 0 81.5 35t29.5 106v272h121v-507zM340 556h-101l91 169h126z" />
    <glyph glyph-name="ucircumflex" unicode="&#xfb;" horiz-adv-x="565" 
d="M500 0h-121v83q-40 -88 -156 -88q-77 0 -120 44t-43 125v343h120v-315q0 -48 23.5 -73t64.5 -25q52 0 81.5 35t29.5 106v272h121v-507zM200 556h-117l145 169h106l145 -169h-117l-81 99z" />
    <glyph glyph-name="udieresis" unicode="&#xfc;" horiz-adv-x="565" 
d="M500 0h-121v83q-40 -88 -156 -88q-77 0 -120 44t-43 125v343h120v-315q0 -48 23.5 -73t64.5 -25q52 0 81.5 35t29.5 106v272h121v-507zM473 641q0 -30 -20 -50t-51 -20q-30 0 -50.5 20t-20.5 50q0 29 20.5 49t50.5 20q31 0 51 -20t20 -49zM230 641q0 -30 -20 -50t-50 -20
q-31 0 -51 20t-20 50q0 29 20 49t51 20q30 0 50 -20t20 -49z" />
    <glyph glyph-name="yacute" unicode="&#xfd;" horiz-adv-x="517" 
d="M325 14q-76 -203 -232 -203q-29 0 -50 5v99q16 -4 34 -4q91 0 129 99l-200 497h133l59 -162q27 -72 43.5 -121t20.5 -62l3 -14q10 35 64 197l53 162h126zM325 556h-101l91 169h126z" />
    <glyph glyph-name="thorn" unicode="&#xfe;" horiz-adv-x="594" 
d="M185 -191h-120v898h120v-278q54 85 155 85q99 0 157.5 -71t58.5 -187q0 -114 -58.5 -188.5t-158.5 -74.5q-102 0 -154 83v-267zM185 257q0 -77 37 -119t89 -42q54 0 88 41.5t34 116.5t-34 116.5t-86 41.5t-90 -39t-38 -116z" />
    <glyph glyph-name="ydieresis" unicode="&#xff;" horiz-adv-x="517" 
d="M325 14q-76 -203 -232 -203q-29 0 -50 5v99q16 -4 34 -4q91 0 129 99l-200 497h133l59 -162q27 -72 43.5 -121t20.5 -62l3 -14q10 35 64 197l53 162h126zM460 641q0 -30 -20 -50t-51 -20q-30 0 -50.5 20t-20.5 50q0 29 20.5 49t50.5 20q31 0 51 -20t20 -49zM217 641
q0 -30 -20 -50t-50 -20q-31 0 -51 20t-20 50q0 29 20 49t51 20q30 0 50 -20t20 -49z" />
    <glyph glyph-name="Amacron" unicode="&#x100;" horiz-adv-x="674" 
d="M250 285l-9 -29h190l-9 30q-34 108 -55.5 181.5t-26.5 92.5l-4 20q-9 -50 -86 -295zM160 0h-132l228 674h163l228 -674h-136l-48 153h-255zM505 767h-328v83h328v-83z" />
    <glyph glyph-name="amacron" unicode="&#x101;" horiz-adv-x="507" 
d="M239 85q40 0 62.5 23.5t22.5 61.5v48h-62q-47 0 -72 -19.5t-25 -49.5q0 -64 74 -64zM329 61q-35 -65 -132 -65q-72 0 -114.5 42t-42.5 106q0 72 54 113t156 41h74v31q0 42 -22 64t-75 22q-81 0 -149 -45v111q57 35 164 35q206 0 206 -192v-324h-119v61zM418 599h-328v83
h328v-83z" />
    <glyph glyph-name="Abreve" unicode="&#x102;" horiz-adv-x="674" 
d="M250 285l-9 -29h190l-9 30q-34 108 -55.5 181.5t-26.5 92.5l-4 20q-9 -50 -86 -295zM160 0h-132l228 674h163l228 -674h-136l-48 153h-255zM521 892q0 -86 -49.5 -129.5t-135.5 -43.5t-135.5 44t-49.5 129h94q0 -43 23.5 -68.5t67.5 -25.5t67.5 25.5t23.5 68.5h94z" />
    <glyph glyph-name="abreve" unicode="&#x103;" horiz-adv-x="507" 
d="M239 85q40 0 62.5 23.5t22.5 61.5v48h-62q-47 0 -72 -19.5t-25 -49.5q0 -64 74 -64zM329 61q-35 -65 -132 -65q-72 0 -114.5 42t-42.5 106q0 72 54 113t156 41h74v31q0 42 -22 64t-75 22q-81 0 -149 -45v111q57 35 164 35q206 0 206 -192v-324h-119v61zM439 724
q0 -86 -49.5 -129.5t-135.5 -43.5t-135.5 44t-49.5 129h94q0 -43 23.5 -68.5t67.5 -25.5t67.5 25.5t23.5 68.5h94z" />
    <glyph glyph-name="Aogonek" unicode="&#x104;" horiz-adv-x="667" 
d="M246 285l-9 -29h191l-9 30q-34 108 -55.5 181.5t-25.5 92.5l-5 20q-10 -50 -87 -295zM658 -230q-40 -23 -97 -23q-66 0 -99 32t-33 82q0 78 77 144l-46 148h-255l-48 -153h-133l229 674h163l227 -674q-116 -67 -116 -128q0 -44 51 -44q41 0 80 27v-85z" />
    <glyph glyph-name="aogonek" unicode="&#x105;" horiz-adv-x="504" 
d="M239 86q39 0 62 23t23 59v49h-57q-49 0 -75.5 -18t-26.5 -50q0 -63 74 -63zM463 -230q-40 -23 -98 -23q-65 0 -98 32t-33 82q0 85 95 151v50q-41 -66 -132 -66q-73 0 -115 41t-42 106q0 73 54.5 114t156.5 41h73v31q0 42 -22 64t-75 22q-83 0 -149 -45v111q60 35 164 35
q206 0 206 -192v-324q-116 -66 -116 -128q0 -44 51 -44q39 0 80 27v-85z" />
    <glyph glyph-name="Cacute" unicode="&#x106;" horiz-adv-x="609" 
d="M562 32q-62 -40 -174 -40q-150 0 -247.5 94.5t-97.5 250.5q0 153 96.5 249.5t248.5 96.5q111 0 173 -37v-123q-76 44 -168 44t-153.5 -62.5t-61.5 -167.5t61.5 -167t160.5 -62q95 0 162 50v-126zM415 723h-101l91 169h126z" />
    <glyph glyph-name="cacute" unicode="&#x107;" horiz-adv-x="470" 
d="M432 22q-53 -31 -132 -31q-117 0 -189.5 74t-72.5 187q1 111 72.5 187t195.5 76q74 0 126 -28v-106q-50 32 -114 32q-70 0 -113 -44t-44 -117q2 -72 43.5 -116t112.5 -44q62 0 115 34v-104zM347 555h-101l91 169h126z" />
    <glyph glyph-name="Ccaron" unicode="&#x10c;" horiz-adv-x="609" 
d="M562 32q-62 -40 -174 -40q-150 0 -247.5 94.5t-97.5 250.5q0 153 96.5 249.5t248.5 96.5q111 0 173 -37v-123q-76 44 -168 44t-153.5 -62.5t-61.5 -167.5t61.5 -167t160.5 -62q95 0 162 50v-126zM420 723h-106l-145 169h117l81 -99l81 99h117z" />
    <glyph glyph-name="ccaron" unicode="&#x10d;" horiz-adv-x="470" 
d="M432 22q-53 -31 -132 -31q-117 0 -189.5 74t-72.5 187q1 111 72.5 187t195.5 76q74 0 126 -28v-106q-50 32 -114 32q-70 0 -113 -44t-44 -117q2 -72 43.5 -116t112.5 -44q62 0 115 34v-104zM328 556h-106l-145 169h117l81 -99l81 99h117z" />
    <glyph glyph-name="Dcaron" unicode="&#x10e;" horiz-adv-x="675" 
d="M290 0h-220v674h220q151 0 247 -93t96 -235q0 -155 -93 -250.5t-250 -95.5zM286 568h-87v-463h89q106 0 161 65.5t55 175.5q0 97 -58.5 159.5t-159.5 62.5zM368 723h-106l-145 169h117l81 -99l81 99h117z" />
    <glyph glyph-name="dcaron" unicode="&#x10f;" horiz-adv-x="713" 
d="M161 251q0 -69 35 -112t87 -43q54 0 90 41.5t36 120.5q0 77 -38 115.5t-87 38.5q-52 0 -87.5 -42.5t-35.5 -118.5zM529 0h-120v79q-52 -86 -154 -86q-100 0 -158.5 76t-58.5 184q0 120 61.5 190.5t157.5 70.5q99 0 152 -85v278h120v-707zM671 504h-90l76 204h129z" />
    <glyph glyph-name="Dcroat" unicode="&#x110;" horiz-adv-x="742" 
d="M357 0h-220v282h-73v103h73v289h220q151 0 247 -93t96 -235q0 -156 -92.5 -251t-250.5 -95zM418 282h-152v-177h89q106 0 161.5 65.5t55.5 175.5q0 97 -59 159.5t-160 62.5h-87v-183h152v-103z" />
    <glyph glyph-name="dcroat" unicode="&#x111;" horiz-adv-x="594" 
d="M161 251q0 -69 35 -112t87 -43q54 0 90 41.5t36 120.5q0 77 -38 115.5t-87 38.5q-52 0 -87.5 -42.5t-35.5 -118.5zM529 0h-120v79q-52 -86 -154 -86q-100 0 -158.5 76t-58.5 184q0 120 61.5 190.5t157.5 70.5q99 0 152 -85v144h-167v72h167v62h120v-62h63v-72h-63v-573z
" />
    <glyph glyph-name="Emacron" unicode="&#x112;" horiz-adv-x="528" 
d="M472 0h-402v674h398v-103h-271v-183h241v-102h-241v-183h275v-103zM433 769h-328v83h328v-83z" />
    <glyph glyph-name="emacron" unicode="&#x113;" horiz-adv-x="529" 
d="M452 28q-53 -33 -153 -33q-121 0 -191 72t-70 186q0 121 66 190t165 69t157 -60t58 -175q0 -28 -7 -72h-318q13 -55 54.5 -84t103.5 -29q80 0 135 40v-104zM272 418q-43 0 -74.5 -31.5t-40.5 -91.5h213v15q-2 49 -26.5 78.5t-71.5 29.5zM436 599h-328v83h328v-83z" />
    <glyph glyph-name="Edotaccent" unicode="&#x116;" horiz-adv-x="528" 
d="M472 0h-402v674h398v-103h-271v-183h241v-102h-241v-183h275v-103zM349 809q0 -30 -20 -50t-50 -20q-31 0 -51 20t-20 50q0 29 20 49t51 20q30 0 50 -20t20 -49z" />
    <glyph glyph-name="edotaccent" unicode="&#x117;" horiz-adv-x="529" 
d="M452 28q-53 -33 -153 -33q-121 0 -191 72t-70 186q0 121 66 190t165 69t157 -60t58 -175q0 -28 -7 -72h-318q13 -55 54.5 -84t103.5 -29q80 0 135 40v-104zM272 418q-43 0 -74.5 -31.5t-40.5 -91.5h213v15q-2 49 -26.5 78.5t-71.5 29.5zM351 642q0 -30 -20 -50t-50 -20
q-31 0 -51 20t-20 50q0 29 20 49t51 20q30 0 50 -20t20 -49z" />
    <glyph glyph-name="Eogonek" unicode="&#x118;" horiz-adv-x="528" 
d="M454 -230q-41 -23 -98 -23q-66 0 -99 32t-33 82q0 77 79 139h-233v674h398v-103h-271v-183h241v-102h-241v-183h275v-103h-34q-116 -67 -116 -128q0 -44 52 -44q39 0 80 27v-85z" />
    <glyph glyph-name="eogonek" unicode="&#x119;" horiz-adv-x="529" 
d="M272 418q-43 0 -74.5 -31.5t-40.5 -91.5h213v15q-2 49 -26.5 78.5t-71.5 29.5zM431 -215q-41 -23 -98 -23q-66 0 -99 32t-33 82q0 65 59 121q-104 12 -163 81.5t-59 174.5q0 121 66 190t165 69t157 -60t58 -175q0 -28 -7 -72h-318q13 -55 54.5 -84t103.5 -29q80 0 135 40
v-104q-20 -12 -48 -20q-105 -63 -105 -121q0 -44 52 -44q39 0 80 27v-85z" />
    <glyph glyph-name="Ecaron" unicode="&#x11a;" horiz-adv-x="528" 
d="M472 0h-402v674h398v-103h-271v-183h241v-102h-241v-183h275v-103zM329 723h-106l-145 169h117l81 -99l81 99h117z" />
    <glyph glyph-name="ecaron" unicode="&#x11b;" horiz-adv-x="529" 
d="M452 28q-53 -33 -153 -33q-121 0 -191 72t-70 186q0 121 66 190t165 69t157 -60t58 -175q0 -28 -7 -72h-318q13 -55 54.5 -84t103.5 -29q80 0 135 40v-104zM272 418q-43 0 -74.5 -31.5t-40.5 -91.5h213v15q-2 49 -26.5 78.5t-71.5 29.5zM326 556h-106l-145 169h117
l81 -99l81 99h117z" />
    <glyph glyph-name="Gbreve" unicode="&#x11e;" horiz-adv-x="693" 
d="M630 58q-92 -66 -230 -66q-160 0 -258.5 93t-98.5 253q0 156 101.5 252t256.5 96q115 0 197 -43v-129q-92 55 -195 55q-101 0 -163 -63t-62 -168q0 -107 60.5 -168.5t166.5 -61.5q52 0 101 18v159h-124v108h248v-324h-1zM559 892q0 -86 -49.5 -129.5t-135.5 -43.5
t-135.5 44t-49.5 129h94q0 -43 23.5 -68.5t67.5 -25.5t67.5 25.5t23.5 68.5h94z" />
    <glyph glyph-name="gbreve" unicode="&#x11f;" horiz-adv-x="571" 
d="M512 46q0 -120 -69.5 -180.5t-176.5 -60.5q-100 0 -175 36v122q68 -48 163 -48q138 0 138 132v44q-46 -75 -144 -75q-85 0 -145.5 62.5t-60.5 181.5q0 110 57.5 181.5t151.5 71.5q95 0 141 -79v73h120v-461zM167 260q0 -71 31 -108.5t79 -37.5q49 0 82 38.5t33 100.5
q0 81 -32 119t-81 38q-52 0 -82 -40.5t-30 -109.5zM489 725q0 -86 -49.5 -129.5t-135.5 -43.5t-135.5 44t-49.5 129h94q0 -43 23.5 -68.5t67.5 -25.5t67.5 25.5t23.5 68.5h94z" />
    <glyph glyph-name="uni0122" unicode="&#x122;" horiz-adv-x="693" 
d="M630 58q-92 -66 -230 -66q-160 0 -258.5 93t-98.5 253q0 156 101.5 252t256.5 96q115 0 197 -43v-129q-92 55 -195 55q-101 0 -163 -63t-62 -168q0 -107 60.5 -168.5t166.5 -61.5q52 0 101 18v159h-124v108h248v-324h-1zM325 -255h-90l76 204h129z" />
    <glyph glyph-name="uni0123" unicode="&#x123;" horiz-adv-x="571" 
d="M512 46q0 -120 -69.5 -180.5t-176.5 -60.5q-100 0 -175 36v122q68 -48 163 -48q138 0 138 132v44q-46 -75 -144 -75q-85 0 -145.5 62.5t-60.5 181.5q0 110 57.5 181.5t151.5 71.5q95 0 141 -79v73h120v-461zM167 260q0 -71 31 -108.5t79 -37.5q49 0 82 38.5t33 100.5
q0 81 -32 119t-81 38q-52 0 -82 -40.5t-30 -109.5zM382 556h-128l114 204h90z" />
    <glyph glyph-name="Imacron" unicode="&#x12a;" horiz-adv-x="282" 
d="M204 0h-126v674h126v-674zM305 766h-328v83h328v-83z" />
    <glyph glyph-name="imacron" unicode="&#x12b;" horiz-adv-x="260" 
d="M190 0h-120v507h120v-507zM294 599h-328v83h328v-83z" />
    <glyph glyph-name="Iogonek" unicode="&#x12e;" horiz-adv-x="282" 
d="M220 -230q-41 -23 -98 -23q-66 0 -99 32t-33 82q0 79 88 146v667h126v-674q-116 -67 -116 -128q0 -44 52 -44q40 0 80 27v-85z" />
    <glyph glyph-name="iogonek" unicode="&#x12f;" horiz-adv-x="260" 
d="M202 659q0 -31 -21 -52t-51 -21t-51 21t-21 52q0 30 21 51t51 21t51 -21t21 -51zM206 -230q-41 -23 -98 -23q-66 0 -99 32t-33 82q0 85 94 150v496h120v-507q-116 -67 -116 -128q0 -44 52 -44q39 0 80 27v-85z" />
    <glyph glyph-name="Idotaccent" unicode="&#x130;" horiz-adv-x="282" 
d="M204 0h-126v674h126v-674zM213 809q0 -30 -20 -50t-50 -20q-31 0 -51 20t-20 50q0 29 20 49t51 20q30 0 50 -20t20 -49z" />
    <glyph glyph-name="dotlessi" unicode="&#x131;" horiz-adv-x="260" 
d="M190 0h-120v507h120v-507z" />
    <glyph glyph-name="uni0136" unicode="&#x136;" horiz-adv-x="628" 
d="M607 0h-159l-242 334l233 340h151l-234 -338zM270 -255h-90l76 204h129zM196 0h-126v674h126v-674z" />
    <glyph glyph-name="uni0137" unicode="&#x137;" horiz-adv-x="522" 
d="M185 0h-120v695h120v-426l179 238h140l-186 -242l190 -265h-141l-182 262v-262zM227 -255h-91l76 204h129z" />
    <glyph glyph-name="Lacute" unicode="&#x139;" horiz-adv-x="484" 
d="M459 0h-389v674h126v-562h263v-112zM357 723h-101l91 169h126z" />
    <glyph glyph-name="lacute" unicode="&#x13a;" horiz-adv-x="260" 
d="M190 0h-120v707h120v-707zM179 756h-101l91 169h126z" />
    <glyph glyph-name="uni013B" unicode="&#x13b;" horiz-adv-x="484" 
d="M229 -255h-90l76 204h129zM459 0h-389v674h126v-562h263v-112z" />
    <glyph glyph-name="uni013C" unicode="&#x13c;" horiz-adv-x="260" 
d="M190 0h-120v707h120v-707zM79 -255h-91l76 204h129z" />
    <glyph glyph-name="Lcaron" unicode="&#x13d;" horiz-adv-x="484" 
d="M459 0h-389v674h126v-562h263v-112zM358 496h-91l76 204h129z" />
    <glyph glyph-name="lcaron" unicode="&#x13e;" horiz-adv-x="269" 
d="M190 0h-120v707h120v-707zM342 505h-90l76 203h128z" />
    <glyph glyph-name="Lslash" unicode="&#x141;" horiz-adv-x="539" 
d="M399 391l-158 -95v-184h263v-112h-390v219l-75 -45v105l75 45v350h127v-273l158 95v-105z" />
    <glyph glyph-name="lslash" unicode="&#x142;" horiz-adv-x="322" 
d="M222 0h-120v278l-74 -51v105l74 51v324h120v-241l83 57v-105l-83 -57v-361z" />
    <glyph glyph-name="Nacute" unicode="&#x143;" horiz-adv-x="688" 
d="M196 0h-126v674h143l162 -281q40 -69 71.5 -128.5t42.5 -84.5l11 -25q-8 83 -8 238v281h127v-674h-144l-164 280q-39 66 -70.5 126.5t-43.5 87.5l-12 28q11 -95 11 -241v-281zM412 723h-101l91 169h126z" />
    <glyph glyph-name="nacute" unicode="&#x144;" horiz-adv-x="565" 
d="M505 0h-120v312q0 50 -24 75.5t-65 25.5q-47 0 -79 -36.5t-32 -104.5v-272h-120v507h120v-87q43 93 156 93q76 0 120 -46t44 -130v-337zM362 556h-101l91 169h126z" />
    <glyph glyph-name="uni0145" unicode="&#x145;" horiz-adv-x="688" 
d="M196 0h-126v674h143l162 -281q40 -69 71.5 -128.5t42.5 -84.5l11 -25q-8 83 -8 238v281h127v-674h-144l-164 280q-39 66 -70.5 126.5t-43.5 87.5l-12 28q11 -95 11 -241v-281zM303 -255h-91l76 204h129z" />
    <glyph glyph-name="uni0146" unicode="&#x146;" horiz-adv-x="565" 
d="M505 0h-120v312q0 50 -24 75.5t-65 25.5q-47 0 -79 -36.5t-32 -104.5v-272h-120v507h120v-87q43 93 156 93q76 0 120 -46t44 -130v-337zM239 -255h-90l76 204h129z" />
    <glyph glyph-name="Ncaron" unicode="&#x147;" horiz-adv-x="688" 
d="M196 0h-126v674h143l162 -281q40 -69 71.5 -128.5t42.5 -84.5l11 -25q-8 83 -8 238v281h127v-674h-144l-164 280q-39 66 -70.5 126.5t-43.5 87.5l-12 28q11 -95 11 -241v-281zM406 723h-106l-145 169h117l81 -99l81 99h117z" />
    <glyph glyph-name="ncaron" unicode="&#x148;" horiz-adv-x="565" 
d="M505 0h-120v312q0 50 -24 75.5t-65 25.5q-47 0 -79 -36.5t-32 -104.5v-272h-120v507h120v-87q43 93 156 93q76 0 120 -46t44 -130v-337zM348 556h-106l-145 169h117l81 -99l81 99h117z" />
    <glyph glyph-name="Omacron" unicode="&#x14c;" horiz-adv-x="723" 
d="M680 339q0 -156 -86.5 -251t-231.5 -95t-232 95t-87 251q0 157 86.5 252t231.5 95q147 0 233 -94.5t86 -252.5zM178 339q0 -106 50 -168t134 -62q85 0 134 61.5t49 168.5t-49 169t-135 62q-85 0 -134 -62t-49 -169zM525 766h-328v83h328v-83z" />
    <glyph glyph-name="omacron" unicode="&#x14d;" horiz-adv-x="565" 
d="M527 255q0 -115 -64.5 -189t-180.5 -74q-115 0 -179.5 72t-64.5 184q0 116 67 191.5t177 75.5q117 0 181 -73.5t64 -186.5zM164 252q0 -70 31 -117t88 -47q59 0 89 46t30 117q0 73 -29 119.5t-91 46.5q-57 0 -87.5 -47t-30.5 -118zM448 599h-328v83h328v-83z" />
    <glyph glyph-name="Ohungarumlaut" unicode="&#x150;" horiz-adv-x="723" 
d="M680 339q0 -156 -86.5 -251t-231.5 -95t-232 95t-87 251q0 157 86.5 252t231.5 95q147 0 233 -94.5t86 -252.5zM178 339q0 -106 50 -168t134 -62q85 0 134 61.5t49 168.5t-49 169t-135 62q-85 0 -134 -62t-49 -169zM505 723h-91l97 169h126zM329 723h-90l90 169h117z" />
    <glyph glyph-name="ohungarumlaut" unicode="&#x151;" horiz-adv-x="565" 
d="M527 255q0 -115 -64.5 -189t-180.5 -74q-115 0 -179.5 72t-64.5 184q0 116 67 191.5t177 75.5q117 0 181 -73.5t64 -186.5zM164 252q0 -70 31 -117t88 -47q59 0 89 46t30 117q0 73 -29 119.5t-91 46.5q-57 0 -87.5 -47t-30.5 -118zM433 556h-91l97 169h126zM257 556h-90
l90 169h117z" />
    <glyph glyph-name="OE" unicode="&#x152;" horiz-adv-x="994" 
d="M178 339q0 -107 47.5 -168.5t131.5 -61.5q85 0 131.5 61.5t46.5 168.5q0 108 -47 169.5t-132 61.5q-84 0 -131 -62t-47 -169zM938 0h-403v58q-76 -65 -178 -65q-145 0 -229.5 94.5t-84.5 251.5t84.5 252t228.5 95q104 0 179 -64v52h399v-103h-278v-183h248v-102h-248
v-183h282v-103z" />
    <glyph glyph-name="oe" unicode="&#x153;" horiz-adv-x="884" 
d="M164 252q0 -70 30 -117t86 -47q59 0 89 46t30 117q0 73 -29 119.5t-91 46.5q-57 0 -86 -46.5t-29 -118.5zM634 418q-43 0 -75 -31t-41 -92h212v21q-3 48 -27.5 75t-68.5 27zM812 28q-55 -33 -153 -33q-125 0 -198 83q-65 -86 -182 -86q-115 0 -178 72t-63 184
q0 116 65.5 191.5t175.5 75.5q114 0 180 -82q67 79 172 79q100 0 156.5 -60t56.5 -177q0 -32 -6 -70h-318q14 -54 56 -83.5t102 -29.5q77 0 134 40v-104z" />
    <glyph glyph-name="Racute" unicode="&#x154;" horiz-adv-x="589" 
d="M278 570h-82v-220h84q58 0 87 29.5t29 82.5q0 52 -30.5 80t-87.5 28zM196 0h-126v674h208q115 0 180.5 -58t65.5 -155q-1 -72 -35 -121.5t-93 -73.5l173 -266h-151l-153 246h-69v-246zM336 723h-101l91 169h126z" />
    <glyph glyph-name="racute" unicode="&#x155;" horiz-adv-x="353" 
d="M185 0h-121l1 507h120v-90q35 94 128 94q21 0 34 -3v-116q-23 10 -51 10q-49 0 -80 -40t-31 -100v-262zM264 556h-101l91 169h126z" />
    <glyph glyph-name="uni0156" unicode="&#x156;" horiz-adv-x="589" 
d="M278 570h-82v-220h84q58 0 87 29.5t29 82.5q0 52 -30.5 80t-87.5 28zM252 -255h-90l76 204h129zM196 0h-126v674h208q115 0 180.5 -58t65.5 -155q-1 -72 -35 -121.5t-93 -73.5l173 -266h-151l-153 246h-69v-246z" />
    <glyph glyph-name="uni0157" unicode="&#x157;" horiz-adv-x="353" 
d="M70 -255h-90l76 204h129zM185 0h-121l1 507h120v-90q35 94 128 94q21 0 34 -3v-116q-23 10 -51 10q-49 0 -80 -40t-31 -100v-262z" />
    <glyph glyph-name="Rcaron" unicode="&#x158;" horiz-adv-x="589" 
d="M278 570h-82v-220h84q58 0 87 29.5t29 82.5q0 52 -30.5 80t-87.5 28zM196 0h-126v674h208q115 0 180.5 -58t65.5 -155q-1 -72 -35 -121.5t-93 -73.5l173 -266h-151l-153 246h-69v-246zM355 723h-106l-145 169h117l81 -99l81 99h117z" />
    <glyph glyph-name="rcaron" unicode="&#x159;" horiz-adv-x="353" 
d="M185 0h-121l1 507h120v-90q35 94 128 94q21 0 34 -3v-116q-23 10 -51 10q-49 0 -80 -40t-31 -100v-262zM261 556h-106l-145 169h117l81 -99l81 99h117z" />
    <glyph glyph-name="Sacute" unicode="&#x15a;" horiz-adv-x="518" 
d="M477 189q0 -90 -64.5 -143.5t-169.5 -53.5q-114 0 -189 43v129q86 -62 188 -62q46 0 74 22.5t28 60.5q0 18 -7 32t-28.5 28t-33 20t-47.5 22q-10 5 -15 7q-37 17 -60 30.5t-50 36.5t-40.5 55t-13.5 73q0 86 63.5 138t168.5 52q95 0 164 -33v-122q-75 45 -160 45
q-47 0 -73.5 -21t-26.5 -54t28.5 -54.5t85.5 -47.5q40 -18 65 -31.5t54.5 -37.5t44 -57.5t14.5 -76.5zM320 723h-101l91 169h126z" />
    <glyph glyph-name="sacute" unicode="&#x15b;" horiz-adv-x="427" 
d="M396 146q0 -71 -51 -111t-136 -40q-94 0 -152 31v110q67 -45 145 -45q33 0 51.5 12.5t18.5 34.5q0 13 -6 23.5t-23 20.5t-26.5 14.5t-37.5 16.5q-3 1 -4.5 2t-4.5 2t-5 2q-111 50 -111 144q0 70 53 110t133 40q77 0 128 -22v-106q-50 30 -125 30q-31 0 -48.5 -13.5
t-17.5 -34.5q0 -8 2.5 -15t9 -13.5t12.5 -11.5t17 -10.5l19 -9.5t22 -10t22 -10q53 -26 84 -58t31 -83zM285 556h-101l91 169h126z" />
    <glyph glyph-name="uni015E" unicode="&#x15e;" horiz-adv-x="518" 
d="M477 189q0 -90 -64.5 -143.5t-169.5 -53.5q-114 0 -189 43v129q86 -62 188 -62q46 0 74 22.5t28 60.5q0 18 -7 32t-28.5 28t-33 20t-47.5 22q-10 5 -15 7q-37 17 -60 30.5t-50 36.5t-40.5 55t-13.5 73q0 86 63.5 138t168.5 52q95 0 164 -33v-122q-75 45 -160 45
q-47 0 -73.5 -21t-26.5 -54t28.5 -54.5t85.5 -47.5q40 -18 65 -31.5t54.5 -37.5t44 -57.5t14.5 -76.5zM330 -124q0 -59 -43 -98t-126 -40v78q79 3 79 67q0 29 -25 66h97q18 -27 18 -73z" />
    <glyph glyph-name="uni015F" unicode="&#x15f;" horiz-adv-x="427" 
d="M396 146q0 -71 -51 -111t-136 -40q-94 0 -152 31v110q67 -45 145 -45q33 0 51.5 12.5t18.5 34.5q0 13 -6 23.5t-23 20.5t-26.5 14.5t-37.5 16.5q-3 1 -4.5 2t-4.5 2t-5 2q-111 50 -111 144q0 70 53 110t133 40q77 0 128 -22v-106q-50 30 -125 30q-31 0 -48.5 -13.5
t-17.5 -34.5q0 -8 2.5 -15t9 -13.5t12.5 -11.5t17 -10.5l19 -9.5t22 -10t22 -10q53 -26 84 -58t31 -83zM291 -124q0 -59 -43 -98t-126 -40v78q79 3 79 67q0 29 -25 66h97q18 -27 18 -73z" />
    <glyph glyph-name="Scaron" unicode="&#x160;" horiz-adv-x="518" 
d="M477 189q0 -90 -64.5 -143.5t-169.5 -53.5q-114 0 -189 43v129q86 -62 188 -62q46 0 74 22.5t28 60.5q0 18 -7 32t-28.5 28t-33 20t-47.5 22q-10 5 -15 7q-37 17 -60 30.5t-50 36.5t-40.5 55t-13.5 73q0 86 63.5 138t168.5 52q95 0 164 -33v-122q-75 45 -160 45
q-47 0 -73.5 -21t-26.5 -54t28.5 -54.5t85.5 -47.5q40 -18 65 -31.5t54.5 -37.5t44 -57.5t14.5 -76.5zM318 723h-106l-145 169h117l81 -99l81 99h117z" />
    <glyph glyph-name="scaron" unicode="&#x161;" horiz-adv-x="427" 
d="M396 146q0 -71 -51 -111t-136 -40q-94 0 -152 31v110q67 -45 145 -45q33 0 51.5 12.5t18.5 34.5q0 13 -6 23.5t-23 20.5t-26.5 14.5t-37.5 16.5q-3 1 -4.5 2t-4.5 2t-5 2q-111 50 -111 144q0 70 53 110t133 40q77 0 128 -22v-106q-50 30 -125 30q-31 0 -48.5 -13.5
t-17.5 -34.5q0 -8 2.5 -15t9 -13.5t12.5 -11.5t17 -10.5l19 -9.5t22 -10t22 -10q53 -26 84 -58t31 -83zM289 556h-106l-145 169h117l81 -99l81 99h117z" />
    <glyph glyph-name="uni0162" unicode="&#x162;" horiz-adv-x="520" 
d="M495 570h-171v-570h-127v570h-171v104h469v-104zM329 -124q0 -59 -43 -98t-126 -40v78q79 3 79 67q0 29 -25 66h97q18 -27 18 -73z" />
    <glyph glyph-name="uni0163" unicode="&#x163;" horiz-adv-x="379" 
d="M345 12q-35 -17 -90 -17q-164 0 -164 166v256h-76v90h76v122h120v-122h126v-90h-126v-258q0 -32 17 -48.5t47 -16.5q38 0 70 21v-103zM275 -124q0 -59 -43 -98t-126 -40v78q79 3 79 67q0 29 -25 66h97q18 -27 18 -73z" />
    <glyph glyph-name="Tcaron" unicode="&#x164;" horiz-adv-x="520" 
d="M495 570h-171v-570h-127v570h-171v104h469v-104zM314 723h-106l-145 169h117l81 -99l81 99h117z" />
    <glyph glyph-name="tcaron" unicode="&#x165;" horiz-adv-x="379" 
d="M345 12q-35 -17 -90 -17q-164 0 -164 166v256h-76v90h76v122h120v-122h126v-90h-126v-258q0 -32 17 -48.5t47 -16.5q38 0 70 21v-103zM356 580h-91l76 204h129z" />
    <glyph glyph-name="Umacron" unicode="&#x16a;" horiz-adv-x="659" 
d="M593 259q0 -131 -70.5 -199.5t-193.5 -68.5q-120 0 -191.5 67.5t-71.5 193.5v422h126v-421q0 -77 38 -111.5t99 -34.5q138 0 138 151v416h126v-415zM500 766h-328v83h328v-83z" />
    <glyph glyph-name="umacron" unicode="&#x16b;" horiz-adv-x="565" 
d="M500 0h-121v83q-40 -88 -156 -88q-77 0 -120 44t-43 125v343h120v-315q0 -48 23.5 -73t64.5 -25q52 0 81.5 35t29.5 106v272h121v-507zM443 599h-328v83h328v-83z" />
    <glyph glyph-name="Uring" unicode="&#x16e;" horiz-adv-x="659" 
d="M593 259q0 -131 -70.5 -199.5t-193.5 -68.5q-120 0 -191.5 67.5t-71.5 193.5v422h126v-421q0 -77 38 -111.5t99 -34.5q138 0 138 151v416h126v-415zM457 837q0 -52 -36.5 -88.5t-88.5 -36.5t-88.5 36.5t-36.5 88.5t36.5 88.5t88.5 36.5t88.5 -36.5t36.5 -88.5zM279 839
q0 -22 15 -38.5t38 -16.5t38 16.5t15 38.5t-15 38.5t-38 16.5t-38 -16.5t-15 -38.5z" />
    <glyph glyph-name="uring" unicode="&#x16f;" horiz-adv-x="565" 
d="M500 0h-121v83q-40 -88 -156 -88q-77 0 -120 44t-43 125v343h120v-315q0 -48 23.5 -73t64.5 -25q52 0 81.5 35t29.5 106v272h121v-507zM410 670q0 -52 -36.5 -88.5t-88.5 -36.5t-88.5 36.5t-36.5 88.5t36.5 88.5t88.5 36.5t88.5 -36.5t36.5 -88.5zM232 672
q0 -22 15 -38.5t38 -16.5t38 16.5t15 38.5t-15 38.5t-38 16.5t-38 -16.5t-15 -38.5z" />
    <glyph glyph-name="Uhungarumlaut" unicode="&#x170;" horiz-adv-x="659" 
d="M593 259q0 -131 -70.5 -199.5t-193.5 -68.5q-120 0 -191.5 67.5t-71.5 193.5v422h126v-421q0 -77 38 -111.5t99 -34.5q138 0 138 151v416h126v-415zM464 723h-91l97 169h126zM288 723h-90l90 169h117z" />
    <glyph glyph-name="uhungarumlaut" unicode="&#x171;" horiz-adv-x="565" 
d="M500 0h-121v83q-40 -88 -156 -88q-77 0 -120 44t-43 125v343h120v-315q0 -48 23.5 -73t64.5 -25q52 0 81.5 35t29.5 106v272h121v-507zM420 556h-91l97 169h126zM244 556h-90l90 169h117z" />
    <glyph glyph-name="Uogonek" unicode="&#x172;" horiz-adv-x="659" 
d="M593 259q0 -99 -41.5 -163t-116.5 -89q-114 -67 -114 -127q0 -44 52 -44q39 0 80 27v-85q-41 -23 -98 -23q-66 0 -99 32t-33 82q0 67 62 124q-102 12 -160.5 78.5t-58.5 180.5v422h126v-421q0 -77 38 -111.5t99 -34.5q138 0 138 151v416h126v-415z" />
    <glyph glyph-name="uogonek" unicode="&#x173;" horiz-adv-x="565" 
d="M516 -230q-41 -23 -98 -23q-66 0 -99 32t-33 82q0 83 93 149v73q-40 -88 -156 -88q-77 0 -120 44t-43 125v343h120v-315q0 -48 23.5 -73t64.5 -25q52 0 81.5 35t29.5 106v272h121v-507q-116 -67 -116 -128q0 -44 52 -44q40 0 80 27v-85z" />
    <glyph glyph-name="Ydieresis" unicode="&#x178;" horiz-adv-x="624" 
d="M374 0h-126v246l-230 428h147l45 -98q39 -85 64 -142.5t30 -71.5l6 -15q9 37 103 229l46 98h147l-232 -424v-250zM509 808q0 -30 -20 -50t-51 -20q-30 0 -50.5 20t-20.5 50q0 29 20.5 49t50.5 20q31 0 51 -20t20 -49zM266 808q0 -30 -20 -50t-50 -20q-31 0 -51 20t-20 50
q0 29 20 49t51 20q30 0 50 -20t20 -49z" />
    <glyph glyph-name="Zacute" unicode="&#x179;" horiz-adv-x="601" 
d="M544 0h-487v96l322 475h-317v103h469v-93l-323 -478h336v-103zM370 723h-101l91 169h126z" />
    <glyph glyph-name="zacute" unicode="&#x17a;" horiz-adv-x="469" 
d="M428 0h-386v89l235 322h-226v96h364v-84l-236 -326h249v-97zM301 556h-101l91 169h126z" />
    <glyph glyph-name="Zdotaccent" unicode="&#x17b;" horiz-adv-x="601" 
d="M544 0h-487v96l322 475h-317v103h469v-93l-323 -478h336v-103zM385 809q0 -30 -20 -50t-50 -20q-31 0 -51 20t-20 50q0 29 20 49t51 20q30 0 50 -20t20 -49z" />
    <glyph glyph-name="zdotaccent" unicode="&#x17c;" horiz-adv-x="469" 
d="M428 0h-386v89l235 322h-226v96h364v-84l-236 -326h249v-97zM318 641q0 -30 -20 -50t-50 -20q-31 0 -51 20t-20 50q0 29 20 49t51 20q30 0 50 -20t20 -49z" />
    <glyph glyph-name="Zcaron" unicode="&#x17d;" horiz-adv-x="601" 
d="M544 0h-487v96l322 475h-317v103h469v-93l-323 -478h336v-103zM359 723h-106l-145 169h117l81 -99l81 99h117z" />
    <glyph glyph-name="zcaron" unicode="&#x17e;" horiz-adv-x="469" 
d="M428 0h-386v89l235 322h-226v96h364v-84l-236 -326h249v-97zM306 556h-106l-145 169h117l81 -99l81 99h117z" />
    <glyph glyph-name="florin" unicode="&#x192;" horiz-adv-x="473" 
d="M230 -56q-15 -94 -61.5 -147t-126.5 -53q-55 0 -86 13v100q31 -14 68 -14q38 0 57.5 27t28.5 83l55 337h-91v90h106l16 100q32 200 188 200q49 0 78 -10v-100q-28 10 -57 10q-73 0 -90 -109l-15 -91h97v-90h-111z" />
    <glyph glyph-name="uni0218" unicode="&#x218;" horiz-adv-x="518" 
d="M477 189q0 -90 -64.5 -143.5t-169.5 -53.5q-114 0 -189 43v129q86 -62 188 -62q46 0 74 22.5t28 60.5q0 18 -7 32t-28.5 28t-33 20t-47.5 22q-10 5 -15 7q-37 17 -60 30.5t-50 36.5t-40.5 55t-13.5 73q0 86 63.5 138t168.5 52q95 0 164 -33v-122q-75 45 -160 45
q-47 0 -73.5 -21t-26.5 -54t28.5 -54.5t85.5 -47.5q40 -18 65 -31.5t54.5 -37.5t44 -57.5t14.5 -76.5zM216 -255h-91l76 204h129z" />
    <glyph glyph-name="uni0219" unicode="&#x219;" horiz-adv-x="427" 
d="M396 146q0 -71 -51 -111t-136 -40q-94 0 -152 31v110q67 -45 145 -45q33 0 51.5 12.5t18.5 34.5q0 13 -6 23.5t-23 20.5t-26.5 14.5t-37.5 16.5q-3 1 -4.5 2t-4.5 2t-5 2q-111 50 -111 144q0 70 53 110t133 40q77 0 128 -22v-106q-50 30 -125 30q-31 0 -48.5 -13.5
t-17.5 -34.5q0 -8 2.5 -15t9 -13.5t12.5 -11.5t17 -10.5l19 -9.5t22 -10t22 -10q53 -26 84 -58t31 -83zM172 -255h-90l76 204h129z" />
    <glyph glyph-name="uni021A" unicode="&#x21a;" horiz-adv-x="520" 
d="M209 -255h-91l77 204h128zM495 570h-171v-570h-127v570h-171v104h469v-104z" />
    <glyph glyph-name="uni021B" unicode="&#x21b;" horiz-adv-x="379" 
d="M345 12q-35 -17 -90 -17q-164 0 -164 166v256h-76v90h76v122h120v-122h126v-90h-126v-258q0 -32 17 -48.5t47 -16.5q38 0 70 21v-103zM200 -255h-90l76 204h128z" />
    <glyph glyph-name="circumflex" unicode="&#x2c6;" horiz-adv-x="470" 
d="M154 629h-117l145 169h106l145 -169h-117l-81 99z" />
    <glyph glyph-name="caron" unicode="&#x2c7;" horiz-adv-x="470" 
d="M288 629h-106l-145 169h117l81 -99l81 99h117z" />
    <glyph glyph-name="uni02C9" unicode="&#x2c9;" horiz-adv-x="470" 
d="M399 667h-328v83h328v-83z" />
    <glyph glyph-name="breve" unicode="&#x2d8;" horiz-adv-x="470" 
d="M420 798q0 -86 -49.5 -129.5t-135.5 -43.5t-135.5 44t-49.5 129h94q0 -43 23.5 -68.5t67.5 -25.5t67.5 25.5t23.5 68.5h94z" />
    <glyph glyph-name="dotaccent" unicode="&#x2d9;" horiz-adv-x="470" 
d="M305 716q0 -30 -20 -50t-50 -20q-31 0 -51 20t-20 50q0 29 20 49t51 20q30 0 50 -20t20 -49z" />
    <glyph glyph-name="ring" unicode="&#x2da;" horiz-adv-x="470" 
d="M360 714q0 -52 -36.5 -88.5t-88.5 -36.5t-88.5 36.5t-36.5 88.5t36.5 88.5t88.5 36.5t88.5 -36.5t36.5 -88.5zM182 716q0 -22 15 -38.5t38 -16.5t38 16.5t15 38.5t-15 38.5t-38 16.5t-38 -16.5t-15 -38.5z" />
    <glyph glyph-name="ogonek" unicode="&#x2db;" horiz-adv-x="470" 
d="M350 -217q-41 -23 -98 -23q-66 0 -99 32t-33 82q0 47 31.5 89t67 65.5t73.5 38.5l42 -54q-116 -67 -116 -128q0 -44 52 -44q40 0 80 27v-85z" />
    <glyph glyph-name="tilde" unicode="&#x2dc;" horiz-adv-x="470" 
d="M180 673q-24 0 -39 -9.5t-33 -34.5l-57 53q16 33 45.5 55.5t65.5 22.5q34 0 75 -19t60 -19q43 0 64 43l64 -51q-39 -79 -122 -79q-31 0 -69 19t-54 19z" />
    <glyph glyph-name="hungarumlaut" unicode="&#x2dd;" horiz-adv-x="470" 
d="M302 629h-91l97 169h126zM126 629h-90l90 169h117z" />
    <glyph glyph-name="pi" unicode="&#x3c0;" horiz-adv-x="597" 
d="M584 417h-86v-417h-120v417h-150v-220q0 -110 -45.5 -153.5t-142.5 -43.5v100q38 0 53 17.5t15 68.5v231h-86v90h562v-90z" />
    <glyph glyph-name="danda" unicode="&#x964;" horiz-adv-x="426" 
d="M312 0h-118v660h118v-660z" />
    <glyph glyph-name="doubledanda" unicode="&#x965;" horiz-adv-x="663" 
d="M549 0h-118v660h118v-660zM312 0h-118v660h118v-660z" />
    <glyph glyph-name="gjCandrabindu" unicode="&#xa81;" horiz-adv-x="0" 
d="M95 928q0 -97 -64.5 -145.5t-162.5 -48.5q-97 0 -162 48.5t-65 145.5h112q0 -48 29.5 -76.5t85.5 -28.5t85.5 28.5t29.5 76.5h112zM-132.5 874q-27.5 0 -46 18.5t-18.5 45.5t18.5 45t45.5 18q18 0 33 -8t23.5 -22.5t8.5 -32.5q0 -27 -18.5 -45.5t-46 -18.5z" />
    <glyph glyph-name="gjAnusvara" unicode="&#xa82;" horiz-adv-x="0" 
d="M-132 739q-30 0 -50.5 20.5t-20.5 50.5t20.5 50t50.5 20t50.5 -20t20.5 -50t-20.5 -50.5t-50.5 -20.5z" />
    <glyph glyph-name="gjVisarga" unicode="&#xa83;" horiz-adv-x="262" 
d="M131 428q-30 0 -50.5 20.5t-20.5 50.5t20.5 50.5t50.5 20.5t50.5 -20.5t20.5 -50.5t-20.5 -50.5t-50.5 -20.5zM131 91q-30 0 -50.5 20.5t-20.5 50.5t20.5 50.5t50.5 20.5t50.5 -20.5t20.5 -50.5t-20.5 -50.5t-50.5 -20.5z" />
    <glyph glyph-name="gjA" unicode="&#xa85;" horiz-adv-x="931" 
d="M741 660h118v-660h-118v305h-149q-18 -91 -82.5 -143.5t-164.5 -52.5q-97 0 -167 54t-85 156h-66v100h138q41 0 70 17t29 56q0 34 -28 54t-71 20q-40 0 -79 -11v101q46 10 91 10q86 0 146 -47t60 -131q0 -74 -48.5 -118t-124.5 -50q7 -52 42 -81t91 -29q66 0 101.5 44.5
t35.5 121.5v141h118v-114h143v257z" />
    <glyph glyph-name="gjAA" unicode="&#xa86;" horiz-adv-x="1195" 
d="M741 660h118v-660h-118v305h-149q-18 -91 -82.5 -143.5t-164.5 -52.5q-97 0 -167 54t-85 156h-66v100h138q41 0 70 17t29 56q0 34 -28 54t-71 20q-40 0 -79 -11v101q46 10 91 10q86 0 146 -47t60 -131q0 -74 -48.5 -118t-124.5 -50q7 -52 42 -81t91 -29q66 0 101.5 44.5
t35.5 121.5v141h118v-114h143v257zM1004 660h118v-660h-118v660z" />
    <glyph glyph-name="gjI" unicode="&#xa87;" horiz-adv-x="662" 
d="M340 393v-99h-53q-47 0 -80.5 -23.5t-33.5 -72.5q0 -48 38 -75.5t95 -27.5q72 0 116 48t44 133v312q0 61 39 95.5t97 34.5q48 0 62 -7v-98q-19 7 -34 7q-46 0 -46 -47v-302q0 -133 -75.5 -205t-195.5 -72q-109 0 -184.5 51t-75.5 141q0 66 39 105t104 51q-59 14 -96 53
t-37 102q0 83 62 127.5t158 44.5q45 0 91 -8v-101q-38 8 -76 8q-51 0 -83 -22.5t-32 -66.5q0 -43 30.5 -64.5t73.5 -21.5h53z" />
    <glyph glyph-name="gjII" unicode="&#xa88;" horiz-adv-x="662" 
d="M584 705v-434q0 -133 -75.5 -205t-195.5 -72q-109 0 -184.5 51t-75.5 141q0 66 39 105t104 51q-59 14 -96 53t-37 102q0 83 62 127.5t158 44.5q45 0 91 -8v-101q-38 8 -76 8q-51 0 -83 -22.5t-32 -66.5q0 -43 30.5 -64.5t73.5 -21.5h53v-99h-53q-47 0 -80.5 -23.5
t-33.5 -72.5q0 -48 38 -75.5t95 -27.5q72 0 116 48t44 133v445q0 60 39 94.5t97 34.5q38 0 62 -6v-99q-19 7 -34 7q-46 0 -46 -47z" />
    <glyph glyph-name="gjU" unicode="&#xa89;" horiz-adv-x="675" 
d="M629 180q0 -85 -65.5 -136t-168.5 -51q-87 0 -156 33.5t-112 91t-65.5 132.5t-22.5 161q0 127 42 227.5t129.5 162t209.5 61.5q90 0 166 -30v-106q-78 34 -157 34q-133 0 -202.5 -98.5t-69.5 -258.5q0 -62 12.5 -115.5t38.5 -97.5t71.5 -69.5t105.5 -25.5q56 0 90 27.5
t34 74.5q0 49 -33 72.5t-80 23.5h-61v99h62q41 0 71.5 21.5t30.5 63.5t-28 62.5t-70 20.5q-32 0 -66 -13v102q38 12 82 12q83 0 142.5 -45.5t59.5 -125.5q0 -58 -35 -96.5t-95 -51.5q63 -15 101.5 -57t38.5 -105z" />
    <glyph glyph-name="gjUU" unicode="&#xa8a;" horiz-adv-x="937" 
d="M629 180q0 -85 -65.5 -136t-168.5 -51q-87 0 -156 33.5t-112 91t-65.5 132.5t-22.5 161q0 195 110.5 323.5t303.5 128.5q195 0 303.5 -121t108.5 -305v-437h-118v429q0 69 -17 127.5t-51.5 104.5t-92.5 72.5t-133 26.5q-143 0 -219.5 -101.5t-76.5 -255.5
q0 -62 12.5 -115.5t38.5 -97.5t71.5 -69.5t105.5 -25.5q56 0 90 27.5t34 74.5q0 49 -33 72.5t-80 23.5h-61v99h62q41 0 71.5 21.5t30.5 63.5t-28 62.5t-70 20.5q-32 0 -66 -13v102q38 12 82 12q83 0 142.5 -45.5t59.5 -125.5q0 -58 -35 -96.5t-95 -51.5q63 -15 101.5 -57
t38.5 -105z" />
    <glyph glyph-name="gjvR" unicode="&#xa8b;" horiz-adv-x="971" 
d="M451 660h118v-207q83 49 117 81.5t34 74.5h115q0 -75 -62 -134l63 -39q112 -70 112 -175q0 -73 -52.5 -122t-142.5 -49q-39 0 -81 14v99q38 -14 71 -14q38 0 64 18.5t26 55.5q0 58 -86 109l-63 37q-11 -7 -51 -32l-64 -39v-338h-118v266l-316 -192l-63 89l275 161
q-24 74 -69 114t-106 40q-72 0 -146 -42v107q69 37 153 37q86 0 153 -53t106 -151l13 8v276z" />
    <glyph glyph-name="gjEcandra" unicode="&#xa8d;" horiz-adv-x="931" 
d="M1027 928q0 -97 -64.5 -145.5t-162.5 -48.5q-97 0 -162 48.5t-65 145.5h112q0 -48 29.5 -76.5t85.5 -28.5t85.5 28.5t29.5 76.5h112zM741 660h118v-660h-118v305h-149q-18 -91 -82.5 -143.5t-164.5 -52.5q-97 0 -167 54t-85 156h-66v100h138q41 0 70 17t29 56
q0 34 -28 54t-71 20q-40 0 -79 -11v101q46 10 91 10q86 0 146 -47t60 -131q0 -74 -48.5 -118t-124.5 -50q7 -52 42 -81t91 -29q66 0 101.5 44.5t35.5 121.5v141h118v-114h143v257z" />
    <glyph glyph-name="gjE" unicode="&#xa8f;" horiz-adv-x="931" 
d="M741 660h118v-660h-118v305h-149q-18 -91 -82.5 -143.5t-164.5 -52.5q-97 0 -167 54t-85 156h-66v100h138q41 0 70 17t29 56q0 34 -28 54t-71 20q-40 0 -79 -11v101q46 10 91 10q86 0 146 -47t60 -131q0 -74 -48.5 -118t-124.5 -50q7 -52 42 -81t91 -29q66 0 101.5 44.5
t35.5 121.5v141h118v-114h143v257zM522 880v99q38 8 70 8q107 0 163 -92l100 -163h-111l-82 111q-33 46 -84 46q-24 0 -56 -9z" />
    <glyph glyph-name="gjAI" unicode="&#xa90;" horiz-adv-x="931" 
d="M858 732h-117l-14 15q-59 63 -153 63q-47 0 -100 -20v97q50 15 95 15q122 0 203 -116h4l-44 90q-38 74 -109 74q-13 0 -38 -5v94q30 6 50 6q144 0 187 -170zM741 660h118v-660h-118v305h-149q-18 -91 -82.5 -143.5t-164.5 -52.5q-97 0 -167 54t-85 156h-66v100h138
q41 0 70 17t29 56q0 34 -28 54t-71 20q-40 0 -79 -11v101q46 10 91 10q86 0 146 -47t60 -131q0 -74 -48.5 -118t-124.5 -50q7 -52 42 -81t91 -29q66 0 101.5 44.5t35.5 121.5v141h118v-114h143v257z" />
    <glyph glyph-name="gjOcandra" unicode="&#xa91;" horiz-adv-x="1195" 
d="M741 660h118v-660h-118v305h-149q-18 -91 -82.5 -143.5t-164.5 -52.5q-97 0 -167 54t-85 156h-66v100h138q41 0 70 17t29 56q0 34 -28 54t-71 20q-40 0 -79 -11v101q46 10 91 10q86 0 146 -47t60 -131q0 -74 -48.5 -118t-124.5 -50q7 -52 42 -81t91 -29q66 0 101.5 44.5
t35.5 121.5v141h118v-114h143v257zM1004 660h118v-660h-118v660zM1158 928q0 -97 -64.5 -145.5t-162.5 -48.5q-97 0 -162 48.5t-65 145.5h112q0 -48 29.5 -76.5t85.5 -28.5t85.5 28.5t29.5 76.5h112z" />
    <glyph glyph-name="gjO" unicode="&#xa93;" horiz-adv-x="1195" 
d="M741 660h118v-660h-118v305h-149q-18 -91 -82.5 -143.5t-164.5 -52.5q-97 0 -167 54t-85 156h-66v100h138q41 0 70 17t29 56q0 34 -28 54t-71 20q-40 0 -79 -11v101q46 10 91 10q86 0 146 -47t60 -131q0 -74 -48.5 -118t-124.5 -50q7 -52 42 -81t91 -29q66 0 101.5 44.5
t35.5 121.5v141h118v-114h143v257zM1004 660h118v-660h-118v660zM786 880v99q38 8 70 8q107 0 163 -92l100 -163h-111l-82 111q-33 46 -84 46q-24 0 -56 -9z" />
    <glyph glyph-name="gjAU" unicode="&#xa94;" horiz-adv-x="1195" 
d="M741 660h118v-660h-118v305h-149q-18 -91 -82.5 -143.5t-164.5 -52.5q-97 0 -167 54t-85 156h-66v100h138q41 0 70 17t29 56q0 34 -28 54t-71 20q-40 0 -79 -11v101q46 10 91 10q86 0 146 -47t60 -131q0 -74 -48.5 -118t-124.5 -50q7 -52 42 -81t91 -29q66 0 101.5 44.5
t35.5 121.5v141h118v-114h143v257zM1004 660h118v-660h-118v660zM1122 732h-117l-14 15q-59 63 -153 63q-47 0 -100 -20v97q50 15 95 15q122 0 203 -116h4l-44 90q-38 74 -109 74q-13 0 -38 -5v94q30 6 50 6q144 0 187 -170z" />
    <glyph glyph-name="gjKA" unicode="&#xa95;" horiz-adv-x="581" 
d="M288 -6q-122 0 -218 45v109q106 -52 210 -52q48 0 87 20t39 65t-31.5 69t-89.5 44l-245 -65v103l118 28q-84 47 -84 134q0 82 64 127t166 45q96 0 172 -23v-104q-84 25 -168 25q-52 0 -84 -20t-32 -60q0 -58 86 -88l263 68v-102l-121 -29q104 -51 104 -156
q0 -83 -67.5 -133t-168.5 -50z" />
    <glyph glyph-name="gjKHA" unicode="&#xa96;" horiz-adv-x="832" 
d="M641 660h118v-660h-118v303h-154q-5 -83 -55.5 -128t-136.5 -45q-90 0 -141 50.5t-51 141.5v194q0 47 -47 47q-16 0 -33 -5v98l9 1q8 1 22 2.5t29 1.5q57 0 97.5 -36t40.5 -97v-220q0 -79 74 -79q75 0 75 79v202h118v-108h153v258z" />
    <glyph glyph-name="gjGA" unicode="&#xa97;" horiz-adv-x="667" 
d="M477 660h118v-660h-118v660zM133 666q101 0 172.5 -67t71.5 -177q0 -108 -72 -174.5t-174 -66.5q-46 0 -97 17v103q38 -17 86 -17q62 0 99.5 38.5t37.5 101.5q0 62 -37 101t-100 39q-37 0 -70 -13v103q39 12 83 12z" />
    <glyph glyph-name="gjGHA" unicode="&#xa98;" horiz-adv-x="647" 
d="M456 660h118v-660h-118v165q-61 -82 -185 -82q-88 0 -153 45t-65 120q0 113 137 139q-56 14 -90.5 48.5t-34.5 90.5q0 66 54 105.5t136 39.5q57 0 105 -11v-99q-38 11 -83 11q-39 0 -66 -17t-27 -53q0 -34 26 -51.5t63 -17.5h54v-100h-62q-38 0 -65 -19t-27 -52
q0 -38 32 -59t81 -21q76 0 123 43t47 118v317z" />
    <glyph glyph-name="gjNGA" unicode="&#xa99;" horiz-adv-x="612" 
d="M315 382q184 -52 184 -196q0 -87 -68 -139.5t-170 -52.5q-122 0 -212 50v109q99 -57 211 -57q50 0 84.5 22.5t34.5 63.5q0 21 -8 38t-19 27t-31.5 19.5t-35 14t-40.5 11.5q-30 8 -54.5 16.5t-52.5 24.5t-47 35.5t-31.5 50t-12.5 67.5q0 86 64.5 133t167.5 47
q92 0 170 -22v-104q-80 24 -166 24q-52 0 -84 -20t-32 -60q0 -17 8 -31t17 -22.5t29.5 -18t30 -12.5t34.5 -10t29 -8zM522 355q-30 0 -50.5 20.5t-20.5 50.5t20.5 50.5t50.5 20.5t50.5 -20.5t20.5 -50.5t-20.5 -50.5t-50.5 -20.5z" />
    <glyph glyph-name="gjCA" unicode="&#xa9a;" horiz-adv-x="690" 
d="M27 318v100h154q41 0 70 17t29 56q0 35 -28.5 55t-72.5 20q-48 0 -93 -12v101q57 11 105 11q87 0 147.5 -47t60.5 -131q0 -81 -56 -125.5t-138 -44.5q6 -59 43.5 -88.5t94.5 -29.5q68 0 112 40t44 105v315h118v-660h-118v175q-26 -36 -71.5 -55.5t-96.5 -19.5
q-91 0 -159 57.5t-78 160.5h-67z" />
    <glyph glyph-name="gjCHA" unicode="&#xa9b;" horiz-adv-x="802" 
d="M337 96q131 0 223 86t92 219q0 127 -63 127q-30 0 -46.5 -28.5t-16.5 -80.5q0 -76 44 -140h-114q-47 70 -47 156q0 83 45.5 138.5t128.5 55.5q79 0 132.5 -64t53.5 -173q0 -116 -60.5 -209t-155.5 -141.5t-203 -48.5q-129 0 -210.5 54t-81.5 147q0 61 36.5 98t92.5 49
q-60 13 -99 54.5t-39 100.5q0 80 62.5 125t152.5 45q49 0 91 -10v-101q-38 10 -76 10q-49 0 -79.5 -22t-30.5 -64q0 -44 31.5 -65.5t76.5 -21.5h59v-100h-49q-45 0 -77 -23t-32 -68q0 -52 47.5 -78.5t111.5 -26.5z" />
    <glyph glyph-name="gjJA" unicode="&#xa9c;" horiz-adv-x="733" 
d="M747 660v-9l-202 -217q119 -148 119 -259q0 -76 -56 -128.5t-151 -52.5q-84 0 -147 49.5t-63 138.5q0 56 28 105t94 117l32 33q-56 63 -100.5 95t-88.5 32q-32 0 -54 -18.5t-22 -51.5q0 -29 21 -49t55 -20q25 0 45 8v-98q-22 -10 -64 -10q-76 0 -125.5 49.5t-49.5 118.5
q0 76 53 124.5t134 48.5q75 0 139 -39.5t132 -112.5l142 146h129zM456 93q38 0 64.5 26.5t26.5 66.5q0 70 -76 168l-34 -36q-45 -49 -59 -78.5t-14 -58.5q0 -36 26 -62t66 -26z" />
    <glyph glyph-name="gjJHA" unicode="&#xa9d;" horiz-adv-x="779" 
d="M349 18v103q47 -18 104 -18q66 0 111 37t45 102q0 69 -42.5 104.5t-105.5 35.5q-45 0 -83 -17q-19 -83 -86 -132t-154 -49q-48 0 -99 17v102q42 -16 84 -16q60 0 100.5 37.5t40.5 100.5q0 62 -37 100.5t-100 38.5q-37 0 -70 -13v103q39 12 81 12q91 0 158.5 -52.5
t83.5 -140.5q49 11 90 11q22 0 45 -3l82 179h128l-101 -220q106 -68 106 -200q0 -105 -72.5 -172.5t-185.5 -67.5q-66 0 -123 18z" />
    <glyph glyph-name="gjNYA" unicode="&#xa9e;" horiz-adv-x="687" 
d="M497 660h118v-660h-118v310h-125q-24 -72 -88.5 -114t-144.5 -42q-56 0 -110 22v103q43 -22 99 -22q61 0 99 37t38 97q0 59 -37 96.5t-100 37.5q-37 0 -70 -13v103q41 12 83 12q96 0 166 -60t77 -159h113v252z" />
    <glyph glyph-name="gjTTA" unicode="&#xa9f;" horiz-adv-x="537" 
d="M96 524v112q67 30 165 30q96 0 163 -51.5t67 -137.5q0 -125 -161 -177q-8 -3 -36 -11t-40 -12.5t-33.5 -14.5t-31 -19.5t-18 -25.5t-8.5 -35q0 -47 38 -67t85 -20q107 0 202 50v-111q-79 -41 -198 -41q-104 0 -176 52.5t-72 148.5q0 43 16.5 76.5t47 55.5t60.5 35.5
t70 25.5q29 9 41.5 13t34.5 13.5t32 18t18 22t8 30.5q0 42 -35 61t-83 19q-85 0 -156 -40z" />
    <glyph glyph-name="gjTTHA" unicode="&#xaa0;" horiz-adv-x="603" 
d="M307 93q67 0 105.5 28.5t38.5 74.5t-39 74.5t-105 28.5q-68 0 -107 -28.5t-39 -74.5t39 -74.5t107 -28.5zM570 196q0 -89 -73.5 -146t-191.5 -57q-116 0 -189 57t-73 146q0 59 35 103t96 66q-86 50 -86 134q0 81 65.5 124t168.5 43q93 0 169 -22v-103q-82 23 -165 23
q-118 0 -118 -73q0 -21 12 -37t36 -26.5t44 -16.5t52.5 -13t46.5 -11q171 -51 171 -191z" />
    <glyph glyph-name="gjDDA" unicode="&#xaa1;" horiz-adv-x="532" 
d="M449 643v-107q-73 28 -159 28q-123 0 -123 -80q0 -22 10 -37.5t32 -27t41 -18t53 -15.5q197 -53 197 -197q0 -94 -69.5 -145t-178.5 -51q-120 0 -203 43v111q98 -52 206 -52q49 0 86.5 21.5t37.5 66.5q0 16 -5 29.5t-16.5 24t-21.5 18t-29 14.5t-30 10.5t-33 10t-30 8.5
q-168 51 -168 183q0 86 63.5 135.5t168.5 49.5q102 0 171 -23z" />
    <glyph glyph-name="gjDDHA" unicode="&#xaa2;" horiz-adv-x="598" 
d="M454 660q23 -32 23 -74q0 -51 -33 -88t-79.5 -61t-93.5 -48t-80 -63t-33 -92q0 -66 47 -103.5t122 -37.5q53 0 94 24t41 73q0 29 -15.5 44t-35.5 15q-24 0 -38.5 -15.5t-14.5 -37.5q0 -20 6 -34h-104q-11 26 -11 56q0 59 46 94.5t113 35.5q76 0 123.5 -46t47.5 -117
q0 -88 -73.5 -139.5t-178.5 -51.5q-119 0 -203 68.5t-84 182.5q0 67 33 118.5t80 81t93.5 53.5t79.5 49.5t33 55.5q0 32 -22 57h117z" />
    <glyph glyph-name="gjNNA" unicode="&#xaa3;" horiz-adv-x="875" 
d="M684 660h118v-660h-118v660zM190 660v-385q0 -50 17 -86t48 -56t67.5 -28.5t80.5 -8.5q97 0 178 37v-104q-80 -35 -171 -35q-67 0 -125 16t-107 49.5t-77.5 94t-28.5 141.5v365h118zM378 659q94 0 152.5 -60t58.5 -147q0 -86 -59 -146t-154 -60q-44 0 -78 12v101
q30 -11 64 -11q52 0 81.5 30t29.5 74t-28.5 74.5t-80.5 30.5q-32 0 -61 -10v101q35 11 75 11z" />
    <glyph glyph-name="gjTA" unicode="&#xaa4;" horiz-adv-x="609" 
d="M418 660h118v-660h-118v395h-116q-67 0 -106 -39t-39 -112q0 -69 30 -106.5t90 -37.5q17 0 36 3v-98q-25 -5 -47 -5q-101 0 -164 68t-63 178q0 118 67.5 183t191.5 65h120v166z" />
    <glyph glyph-name="gjTHA" unicode="&#xaa5;" horiz-adv-x="678" 
d="M487 660h118v-660h-118v192q-59 -78 -182 -78q-103 0 -180.5 67.5t-94.5 183.5q127 24 189.5 57.5t62.5 89.5q0 27 -15 42.5t-37 15.5q-28 0 -41.5 -17.5t-13.5 -43.5q0 -28 11 -53h-111q-11 35 -11 65q0 64 43.5 106t118.5 42q74 0 119.5 -45t45.5 -118q0 -81 -65 -136
t-160 -75q17 -40 56.5 -61t88.5 -21q69 0 122.5 40t53.5 115v292z" />
    <glyph glyph-name="gjDA" unicode="&#xaa6;" horiz-adv-x="483" 
d="M473 23q-80 -29 -168 -29q-98 0 -175 52t-77 143q0 62 38 101t98 51q-54 15 -90 55.5t-36 97.5q0 82 62.5 127t157.5 45q81 0 155 -21v-103q-72 22 -140 22q-52 0 -83.5 -22t-31.5 -66q0 -43 30.5 -65t73.5 -22h90v-100h-90q-47 0 -80.5 -23t-33.5 -71q0 -49 38.5 -74
t96.5 -25q80 0 165 32v-105z" />
    <glyph glyph-name="gjDHA" unicode="&#xaa7;" horiz-adv-x="653" 
d="M274 730v-9q-91 -83 -91 -160q0 -44 28 -69t79 -25h44v-98h-56q-45 0 -75 -25t-30 -68q0 -44 34.5 -68t82.5 -24q74 0 123 44.5t49 113.5v318h118v-660h-118v162q-67 -79 -187 -79q-89 0 -155.5 49.5t-66.5 134.5q0 66 41.5 104t100.5 50q-56 16 -93 56.5t-37 100.5
q0 86 68 152h141z" />
    <glyph glyph-name="gjNA" unicode="&#xaa8;" horiz-adv-x="725" 
d="M534 660h118v-660h-118v397h-153q51 -48 51 -119q0 -78 -55 -127t-142 -49q-90 0 -145 55.5t-55 140.5q0 90 57 143t153 53h289v166zM153 298q0 -45 23 -71t59 -26t59 26t23 71t-23 71t-59 26t-59 -26t-23 -71z" />
    <glyph glyph-name="gjPA" unicode="&#xaaa;" horiz-adv-x="597" 
d="M406 374v286h118v-660h-118v215q-45 -42 -121 -42q-88 0 -137 51.5t-49 145.5v148q0 45 -44 45q-17 0 -35 -5v98q1 0 9.5 1t22.5 2.5t29 1.5q56 0 96 -35.5t40 -95.5v-164q0 -46 22.5 -72.5t67.5 -26.5q50 0 74.5 28.5t24.5 78.5z" />
    <glyph glyph-name="gjPHA" unicode="&#xaab;" horiz-adv-x="582" 
d="M324 -3q-79 0 -136 41v-133h-111v264h107q10 -36 43 -55t75 -19q44 0 76 23.5t32 63.5q0 45 -32 69t-90 43l-246 -65v103l118 28q-85 47 -85 134q0 82 64 127t166 45q95 0 173 -23v-104q-85 25 -168 25q-53 0 -85 -20t-32 -60q0 -58 86 -88l263 68v-102l-119 -29
q105 -51 105 -156q0 -84 -60 -132t-144 -48z" />
    <glyph glyph-name="gjBA" unicode="&#xaac;" horiz-adv-x="796" 
d="M606 660h118v-660h-118v257h-151q-11 -85 -63.5 -126.5t-132.5 -41.5q-96 0 -158.5 71.5t-62.5 214.5q0 145 74.5 218t190.5 73q69 0 121 -18v-103q-55 19 -114 19q-68 0 -111 -46.5t-43 -149.5q0 -179 101 -179q83 0 83 112v147h118v-93h148v305z" />
    <glyph glyph-name="gjBHA" unicode="&#xaad;" horiz-adv-x="811" 
d="M354 0q-142 0 -228.5 95.5t-86.5 260.5q0 61 13 114t40 98t75.5 71.5t112.5 26.5q89 0 140 -54.5t51 -142.5v-50h149v241h118v-660h-118v320h-149v-91h-103l-30 56q-27 52 -27 76q0 40 44 52v64q0 39 -18.5 64.5t-58.5 25.5q-55 0 -88 -58t-33 -161q0 -112 52 -179
t159 -67q48 0 100 13v-101q-56 -14 -114 -14z" />
    <glyph glyph-name="gjMA" unicode="&#xaae;" horiz-adv-x="606" 
d="M416 660h118v-660h-118v266h-188v-120h-100l-34 75q-27 60 -27 85q0 41 45 53v157q0 47 -47 47q-16 0 -33 -5v98q1 0 9.5 1t22.5 2.5t28 1.5q56 0 96 -36t40 -97v-164h188v296z" />
    <glyph glyph-name="gjYA" unicode="&#xaaf;" horiz-adv-x="640" 
d="M450 660h118v-660h-118v193q-58 -79 -173 -79q-97 0 -168.5 68t-78.5 193q79 12 132 42.5t53 77.5q0 34 -22.5 51.5t-56.5 17.5q-38 0 -74 -19v104q40 17 86 17q75 0 129 -48.5t54 -124.5q0 -134 -170 -184q10 -45 46.5 -69.5t84.5 -24.5q62 0 110 40.5t48 109.5v295z
" />
    <glyph glyph-name="gjRA" unicode="&#xab0;" horiz-adv-x="492" 
d="M30 267v101h162q62 0 102 25t40 73q0 47 -33.5 72.5t-86.5 25.5q-61 0 -121 -23v104q67 21 137 21q95 0 159.5 -52.5t64.5 -147.5q0 -92 -68 -144.5t-168 -54.5q-2 -16 -2 -26q0 -70 38 -107.5t101 -37.5q44 0 86 14v-103q-42 -14 -100 -14q-106 0 -174.5 70.5
t-68.5 192.5v11h-68z" />
    <glyph glyph-name="gjLA" unicode="&#xab2;" horiz-adv-x="716" 
d="M525 660h118v-660h-118v282h-239v102h239v276zM365 564q-92 0 -149 -66t-57 -167q0 -109 55.5 -172t149.5 -63q33 0 75 11v-101q-49 -12 -93 -12q-137 0 -222 93.5t-85 243.5q0 152 83.5 243.5t217.5 91.5q50 0 99 -12v-102q-39 12 -74 12z" />
    <glyph glyph-name="gjLLA" unicode="&#xab3;" horiz-adv-x="768" 
d="M269 655v-100q-12 4 -27 4q-87 0 -87 -172q0 -90 18.5 -137t70.5 -47q47 0 64.5 38t17.5 118q0 5 -1 34t-1 54q0 219 185 219q91 0 139 -54t48 -149v-463h-118v470q0 95 -67 95q-74 0 -74 -114q0 -22 1 -59t1 -48q0 -241 -191 -241q-103 0 -156 74t-53 213q0 270 186 270
q21 0 44 -5z" />
    <glyph glyph-name="gjVA" unicode="&#xab5;" horiz-adv-x="651" 
d="M460 660h118v-660h-118v220q-55 -76 -165 -76q-111 0 -184 72.5t-73 183.5q0 106 70 178.5t182 72.5q39 0 71 -7v-100q-25 5 -46 5q-72 0 -114.5 -43t-42.5 -110q0 -65 40 -108t110 -43q59 0 103 37t49 98v280z" />
    <glyph glyph-name="gjSHA" unicode="&#xab6;" horiz-adv-x="752" 
d="M346 -7q-107 0 -175 66t-73 187h-68v102h154q67 0 112.5 34t45.5 99q0 41 -18 65t-50 24q-33 0 -50.5 -24t-17.5 -59q0 -43 19 -75h-116q-19 35 -19 90q0 74 50.5 121.5t129.5 47.5q85 0 138 -54.5t53 -149.5t-68.5 -155.5t-175.5 -65.5q1 -74 38.5 -112t104.5 -38
q47 0 93 18v-104q-51 -17 -107 -17zM561 660h118v-660h-118v660z" />
    <glyph glyph-name="gjSSA" unicode="&#xab7;" horiz-adv-x="628" 
d="M437 660h118v-660h-118v217q-51 -48 -133 -48q-91 0 -148 55t-57 148v146q0 45 -44 45q-17 0 -35 -5v98q1 0 9.5 1t22.5 2.5t29 1.5q55 0 105 -46l251 -229v274zM212 448v-77q0 -49 28 -78.5t82 -29.5q71 0 101 52l-215 197q4 -21 4 -64z" />
    <glyph glyph-name="gjSA" unicode="&#xab8;" horiz-adv-x="774" 
d="M30 260v102h140q66 0 104.5 25.5t38.5 74.5q0 50 -35 76t-92 26q-43 0 -85 -12v104q42 10 100 10q99 0 165.5 -53.5t66.5 -150.5q0 -37 -13 -71h164v269h118v-660h-118v293h-254q-47 -26 -113 -32q-1 -6 -1 -18q0 -72 37 -109.5t99 -37.5q41 0 86 15v-103
q-45 -15 -100 -15q-104 0 -171.5 70.5t-67.5 196.5h-69z" />
    <glyph glyph-name="gjHA" unicode="&#xab9;" horiz-adv-x="615" 
d="M268 346h5q56 -47 113 -47q27 0 43 13t16 35t-20.5 41t-50 35t-59 35t-50 50.5t-20.5 72.5q0 50 27 79h117v-4q-27 -29 -27 -64q0 -24 15 -43.5t37 -32.5t48 -29.5t48 -33.5t37 -46.5t15 -66.5q0 -66 -47.5 -104.5t-117.5 -38.5q-72 0 -129 40v109zM74 468h121
q-39 -75 -39 -157q0 -95 62 -157t174 -62q104 0 190 54v-113q-79 -43 -192 -43q-160 0 -255.5 92t-95.5 232q0 84 35 154z" />
    <glyph glyph-name="gjNukta" unicode="&#xabc;" horiz-adv-x="0" 
d="M-292 -259q-30 0 -50.5 20.5t-20.5 50.5t20.5 50.5t50.5 20.5t50.5 -20.5t20.5 -50.5t-20.5 -50.5t-50.5 -20.5z" />
    <glyph glyph-name="gjAvagraha" unicode="&#xabd;" horiz-adv-x="525" 
d="M49 56v121q47 -31 108 -52t113 -21q97 0 97 67q0 31 -32.5 60.5t-78.5 57t-92.5 58t-79 75t-32.5 96.5q0 66 46.5 104t126.5 38h229v-105h-215q-59 0 -59 -45q0 -28 31.5 -56t77 -55.5t91 -59t77 -77t31.5 -98.5q0 -73 -56.5 -120t-158.5 -47q-119 0 -224 59z" />
    <glyph glyph-name="gjmAA" unicode="&#xabe;" 
d="M73 660h118v-660h-118v660z" />
    <glyph glyph-name="gjmI" unicode="&#xabf;" 
d="M73 0v707q0 115 67 181.5t192 66.5q214 0 442 -100v-101q-96 42 -217 72t-207 30q-159 0 -159 -154v-702h-118z" />
    <glyph glyph-name="gjmII" unicode="&#xac0;" 
d="M73 0v770q0 44 -19.5 67.5t-55.5 23.5q-34 0 -52.5 -23t-18.5 -65v-19h-118v24q0 88 52 135t136 47q82 0 138 -52t56 -142v-766h-118z" />
    <glyph glyph-name="gjmU" unicode="&#xac1;" horiz-adv-x="0" 
d="M-428 -82q151 -114 278 -114q35 0 56.5 15.5t21.5 42.5q0 23 -19 39t-54 16q-46 0 -104 -27v101q48 21 106 21q85 0 135 -41.5t50 -109.5t-51 -111t-133 -43q-142 0 -286 92v119z" />
    <glyph glyph-name="gjmUU" unicode="&#xac2;" horiz-adv-x="0" 
d="M-89 -176v-91q-25 -11 -68 -11q-67 0 -115 40t-48 104q0 66 48.5 107t124.5 41q65 0 117 -27t82.5 -70.5t47 -95t16.5 -103.5h-109q0 82 -42 141.5t-108 59.5q-29 0 -47 -14.5t-18 -39.5q0 -26 19 -39.5t46 -13.5q29 0 54 12z" />
    <glyph glyph-name="gjmvR" unicode="&#xac3;" horiz-adv-x="0" 
d="M-144 -288q-84 0 -137 44t-53 112q0 72 52.5 106.5t129.5 34.5q39 0 79 -8v-88q-22 5 -55 5q-92 0 -92 -57q0 -55 81 -55q79 0 153 34v-97q-71 -31 -158 -31z" />
    <glyph glyph-name="gjmEcandra" unicode="&#xac5;" horiz-adv-x="0" 
d="M95 928q0 -97 -64.5 -145.5t-162.5 -48.5q-97 0 -162 48.5t-65 145.5h112q0 -48 29.5 -76.5t85.5 -28.5t85.5 28.5t29.5 76.5h112z" />
    <glyph glyph-name="gjmE" unicode="&#xac7;" horiz-adv-x="0" 
d="M-409 880v99q38 8 70 8q107 0 163 -92l100 -163h-111l-82 111q-33 46 -84 46q-24 0 -56 -9z" />
    <glyph glyph-name="gjmAI" unicode="&#xac8;" horiz-adv-x="0" 
d="M-73 732h-117l-14 15q-59 63 -153 63q-47 0 -100 -20v97q49 15 95 15q122 0 203 -116h4l-44 90q-38 74 -109 74q-13 0 -38 -5v94q30 6 50 6q144 0 187 -170z" />
    <glyph glyph-name="gjmOcandra" unicode="&#xac9;" 
d="M227 928q0 -97 -64.5 -145.5t-162.5 -48.5q-97 0 -162 48.5t-65 145.5h112q0 -48 29.5 -76.5t85.5 -28.5t85.5 28.5t29.5 76.5h112zM73 660h118v-660h-118v660z" />
    <glyph glyph-name="gjmO" unicode="&#xacb;" 
d="M-146 880v99q38 8 70 8q107 0 163 -92l100 -163h-111l-82 111q-33 46 -84 46q-24 0 -56 -9zM73 660h118v-660h-118v660z" />
    <glyph glyph-name="gjmAU" unicode="&#xacc;" 
d="M73 660h118v-660h-118v660zM190 732h-117l-14 15q-59 63 -153 63q-47 0 -100 -20v97q50 15 95 15q122 0 203 -116h4l-44 90q-38 74 -109 74q-13 0 -38 -5v94q30 6 50 6q144 0 187 -170z" />
    <glyph glyph-name="gjVirama" unicode="&#xacd;" horiz-adv-x="0" 
d="M-70 -66l140 -172h-141l-121 172h122z" />
    <glyph glyph-name="gjOm" unicode="&#xad0;" horiz-adv-x="1199" 
d="M468 129q42 -75 126 -75q45 0 84 25t65 62.5t53 81t48 81t48 62.5t56 25q31 0 50 -29.5t19 -82.5q0 -59 -27.5 -97.5t-76.5 -38.5q-43 0 -81 22v-101q45 -18 95 -18q91 0 148.5 67t57.5 167q0 101 -50.5 160.5t-133.5 59.5q-48 0 -89.5 -25t-69 -62t-55 -81t-49 -81
t-49.5 -62t-57 -25q-24 0 -45 15t-32 30.5t-27 43.5q-41 69 -106 77q35 16 56.5 50t21.5 75q0 74 -52 120.5t-139 46.5q-86 0 -149 -41v-102q63 45 133 45q40 0 65 -21.5t25 -57.5q0 -38 -28 -62.5t-83 -24.5h-31v-95h71q105 0 105 -78q0 -40 -28.5 -63.5t-76.5 -23.5
q-94 0 -177 54v-110q80 -43 182 -43q75 0 130.5 37.5t72.5 92.5zM909 707q0 -97 -65.5 -145.5t-164.5 -48.5t-164.5 48.5t-65.5 145.5h113q0 -49 30 -77t87 -28t87 28t30 77h113zM679 684q-27 0 -45 18t-18 45t18 45t45 18t45 -18t18 -45t-18 -45t-45 -18z" />
    <glyph glyph-name="gjAbbreviationsign" unicode="&#xaf0;" horiz-adv-x="416" 
d="M207 136q-75 0 -121.5 44t-46.5 120q0 74 47.5 119t122.5 45q76 0 122 -44.5t46 -119.5q0 -74 -47 -119t-123 -45zM207 379q-33 0 -52.5 -21t-19.5 -57q0 -37 20 -58.5t55 -21.5q34 0 52.5 21t18.5 57q0 37 -19 58.5t-55 21.5z" />
    <glyph glyph-name="gjRupeesign" unicode="&#xaf1;" horiz-adv-x="952" 
d="M288 28q-83 0 -130 47v-140h-103v291h103v-6q0 -44 31.5 -69.5t78.5 -25.5q43 0 71 24t28 65q0 48 -33.5 71t-81.5 23h-86v100h86q43 0 74 19.5t31 57.5q0 39 -32 59t-84 20q-64 0 -137 -21v102q70 21 153 21q94 0 157 -43.5t63 -123.5q0 -52 -36.5 -88.5t-90.5 -50.5
q60 -14 98.5 -55.5t38.5 -106.5q0 -82 -59 -126t-140 -44zM743 136q-75 0 -121.5 44t-46.5 120q0 74 47.5 119t122.5 45q76 0 122 -44.5t46 -119.5q0 -74 -47 -119t-123 -45zM743 379q-33 0 -52.5 -21t-19.5 -57q0 -37 20 -58.5t55 -21.5q34 0 52.5 21t18.5 57
q0 37 -19 58.5t-55 21.5z" />
    <glyph glyph-name="zerowidthnonjoiner" unicode="&#x200c;" horiz-adv-x="0" 
d="M24 -230h-47v1041h47v-1041z" />
    <glyph glyph-name="zerowidthjoiner" unicode="&#x200d;" horiz-adv-x="0" 
d="M24 -230h-47v865l-69 -73l-33 33l93 93l-95 95l33 33l95 -95l96 95l32 -32l-96 -96l96 -95l-33 -33l-72 75v-865z" />
    <glyph glyph-name="endash" unicode="&#x2013;" horiz-adv-x="549" 
d="M500 223h-450v92h450v-92z" />
    <glyph glyph-name="emdash" unicode="&#x2014;" horiz-adv-x="831" 
d="M781 226h-731v92h731v-92z" />
    <glyph glyph-name="quoteleft" unicode="&#x2018;" horiz-adv-x="234" 
d="M158 447h-137l130 247h101z" />
    <glyph glyph-name="quoteright" unicode="&#x2019;" horiz-adv-x="234" 
d="M124 447h-102l94 247h137z" />
    <glyph glyph-name="quotesinglbase" unicode="&#x201a;" horiz-adv-x="234" 
d="M98 -126h-102l95 247h137z" />
    <glyph glyph-name="quotedblleft" unicode="&#x201c;" horiz-adv-x="403" 
d="M156 447h-135l134 247h98zM331 447h-127l120 247h98z" />
    <glyph glyph-name="quotedblright" unicode="&#x201d;" horiz-adv-x="403" 
d="M120 447h-98l91 247h126zM289 447h-98l97 247h135z" />
    <glyph glyph-name="quotedblbase" unicode="&#x201e;" horiz-adv-x="403" 
d="M98 -126h-98l91 247h126zM267 -126h-98l96 247h135z" />
    <glyph glyph-name="dagger" unicode="&#x2020;" horiz-adv-x="546" 
d="M511 416h-186v-416h-108v416h-182v100h182v158h108v-158h186v-100z" />
    <glyph glyph-name="daggerdbl" unicode="&#x2021;" horiz-adv-x="567" 
d="M522 162h-186v-162h-108v162h-183v100h183v154h-183v100h183v158h108v-158h186v-100h-186v-154h186v-100z" />
    <glyph glyph-name="bullet" unicode="&#x2022;" horiz-adv-x="434" 
d="M350 356q0 -56 -38 -94.5t-94 -38.5q-57 0 -95 38t-38 95t37.5 95t94.5 38q56 0 94.5 -38.5t38.5 -94.5z" />
    <glyph glyph-name="ellipsis" unicode="&#x2026;" horiz-adv-x="855" 
d="M206 70q0 -32 -22.5 -55t-54.5 -23t-55 23t-23 55t23 54.5t55 22.5t54.5 -22.5t22.5 -54.5zM505 70q0 -32 -22.5 -55t-54.5 -23t-55 23t-23 55t23 54.5t55 22.5t54.5 -22.5t22.5 -54.5zM804 70q0 -32 -22.5 -55t-54.5 -23t-55 23t-23 55t23 54.5t55 22.5t54.5 -22.5
t22.5 -54.5z" />
    <glyph glyph-name="perthousand" unicode="&#x2030;" horiz-adv-x="1336" 
d="M327 -1h-110l371 692h111zM401 525q0 -73 -52.5 -125.5t-125.5 -52.5t-125.5 52.5t-52.5 125.5q0 74 52 126t126 52t126 -52t52 -126zM144 525q0 -32 23 -55.5t56 -23.5t56 23.5t23 55.5q0 33 -23 56.5t-56 23.5t-56 -23.5t-23 -56.5zM877 170q0 -74 -52.5 -126
t-125.5 -52t-125.5 52t-52.5 126t52.5 126t125.5 52t125.5 -52t52.5 -126zM620 170q0 -32 23.5 -55.5t55.5 -23.5q33 0 56.5 23.5t23.5 55.5q0 33 -23.5 56.5t-56.5 23.5q-32 0 -55.5 -23.5t-23.5 -56.5zM1298 170q0 -74 -52 -126t-126 -52t-126 52t-52 126t52 126t126 52
t126 -52t52 -126zM1041 170q0 -32 23 -55.5t56 -23.5q32 0 55.5 23.5t23.5 55.5q0 33 -23.5 56.5t-55.5 23.5q-33 0 -56 -23.5t-23 -56.5z" />
    <glyph glyph-name="guilsinglleft" unicode="&#x2039;" horiz-adv-x="344" 
d="M160 253l146 -162h-127l-152 162l152 162h127z" />
    <glyph glyph-name="guilsinglright" unicode="&#x203a;" horiz-adv-x="343" 
d="M317 253l-152 -162h-127l146 162l-146 162h127z" />
    <glyph glyph-name="fraction" unicode="&#x2044;" horiz-adv-x="282" 
d="M-50 0h-95l437 711h94z" />
    <glyph glyph-name="Euro" unicode="&#x20ac;" horiz-adv-x="610" 
d="M570 23q-59 -31 -144 -31q-105 0 -180.5 58.5t-105.5 158.5h-95v77h81q-1 12 -1 36q0 16 2 42h-82v78h96q29 104 106 162t177 58q90 0 146 -32v-121q-53 39 -127 39q-119 0 -167 -106h187v-78h-208q-3 -21 -3 -43q0 -13 2 -35h209v-77h-189q22 -51 65 -78t99 -27
q76 0 132 40v-121z" />
    <glyph glyph-name="indianrupee" unicode="&#x20b9;" horiz-adv-x="552" 
d="M508 410h-103q-10 -76 -61.5 -122t-139.5 -54l195 -234h-152l-185 233v97h91q112 0 130 80h-221v93h216q-29 78 -127 78h-89v93h446v-93h-156q34 -34 46 -78h110v-93z" />
    <glyph glyph-name="uni20BA" unicode="&#x20ba;" horiz-adv-x="585" 
d="M218 0h-82v235l-79 -40v96l79 40v87l-79 -40v96l79 40v141h120v-79l97 49v-96l-97 -49v-88l97 49v-96l-97 -49v-191q87 19 139 92t52 166h117q0 -150 -94 -256.5t-252 -106.5z" />
    <glyph glyph-name="uni20BD" unicode="&#x20bd;" horiz-adv-x="560" 
d="M277 556h-60v-225h57q137 0 137 114q0 111 -134 111zM417 81h-200v-81h-126v81h-88v88h88v74h-88v88h88v324h196q120 0 182.5 -56.5t62.5 -149.5q0 -98 -65 -152t-177 -54h-73v-74h200v-88z" />
    <glyph glyph-name="uni2113" unicode="&#x2113;" horiz-adv-x="512" 
d="M264 465v-138q50 30 75.5 75.5t25.5 96.5q0 33 -12.5 53t-36.5 20q-52 0 -52 -107zM468 27q-54 -32 -133 -32q-90 0 -140.5 50t-50.5 145v1q-26 -2 -40 -2q-40 0 -69 9v100q34 -10 68 -10q15 0 41 2v180q0 94 38 151.5t123 57.5q81 0 122 -48t41 -124q0 -93 -53.5 -172
t-150.5 -118v-9q0 -115 98 -115q55 0 106 33v-99z" />
    <glyph glyph-name="trademark" unicode="&#x2122;" horiz-adv-x="731" 
d="M370 331h-80l28 343h91l44 -119q16 -40 26.5 -71.5t12.5 -43.5l3 -12q11 38 44 127l46 119h91l32 -343h-80l-10 129q-3 32 -3 62.5t1 45.5l1 14q-10 -47 -39 -123l-46 -123h-72l-44 123q-12 33 -21 63.5t-13 45.5l-3 14q5 -50 0 -123zM173 331h-81v272h-85v71h250v-71
h-84v-272z" />
    <glyph glyph-name="uni2126" unicode="&#x2126;" horiz-adv-x="786" 
d="M348 0h-300v104h139q-105 83 -105 240q0 155 83.5 248.5t227.5 93.5q146 0 229 -93t83 -249q0 -158 -106 -240h139v-104h-300v104q66 15 99 80t33 160q0 106 -46 166t-131 60q-84 0 -130 -60.5t-46 -165.5q0 -93 33.5 -158.5t97.5 -81.5v-104z" />
    <glyph glyph-name="partialdiff" unicode="&#x2202;" horiz-adv-x="538" 
d="M490 285q0 -138 -61 -216t-171 -78q-105 0 -163 63.5t-58 161.5q0 95 60.5 154t144.5 59q70 0 120 -40q-28 85 -95.5 159.5t-150.5 125.5h167q88 -64 147.5 -174.5t59.5 -214.5zM259 99q53 0 85 44.5t34 132.5q-44 49 -115 49q-45 0 -74 -31t-29 -83q0 -50 26.5 -81
t72.5 -31z" />
    <glyph glyph-name="uni2206" unicode="&#x2206;" horiz-adv-x="657" 
d="M34 0v88l215 586h163l212 -586v-88h-590zM223 266l-55 -163h321l-55 163l-105 315q-25 -72 -106 -315z" />
    <glyph glyph-name="product" unicode="&#x220f;" horiz-adv-x="627" 
d="M217 25q0 -210 -172 -210q-37 0 -69 12v111q24 -13 49 -13q35 0 50 23t15 73v653h469v-854h-127v745h-215v-540z" />
    <glyph glyph-name="summation" unicode="&#x2211;" horiz-adv-x="468" 
d="M164 -96h324v-104h-458v104l159 340l-159 326v104h458v-104h-323l156 -326z" />
    <glyph glyph-name="minus" unicode="&#x2212;" horiz-adv-x="576" 
d="M526 286h-476v107h476v-107z" />
    <glyph glyph-name="uni2215" unicode="&#x2215;" horiz-adv-x="439" 
d="M59 0h-95l437 711h95z" />
    <glyph glyph-name="uni2219" unicode="&#x2219;" horiz-adv-x="288" 
d="M222 337q0 -32 -23 -55t-55 -23t-55 23t-23 55t23 55t55 23t55 -23t23 -55z" />
    <glyph glyph-name="radical" unicode="&#x221a;" horiz-adv-x="798" 
d="M502 -193h-148l-197 543h-128l24 96h206l91 -266q23 -66 42.5 -130t27.5 -94.5t9 -36.5l3 13q2 13 7.5 37t13 54.5t19 73t24.5 85.5l221 721h127z" />
    <glyph glyph-name="infinity" unicode="&#x221e;" horiz-adv-x="832" 
d="M415 273q-25 -30 -46 -48.5t-59.5 -36t-82.5 -17.5q-87 0 -133.5 44.5t-46.5 124.5q0 78 50 126t134 48q58 0 100.5 -26.5t84.5 -74.5q84 103 189 103q85 0 132.5 -45t47.5 -123t-50.5 -126.5t-133.5 -48.5q-101 0 -186 100zM153 343q0 -35 22 -56.5t60 -21.5
q61 0 115 80q-20 22 -34 35.5t-36.5 26t-44.5 12.5q-39 0 -60.5 -20.5t-21.5 -55.5zM481 341q22 -23 36 -36t36 -25t44 -12q39 0 59.5 20t20.5 57q0 33 -21 55t-58 22q-60 0 -117 -81z" />
    <glyph glyph-name="integral" unicode="&#x222b;" horiz-adv-x="322" 
d="M224 -5q0 -85 -47 -133t-130 -48q-38 0 -66 9v100q26 -10 50 -10q73 0 73 82v531q0 85 47 133t130 48q38 0 66 -9v-101q-26 10 -50 10q-73 0 -73 -82v-530z" />
    <glyph glyph-name="approxequal" unicode="&#x2248;" horiz-adv-x="600" 
d="M210 419q-56 0 -101 -59l-77 62q69 97 156 97q57 0 119.5 -28t87.5 -28q50 0 92 56l78 -61q-63 -95 -151 -95q-50 0 -112 28t-92 28zM210 216q-57 0 -101 -58l-77 62q70 96 156 96q57 0 119.5 -27.5t87.5 -27.5q50 0 92 56l78 -62q-62 -94 -151 -94q-50 0 -112 27.5
t-92 27.5z" />
    <glyph glyph-name="notequal" unicode="&#x2260;" horiz-adv-x="576" 
d="M526 181h-278l-38 -83h-68l38 83h-130v98h176l57 123h-233v97h278l38 83h67l-38 -83h131v-97h-176l-57 -123h233v-98z" />
    <glyph glyph-name="lessequal" unicode="&#x2264;" horiz-adv-x="571" 
d="M521 475l-407 -62l407 -62v-106l-476 91v155l476 90v-106zM521 97h-476v98h476v-98z" />
    <glyph glyph-name="greaterequal" unicode="&#x2265;" horiz-adv-x="571" 
d="M526 491v-155l-476 -91v106l407 62l-407 62v106zM526 97h-476v98h476v-98z" />
    <glyph glyph-name="lozenge" unicode="&#x25ca;" horiz-adv-x="589" 
d="M163 337l32 -58q31 -54 56 -100t34 -65l9 -19q29 62 101 184l33 58l-33 58q-32 54 -57 100t-34 65l-10 19q-29 -62 -99 -184zM358 0h-130l-190 337l190 337h130l193 -337z" />
    <glyph glyph-name="dottedcircle" unicode="&#x25cc;" horiz-adv-x="660" 
d="M286 90q0 -20 -12.5 -33t-31.5 -13t-32 13t-13 33q0 18 13 31t32 13t31.5 -13t12.5 -31zM184 165q0 -19 -12.5 -31.5t-31.5 -12.5q-20 0 -32 12.5t-12 31.5t12.5 31.5t31.5 12.5t31.5 -12.5t12.5 -31.5zM132 281q0 -19 -12.5 -31t-31.5 -12t-31.5 12t-12.5 31t12.5 32
t31.5 13t31.5 -12.5t12.5 -32.5zM413 74q0 -19 -12.5 -31.5t-32.5 -12.5t-32 12t-12 32t12 32t32 12t32.5 -12.5t12.5 -31.5zM147 407q0 -19 -13 -31.5t-31 -12.5q-20 0 -33 12.5t-13 31.5t13 31.5t33 12.5q18 0 31 -12.5t13 -31.5zM534 127q0 -19 -13 -31.5t-32 -12.5
t-31.5 12.5t-12.5 31.5t12.5 31.5t31.5 12.5t32 -12.5t13 -31.5zM227 517q0 -20 -12.5 -32.5t-31.5 -12.5t-31.5 12.5t-12.5 32.5q0 19 12.5 31.5t31.5 12.5t31.5 -12.5t12.5 -31.5zM606 225q0 -19 -12.5 -31.5t-30.5 -12.5q-19 0 -32 12.5t-13 31.5t13 32t32 13
q18 0 30.5 -13t12.5 -32zM345 560q0 -20 -12.5 -32t-31.5 -12t-31.5 12t-12.5 32t12.5 32t31.5 12t31.5 -12t12.5 -32zM616 359q0 -19 -12.5 -31.5t-31.5 -12.5q-20 0 -32 12.5t-12 31.5t12 31.5t32 12.5q19 0 31.5 -12.5t12.5 -31.5zM471 545q0 -18 -12.5 -31t-30.5 -13
q-19 0 -32 13t-13 31q0 19 12.5 32t32.5 13q19 0 31 -12.5t12 -32.5zM566 477q0 -19 -12.5 -31.5t-31.5 -12.5t-31.5 12.5t-12.5 31.5t12.5 32t31.5 13t31.5 -12.5t12.5 -32.5z" />
    <glyph glyph-name="fi" unicode="&#xfb01;" horiz-adv-x="552" 
d="M224 0h-120v417h-74v90h74v30q0 85 47 133t132 48q86 0 169 -39v-101q-85 40 -154 40q-37 0 -55.5 -18.5t-18.5 -63.5v-29h275v-507h-120v417h-155v-417z" />
    <glyph glyph-name="fl" unicode="&#xfb02;" horiz-adv-x="562" 
d="M325 417h-101v-417h-120v417h-74v90h74v30q0 85 47 133t131 48q99 0 215 -58v-660h-121v607q-39 11 -73 11q-39 0 -59 -17.5t-20 -64.5v-29h101v-90z" />
    <glyph glyph-name="gjK_SSA" horiz-adv-x="780" 
d="M212 503q0 -60 69 -83q73 33 73 87q0 28 -19 46.5t-49 18.5q-31 0 -52.5 -20t-21.5 -49zM589 660h118v-660h-118v317h-228q-51 0 -97 13q-51 -25 -78.5 -51t-27.5 -65t27 -62t68 -23q46 0 80 32.5t34 79.5h113v-241h-115v97q-17 -26 -54 -43.5t-79 -17.5q-83 0 -138 48
t-55 125q0 64 34.5 101.5t94.5 64.5q-67 52 -67 134q0 71 51 115t130 44q80 0 130 -41.5t50 -111.5q0 -64 -54 -108h181v253z" />
    <glyph glyph-name="gjJ_NYA" horiz-adv-x="699" 
d="M508 0v483h-272q-57 0 -57 -37t63 -37q75 0 124.5 -34t49.5 -106q0 -69 -48.5 -102.5t-121.5 -33.5h-34q-1 -6 -1 -18q0 -33 27 -52t77 -19q49 0 88 11v-99q-37 -10 -96 -10q-93 0 -150.5 48t-57.5 132v7h-68v95h199q71 0 71 42q0 24 -18.5 32t-53.5 8q-73 0 -117.5 35.5
t-44.5 99.5t46.5 99t114.5 35h280v81h118v-660h-118z" />
    <glyph glyph-name="gjReph" horiz-adv-x="0" 
d="M31 974v-100q-36 14 -69 14q-80 0 -80 -68q0 -36 40 -88h-114q-36 51 -36 107q0 72 49 110.5t122 38.5q43 0 88 -14z" />
    <glyph glyph-name="gjRAc2" horiz-adv-x="0" 
d="M-367 -186l161 186h148l161 -186h-140l-95 122l-95 -122h-140z" />
    <glyph glyph-name="gjK" horiz-adv-x="568" 
d="M288 -6q-122 0 -218 45v109q106 -52 210 -52q48 0 87 20t39 65t-31.5 69t-89.5 44l-245 -65v103l118 28q-84 47 -84 134q0 82 64 127t166 45q96 0 172 -23v-104q-84 25 -168 25q-52 0 -84 -20t-32 -60q0 -57 88 -89l29 7q92 24 218 24h198v-91h-64q-199 0 -244 -4
q107 -49 107 -154q0 -83 -67.5 -133t-168.5 -50z" />
    <glyph glyph-name="gjKH" horiz-adv-x="581" 
d="M370 510h118v-108h245v-99h-246q-5 -83 -55.5 -128t-136.5 -45q-90 0 -141 50.5t-51 141.5v194q0 47 -47 47q-16 0 -33 -5v98l9 1q8 1 22 2.5t29 1.5q57 0 97.5 -36t40.5 -97v-220q0 -79 74 -79q75 0 75 79v202z" />
    <glyph glyph-name="gjG" horiz-adv-x="425" 
d="M133 666q101 0 172.5 -67t71.5 -177q0 -108 -72 -174.5t-174 -66.5q-46 0 -97 17v103q38 -17 86 -17q62 0 99.5 38.5t37.5 101.5q0 62 -37 101t-100 39q-37 0 -70 -13v103q39 12 83 12z" />
    <glyph glyph-name="gjGH" horiz-adv-x="405" 
d="M482 298l80 -49q-46 -77 -121 -121.5t-169 -44.5q-88 0 -153.5 45t-65.5 120q0 113 137 139q-56 14 -90.5 48.5t-34.5 90.5q0 66 54 105.5t136 39.5q57 0 105 -11v-99q-38 11 -83 11q-39 0 -66 -17t-27 -53q0 -34 26 -51.5t63 -17.5h54v-100h-62q-38 0 -65 -19t-27 -52
q0 -38 32 -59t81 -21q120 0 196 116z" />
    <glyph glyph-name="gjNG" horiz-adv-x="612" 
d="M315 382q184 -52 184 -196q0 -87 -68 -139.5t-170 -52.5q-122 0 -212 50v109q99 -57 211 -57q50 0 84.5 22.5t34.5 63.5q0 21 -8 38t-19 27t-31.5 19.5t-35 14t-40.5 11.5q-30 8 -54.5 16.5t-52.5 24.5t-47 35.5t-31.5 50t-12.5 67.5q0 86 64.5 133t167.5 47
q92 0 170 -22v-104q-80 24 -166 24q-52 0 -84 -20t-32 -60q0 -17 8 -31t17 -22.5t29.5 -18t30 -12.5t34.5 -10t29 -8zM522 355q-30 0 -50.5 20.5t-20.5 50.5t20.5 50.5t50.5 20.5t50.5 -20.5t20.5 -50.5t-20.5 -50.5t-50.5 -20.5zM327 -66l140 -172h-141l-121 172h122z" />
    <glyph glyph-name="gjC" horiz-adv-x="451" 
d="M533 316l85 -51q-37 -74 -108.5 -120t-158.5 -46q-99 0 -173 56.5t-84 162.5h-67v100h154q41 0 70 17t29 56q0 35 -28.5 55t-72.5 20q-48 0 -93 -12v101q57 11 105 11q87 0 147.5 -47t60.5 -131q0 -81 -56 -125.5t-138 -44.5q6 -59 45.5 -88.5t98.5 -29.5q117 0 184 116z
" />
    <glyph glyph-name="gjCH" horiz-adv-x="802" 
d="M337 96q131 0 223 86t92 219q0 127 -63 127q-30 0 -46.5 -28.5t-16.5 -80.5q0 -76 44 -140h-114q-47 70 -47 156q0 83 45.5 138.5t128.5 55.5q79 0 132.5 -64t53.5 -173q0 -116 -60.5 -209t-155.5 -141.5t-203 -48.5q-129 0 -210.5 54t-81.5 147q0 61 36.5 98t92.5 49
q-60 13 -99 54.5t-39 100.5q0 80 62.5 125t152.5 45q49 0 91 -10v-101q-38 10 -76 10q-49 0 -79.5 -22t-30.5 -64q0 -44 31.5 -65.5t76.5 -21.5h59v-100h-49q-45 0 -77 -23t-32 -68q0 -52 47.5 -78.5t111.5 -26.5zM432 -66l140 -172h-141l-121 172h122z" />
    <glyph glyph-name="gjJ" horiz-adv-x="716" 
d="M816 538v-103q-38 12 -88 12q-80 0 -163 -38q99 -133 99 -234q0 -76 -56 -128.5t-151 -52.5q-81 0 -143 51t-62 139q0 64 41 130t110 120q-59 65 -103 97.5t-88 32.5q-32 0 -54 -18.5t-22 -51.5q0 -29 21 -49t55 -20q25 0 45 8v-98q-22 -10 -64 -10q-76 0 -125.5 49.5
t-49.5 118.5q0 76 53 124.5t134 48.5q80 0 148.5 -45t142.5 -128q110 56 221 56q57 0 99 -11zM456 93q38 0 64.5 26.5t26.5 66.5q0 73 -74 165q-48 -39 -76 -85t-28 -87q0 -35 24.5 -60.5t62.5 -25.5z" />
    <glyph glyph-name="gjJH" horiz-adv-x="765" 
d="M349 18v103q47 -18 104 -18q66 0 111 37t45 102q0 69 -42.5 104.5t-105.5 35.5q-45 0 -83 -17q-19 -83 -86 -132t-154 -49q-48 0 -99 17v102q42 -16 84 -16q60 0 100.5 37.5t40.5 100.5q0 62 -37 100.5t-100 38.5q-37 0 -70 -13v103q39 12 81 12q91 0 158.5 -52.5
t83.5 -140.5q49 11 90 11q103 0 181.5 -64.5t78.5 -179.5q0 -105 -72.5 -172.5t-185.5 -67.5q-66 0 -123 18z" />
    <glyph glyph-name="gjNY" horiz-adv-x="444" 
d="M141 627q96 0 166 -60t77 -159h209v-98h-221q-24 -72 -88.5 -114t-144.5 -42q-56 0 -110 22v103q43 -22 99 -22q61 0 99 37t38 97q0 59 -37 96.5t-100 37.5q-37 0 -70 -13v103q41 12 83 12z" />
    <glyph glyph-name="gjTT" horiz-adv-x="537" 
d="M96 524v112q67 30 165 30q96 0 163 -51.5t67 -137.5q0 -125 -161 -177q-8 -3 -36 -11t-40 -12.5t-33.5 -14.5t-31 -19.5t-18 -25.5t-8.5 -35q0 -47 38 -67t85 -20q107 0 202 50v-111q-79 -41 -198 -41q-104 0 -176 52.5t-72 148.5q0 43 16.5 76.5t47 55.5t60.5 35.5
t70 25.5q29 9 41.5 13t34.5 13.5t32 18t18 22t8 30.5q0 42 -35 61t-83 19q-85 0 -156 -40zM309 -66l140 -172h-141l-121 172h122z" />
    <glyph glyph-name="gjTTH" horiz-adv-x="603" 
d="M307 93q67 0 105.5 28.5t38.5 74.5t-39 74.5t-105 28.5q-68 0 -107 -28.5t-39 -74.5t39 -74.5t107 -28.5zM570 196q0 -89 -73.5 -146t-191.5 -57q-116 0 -189 57t-73 146q0 59 35 103t96 66q-86 50 -86 134q0 81 65.5 124t168.5 43q93 0 169 -22v-103q-82 23 -165 23
q-118 0 -118 -73q0 -21 12 -37t36 -26.5t44 -16.5t52.5 -13t46.5 -11q171 -51 171 -191zM356 -66l140 -172h-141l-121 172h122z" />
    <glyph glyph-name="gjDD" horiz-adv-x="532" 
d="M449 643v-107q-73 28 -159 28q-123 0 -123 -80q0 -22 10 -37.5t32 -27t41 -18t53 -15.5q197 -53 197 -197q0 -94 -69.5 -145t-178.5 -51q-120 0 -203 43v111q98 -52 206 -52q49 0 86.5 21.5t37.5 66.5q0 16 -5 29.5t-16.5 24t-21.5 18t-29 14.5t-30 10.5t-33 10t-30 8.5
q-168 51 -168 183q0 86 63.5 135.5t168.5 49.5q102 0 171 -23zM327 -66l140 -172h-141l-121 172h122z" />
    <glyph glyph-name="gjDDH" horiz-adv-x="598" 
d="M454 660q23 -32 23 -74q0 -51 -33 -88t-79.5 -61t-93.5 -48t-80 -63t-33 -92q0 -66 47 -103.5t122 -37.5q53 0 94 24t41 73q0 29 -15.5 44t-35.5 15q-24 0 -38.5 -15.5t-14.5 -37.5q0 -20 6 -34h-104q-11 26 -11 56q0 59 46 94.5t113 35.5q76 0 123.5 -46t47.5 -117
q0 -88 -73.5 -139.5t-178.5 -51.5q-119 0 -203 68.5t-84 182.5q0 67 33 118.5t80 81t93.5 53.5t79.5 49.5t33 55.5q0 32 -22 57h117zM375 -66l140 -172h-141l-121 172h122z" />
    <glyph glyph-name="gjNN" horiz-adv-x="637" 
d="M190 660v-385q0 -50 17 -86t48 -56t67.5 -28.5t80.5 -8.5q97 0 178 37v-104q-80 -35 -171 -35q-67 0 -125 16t-107 49.5t-77.5 94t-28.5 141.5v365h118zM378 659q94 0 152.5 -60t58.5 -147q0 -86 -59 -146t-154 -60q-44 0 -78 12v101q30 -11 64 -11q52 0 81.5 30t29.5 74
t-28.5 74.5t-80.5 30.5q-32 0 -61 -10v101q35 11 75 11z" />
    <glyph glyph-name="gjT" horiz-adv-x="365" 
d="M515 395h-213q-67 0 -106 -39t-39 -112q0 -69 30 -106.5t90 -37.5q17 0 36 3v-98q-25 -5 -47 -5q-101 0 -164 68t-63 178q0 118 67.5 183t191.5 65h217v-99z" />
    <glyph glyph-name="gjTH" horiz-adv-x="432" 
d="M516 334l72 -63q-44 -74 -117 -115.5t-159 -41.5q-108 0 -186 67t-96 184q127 24 189.5 57.5t62.5 89.5q0 27 -15 42.5t-37 15.5q-28 0 -41.5 -17.5t-13.5 -43.5q0 -28 11 -53h-111q-11 35 -11 65q0 64 43.5 106t118.5 42q74 0 119.5 -45t45.5 -118q0 -81 -65 -136
t-160 -75q18 -40 58 -61t87 -21q131 0 205 121z" />
    <glyph glyph-name="gjD" horiz-adv-x="483" 
d="M473 23q-80 -29 -168 -29q-98 0 -175 52t-77 143q0 62 38 101t98 51q-54 15 -90 55.5t-36 97.5q0 82 62.5 127t157.5 45q81 0 155 -21v-103q-72 22 -140 22q-52 0 -83.5 -22t-31.5 -66q0 -43 30.5 -65t73.5 -22h90v-100h-90q-47 0 -80.5 -23t-33.5 -71q0 -49 38.5 -74
t96.5 -25q80 0 165 32v-105zM322 -66l140 -172h-141l-121 172h122z" />
    <glyph glyph-name="gjDH" horiz-adv-x="407" 
d="M564 249q-43 -75 -119.5 -120.5t-169.5 -45.5q-89 0 -155.5 49.5t-66.5 134.5q0 66 41.5 104t100.5 50q-56 16 -93 56.5t-37 100.5q0 86 68 152h141v-9q-91 -83 -91 -160q0 -44 28 -69t79 -25h44v-98h-56q-45 0 -75 -25t-30 -68q0 -44 34.5 -68t82.5 -24q119 0 194 114z
" />
    <glyph glyph-name="gjN" horiz-adv-x="487" 
d="M432 278q0 -78 -55 -127t-142 -49q-90 0 -145 55.5t-55 140.5q0 90 57 143t153 53h397v-97h-261q51 -48 51 -119zM153 298q0 -45 23 -71t59 -26t59 26t23 71t-23 71t-59 26t-59 -26t-23 -71z" />
    <glyph glyph-name="gjP" horiz-adv-x="366" 
d="M434 354l71 -66q-27 -51 -83 -86t-123 -35q-91 0 -145.5 56t-54.5 147v148q0 45 -44 45q-17 0 -35 -5v98q1 0 9.5 1t22.5 2.5t29 1.5q56 0 96 -35.5t40 -95.5v-164q0 -46 22.5 -72.5t67.5 -26.5q41 0 73.5 24.5t53.5 62.5z" />
    <glyph glyph-name="gjPH" horiz-adv-x="570" 
d="M324 -3q-79 0 -136 41v-133h-111v264h107q10 -36 43 -55t75 -19q44 0 76 23.5t32 63.5q0 45 -32 69t-90 43l-246 -65v103l118 28q-85 47 -85 134q0 82 64 127t166 45q95 0 173 -23v-104q-85 25 -168 25q-53 0 -85 -20t-32 -60q0 -57 88 -89l29 7q93 24 219 24h198v-91
h-70q-197 0 -240 -4q109 -51 109 -158q0 -82 -59 -129t-143 -47z" />
    <glyph glyph-name="gjB" horiz-adv-x="551" 
d="M424 648v-103q-55 19 -114 19q-68 0 -111 -46.5t-43 -149.5q0 -179 101 -179q83 0 83 112v147h118v-93h244v-98h-247q-11 -85 -63.5 -126.5t-132.5 -41.5q-96 0 -158.5 71.5t-62.5 214.5q0 145 74.5 218t190.5 73q69 0 121 -18z" />
    <glyph glyph-name="gjBH" horiz-adv-x="564" 
d="M354 0q-142 0 -228.5 95.5t-86.5 260.5q0 61 13 114t40 98t75.5 71.5t112.5 26.5q89 0 140 -54.5t51 -142.5v-50h249v-99h-249v-91h-103l-30 56q-27 52 -27 76q0 40 44 52v64q0 39 -18.5 64.5t-58.5 25.5q-55 0 -88 -58t-33 -161q0 -112 52 -179t159 -67q48 0 100 13
v-101q-56 -14 -114 -14z" />
    <glyph glyph-name="gjM" horiz-adv-x="345" 
d="M228 528v-164h261v-98h-261v-120h-100l-34 75q-27 60 -27 85q0 41 45 53v157q0 47 -47 47q-16 0 -33 -5v98q1 0 9.5 1t22.5 2.5t28 1.5q56 0 96 -36t40 -97z" />
    <glyph glyph-name="gjY" horiz-adv-x="401" 
d="M485 317l75 -64q-42 -61 -109.5 -100.5t-151.5 -39.5q-108 0 -185 65.5t-84 196.5q79 12 132 42.5t53 77.5q0 34 -22.5 51.5t-56.5 17.5q-38 0 -74 -19v104q40 17 86 17q75 0 129 -48.5t54 -124.5q0 -134 -170 -184q10 -45 46.5 -69.5t84.5 -24.5q119 0 193 102z" />
    <glyph glyph-name="gjR" horiz-adv-x="492" 
d="M30 267v101h162q62 0 102 25t40 73q0 47 -33.5 72.5t-86.5 25.5q-61 0 -121 -23v104q67 21 137 21q95 0 159.5 -52.5t64.5 -147.5q0 -92 -68 -144.5t-168 -54.5q-2 -16 -2 -26q0 -70 38 -107.5t101 -37.5q44 0 86 14v-103q-42 -14 -100 -14q-106 0 -174.5 70.5
t-68.5 192.5v11h-68zM308 -66l140 -172h-141l-121 172h122z" />
    <glyph glyph-name="gjL" horiz-adv-x="463" 
d="M439 6q-49 -12 -93 -12q-137 0 -222 93.5t-85 243.5q0 152 83.5 243.5t217.5 91.5q50 0 99 -12v-102q-39 12 -74 12q-92 0 -149 -66t-57 -167q0 -109 55.5 -172t149.5 -63q33 0 75 11v-101zM617 282h-331v102h331v-102z" />
    <glyph glyph-name="gjV" horiz-adv-x="402" 
d="M487 341l72 -75q-93 -124 -248 -124q-112 0 -192.5 74t-80.5 187q0 105 70 176.5t182 71.5q39 0 71 -7v-100q-25 5 -46 5q-72 0 -114.5 -42.5t-42.5 -109.5q0 -65 43.5 -108.5t115.5 -43.5q54 0 98.5 26.5t71.5 69.5z" />
    <glyph glyph-name="gjSH" horiz-adv-x="501" 
d="M346 -7q-107 0 -175 66t-73 187h-68v102h154q67 0 112.5 34t45.5 99q0 41 -18 65t-50 24q-33 0 -50.5 -24t-17.5 -59q0 -43 19 -75h-116q-19 35 -19 90q0 74 50.5 121.5t129.5 47.5q85 0 138 -54.5t53 -149.5t-68.5 -155.5t-175.5 -65.5q1 -74 38.5 -112t104.5 -38
q47 0 93 18v-104q-51 -17 -107 -17z" />
    <glyph glyph-name="gjSS" horiz-adv-x="395" 
d="M316 263q64 0 107 51l-215 198q4 -21 4 -64v-77q0 -47 27 -77.5t77 -30.5zM186 615l341 -316q-31 -60 -88 -97t-127 -37q-95 0 -154 56t-59 151v146q0 45 -44 45q-17 0 -35 -5v98q1 0 9.5 1t22.5 2.5t29 1.5q55 0 105 -46z" />
    <glyph glyph-name="gjS" horiz-adv-x="499" 
d="M30 260v102h140q66 0 104.5 25.5t38.5 74.5q0 50 -35 76t-92 26q-43 0 -85 -12v104q42 10 100 10q99 0 165.5 -53.5t66.5 -150.5q0 -37 -13 -71h186v-98h-276q-47 -26 -113 -32q-1 -6 -1 -18q0 -72 37 -109.5t99 -37.5q41 0 86 15v-103q-45 -15 -100 -15
q-104 0 -171.5 70.5t-67.5 196.5h-69z" />
    <glyph glyph-name="gjH" horiz-adv-x="615" 
d="M268 346h5q56 -47 113 -47q27 0 43 13t16 35t-20.5 41t-50 35t-59 35t-50 50.5t-20.5 72.5q0 50 27 79h117v-4q-27 -29 -27 -64q0 -24 15 -43.5t37 -32.5t48 -29.5t48 -33.5t37 -46.5t15 -66.5q0 -66 -47.5 -104.5t-117.5 -38.5q-72 0 -129 40v109zM74 468h121
q-39 -75 -39 -157q0 -95 62 -157t174 -62q104 0 190 54v-113q-79 -43 -192 -43q-160 0 -255.5 92t-95.5 232q0 84 35 154zM373 -66l140 -172h-141l-121 172h122z" />
    <glyph glyph-name="gjLL" horiz-adv-x="531" 
d="M553 661v-101q-17 5 -37 5q-44 0 -61.5 -28.5t-17.5 -85.5q0 -22 1 -59t1 -48q0 -241 -191 -241q-103 0 -156 74t-53 213q0 270 186 270q21 0 44 -5v-100q-12 4 -27 4q-87 0 -87 -172q0 -90 18.5 -137t70.5 -47q47 0 64.5 38t17.5 118q0 5 -1 34t-1 54q0 219 185 219
q22 0 44 -5z" />
    <glyph glyph-name="gjK_SS" horiz-adv-x="521" 
d="M212 503q0 -60 69 -83q73 33 73 87q0 28 -19 46.5t-49 18.5q-31 0 -52.5 -20t-21.5 -49zM665 407v-90h-304q-51 0 -97 13q-51 -25 -78.5 -51t-27.5 -65t27 -62t68 -23q46 0 80 32.5t34 79.5h113v-241h-115v97q-17 -26 -54 -43.5t-79 -17.5q-83 0 -138 48t-55 125
q0 64 34.5 101.5t94.5 64.5q-67 52 -67 134q0 71 51 115t130 44q80 0 130 -41.5t50 -111.5q0 -64 -54 -108h257z" />
    <glyph glyph-name="gjJ_NY" horiz-adv-x="454" 
d="M608 483h-372q-57 0 -57 -37t63 -37q75 0 124.5 -34t49.5 -106q0 -69 -48.5 -102.5t-121.5 -33.5h-34q-1 -6 -1 -18q0 -33 27 -52t77 -19q49 0 88 11v-99q-37 -10 -96 -10q-93 0 -150.5 48t-57.5 132v7h-68v95h199q71 0 71 42q0 24 -18.5 32t-53.5 8q-73 0 -117.5 35.5
t-44.5 99.5t46.5 99t114.5 35h380v-96z" />
    <glyph glyph-name="gjK_RA" horiz-adv-x="581" 
d="M406 181q0 60 -72 100l-53 -114h-128l103 147l-216 -60v102l102 20q-68 51 -68 126q0 78 65 121t165 43q96 0 172 -23v-104q-84 25 -168 25q-52 0 -84 -20t-32 -60q0 -59 98 -86l251 60v-101l-129 -20q112 -52 112 -160q0 -89 -71.5 -136t-176.5 -47q-113 0 -206 34v109
q102 -41 210 -41q48 0 87 20t39 65z" />
    <glyph glyph-name="gjKH_RA" horiz-adv-x="832" 
d="M641 660h118v-660h-118v160l-229 -186h-162l391 317v18h-160q-17 -62 -65 -95.5t-122 -33.5q-90 0 -140.5 51t-50.5 141v144q0 47 -47 47q-16 0 -33 -5v98l9 1q8 1 22 2.5t29 1.5q57 0 97.5 -36t40.5 -97v-170q0 -79 73 -79q76 0 76 79v152h118v-103h153v253z" />
    <glyph glyph-name="gjG_RA" horiz-adv-x="667" 
d="M477 660h118v-660h-118v162l-206 -182h-158l364 317v363zM133 666q101 0 172.5 -62.5t71.5 -164.5q0 -101 -72 -163t-174 -62q-49 0 -97 17v103q42 -17 86 -17q62 0 99.5 33.5t37.5 89.5q0 55 -37 89.5t-100 34.5q-37 0 -70 -13v103q39 12 83 12z" />
    <glyph glyph-name="gjGH_RA" horiz-adv-x="647" 
d="M456 660h118v-660h-118v154l-226 -198h-159l154 130q-74 11 -123 54t-49 108q0 113 137 139q-56 14 -90.5 48.5t-34.5 90.5q0 66 54 105.5t136 39.5q57 0 105 -11v-99q-38 11 -83 11q-39 0 -66 -17t-27 -53q0 -34 26 -51.5t63 -17.5h54v-100h-62q-38 0 -65 -19t-27 -52
q0 -38 32 -59t81 -21q76 0 123 43t47 118v317z" />
    <glyph glyph-name="gjC_RA" horiz-adv-x="690" 
d="M27 318v100h154q41 0 70 17t29 56q0 35 -28.5 55t-72.5 20q-48 0 -93 -12v101q57 11 105 11q87 0 147.5 -47t60.5 -131q0 -81 -56 -125.5t-138 -44.5q6 -59 43.5 -88.5t94.5 -29.5q68 0 112 40t44 105v315h118v-660h-118v170l-245 -214h-159l179 150q-72 17 -121.5 71.5
t-58.5 140.5h-67z" />
    <glyph glyph-name="gjCH_RA" horiz-adv-x="802" 
d="M337 96q131 0 223 86t92 219q0 127 -63 127q-30 0 -46.5 -28.5t-16.5 -80.5q0 -76 44 -140h-114q-47 70 -47 156q0 83 45.5 138.5t128.5 55.5q79 0 132.5 -64t53.5 -173q0 -132 -74.5 -230.5t-192.5 -141.5l134 -154h-140l-95 122l-95 -122h-140l114 132
q-101 14 -161.5 65.5t-60.5 130.5q0 61 36.5 98t92.5 49q-60 13 -99 54.5t-39 100.5q0 80 62.5 125t152.5 45q49 0 91 -10v-101q-38 10 -76 10q-49 0 -79.5 -22t-30.5 -64q0 -44 31.5 -65.5t76.5 -21.5h59v-100h-49q-45 0 -77 -23t-32 -68q0 -52 47.5 -78.5t111.5 -26.5z
" />
    <glyph glyph-name="gjJ_RA" horiz-adv-x="733" 
d="M140 458h-116q-6 15 -6 40q0 74 53.5 121t133.5 47q76 0 141 -40.5t133 -114.5l146 149h122v-9l-202 -217q119 -148 119 -259q0 -76 -56 -128.5t-151 -52.5q-83 0 -144.5 49.5t-61.5 138.5q0 55 28.5 104t95.5 118l33 34q-42 44 -49 51l-163 -173h-131l223 230
q-38 23 -76 23q-35 0 -57 -20.5t-22 -51.5q0 -21 7 -39zM456 93q38 0 65 26.5t27 66.5q0 75 -74 172l-37 -40q-45 -49 -59 -78.5t-14 -58.5q0 -36 26 -62t66 -26z" />
    <glyph glyph-name="gjJH_RA" horiz-adv-x="786" 
d="M680 0h-137q74 100 74 214q0 79 -44 126l-100 -219h-120l125 260q-5 1 -14 1q-44 0 -86 -17q-19 -83 -86 -132t-154 -49q-48 0 -99 17v102q42 -16 84 -16q60 0 100.5 37.5t40.5 100.5q0 62 -37 100.5t-100 38.5q-37 0 -70 -13v103q39 12 81 12q91 0 158.5 -52.5
t83.5 -140.5q46 11 86 11q30 0 51 -4l80 180h128l-103 -219q117 -75 117 -232q0 -111 -59 -209z" />
    <glyph glyph-name="gjTT_RA" horiz-adv-x="537" 
d="M96 524v112q67 30 165 30q96 0 163 -51.5t67 -137.5q0 -125 -161 -177q-8 -3 -36 -11t-40 -12.5t-33.5 -14.5t-31 -19.5t-18 -25.5t-8.5 -35q0 -47 38 -67t85 -20q107 0 202 50v-111q-41 -21 -94 -32l120 -139h-140l-95 122l-95 -122h-140l130 150q-61 23 -96.5 69
t-35.5 112q0 43 16.5 76.5t47 55.5t60.5 35.5t70 25.5q29 9 41.5 13t34.5 13.5t32 18t18 22t8 30.5q0 42 -35 61t-83 19q-85 0 -156 -40z" />
    <glyph glyph-name="gjTTH_RA" horiz-adv-x="603" 
d="M307 93q67 0 105.5 28.5t38.5 74.5t-39 74.5t-105 28.5q-68 0 -107 -28.5t-39 -74.5t39 -74.5t107 -28.5zM71 -137l126 146q-72 22 -113 71.5t-41 115.5q0 59 35 103t96 66q-86 50 -86 134q0 81 65.5 124t168.5 43q93 0 169 -22v-103q-82 23 -165 23q-118 0 -118 -73
q0 -21 12 -37t36 -26.5t44 -16.5t52.5 -13t46.5 -11q171 -51 171 -191q0 -66 -41.5 -115.5t-113.5 -71.5l126 -146h-140l-95 122l-95 -122h-140z" />
    <glyph glyph-name="gjDD_RA" horiz-adv-x="532" 
d="M449 643v-107q-73 28 -159 28q-123 0 -123 -80q0 -22 10 -37.5t32 -27t41 -18t53 -15.5q197 -53 197 -197q0 -62 -31 -105.5t-86 -66.5l133 -154h-140l-95 122l-95 -122h-140l118 136q-64 11 -115 37v111q98 -52 206 -52q49 0 86.5 21.5t37.5 66.5q0 16 -5 29.5t-16.5 24
t-21.5 18t-29 14.5t-30 10.5t-33 10t-30 8.5q-168 51 -168 183q0 86 63.5 135.5t168.5 49.5q102 0 171 -23z" />
    <glyph glyph-name="gjDDH_RA" horiz-adv-x="598" 
d="M454 660q23 -32 23 -74q0 -51 -33 -88t-79.5 -61t-93.5 -48t-80 -63t-33 -92q0 -66 47 -103.5t122 -37.5q53 0 94 24t41 73q0 29 -15.5 44t-35.5 15q-24 0 -38.5 -15.5t-14.5 -37.5q0 -20 6 -34h-104q-11 26 -11 56q0 59 46 94.5t113 35.5q76 0 123.5 -46t47.5 -117
q0 -63 -39.5 -108t-104.5 -66l127 -147h-140l-95 122l-95 -122h-140l127 147q-80 26 -129.5 87t-49.5 147q0 67 33 118.5t80 81t93.5 53.5t79.5 49.5t33 55.5q0 32 -22 57h117z" />
    <glyph glyph-name="gjT_RA" horiz-adv-x="642" 
d="M451 660h118v-660h-118v278l-316 -204l-63 89l275 168q-24 70 -69.5 108.5t-105.5 38.5q-72 0 -146 -42v107q69 37 153 37q85 0 152 -50.5t105 -143.5l15 9v265z" />
    <glyph glyph-name="gjTH_RA" horiz-adv-x="678" 
d="M487 660h118v-660h-118v188l-253 -223h-157l178 154q-87 16 -148.5 80t-76.5 166q127 24 189.5 57.5t62.5 89.5q0 27 -15 42.5t-37 15.5q-28 0 -41.5 -17.5t-13.5 -43.5q0 -28 11 -53h-111q-11 35 -11 65q0 64 43.5 106t118.5 42q74 0 119.5 -45t45.5 -118
q0 -81 -65 -136t-160 -75q17 -40 56.5 -61t88.5 -21q69 0 122.5 40t53.5 115v292z" />
    <glyph glyph-name="gjD_RA" horiz-adv-x="555" 
d="M387 -27v134l-167 -162h-154l137 131q-70 19 -115 74t-45 134q0 64 33.5 111.5t81 72.5t95 44.5t81 41.5t33.5 49q0 32 -23 57h117q23 -28 23 -74q0 -48 -33.5 -83t-80.5 -56.5t-94.5 -42t-81 -52.5t-33.5 -76q0 -52 33 -81t84 -29q46 0 77.5 27t31.5 73v9h116v-302h-116
z" />
    <glyph glyph-name="gjDH_RA" horiz-adv-x="653" 
d="M462 660h118v-660h-118v159l-232 -203h-159l155 131q-74 13 -123.5 60.5t-49.5 119.5q0 66 41.5 104t100.5 50q-56 16 -93 56.5t-37 100.5q0 86 68 152h141v-9q-91 -83 -91 -160q0 -44 28 -69t79 -25h44v-98h-56q-45 0 -75 -25t-30 -68q0 -44 34.5 -68t82.5 -24
q74 0 123 44.5t49 113.5v318z" />
    <glyph glyph-name="gjN_RA" horiz-adv-x="725" 
d="M537 660h115v-660h-115v106l-188 -167h-158l346 300v179h-157q50 -48 50 -119q0 -70 -55.5 -118t-139.5 -48q-89 0 -144.5 54.5t-55.5 136.5q0 88 57 139.5t153 51.5h292v145zM153 324q0 -43 23 -67.5t59 -24.5t59 24.5t23 67.5t-23 67.5t-59 24.5t-59 -24.5t-23 -67.5z
" />
    <glyph glyph-name="gjP_RA" horiz-adv-x="598" 
d="M408 660h118v-660h-118v215l-209 -232h-149l180 196q-63 15 -96.5 64t-33.5 127v148q0 45 -43 45q-18 0 -35 -5v98l8 1q9 1 23 2.5t29 1.5q56 0 96 -35.5t40 -95.5v-164q0 -46 22.5 -72.5t68.5 -26.5q49 0 74 28.5t25 78.5v286z" />
    <glyph glyph-name="gjPH_RA" horiz-adv-x="582" 
d="M294 184h-123l86 130l-215 -60v102l101 20q-67 51 -67 126q0 78 64.5 121t164.5 43q95 0 173 -23v-104q-85 25 -168 25q-53 0 -85 -20t-32 -60q0 -59 98 -86l251 60v-101l-129 -20q115 -53 115 -160q0 -84 -60 -132t-144 -48q-79 0 -136 41v-133h-111v256h105
q8 -31 40.5 -49.5t75.5 -18.5q45 0 78.5 23t33.5 68q0 59 -75 99z" />
    <glyph glyph-name="gjB_RA" horiz-adv-x="793" 
d="M606 660h114v-660h-114v118l-207 -184h-159l366 319v15h-153q-15 -77 -66.5 -114.5t-127.5 -37.5q-96 0 -158.5 69.5t-62.5 208.5q0 133 74.5 202.5t190.5 69.5q69 0 121 -18v-103q-55 19 -114 19q-67 0 -110.5 -42.5t-43.5 -134.5q0 -171 101 -171q83 0 83 112v124h118
v-86h148v294z" />
    <glyph glyph-name="gjBH_RA" horiz-adv-x="811" 
d="M253 49h-122q-92 140 -92 307q0 61 13 114t40 98t75.5 71.5t112.5 26.5q89 0 140 -54.5t51 -142.5v-50h152v241h115v-660h-115v152l-210 -192h-158l368 323v37h-152v-91h-103l-30 56q-27 52 -27 76q0 40 44 52v64q0 39 -18.5 64.5t-58.5 25.5q-55 0 -88 -58t-33 -161
q0 -170 96 -299z" />
    <glyph glyph-name="gjM_RA" horiz-adv-x="606" 
d="M418 660h116v-660h-116v156l-208 -190h-158l366 322v24h-190v-100h-100q-61 113 -61 141q0 40 45 52v111q0 47 -47 47q-16 0 -33 -5v98q1 0 9.5 1t22.5 2.5t28 1.5q56 0 96 -36t40 -97v-117h190v249z" />
    <glyph glyph-name="gjY_RA" horiz-adv-x="643" 
d="M453 660h118v-660h-118v187l-253 -222h-158l182 156q-79 18 -132.5 83t-59.5 171q79 12 132.5 42.5t53.5 77.5q0 34 -22.5 51.5t-57.5 17.5q-37 0 -73 -19v104q40 17 86 17q75 0 129 -48.5t54 -124.5q0 -134 -170 -184q10 -45 46.5 -69.5t84.5 -24.5q62 0 110 40.5
t48 109.5v295z" />
    <glyph glyph-name="gjV_RA" horiz-adv-x="651" 
d="M460 660h118v-660h-118v219l-245 -257h-155l182 188q-91 16 -147.5 84.5t-56.5 165.5q0 106 70 178.5t182 72.5q39 0 71 -7v-100q-25 5 -46 5q-72 0 -114.5 -43t-42.5 -110q0 -65 40 -108t110 -43q59 0 103 37t49 98v280z" />
    <glyph glyph-name="gjSH_RA" horiz-adv-x="725" 
d="M264 572q-32 0 -51.5 -20t-19.5 -51q0 -64 74 -106q68 43 68 106q0 29 -20 50t-51 21zM536 660h117v-660h-117v203l-253 -214l-90 65l222 178q-75 21 -132 48l-180 -131l-90 68l168 115q-103 72 -103 174q0 68 52 115t133 47q83 0 135 -46.5t52 -120.5q0 -85 -83 -149
q69 -29 169 -54v362z" />
    <glyph glyph-name="gjS_RA" horiz-adv-x="786" 
d="M30 260v102h140q66 0 104.5 25.5t38.5 74.5q0 50 -35 76t-92 26q-43 0 -85 -12v104q42 10 100 10q91 0 155.5 -46t74.5 -130h166v170h116v-660h-116v270l-108 -91h-154v9l262 188v16h-176q-23 -57 -77.5 -91t-126.5 -40q-1 -6 -1 -18q0 -74 39 -110.5t102 -36.5
q39 0 72 9v-104q-34 -8 -83 -8q-108 0 -177.5 69t-69.5 198h-69z" />
    <glyph glyph-name="gjH_RA" horiz-adv-x="618" 
d="M481 214v115q0 14 -4 22l-158 -144l-71 73l115 95q29 22 48 32q-1 0 -17.5 9t-25.5 14q-30 18 -45 28t-37 29.5t-31.5 43t-9.5 53.5q0 47 27 76h114v-4q-28 -28 -28 -64q0 -29 23 -52.5t56 -41t65.5 -37.5t55.5 -53t23 -77v-117h-100zM582 136v-107q-84 -39 -192 -39
q-160 0 -255.5 92t-95.5 232q0 84 35 154h121q-39 -75 -39 -157q0 -95 62 -157t174 -62q107 0 190 44z" />
    <glyph glyph-name="gjK_R" horiz-adv-x="568" 
d="M308 564q-52 0 -84 -20t-32 -60q0 -59 86 -88l38 9q84 21 211 21h198v-91h-64q-199 0 -244 -4q107 -49 107 -154q0 -89 -71.5 -136t-176.5 -47q-113 0 -206 34v109q102 -41 210 -41q48 0 87 20t39 65q0 60 -72 100l-53 -114h-128l103 147l-216 -60v102l102 20
q-68 51 -68 126q0 78 65 121t165 43q96 0 172 -23v-104q-84 25 -168 25z" />
    <glyph glyph-name="gjKH_R" horiz-adv-x="581" 
d="M370 510h118v-103h245v-170l-321 -263h-162l420 335h-189q-17 -62 -65 -95.5t-122 -33.5q-90 0 -140.5 51t-50.5 141v144q0 47 -47 47q-16 0 -33 -5v98l9 1q8 1 22 2.5t29 1.5q57 0 97.5 -36t40.5 -97v-170q0 -79 73 -79q76 0 76 79v152z" />
    <glyph glyph-name="gjG_R" horiz-adv-x="425" 
d="M133 666q101 0 172.5 -62.5t71.5 -164.5q0 -101 -72 -163t-174 -62q-49 0 -97 17v103q42 -17 86 -17q62 0 99.5 33.5t37.5 89.5q0 55 -37 89.5t-100 34.5q-37 0 -70 -13v103q39 12 83 12zM497 313l68 -75l-294 -258h-158z" />
    <glyph glyph-name="gjGH_R" horiz-adv-x="405" 
d="M571 241l-341 -285h-159l158 130q-75 10 -125.5 53t-50.5 109q0 113 137 139q-56 14 -90.5 48.5t-34.5 90.5q0 66 54 105.5t136 39.5q57 0 105 -11v-99q-38 11 -83 11q-39 0 -66 -17t-27 -53q0 -34 26 -51.5t63 -17.5h54v-100h-62q-38 0 -65 -19t-27 -52q0 -38 32 -59
t81 -21q120 0 196 116z" />
    <glyph glyph-name="gjC_R" horiz-adv-x="451" 
d="M27 318v100h154q41 0 70 17t29 56q0 35 -28.5 55t-72.5 20q-48 0 -93 -12v101q57 11 105 11q87 0 147.5 -47t60.5 -131q0 -81 -56 -125.5t-138 -44.5q6 -59 46 -88.5t98 -29.5q66 0 111.5 35t71.5 81l90 -54l-368 -306h-159l184 150q-74 16 -125 70.5t-60 141.5h-67z" />
    <glyph glyph-name="gjJ_R" horiz-adv-x="716" 
d="M664 175q0 -76 -55 -128.5t-149 -52.5q-81 0 -142 52.5t-61 140.5q0 61 41.5 127.5t111.5 120.5q-26 30 -51 54l-163 -173h-131l223 230q-38 23 -76 23q-35 0 -57 -20.5t-22 -51.5q0 -21 7 -39h-116q-6 15 -6 40q0 74 53.5 121t133.5 47t149 -45.5t144 -129.5
q110 56 219 56q55 0 99 -9v-101q-36 10 -88 10q-82 0 -164 -37q100 -134 100 -235zM459 93q37 0 63 26t26 67q0 75 -72 170q-106 -83 -106 -174q0 -36 24.5 -62.5t64.5 -26.5z" />
    <glyph glyph-name="gjJH_R" horiz-adv-x="765" 
d="M680 0h-137q74 100 74 214q0 79 -44 126l-100 -219h-120l125 260q-5 1 -14 1q-44 0 -86 -17q-19 -83 -86 -132t-154 -49q-48 0 -99 17v102q42 -16 84 -16q60 0 100.5 37.5t40.5 100.5q0 62 -37 100.5t-100 38.5q-37 0 -70 -13v103q39 12 81 12q91 0 158.5 -52.5
t83.5 -140.5q46 11 86 11q120 0 196.5 -75.5t76.5 -199.5q0 -111 -59 -209z" />
    <glyph glyph-name="gjTT_R" horiz-adv-x="537" 
d="M340 -200l140 -172h-141l-121 172h122zM96 524v112q67 30 165 30q96 0 163 -51.5t67 -137.5q0 -125 -161 -177q-8 -3 -36 -11t-40 -12.5t-33.5 -14.5t-31 -19.5t-18 -25.5t-8.5 -35q0 -47 38 -67t85 -20q107 0 202 50v-111q-41 -21 -94 -32l120 -139h-140l-95 122
l-95 -122h-140l130 150q-61 23 -96.5 69t-35.5 112q0 43 16.5 76.5t47 55.5t60.5 35.5t70 25.5q29 9 41.5 13t34.5 13.5t32 18t18 22t8 30.5q0 42 -35 61t-83 19q-85 0 -156 -40z" />
    <glyph glyph-name="gjTTH_R" horiz-adv-x="603" 
d="M71 -137l126 146q-72 22 -113 71.5t-41 115.5q0 59 35 103t96 66q-86 50 -86 134q0 81 65.5 124t168.5 43q93 0 169 -22v-103q-82 23 -165 23q-118 0 -118 -73q0 -21 12 -37t36 -26.5t44 -16.5t52.5 -13t46.5 -11q171 -51 171 -191q0 -66 -41.5 -115.5t-113.5 -71.5
l126 -146h-140l-95 122l-95 -122h-140zM307 93q67 0 105.5 28.5t38.5 74.5t-39 74.5t-105 28.5q-68 0 -107 -28.5t-39 -74.5t39 -74.5t107 -28.5zM365 -200l140 -172h-141l-121 172h122z" />
    <glyph glyph-name="gjDD_R" horiz-adv-x="532" 
d="M46 -137l118 136q-64 11 -115 37v111q98 -52 206 -52q49 0 86.5 21.5t37.5 66.5q0 16 -5 29.5t-16.5 24t-21.5 18t-29 14.5t-30 10.5t-33 10t-30 8.5q-168 51 -168 183q0 86 63.5 135.5t168.5 49.5q102 0 171 -23v-107q-73 28 -159 28q-123 0 -123 -80q0 -22 10 -37.5
t32 -27t41 -18t53 -15.5q197 -53 197 -197q0 -62 -31 -105.5t-86 -66.5l133 -154h-140l-95 122l-95 -122h-140zM339 -200l140 -172h-141l-121 172h122z" />
    <glyph glyph-name="gjDDH_R" horiz-adv-x="598" 
d="M88 -136l128 148q-79 27 -127.5 87.5t-48.5 145.5q0 67 33 118.5t80 81t93.5 53.5t79.5 49.5t33 55.5q0 32 -22 57h117q23 -32 23 -74q0 -51 -33 -88t-79.5 -61t-93.5 -48t-80 -63t-33 -92q0 -66 47 -103.5t122 -37.5q53 0 94 24t41 73q0 29 -15.5 44t-35.5 15
q-24 0 -38.5 -15.5t-14.5 -37.5q0 -20 6 -34h-104q-11 26 -11 56q0 59 46 94.5t113 35.5q76 0 123.5 -46t47.5 -117q0 -64 -40.5 -109t-106.5 -66l126 -146h-140l-95 122l-95 -122h-140zM381 -200l140 -172h-141l-121 172h122z" />
    <glyph glyph-name="gjT_R" horiz-adv-x="415" 
d="M135 74l-63 89l275 168q-24 70 -69.5 108.5t-105.5 38.5q-72 0 -146 -42v107q69 37 153 37q85 0 152 -50.5t105 -143.5l41 25l28 -98z" />
    <glyph glyph-name="gjTH_R" horiz-adv-x="432" 
d="M589 269l-355 -304h-157l178 154q-87 16 -148.5 80t-76.5 166q127 24 189.5 57.5t62.5 89.5q0 27 -15 42.5t-37 15.5q-28 0 -41.5 -17.5t-13.5 -43.5q0 -28 11 -53h-111q-11 35 -11 65q0 64 43.5 106t118.5 42q74 0 119.5 -45t45.5 -118q0 -81 -65 -136t-160 -75
q17 -40 56.5 -61t88.5 -21q131 0 205 121z" />
    <glyph glyph-name="gjD_R" horiz-adv-x="555" 
d="M387 -27v134l-167 -162h-154l137 131q-70 19 -115 74t-45 134q0 64 33.5 111.5t81 72.5t95 44.5t81 41.5t33.5 49q0 32 -23 57h117q23 -28 23 -74q0 -48 -33.5 -83t-80.5 -56.5t-94.5 -42t-81 -52.5t-33.5 -76q0 -52 33 -81t84 -29q46 0 77.5 27t31.5 73v9h116v-302h-116
zM411 -104l140 -172h-141l-121 172h122z" />
    <glyph glyph-name="gjDH_R" horiz-adv-x="407" 
d="M569 240l-339 -284h-159l157 131q-74 12 -124.5 59.5t-50.5 120.5q0 66 41.5 104t100.5 50q-56 16 -93 56.5t-37 100.5q0 86 68 152h141v-9q-91 -83 -91 -160q0 -44 28 -69t79 -25h44v-98h-56q-45 0 -75 -25t-30 -68q0 -44 34.5 -68t82.5 -24q119 0 194 114z" />
    <glyph glyph-name="gjN_R" horiz-adv-x="487" 
d="M430 299q0 -70 -55.5 -118t-139.5 -48q-89 0 -144.5 54.5t-55.5 136.5q0 88 57 139.5t153 51.5h397v-97h-262q50 -48 50 -119zM153 324q0 -43 23 -67.5t59 -24.5t59 24.5t23 67.5t-23 67.5t-59 24.5t-59 -24.5t-23 -67.5zM642 334v-133l-293 -262h-158z" />
    <glyph glyph-name="gjP_R" horiz-adv-x="367" 
d="M493 299l-294 -316h-149l181 196q-63 14 -97 63.5t-34 127.5v148q0 45 -43 45q-18 0 -35 -5v98l8 1q9 1 23 2.5t29 1.5q56 0 96 -35.5t40 -95.5v-164q0 -46 22.5 -72.5t68.5 -26.5q78 0 127 87z" />
    <glyph glyph-name="gjPH_R" horiz-adv-x="570" 
d="M294 184h-123l86 130l-215 -60v102l101 20q-67 51 -67 126q0 78 64.5 121t164.5 43q95 0 173 -23v-104q-85 25 -168 25q-53 0 -85 -20t-32 -60q0 -59 86 -88l39 9q83 21 211 21h198v-91h-70q-197 0 -240 -4q109 -51 109 -158q0 -82 -59 -129t-143 -47q-79 0 -136 41v-133
h-111v256h105q8 -31 40.5 -49.5t75.5 -18.5q45 0 78.5 23t33.5 68q0 59 -75 99z" />
    <glyph glyph-name="gjB_R" horiz-adv-x="551" 
d="M424 648v-103q-55 19 -114 19q-67 0 -110.5 -42.5t-43.5 -134.5q0 -171 101 -171q83 0 83 112v124h118v-86h244v-162l-303 -270h-159l382 334h-169q-15 -77 -66.5 -114.5t-127.5 -37.5q-96 0 -158.5 69.5t-62.5 208.5q0 133 74.5 202.5t190.5 69.5q69 0 121 -18z" />
    <glyph glyph-name="gjBH_R" horiz-adv-x="564" 
d="M253 49h-122q-92 140 -92 307q0 61 13 114t40 98t75.5 71.5t112.5 26.5q89 0 140 -54.5t51 -142.5v-50h249v-177l-307 -282h-158l408 360h-192v-91h-103l-30 56q-27 52 -27 76q0 40 44 52v64q0 39 -18.5 64.5t-58.5 25.5q-55 0 -88 -58t-33 -161q0 -170 96 -299z" />
    <glyph glyph-name="gjM_R" horiz-adv-x="345" 
d="M228 528v-117h261v-189l-279 -256h-158l394 346h-218v-100h-100q-61 113 -61 141q0 40 45 52v111q0 47 -47 47q-16 0 -33 -5v98q1 0 9.5 1t22.5 2.5t28 1.5q56 0 96 -36t40 -97z" />
    <glyph glyph-name="gjY_R" horiz-adv-x="402" 
d="M548 264l-350 -299h-157l186 155q-81 17 -135.5 82t-60.5 173q79 12 132.5 42.5t53.5 77.5q0 34 -22.5 51.5t-57.5 17.5q-37 0 -73 -19v104q40 17 85 17q75 0 129 -48.5t54 -124.5q0 -134 -170 -184q11 -45 47.5 -69.5t84.5 -24.5q118 0 192 102z" />
    <glyph glyph-name="gjV_R" horiz-adv-x="402" 
d="M550 274l-335 -312h-155l211 184q-102 8 -167.5 78.5t-65.5 175.5q0 106 70 178.5t182 72.5q39 0 71 -7v-100q-25 5 -46 5q-72 0 -114.5 -43t-42.5 -110q0 -64 43.5 -107.5t113.5 -43.5q112 0 172 96z" />
    <glyph glyph-name="gjS_R" horiz-adv-x="539" 
d="M30 260v102h140q66 0 104.5 25.5t38.5 74.5q0 50 -35 76t-92 26q-43 0 -85 -12v104q42 10 100 10q91 0 155.5 -46t74.5 -130h210v-179l-152 -132h-154v9l284 204h-198q-23 -57 -77.5 -91t-126.5 -40q-1 -6 -1 -18q0 -74 39 -110.5t102 -36.5q39 0 72 9v-104
q-34 -8 -83 -8q-108 0 -177.5 69t-69.5 198h-69z" />
    <glyph glyph-name="gjK_KA" horiz-adv-x="1094" 
d="M800 -6q-124 0 -218 45v109q106 -52 209 -52q48 0 87.5 20t39.5 65q0 25 -10 44t-31 33t-39.5 22.5t-49.5 20.5l-315 -9q51 -44 51 -115q0 -83 -67.5 -133t-168.5 -50q-122 0 -218 45v109q106 -52 210 -52q48 0 87 20t39 65q0 42 -26 65t-77 44l-263 -47v100l121 18
q-87 52 -87 137q0 80 64.5 124t165.5 44q96 0 172 -23v-104q-84 25 -168 25q-52 0 -84 -20t-32 -60q0 -36 32 -58t95 -46l316 10q-50 43 -50 108q0 79 64.5 123.5t165.5 44.5q96 0 172 -23v-104q-84 25 -167 25q-53 0 -85 -19.5t-32 -59.5q0 -31 22 -51t63 -36l266 47v-100
l-117 -17q99 -55 99 -151q0 -83 -67.5 -133t-168.5 -50z" />
    <glyph glyph-name="gjK_KHA" horiz-adv-x="1389" 
d="M1198 660h118v-660h-118v303h-154q-5 -83 -55.5 -128t-136.5 -45q-90 0 -141 50.5t-51 141.5v13q-198 0 -243 -4q107 -49 107 -154q0 -83 -67.5 -133t-168.5 -50q-122 0 -218 45v109q106 -52 210 -52q48 0 87 20t39 65t-31.5 69t-89.5 44l-245 -65v103l118 28
q-84 47 -84 134q0 82 64 127t166 45q96 0 172 -23v-104q-84 25 -168 25q-52 0 -84 -20t-32 -60q0 -57 88 -89l29 7q92 24 218 24h133v90q0 47 -47 47q-16 0 -33 -5v98l8 1q9 1 23 2.5t29 1.5q57 0 97.5 -36t40.5 -97v-220q0 -79 74 -79q75 0 75 79v202h118v-108h153v258z
" />
    <glyph glyph-name="gjK_CA" horiz-adv-x="1230" 
d="M1040 345v315h118v-660h-118v177q-25 -37 -70.5 -57t-97.5 -20q-91 0 -159 57.5t-79 160.5h-58q-37 34 -77 34q-26 0 -91 -20q116 -45 116 -155q0 -83 -67.5 -133t-168.5 -50q-122 0 -218 45v109q106 -52 210 -52q48 0 87 20t39 65t-31.5 69t-89.5 44l-245 -65v103
l118 28q-84 47 -84 134q0 82 64 127t166 45q96 0 172 -23v-104q-84 25 -168 25q-52 0 -84 -20t-32 -60q0 -56 85 -88q114 31 153 39.5t69 8.5q51 0 98 -26h125q40 0 69 17t29 56q0 35 -28.5 55t-71.5 20q-49 0 -94 -12v101q59 11 106 11q87 0 147.5 -47t60.5 -131
q0 -81 -56 -125.5t-139 -44.5q6 -59 44 -88.5t95 -29.5q68 0 112 40t44 105z" />
    <glyph glyph-name="gjK_JA" horiz-adv-x="1268" 
d="M991 93q38 0 64.5 26.5t26.5 66.5q0 70 -76 168l-34 -36q-45 -49 -59 -78.5t-14 -58.5q0 -36 26 -62t66 -26zM992 -6q-84 0 -147 49.5t-63 138.5q0 56 28 105t94 117l32 33q-56 63 -100.5 95t-87.5 32q-33 0 -55 -18.5t-22 -51.5q0 -29 21 -49t55 -20q27 0 46 7v-95
q-23 -10 -65 -10q-37 0 -98.5 2.5t-90.5 2.5q-75 0 -119 -7q104 -47 104 -148q0 -83 -67.5 -133t-168.5 -50q-122 0 -218 45v109q106 -52 210 -52q48 0 87 20t39 65t-31.5 69t-89.5 44l-245 -65v103l118 28q-84 47 -84 134q0 82 64 127t166 45q96 0 172 -23v-104
q-84 25 -168 25q-52 0 -84 -20t-32 -60q0 -59 97 -92q126 32 233 32q24 0 64 -2q-28 37 -28 86q0 69 51.5 113.5t130.5 44.5q75 0 139 -39.5t132 -112.5l142 146h129v-9l-202 -217q119 -147 119 -259q0 -76 -56 -128.5t-151 -52.5z" />
    <glyph glyph-name="gjK_TTA" horiz-adv-x="1111" 
d="M669 524v112q69 30 166 30q96 0 162.5 -51.5t66.5 -137.5q0 -125 -161 -177q-9 -3 -36 -11t-39 -12.5t-33 -14.5t-31 -19.5t-18.5 -25.5t-8.5 -35q0 -47 38 -67t85 -20q107 0 202 50v-111q-81 -41 -199 -41q-104 0 -175.5 52.5t-71.5 148.5q0 72 50 120q-64 29 -146 29
q-45 0 -105 -11q109 -47 109 -155q0 -83 -67.5 -133t-168.5 -50q-122 0 -218 45v109q106 -52 210 -52q48 0 87 20t39 65t-31.5 69t-89.5 44l-245 -65v103l118 28q-84 47 -84 134q0 82 64 127t166 45q96 0 172 -23v-104q-84 25 -168 25q-52 0 -84 -20t-32 -60q0 -57 88 -89
l29 7q125 33 215 33q137 0 238 -64q16 6 48 16q36 11 52 16.5t39 17.5t32.5 27t9.5 36q0 42 -35 61t-83 19q-83 0 -156 -40z" />
    <glyph glyph-name="gjK_NNA" horiz-adv-x="1443" 
d="M1252 660h118v-660h-118v660zM758 660v-385q0 -50 17 -86t48 -56t67.5 -28.5t80.5 -8.5q97 0 178 37v-104q-80 -35 -171 -35q-67 0 -125 16t-107 49.5t-77.5 94t-28.5 141.5v40q-179 0 -223 -4q107 -49 107 -154q0 -83 -67.5 -133t-168.5 -50q-122 0 -218 45v109
q106 -52 210 -52q48 0 87 20t39 65t-31.5 69t-89.5 44l-245 -65v103l118 28q-84 47 -84 134q0 82 64 127t166 45q96 0 172 -23v-104q-84 25 -168 25q-52 0 -84 -20t-32 -60q0 -57 88 -89l29 7q92 24 218 24h113v234h118zM946 659q94 0 152.5 -60t58.5 -147q0 -86 -59 -146
t-154 -60q-44 0 -78 12v101q30 -11 64 -11q52 0 81.5 30t29.5 74t-28.5 74.5t-80.5 30.5q-32 0 -61 -10v101q35 11 75 11z" />
    <glyph glyph-name="gjK_TA" horiz-adv-x="1188" 
d="M998 660h118v-660h-118v395h-116q-68 0 -107 -39t-39 -112q0 -68 30 -106t90 -38q16 0 37 3v-98q-25 -5 -48 -5q-101 0 -164 68t-63 178q0 91 53 142q-65 -10 -253 -58q106 -47 106 -153q0 -83 -67.5 -133t-168.5 -50q-122 0 -218 45v109q106 -52 210 -52q48 0 87 20
t39 65t-31.5 69t-89.5 44l-245 -65v103l118 28q-84 47 -84 134q0 82 64 127t166 45q96 0 172 -23v-104q-84 25 -168 25q-52 0 -84 -20t-32 -60q0 -58 88 -89l190 46q102 25 180.5 37t114 14t91.5 2h142v166z" />
    <glyph glyph-name="gjK_T_YA" horiz-adv-x="1571" 
d="M476 643v-104q-84 25 -168 25q-52 0 -84 -20t-32 -60q0 -57 88 -89l68 16q264 66 458 66q74 0 125 -21t91 -68q56 15 90 42.5t34 64.5q0 34 -22.5 51.5t-56.5 17.5q-38 0 -74 -19v104q40 17 86 17q75 0 129 -48.5t54 -124.5q0 -74 -50.5 -120t-130.5 -67q51 -91 142 -91
q62 0 110 40.5t48 109.5v295h118v-660h-118v193q-28 -37 -74 -58t-99 -21q-61 0 -108 27t-75.5 65t-53 76t-55.5 65t-70 27q-53 0 -81.5 -35.5t-28.5 -96.5q0 -67 30.5 -104.5t89.5 -37.5q16 0 37 3v-98q-25 -5 -48 -5q-101 0 -164 67.5t-63 177.5q0 79 43 130
q-103 -8 -243 -45q106 -47 106 -153q0 -83 -67.5 -133t-168.5 -50q-122 0 -218 45v109q106 -52 210 -52q48 0 87 20t39 65t-31.5 69t-89.5 44l-245 -65v103l118 28q-84 47 -84 134q0 82 64 127t166 45q96 0 172 -23z" />
    <glyph glyph-name="gjK_T_RA" horiz-adv-x="1173" 
d="M667 8l-64 88l275 168q-50 126 -177 126q-12 0 -25.5 -1.5t-34 -5t-34 -6.5t-43 -10t-43 -10.5t-51.5 -13t-52 -13.5q106 -47 106 -153q0 -83 -67.5 -133t-168.5 -50q-122 0 -218 45v109q106 -52 210 -52q48 0 87 20t39 65t-31.5 69t-89.5 44l-245 -65v103l118 28
q-84 47 -84 134q0 82 64 127t166 45q96 0 172 -23v-104q-84 25 -168 25q-52 0 -84 -20t-32 -60q0 -58 87 -88l191 48q170 42 244 42q176 0 253 -167l16 10v331h118v-660h-118v212z" />
    <glyph glyph-name="gjK_T_VA" horiz-adv-x="1551" 
d="M1361 660h118v-660h-118v221q-56 -77 -166 -77q-111 0 -184 71.5t-73 179.5h-56q-68 0 -107 -39t-39 -112q0 -68 30 -106t90 -38q16 0 37 3v-98q-25 -5 -48 -5q-101 0 -164 68t-63 178q0 91 53 142q-65 -10 -253 -58q106 -47 106 -153q0 -83 -67.5 -133t-168.5 -50
q-122 0 -218 45v109q106 -52 210 -52q48 0 87 20t39 65t-31.5 69t-89.5 44l-245 -65v103l118 28q-84 47 -84 134q0 82 64 127t166 45q96 0 172 -23v-104q-84 25 -168 25q-52 0 -84 -20t-32 -60q0 -58 88 -89l190 46q102 25 180.5 37t114 14t91.5 2h99q26 71 88 114t147 43
q38 0 72 -7v-100q-25 5 -47 5q-72 0 -114.5 -43t-42.5 -110q0 -65 40.5 -108t110.5 -43q58 0 102.5 37.5t49.5 97.5v280z" />
    <glyph glyph-name="gjK_DA" horiz-adv-x="1005" 
d="M872 -6q-98 0 -175 52t-77 143q0 62 38 101t98 51l-9 3h-86q-123 0 -162 -1.5t-83 -10.5q108 -49 108 -155q0 -83 -67.5 -133t-168.5 -50q-122 0 -218 45v109q106 -52 210 -52q48 0 87 20t39 65t-31.5 69t-89.5 44l-245 -65v103l118 28q-84 47 -84 134q0 82 64 127
t166 45q96 0 172 -23v-104q-84 25 -168 25q-52 0 -84 -20t-32 -60q0 -57 88 -89l29 7q134 36 244 36h88q-11 27 -11 56q0 82 62.5 127t157.5 45q81 0 155 -21v-103q-72 22 -140 22q-52 0 -83.5 -22t-31.5 -66q0 -43 30.5 -65t73.5 -22h90v-100h-90q-47 0 -80.5 -23
t-33.5 -71q0 -49 38.5 -74t96.5 -25q80 0 165 32v-105q-80 -29 -168 -29z" />
    <glyph glyph-name="gjK_NA" horiz-adv-x="1300" 
d="M1111 660h118v-660h-118v397h-153q51 -48 51 -119q0 -78 -55 -127t-142 -49q-89 0 -144 54t-55 136q0 54 29 91q-86 -17 -224 -53q106 -47 106 -153q0 -83 -67.5 -133t-168.5 -50q-122 0 -218 45v109q106 -52 210 -52q48 0 87 20t39 65t-31.5 69t-89.5 44l-245 -65v103
l118 28q-84 47 -84 134q0 82 64 127t166 45q96 0 172 -23v-104q-84 25 -168 25q-52 0 -84 -20t-32 -60q0 -58 88 -89l190 46q102 25 179.5 37t112.5 14t91 2h258v166zM730 298q0 -45 23 -71t59 -26t59 26t23 71t-23 71t-59 26t-59 -26t-23 -71z" />
    <glyph glyph-name="gjK_PA" horiz-adv-x="1147" 
d="M956 374v286h118v-660h-118v215q-45 -42 -121 -42q-80 0 -127.5 42t-56.5 120q-189 0 -234 -4q107 -49 107 -154q0 -83 -67.5 -133t-168.5 -50q-122 0 -218 45v109q106 -52 210 -52q48 0 87 20t39 65t-31.5 69t-89.5 44l-245 -65v103l118 28q-84 47 -84 134q0 82 64 127
t166 45q96 0 172 -23v-104q-84 25 -168 25q-52 0 -84 -20t-32 -60q0 -57 88 -89l29 7q92 24 218 24h122v92q0 45 -44 45q-17 0 -35 -5v98q1 0 9.5 1t22.5 2.5t29 1.5q56 0 96 -35.5t40 -95.5v-164q0 -46 22.5 -72.5t67.5 -26.5q50 0 74.5 28.5t24.5 78.5z" />
    <glyph glyph-name="gjK_P_RA" horiz-adv-x="1147" 
d="M957 660h118v-660h-118v215l-209 -232h-149l180 196q-113 28 -128 156q-189 0 -234 -4q107 -49 107 -154q0 -83 -67.5 -133t-168.5 -50q-122 0 -218 45v109q106 -52 210 -52q48 0 87 20t39 65t-31.5 69t-89.5 44l-245 -65v103l118 28q-84 47 -84 134q0 82 64 127t166 45
q96 0 172 -23v-104q-84 25 -168 25q-52 0 -84 -20t-32 -60q0 -57 88 -89l29 7q92 24 218 24h122v92q0 45 -43 45q-18 0 -35 -5v98l9 1q8 1 22 2.5t29 1.5q56 0 96 -35.5t40 -95.5v-164q0 -46 22.5 -72.5t68.5 -26.5q49 0 74 28.5t25 78.5v286z" />
    <glyph glyph-name="gjK_PHA" horiz-adv-x="1097" 
d="M837 -3q-78 0 -135 41v-133h-112v264h108q9 -36 42 -55t75 -19q44 0 76 23t32 64q0 47 -38.5 73.5t-97.5 44.5l-314 -8q51 -44 51 -115q0 -83 -67.5 -133t-168.5 -50q-122 0 -218 45v109q106 -52 210 -52q48 0 87 20t39 65q0 42 -26 65t-77 44l-263 -47v100l121 18
q-87 52 -87 137q0 80 64.5 124t165.5 44q96 0 172 -23v-104q-84 25 -168 25q-52 0 -84 -20t-32 -60q0 -36 32 -58t95 -46l320 10q-51 43 -51 106q0 81 64 125.5t167 44.5q96 0 172 -23v-104q-84 25 -168 25q-52 0 -84.5 -19.5t-32.5 -59.5q0 -54 84 -87l267 47v-100
l-118 -17q101 -53 101 -151q0 -84 -59.5 -132t-143.5 -48z" />
    <glyph glyph-name="gjK_MA" horiz-adv-x="1166" 
d="M975 660h118v-660h-118v266h-188v-120h-97l-34 75q-22 49 -22 71q0 29 20 43q-192 0 -237 -4q107 -49 107 -154q0 -83 -67.5 -133t-168.5 -50q-122 0 -218 45v109q106 -52 210 -52q48 0 87 20t39 65t-31.5 69t-89.5 44l-245 -65v103l118 28q-84 47 -84 134q0 82 64 127
t166 45q96 0 172 -23v-104q-84 25 -168 25q-52 0 -84 -20t-32 -60q0 -57 88 -89l29 7q92 24 218 24h147v90q0 47 -47 47q-15 0 -32 -5v98l9 1q8 1 22 2.5t28 1.5q56 0 94.5 -36t38.5 -97v-164h188v296z" />
    <glyph glyph-name="gjK_YA" horiz-adv-x="1206" 
d="M1016 660h118v-660h-118v193q-27 -37 -73 -58t-100 -21q-83 0 -149 50.5t-89 144.5q-45 32 -106 32q-38 0 -84 -9q109 -47 109 -155q0 -83 -67.5 -133t-168.5 -50q-122 0 -218 45v109q106 -52 210 -52q48 0 87 20t39 65t-31.5 69t-89.5 44l-245 -65v103l118 28
q-84 47 -84 134q0 82 64 127t166 45q96 0 172 -23v-104q-84 25 -168 25q-52 0 -84 -20t-32 -60q0 -57 88 -89l29 7q119 32 190 32q95 0 165 -44q117 35 117 105q0 34 -22.5 51.5t-56.5 17.5q-38 0 -74 -19v104q40 17 86 17q75 0 129 -48.5t54 -124.5q0 -134 -170 -184
q10 -45 46.5 -69.5t84.5 -24.5q62 0 110 40.5t48 109.5v295z" />
    <glyph glyph-name="gjK_LA" horiz-adv-x="1290" 
d="M1099 660h118v-660h-118v282h-239v102h239v276zM939 564q-92 0 -149 -66t-57 -167q0 -109 55.5 -172t149.5 -63q33 0 75 11v-101q-49 -12 -93 -12q-137 0 -222 93.5t-85 243.5v4q-156 0 -196 -4q107 -49 107 -154q0 -83 -67.5 -133t-168.5 -50q-122 0 -218 45v109
q106 -52 210 -52q48 0 87 20t39 65t-31.5 69t-89.5 44l-245 -65v103l118 28q-84 47 -84 134q0 82 64 127t166 45q96 0 172 -23v-104q-84 25 -168 25q-52 0 -84 -20t-32 -60q0 -57 88 -89l29 7q92 24 218 24h96q24 112 101.5 176t189.5 64q50 0 99 -12v-102q-39 12 -74 12z
" />
    <glyph glyph-name="gjK_VA" horiz-adv-x="1215" 
d="M1025 660h118v-660h-118v221q-56 -77 -165 -77q-94 0 -162.5 52.5t-88.5 138.5q-152 0 -192 -4q107 -49 107 -154q0 -83 -67.5 -133t-168.5 -50q-122 0 -218 45v109q106 -52 210 -52q48 0 87 20t39 65t-31.5 69t-89.5 44l-245 -65v103l118 28q-84 47 -84 134q0 82 64 127
t166 45q96 0 172 -23v-104q-84 25 -168 25q-52 0 -84 -20t-32 -60q0 -57 88 -89l29 7q92 24 218 24h76q9 98 78 161.5t174 63.5q37 0 71 -7v-100q-25 5 -46 5q-73 0 -115.5 -43t-42.5 -110q0 -65 40.5 -108t110.5 -43q58 0 102.5 37.5t49.5 97.5v280z" />
    <glyph glyph-name="gjK_V_YA" horiz-adv-x="1597" 
d="M1406 660h118v-660h-118v193q-58 -79 -173 -79q-111 0 -181 82q-77 -54 -176 -54q-93 0 -167 53t-97 140q-155 0 -195 -4q107 -49 107 -154q0 -83 -67.5 -133t-168.5 -50q-122 0 -218 45v109q106 -52 210 -52q48 0 87 20t39 65t-31.5 69t-89.5 44l-245 -65v103l118 28
q-84 47 -84 134q0 82 64 127t166 45q96 0 172 -23v-104q-84 25 -168 25q-52 0 -84 -20t-32 -60q0 -57 88 -89l29 7q92 24 218 24h77q8 97 76.5 161t174.5 64q39 0 71 -7v-100q-25 5 -46 5q-72 0 -114.5 -42.5t-42.5 -109.5q0 -65 43.5 -108.5t115.5 -43.5q68 0 120 41
q-13 37 -16 89q79 12 132 42.5t53 77.5q0 34 -22.5 51.5t-56.5 17.5q-38 0 -74 -19v104q40 17 86 17q75 0 129 -48.5t54 -124.5q0 -134 -170 -184q10 -45 46.5 -69.5t84.5 -24.5q62 0 110 40.5t48 109.5v295z" />
    <glyph glyph-name="gjK_SHA" horiz-adv-x="1310" 
d="M904 -7q-106 0 -174 66.5t-73 187.5q-82 91 -192 91q-24 0 -51 -6q110 -47 110 -155q0 -83 -67.5 -133t-168.5 -50q-122 0 -218 45v109q106 -52 210 -52q48 0 87 20t39 65t-31.5 69t-89.5 44l-245 -65v103l118 28q-84 47 -84 134q0 82 64 127t166 45q96 0 172 -23v-104
q-84 25 -168 25q-52 0 -84 -20t-32 -60q0 -57 86 -88l53 14q86 21 145 21q128 0 222 -83h44q67 0 112.5 34t45.5 99q0 41 -18 65t-50 24q-33 0 -50.5 -24t-17.5 -59q0 -30 9 -55h-115q-10 33 -10 70q0 74 50.5 121.5t130.5 47.5q85 0 138 -54.5t53 -149.5q0 -96 -68.5 -156
t-176.5 -65q1 -74 39 -112t104 -38q47 0 93 18v-104q-50 -17 -107 -17zM1120 660h118v-660h-118v660z" />
    <glyph glyph-name="gjK_SS_MA" horiz-adv-x="1117" 
d="M212 503q0 -61 64 -85q78 33 78 89q0 28 -19 46.5t-49 18.5q-31 0 -52.5 -20t-21.5 -49zM926 660h118v-660h-118v300h-188v-119h-100l-34 74q-13 32 -19 53h-202q-66 0 -126 19q-48 -23 -73.5 -49t-25.5 -64q0 -39 27 -62t68 -23q46 0 80 32.5t34 79.5h113v-241h-115v97
q-17 -26 -54 -43.5t-79 -17.5q-83 0 -138 48t-55 125q0 63 34 101t93 64q-65 53 -65 135q0 71 51 115t130 44q80 0 130 -41.5t50 -111.5q0 -69 -64 -116h8h217v117q0 47 -47 47q-16 0 -33 -5v98l9 1q8 1 22 2.5t29 1.5q56 0 95.5 -36t39.5 -97v-129h188v261z" />
    <glyph glyph-name="gjK_SS_M_YA" horiz-adv-x="2013" 
d="M1823 660h118v-660h-118v158q-26 -37 -71.5 -57.5t-99.5 -20.5q-80 0 -146 48t-90 139h-143v-119h-100l-34 75q-10 24 -15 37h-360v-17q0 -72 37 -109.5t99 -37.5q42 0 85 15v-103q-45 -15 -99 -15q-105 0 -172 70.5t-67 197.5q-44 42 -82.5 59.5t-99.5 17.5
q-24 0 -51 -6q110 -47 110 -155q0 -83 -67.5 -133t-168.5 -50q-122 0 -218 45v109q106 -52 210 -52q48 0 87 20t39 65t-31.5 69t-89.5 44l-245 -65v103l118 28q-84 47 -84 134q0 82 64 127t166 45q96 0 172 -23v-104q-84 25 -168 25q-52 0 -84 -20t-32 -60q0 -57 86 -88
l53 14q84 21 145 21q121 0 209 -69h32q66 0 105 25.5t39 74.5q0 50 -35 76t-92 26q-42 0 -86 -12v104q43 10 101 10q95 0 162 -52t67 -141q0 -73 -50 -117h230v160q0 47 -47 47q-16 0 -33 -5v98l8 1q9 1 23 2.5t29 1.5q56 0 95.5 -36t39.5 -97v-166h145q84 0 128 29t44 80
q0 38 -23 60.5t-60 22.5q-34 0 -72 -18v103q37 17 84 17q78 0 131.5 -54t53.5 -133q0 -76 -47 -128t-122 -66q11 -45 47.5 -69.5t84.5 -24.5q61 0 108.5 40.5t47.5 109.5v329z" />
    <glyph glyph-name="gjK_SS_YA" horiz-adv-x="1154" 
d="M212 503q0 -60 61 -87q81 35 81 91q0 28 -19 46.5t-49 18.5q-31 0 -52.5 -20t-21.5 -49zM577 545v104q40 17 86 17q76 0 129.5 -51t53.5 -132q0 -64 -48.5 -110.5t-124.5 -60.5q30 -99 135 -99q61 0 108.5 40t47.5 109v298h118v-660h-118v190q-27 -37 -72 -58t-99 -21
q-81 0 -147 50t-90 145h-171q-70 0 -130 19q-46 -22 -71.5 -48t-25.5 -63q0 -39 27 -62t68 -23q46 0 80 32.5t34 79.5h113v-241h-115v97q-17 -26 -54 -43.5t-79 -17.5q-83 0 -138 48t-55 125q0 63 33.5 101t92.5 64q-64 53 -64 135q0 71 51 115t130 44q80 0 130 -41.5
t50 -111.5t-67 -118h6h160q85 0 127 26t42 68q0 35 -22.5 54t-57.5 19q-37 0 -73 -19z" />
    <glyph glyph-name="gjK_SS_VA" horiz-adv-x="1171" 
d="M212 503q0 -60 69 -83q73 33 73 87q0 28 -19 46.5t-49 18.5q-31 0 -52.5 -20t-21.5 -49zM981 660h118v-660h-118v221q-56 -77 -165 -77q-89 0 -155 47t-91 126h-209q-51 0 -97 13q-51 -25 -78.5 -51t-27.5 -65t27 -62t68 -23q46 0 80 32.5t34 79.5h113v-241h-115v97
q-17 -26 -54 -43.5t-79 -17.5q-83 0 -138 48t-55 125q0 64 34.5 101.5t94.5 64.5q-67 52 -67 134q0 71 51 115t130 44q80 0 130 -41.5t50 -111.5q0 -64 -54 -108h150q2 104 72.5 174t180.5 70q37 0 71 -7v-100q-25 5 -46 5q-73 0 -115.5 -43t-42.5 -110q0 -65 40.5 -108
t110.5 -43q58 0 102.5 37.5t49.5 97.5v280z" />
    <glyph glyph-name="gjK_SA" horiz-adv-x="1322" 
d="M1132 660h118v-660h-118v293h-254q-49 -26 -113 -32q-1 -6 -1 -18q0 -72 37 -109.5t99 -37.5q42 0 85 15v-103q-45 -15 -99 -15q-105 0 -172 70.5t-67 197.5q-44 42 -82.5 59.5t-99.5 17.5q-24 0 -51 -6q110 -47 110 -155q0 -83 -67.5 -133t-168.5 -50q-122 0 -218 45
v109q106 -52 210 -52q48 0 87 20t39 65t-31.5 69t-89.5 44l-245 -65v103l118 28q-84 47 -84 134q0 82 64 127t166 45q96 0 172 -23v-104q-84 25 -168 25q-52 0 -84 -20t-32 -60q0 -57 86 -88l53 14q84 21 145 21q121 0 209 -69h32q66 0 105 25.5t39 74.5q0 50 -35 76t-92 26
q-42 0 -86 -12v104q43 10 101 10q98 0 165 -53.5t67 -150.5q0 -37 -13 -71h164v269z" />
    <glyph glyph-name="gjK_S_TTA" horiz-adv-x="1583" 
d="M1336 -7q-101 0 -174 51t-73 141q0 69 45 111q-40 -4 -96 -4h-162q-48 -25 -111 -31q-1 -6 -1 -18q0 -72 37 -109.5t99 -37.5q42 0 85 15v-103q-45 -15 -99 -15q-105 0 -172 70.5t-67 197.5q-44 42 -82.5 59.5t-99.5 17.5q-24 0 -51 -6q110 -47 110 -155
q0 -83 -67.5 -133t-168.5 -50q-122 0 -218 45v109q106 -52 210 -52q48 0 87 20t39 65t-31.5 69t-89.5 44l-245 -65v103l118 28q-84 47 -84 134q0 82 64 127t166 45q96 0 172 -23v-104q-84 25 -168 25q-52 0 -84 -20t-32 -60q0 -57 86 -88l53 14q84 21 145 21q121 0 209 -69
h32q66 0 105 25.5t39 74.5q0 50 -35 76t-92 26q-42 0 -86 -12v104q43 10 101 10q98 0 165 -53.5t67 -150.5q0 -37 -13 -71h242q206 0 206 93q0 42 -35 61t-83 19q-85 0 -156 -40v112q69 30 165 30t163 -51.5t67 -137.5q0 -125 -161 -177q-8 -3 -36 -11t-39.5 -12.5
t-33 -14.5t-31 -19.5t-18 -25.5t-8.5 -35q0 -47 38 -67t84 -20q108 0 202 50v-111q-79 -41 -198 -41z" />
    <glyph glyph-name="gjK_S_DDA" horiz-adv-x="1592" 
d="M1311 -7q-120 0 -202 43v111q98 -52 206 -52q49 0 86.5 21.5t37.5 66.5q0 110 -255 110h-306q-49 -26 -113 -32q-1 -6 -1 -18q0 -72 37 -109.5t99 -37.5q42 0 85 15v-103q-45 -15 -99 -15q-105 0 -172 70.5t-67 197.5q-44 42 -82.5 59.5t-99.5 17.5q-24 0 -51 -6
q110 -47 110 -155q0 -83 -67.5 -133t-168.5 -50q-122 0 -218 45v109q106 -52 210 -52q48 0 87 20t39 65t-31.5 69t-89.5 44l-245 -65v103l118 28q-84 47 -84 134q0 82 64 127t166 45q96 0 172 -23v-104q-84 25 -168 25q-52 0 -84 -20t-32 -60q0 -57 86 -88l53 14
q84 21 145 21q121 0 209 -69h32q66 0 105 25.5t39 74.5q0 50 -35 76t-92 26q-42 0 -86 -12v104q43 10 101 10q98 0 165 -53.5t67 -150.5q0 -40 -14 -74h68q71 0 117 -7q-44 42 -44 107q0 82 63 130t167 48q101 0 171 -23v-107q-74 28 -159 28q-123 0 -123 -80q0 -22 10 -38
t32.5 -27.5t40.5 -17.5t52 -15q197 -54 197 -197q0 -94 -69.5 -145t-178.5 -51z" />
    <glyph glyph-name="gjK_S_TA" horiz-adv-x="1647" 
d="M1457 660h118v-660h-118v395h-116q-68 0 -107 -39t-39 -112q0 -68 30 -106t90 -38q16 0 37 3v-98q-28 -5 -48 -5q-101 0 -164 68t-63 178q0 24 3 47h-202q-49 -26 -113 -32q-1 -6 -1 -18q0 -72 37 -109.5t99 -37.5q42 0 85 15v-103q-45 -15 -99 -15q-105 0 -172 70.5
t-67 197.5q-44 42 -82.5 59.5t-99.5 17.5q-24 0 -51 -6q110 -47 110 -155q0 -83 -67.5 -133t-168.5 -50q-122 0 -218 45v109q106 -52 210 -52q48 0 87 20t39 65t-31.5 69t-89.5 44l-245 -65v103l118 28q-84 47 -84 134q0 82 64 127t166 45q96 0 172 -23v-104q-84 25 -168 25
q-52 0 -84 -20t-32 -60q0 -57 86 -88l53 14q84 21 145 21q121 0 209 -69h32q66 0 105 25.5t39 74.5q0 50 -35 76t-92 26q-42 0 -86 -12v104q43 10 101 10q98 0 165 -53.5t67 -150.5q0 -37 -13 -71h146q66 103 223 103h120v166z" />
    <glyph glyph-name="gjK_S_P_RA" horiz-adv-x="1652" 
d="M1462 660h118v-660h-118v215l-209 -232h-149l180 196q-75 18 -106 81h-414v-17q0 -72 37 -109.5t99 -37.5q42 0 85 15v-103q-45 -15 -99 -15q-105 0 -172 70.5t-67 197.5q-44 42 -82.5 59.5t-99.5 17.5q-24 0 -51 -6q110 -47 110 -155q0 -83 -67.5 -133t-168.5 -50
q-122 0 -218 45v109q106 -52 210 -52q48 0 87 20t39 65t-31.5 69t-89.5 44l-245 -65v103l118 28q-84 47 -84 134q0 82 64 127t166 45q96 0 172 -23v-104q-84 25 -168 25q-52 0 -84 -20t-32 -60q0 -57 86 -88l53 14q84 21 145 21q121 0 209 -69h32q66 0 105 25.5t39 74.5
q0 50 -35 76t-92 26q-42 0 -86 -12v104q43 10 101 10q95 0 162 -52t67 -141q0 -73 -50 -117h226v14v148q0 45 -43 45q-18 0 -35 -5v98l8 1q9 1 23 2.5t29 1.5q56 0 96 -35.5t40 -95.5v-164q0 -46 22.5 -72.5t68.5 -26.5q49 0 74 28.5t25 78.5v286z" />
    <glyph glyph-name="gjK_S_P_LA" horiz-adv-x="2127" 
d="M1936 660h118v-660h-118v282h-239v102h239v276zM1776 564q-92 0 -149 -66t-57 -167q0 -109 55.5 -172t149.5 -63q33 0 75 11v-101q-50 -12 -93 -12q-103 0 -178.5 55t-107.5 150q-54 -32 -116 -32q-123 0 -174 93h-417v-17q0 -72 37 -109.5t99 -37.5q42 0 85 15v-103
q-45 -15 -99 -15q-105 0 -172 70.5t-67 197.5q-44 42 -82.5 59.5t-99.5 17.5q-24 0 -51 -6q110 -47 110 -155q0 -83 -67.5 -133t-168.5 -50q-122 0 -218 45v109q106 -52 210 -52q48 0 87 20t39 65t-31.5 69t-89.5 44l-245 -65v103l118 28q-84 47 -84 134q0 82 64 127t166 45
q96 0 172 -23v-104q-84 25 -168 25q-52 0 -84 -20t-32 -60q0 -57 86 -88l53 14q84 21 145 21q121 0 209 -69h32q66 0 105 25.5t39 74.5q0 50 -35 76t-92 26q-42 0 -86 -12v104q43 10 101 10q95 0 162 -52t67 -141q0 -73 -50 -117h226v14v148q0 45 -43 45q-18 0 -35 -5v98
l8 1q9 1 23 2.5t29 1.5q56 0 96 -35.5t40 -95.5v-164q0 -46 22.5 -72.5t68.5 -26.5q48 0 88 37q-1 9 -1 27q0 152 83.5 243.5t217.5 91.5q49 0 99 -12v-102q-39 12 -74 12z" />
    <glyph glyph-name="gjKH_KHA" horiz-adv-x="1381" 
d="M370 510h118v-108h164v114q0 47 -47 47q-16 0 -33 -5v98l8 1q9 1 23 2.5t29 1.5q57 0 97.5 -36t40.5 -97v-220q0 -79 74 -79q75 0 75 79v202h118v-108h153v258h118v-660h-118v303h-154q-5 -83 -55.5 -128t-136.5 -45q-85 0 -135.5 45.5t-55.5 127.5h-166
q-5 -83 -55.5 -128t-136.5 -45q-90 0 -141 50.5t-51 141.5v194q0 47 -47 47q-16 0 -33 -5v98l9 1q8 1 22 2.5t29 1.5q57 0 97.5 -36t40.5 -97v-220q0 -79 74 -79q75 0 75 79v202z" />
    <glyph glyph-name="gjKH_TA" horiz-adv-x="1186" 
d="M370 510h118v-108h172q67 92 215 92h120v166h118v-660h-118v395h-116q-67 0 -106 -39t-39 -112q0 -69 30 -106.5t90 -37.5q16 0 36 3v-98q-25 -5 -47 -5q-101 0 -164 68t-63 178q0 27 5 57h-134q-5 -83 -55.5 -128t-136.5 -45q-90 0 -141 50.5t-51 141.5v194q0 47 -47 47
q-16 0 -33 -5v98l9 1q8 1 22 2.5t29 1.5q57 0 97.5 -36t40.5 -97v-220q0 -79 74 -79q75 0 75 79v202z" />
    <glyph glyph-name="gjKH_NA" horiz-adv-x="1308" 
d="M370 510h118v-108h163q52 92 184 92h289v166h118v-660h-118v397h-153q51 -48 51 -119q0 -78 -55 -127t-142 -49q-90 0 -145 55.5t-55 140.5v5h-138q-5 -83 -55.5 -128t-136.5 -45q-90 0 -141 50.5t-51 141.5v194q0 47 -47 47q-16 0 -33 -5v98l9 1q8 1 22 2.5t29 1.5
q57 0 97.5 -36t40.5 -97v-220q0 -79 74 -79q75 0 75 79v202zM743 298q0 -45 23 -71t59 -26t59 26t23 71t-23 71t-59 26t-59 -26t-23 -71z" />
    <glyph glyph-name="gjKH_MA" horiz-adv-x="1152" 
d="M370 489h118v-112h170v139q0 47 -47 47q-17 0 -32 -5v98l9 1q8 1 22 2.5t28 1.5q56 0 96 -36t40 -97v-151h188v283h118v-660h-118v278h-188v-128h-100l-34 74q-14 32 -21 54h-134q-12 -71 -61.5 -109.5t-128.5 -38.5q-90 0 -141 50.5t-51 141.5v194q0 47 -47 47
q-16 0 -33 -5v98l9 1q8 1 22 2.5t29 1.5q57 0 97.5 -36t40.5 -97v-220q0 -79 74 -79q75 0 75 79v181z" />
    <glyph glyph-name="gjKH_YA" horiz-adv-x="1198" 
d="M370 507h118v-114h109q80 0 128 24.5t48 75.5q0 34 -23 52.5t-57 18.5q-37 0 -73 -19v104q40 17 86 17q75 0 129 -49.5t54 -126.5q0 -73 -48.5 -120.5t-121.5 -62.5q11 -45 47 -68.5t84 -23.5q61 0 109 40.5t48 109.5v295h118v-660h-118v192q-27 -37 -72.5 -57.5
t-99.5 -20.5q-80 0 -145.5 47.5t-89.5 137.5h-113q-7 -81 -57 -125t-135 -44q-90 0 -141 50.5t-51 141.5v194q0 47 -47 47q-16 0 -33 -5v98l9 1q8 1 22 2.5t29 1.5q57 0 97.5 -36t40.5 -97v-220q0 -79 74 -79q75 0 75 79v199z" />
    <glyph glyph-name="gjKH_SHA" horiz-adv-x="1280" 
d="M370 498h118v-148h223q67 0 113 33.5t46 97.5q0 41 -18 65t-50 24q-33 0 -51 -24t-18 -59q0 -37 16 -69h-115q-17 39 -17 84q0 74 50.5 121.5t130.5 47.5q85 0 138 -54.5t53 -149.5q0 -93 -68.5 -151.5t-175.5 -63.5q1 -78 38.5 -117t103.5 -39q48 0 94 18v-104
q-51 -17 -108 -17q-106 0 -174 68t-73 191h-147q-36 -122 -184 -122q-90 0 -141 50.5t-51 141.5v194q0 47 -47 47q-16 0 -33 -5v98l9 1q8 1 22 2.5t29 1.5q57 0 97.5 -36t40.5 -97v-220q0 -79 74 -79q75 0 75 79v190zM1089 660h118v-660h-118v660z" />
    <glyph glyph-name="gjKH_SA" horiz-adv-x="1286" 
d="M370 503h118v-141h193q66 0 104.5 25.5t38.5 74.5q0 50 -35 76t-92 26q-43 0 -85 -12v104q43 10 101 10q98 0 164.5 -53.5t66.5 -150.5q0 -37 -13 -71h164v269h118v-660h-118v293h-254q-47 -25 -112 -32q-1 -6 -1 -18q0 -72 37 -109.5t98 -37.5q41 0 86 15v-103
q-45 -15 -100 -15q-104 0 -171.5 70.5t-67.5 196.5h-129q-16 -63 -64 -96.5t-122 -33.5q-90 0 -141 50.5t-51 141.5v194q0 47 -47 47q-16 0 -33 -5v98l9 1q8 1 22 2.5t29 1.5q57 0 97.5 -36t40.5 -97v-220q0 -79 74 -79q75 0 75 79v195z" />
    <glyph glyph-name="gjG_NA" horiz-adv-x="1145" 
d="M133 666q101 0 172.5 -67t71.5 -177q0 -108 -72 -174.5t-174 -66.5q-46 0 -97 17v103q38 -17 86 -17q62 0 99.5 38.5t37.5 101.5q0 62 -37 101t-100 39q-37 0 -70 -13v103q39 12 83 12zM962 660h118v-660h-118v397h-153q51 -48 51 -119q0 -78 -55 -127t-142 -49
q-90 0 -145 55.5t-55 140.5q0 90 57 143t153 53h289v166zM581 298q0 -45 23 -71t59 -26t59 26t23 71t-23 71t-59 26t-59 -26t-23 -71z" />
    <glyph glyph-name="gjG_R_YA" horiz-adv-x="1063" 
d="M133 666q101 0 172.5 -62.5t71.5 -164.5q0 -101 -72 -163t-174 -62q-49 0 -97 17v103q42 -17 86 -17q62 0 99.5 33.5t37.5 89.5q0 55 -37 89.5t-100 34.5q-37 0 -70 -13v103q39 12 83 12zM873 660h118v-660h-118v193q-27 -37 -73 -58t-100 -21q-112 0 -183 84l-245 -218
h-158l354 308q-13 37 -16 87q79 12 132.5 42.5t53.5 77.5q0 34 -22.5 51.5t-57.5 17.5q-37 0 -73 -19v104q40 17 86 17q75 0 129 -48.5t54 -124.5q0 -134 -170 -184q10 -45 46.5 -69.5t84.5 -24.5q62 0 110 40.5t48 109.5v295z" />
    <glyph glyph-name="gjGH_NA" horiz-adv-x="1119" 
d="M928 660h118v-660h-118v397h-153q51 -48 51 -119q0 -78 -55 -127t-142 -49q-89 0 -145 56q-89 -75 -212 -75q-88 0 -153.5 45t-65.5 120q0 113 137 139q-56 14 -90.5 48.5t-34.5 90.5q0 66 54 105.5t136 39.5q57 0 105 -11v-99q-38 11 -83 11q-39 0 -66 -17t-27 -53
q0 -34 26 -51.5t63 -17.5h54v-100h-62q-38 0 -65 -19t-27 -52q0 -38 32 -59t81 -21q85 0 150 60q-7 25 -7 56q0 90 57 143t153 53h289v166zM547 298q0 -45 23 -71t59 -26t59 26t23 71t-23 71t-59 26t-59 -26t-23 -71z" />
    <glyph glyph-name="gjGH_MA" horiz-adv-x="1013" 
d="M823 660h118v-660h-118v266h-188v-110h-104q-109 -73 -248 -73q-93 0 -161.5 44t-68.5 121q0 113 137 139q-56 14 -90.5 48.5t-34.5 90.5q0 66 54 105.5t136 39.5q57 0 105 -11v-99q-38 11 -83 11q-39 0 -66 -17t-27 -53q0 -34 26 -51.5t63 -17.5h54v-100h-62
q-38 0 -65 -19t-27 -52q0 -38 33 -59t83 -21q118 0 201 68q-16 37 -16 56q0 41 45 53v157q0 47 -47 47q-17 0 -32 -5v98l8 1q9 1 23 2.5t28 1.5q56 0 96 -36t40 -97v-164h188v296z" />
    <glyph glyph-name="gjGH_YA" horiz-adv-x="1035" 
d="M845 660h118v-660h-118v193q-58 -79 -173 -79q-97 0 -165 65q-96 -96 -235 -96q-88 0 -153.5 45t-65.5 120q0 113 137 139q-56 14 -90.5 48.5t-34.5 90.5q0 66 54 105.5t136 39.5q57 0 105 -11v-99q-38 11 -83 11q-39 0 -66 -17t-27 -53q0 -34 26 -51.5t63 -17.5h54v-100
h-62q-38 0 -65 -19t-27 -52q0 -38 32 -59t81 -21q95 0 166 76q-22 50 -27 117q79 12 132 42.5t53 77.5q0 34 -22.5 51.5t-56.5 17.5q-38 0 -74 -19v104q40 17 86 17q75 0 129 -48.5t54 -124.5q0 -134 -170 -184q10 -45 46.5 -69.5t84.5 -24.5q62 0 110 40.5t48 109.5v295z
" />
    <glyph glyph-name="gjC_CA" horiz-adv-x="1139" 
d="M476 319v99h154q41 0 70 17t29 56q0 35 -28.5 55t-72.5 20q-48 0 -93 -12v101q57 11 105 11q87 0 147.5 -47t60.5 -131q0 -81 -56 -125t-139 -44q5 -59 43.5 -89t95.5 -30q68 0 112 40t44 105v315h118v-660h-118v175q-26 -36 -71.5 -55.5t-96.5 -19.5q-61 0 -113.5 27
t-84.5 78q-40 -49 -100 -77.5t-128 -28.5q-98 0 -173.5 57t-86.5 162h-67v100h154q41 0 70 17t29 56q0 35 -28.5 55t-72.5 20q-48 0 -93 -12v101q57 11 105 11q87 0 147.5 -47t60.5 -131q0 -81 -56 -125.5t-137 -44.5q7 -59 48 -88.5t101 -29.5q67 0 117 34.5t74 81.5v3h-70
z" />
    <glyph glyph-name="gjC_CHA" horiz-adv-x="1241" 
d="M27 318v100h154q41 0 70 17t29 56q0 35 -28.5 55t-72.5 20q-48 0 -93 -12v101q57 11 105 11q87 0 147.5 -47t60.5 -131q0 -81 -56 -125.5t-138 -44.5q7 -55 44.5 -86.5t90.5 -31.5q38 0 70.5 12t56 30t46 37.5t52 37t61.5 24.5q-60 14 -99 55t-39 100q0 80 62.5 125
t152.5 45q49 0 91 -10v-101q-38 10 -76 10q-49 0 -79.5 -22t-30.5 -64q0 -44 32 -65.5t76 -21.5h59v-100h-49q-45 0 -77 -23t-32 -68q0 -52 47.5 -78.5t111.5 -26.5q131 0 223 86t92 219q0 127 -63 127q-30 0 -46.5 -28.5t-16.5 -80.5q0 -73 44 -140h-114q-47 70 -47 156
q0 83 45.5 138.5t128.5 55.5q79 0 132.5 -64t53.5 -173q0 -116 -60.5 -209t-155.5 -141.5t-203 -48.5q-109 0 -185.5 40.5t-96.5 111.5q-69 -46 -153 -46q-100 0 -174.5 57t-85.5 162h-67z" />
    <glyph glyph-name="gjC_CH_VA" horiz-adv-x="1241" 
d="M810 -190q53 0 94.5 37.5t41.5 97.5v82q-54 -21 -112 -27q-127 -13 -127 -99q0 -38 27.5 -64.5t75.5 -26.5zM27 318v100h154q41 0 70 17t29 56q0 35 -28.5 55t-72.5 20q-48 0 -93 -12v101q57 11 105 11q87 0 147.5 -47t60.5 -131q0 -81 -56 -125.5t-138 -44.5
q7 -55 44.5 -86.5t90.5 -31.5q38 0 70.5 12t56 30t46 37.5t52 37t61.5 24.5q-60 14 -99 55t-39 100q0 80 62.5 125t152.5 45q49 0 91 -10v-101q-38 10 -76 10q-49 0 -79.5 -22t-30.5 -64q0 -44 32 -65.5t76 -21.5h59v-100h-49q-45 0 -77 -22t-32 -67q0 -51 47.5 -77
t111.5 -26q132 0 223.5 85t91.5 216q0 127 -63 127q-30 0 -46.5 -28.5t-16.5 -80.5q0 -73 44 -140h-114q-47 70 -47 156q0 83 45.5 138.5t128.5 55.5q79 0 132.5 -64t53.5 -173q0 -96 -41.5 -174.5t-114.5 -132.5v-422h-106v120q-24 -35 -64 -54t-86 -19q-87 0 -146 53
t-59 133q0 75 57 124q-114 35 -141 125q-69 -46 -153 -46q-100 0 -174.5 57t-85.5 162h-67z" />
    <glyph glyph-name="gjC_NA" horiz-adv-x="1163" 
d="M27 318v100h154q41 0 70 17t29 56q0 35 -28.5 55t-72.5 20q-48 0 -93 -12v101q57 11 105 11q87 0 147.5 -47t60.5 -131q0 -81 -56 -125.5t-138 -44.5q6 -59 45.5 -88.5t98.5 -29.5q72 0 129 48q-6 24 -6 50q0 90 57.5 143t153.5 53h289v166h118v-660h-118v397h-153
q51 -48 51 -119q0 -78 -55 -127t-142 -49q-90 0 -146 56q-77 -59 -176 -59t-173 56.5t-84 162.5h-67zM590 298q0 -45 23 -71t59 -26q37 0 60 26t23 71t-23 71t-59 26t-59.5 -26t-23.5 -71z" />
    <glyph glyph-name="gjC_MA" horiz-adv-x="1054" 
d="M27 318v100h154q41 0 70 17t29 56q0 35 -28.5 55t-72.5 20q-48 0 -93 -12v101q57 11 105 11q87 0 147.5 -47t60.5 -131q0 -81 -56 -125.5t-137 -44.5q7 -56 52 -87t109 -31q98 0 162 59q-14 33 -14 51q0 40 45 52v154q0 47 -47 47q-17 0 -32 -5v98l9 1q8 1 22 2.5t28 1.5
q56 0 96 -36t40 -97v-160h188v292h118v-660h-118v269h-188v-101h-100q-86 -69 -207 -69q-105 0 -184 57.5t-91 161.5h-67z" />
    <glyph glyph-name="gjC_YA" horiz-adv-x="1083" 
d="M27 318v100h154q41 0 70 17t29 56q0 35 -28.5 55t-72.5 20q-48 0 -93 -12v101q57 11 105 11q87 0 147.5 -47t60.5 -131q0 -81 -56 -125.5t-138 -44.5q6 -59 45.5 -88.5t98.5 -29.5q84 0 147 65q-21 52 -24 110q79 12 132 42.5t53 77.5q0 34 -22.5 51.5t-56.5 17.5
q-38 0 -74 -19v104q40 17 86 17q75 0 129 -48.5t54 -124.5q0 -134 -170 -184q10 -45 46.5 -69.5t84.5 -24.5q62 0 110 40.5t48 109.5v295h118v-660h-118v193q-58 -79 -173 -79q-99 0 -165 65q-87 -80 -203 -80q-99 0 -173 56.5t-84 162.5h-67z" />
    <glyph glyph-name="gjCH_YA" horiz-adv-x="1446" 
d="M1256 660h118v-660h-118v152q-57 -79 -173 -79q-97 0 -168.5 67t-79.5 192q80 10 134 38t54 71q0 31 -20 46t-53 15q-88 0 -181 -91v-19q0 -116 -60.5 -209t-155.5 -141.5t-203 -48.5q-129 0 -210.5 54t-81.5 147q0 61 36.5 98t92.5 49q-60 13 -99 54.5t-39 100.5
q0 80 62.5 125t152.5 45q49 0 91 -10v-101q-38 10 -76 10q-49 0 -79.5 -22t-30.5 -64q0 -44 31.5 -65.5t76.5 -21.5h59v-100h-49q-45 0 -77 -23t-32 -68q0 -52 47.5 -78.5t111.5 -26.5q131 0 223 86t92 219q0 127 -63 127q-30 0 -46.5 -28.5t-16.5 -80.5q0 -76 44 -140h-114
q-47 70 -47 156q0 83 45.5 138.5t128.5 55.5q51 0 92.5 -27.5t66.5 -78.5q95 77 207 77q76 0 133 -42.5t57 -121.5q0 -65 -48.5 -108t-123.5 -63q10 -44 46.5 -67.5t84.5 -23.5q62 0 110 40.5t48 109.5v336z" />
    <glyph glyph-name="gjCH_VA" horiz-adv-x="802" 
d="M769 392q0 -96 -42 -175t-115 -133v-421h-105v120q-24 -35 -64 -54t-86 -19q-87 0 -146 53t-59 133q0 77 58 124q-71 22 -111.5 67t-40.5 109q0 60 36.5 96.5t92.5 48.5q-60 13 -99 54.5t-39 100.5q0 80 62.5 125t152.5 45q49 0 91 -10v-101q-38 10 -76 10
q-49 0 -79.5 -22t-30.5 -64q0 -44 31.5 -65.5t76.5 -21.5h59v-100h-49q-45 0 -77 -22t-32 -67q0 -51 47.5 -77t111.5 -26q132 0 223.5 85t91.5 216q0 127 -63 127q-30 0 -46.5 -28.5t-16.5 -80.5q0 -76 44 -140h-114q-47 70 -47 156q0 83 45.5 138.5t128.5 55.5
q79 0 132.5 -64t53.5 -173zM370 -190q54 0 95.5 37.5t41.5 97.5v82q-54 -21 -112 -27q-127 -13 -127 -99q0 -38 27.5 -64.5t74.5 -26.5z" />
    <glyph glyph-name="gjJ_KA" horiz-adv-x="1291" 
d="M456 93q38 0 64.5 26.5t26.5 66.5q0 73 -74 165q-48 -39 -76 -85t-28 -87q0 -35 24.5 -60.5t62.5 -25.5zM998 -6q-122 0 -218 45v109q106 -52 210 -52q48 0 87 20t39 65t-31.5 69t-89.5 44l-245 -65v103l118 28q-53 29 -74 81q-30 6 -66 6q-80 0 -163 -38
q99 -133 99 -234q0 -76 -56 -128.5t-151 -52.5q-81 0 -143 51t-62 139q0 64 41 130t110 120q-59 65 -103 97.5t-88 32.5q-32 0 -54 -18.5t-22 -51.5q0 -29 21 -49t55 -20q25 0 45 8v-98q-22 -10 -64 -10q-76 0 -125.5 49.5t-49.5 118.5q0 76 53 124.5t134 48.5
q80 0 148.5 -45t142.5 -128q110 56 221 56q44 0 74 -6q18 59 78 91t145 32q96 0 172 -23v-104q-84 25 -168 25q-52 0 -84 -20t-32 -60q0 -58 86 -88l263 68v-102l-121 -29q104 -51 104 -156q0 -83 -67.5 -133t-168.5 -50z" />
    <glyph glyph-name="gjJ_JA" horiz-adv-x="1409" 
d="M1423 660v-9l-202 -217q119 -148 119 -259q0 -76 -56.5 -128.5t-150.5 -52.5q-84 0 -147 49.5t-63 138.5q0 56 27.5 105t93.5 117l32 33q-55 63 -99.5 95t-88.5 32q-32 0 -54 -18.5t-22 -51.5q0 -29 21 -49t55 -20q25 0 45 8v-98q-23 -10 -65 -10q-61 0 -106 34t-61 87
q-71 -6 -136 -37q99 -133 99 -234q0 -76 -56 -128.5t-151 -52.5q-81 0 -143 51t-62 139q0 64 41 130t110 120q-59 65 -103 97.5t-88 32.5q-32 0 -54 -18.5t-22 -51.5q0 -29 21 -49t55 -20q25 0 45 8v-98q-22 -10 -64 -10q-76 0 -125.5 49.5t-49.5 118.5q0 76 53 124.5
t134 48.5q80 0 148.5 -45t142.5 -128q100 51 207 56q17 53 65.5 85t112.5 32q75 0 139.5 -40t130.5 -112l143 146h129zM1132 93q38 0 64.5 26.5t26.5 66.5q0 71 -77 168l-33 -36q-46 -48 -59.5 -77.5t-13.5 -59.5q0 -36 26 -62t66 -26zM456 93q38 0 64.5 26.5t26.5 66.5
q0 73 -74 165q-48 -39 -76 -85t-28 -87q0 -35 24.5 -60.5t62.5 -25.5z" />
    <glyph glyph-name="gjJ_J_YA" horiz-adv-x="2031" 
d="M456 93q38 0 64.5 26.5t26.5 66.5q0 73 -74 165q-48 -39 -76 -85t-28 -87q0 -35 24.5 -60.5t62.5 -25.5zM1841 660h118v-660h-118v193q-27 -37 -73 -58t-100 -21q-88 0 -156 56t-87 161q-63 41 -142 41h-16q73 -110 73 -197q0 -76 -56.5 -128.5t-150.5 -52.5
q-83 0 -143.5 54t-60.5 139q0 80 42 141.5t113 98.5q-61 69 -106 103t-90 34q-32 0 -54 -18.5t-22 -51.5q0 -29 21 -49t55 -20q20 0 41 6v-97q-24 -9 -61 -9q-61 0 -106 34t-61 87q-71 -6 -136 -37q99 -133 99 -234q0 -76 -56 -128.5t-151 -52.5q-81 0 -143 51t-62 139
q0 64 41 130t110 120q-59 65 -103 97.5t-88 32.5q-32 0 -54 -18.5t-22 -51.5q0 -29 21 -49t55 -20q25 0 45 8v-98q-22 -10 -64 -10q-76 0 -125.5 49.5t-49.5 118.5q0 76 53 124.5t134 48.5q80 0 148.5 -45t142.5 -128q100 51 207 56q17 53 65.5 85t112.5 32q85 0 156 -50
t152 -144q1 -1 3 -3.5t3 -3.5q47 7 81 7q138 0 231 -76q99 36 99 99q0 34 -22.5 51.5t-56.5 17.5q-38 0 -74 -19v104q40 17 86 17q75 0 129 -48.5t54 -124.5q0 -134 -170 -184q10 -45 46.5 -69.5t84.5 -24.5q62 0 110 40.5t48 109.5v295zM1132 93q38 0 64.5 26.5t26.5 66.5
q0 70 -69 158q-109 -52 -109 -162q0 -36 23.5 -62.5t63.5 -26.5z" />
    <glyph glyph-name="gjJ_J_VA" horiz-adv-x="2032" 
d="M456 93q38 0 64.5 26.5t26.5 66.5q0 73 -74 165q-48 -39 -76 -85t-28 -87q0 -35 24.5 -60.5t62.5 -25.5zM1132 93q38 0 64.5 26.5t26.5 66.5q0 69 -74 165q-48 -39 -76 -85t-28 -87q0 -36 24 -61t63 -25zM1842 660h118v-660h-118v221q-56 -77 -165 -77q-112 0 -185 72.5
t-73 183.5q0 27 4 47h-19q-80 0 -164 -38q100 -132 100 -234q0 -76 -56.5 -128.5t-150.5 -52.5q-81 0 -143 51t-62 139q0 64 40.5 130t109.5 120q-58 65 -102 97.5t-88 32.5q-32 0 -54 -18.5t-22 -51.5q0 -29 21 -49t55 -20q25 0 45 8v-98q-23 -10 -65 -10q-61 0 -106 34
t-61 87q-71 -6 -136 -37q99 -133 99 -234q0 -76 -56 -128.5t-151 -52.5q-81 0 -143 51t-62 139q0 64 41 130t110 120q-59 65 -103 97.5t-88 32.5q-32 0 -54 -18.5t-22 -51.5q0 -29 21 -49t55 -20q25 0 45 8v-98q-22 -10 -64 -10q-76 0 -125.5 49.5t-49.5 118.5
q0 76 53 124.5t134 48.5q80 0 148.5 -45t142.5 -128q100 51 207 56q17 53 65.5 85t112.5 32q80 0 147.5 -45t142.5 -128q110 56 222 56q38 0 69 -4q33 49 87.5 77.5t122.5 28.5q37 0 71 -7v-100q-25 5 -46 5q-73 0 -115.5 -43t-42.5 -110q0 -65 40.5 -108t110.5 -43
q58 0 102.5 37.5t49.5 97.5v280z" />
    <glyph glyph-name="gjJ_JHA" horiz-adv-x="1478" 
d="M1048 18v103q47 -18 103 -18q66 0 111.5 37t45.5 102q0 69 -42.5 104.5t-106.5 35.5q-40 0 -79 -15q-15 -84 -82.5 -133.5t-155.5 -49.5q-48 0 -99 17v102q40 -16 83 -16q59 0 98 33t39 88q0 56 -40.5 90.5t-105.5 34.5q-144 0 -276 -93q123 -154 123 -265
q0 -76 -56 -128.5t-151 -52.5q-81 0 -143 51t-62 139q0 137 134 268q-51 55 -92 83.5t-82 28.5q-32 0 -54 -18.5t-22 -51.5q0 -29 21 -49t55 -20q21 0 36 5v-97q-21 -8 -55 -8q-76 0 -125.5 49.5t-49.5 118.5q0 76 53 124.5t134 48.5q73 0 136.5 -38t128.5 -107
q167 115 345 115q94 0 165 -43.5t94 -120.5q48 12 94 12q22 0 45 -3l83 179h128l-101 -220q105 -69 105 -200q0 -105 -72.5 -172.5t-184.5 -67.5q-67 0 -123 18zM456 93q38 0 64.5 26.5t26.5 66.5q0 77 -88 183q-90 -96 -90 -190q0 -35 24.5 -60.5t62.5 -25.5z" />
    <glyph glyph-name="gjJ_NY_YA" horiz-adv-x="1119" 
d="M928 660h118v-660h-118v192q-27 -37 -72.5 -57.5t-99.5 -20.5q-87 0 -155 55.5t-87 158.5q-47 78 -113 118t-165 40q-57 0 -57 -38q0 -39 63 -39q75 0 124.5 -34t49.5 -106q0 -69 -48.5 -102.5t-121.5 -33.5h-34q-1 -6 -1 -18q0 -33 27 -52t77 -19q49 0 88 11v-99
q-37 -10 -96 -10q-93 0 -150.5 48t-57.5 132v7h-68v95h199q71 0 71 42q0 24 -18.5 32t-53.5 8q-73 0 -117.5 36t-44.5 101q0 63 49 99.5t128 36.5q223 0 349 -188q101 37 101 100q0 34 -22.5 51.5t-57.5 17.5q-29 0 -64 -10v102q42 10 77 10q75 0 129 -48.5t54 -124.5
q0 -135 -171 -184q11 -45 47.5 -69.5t84.5 -24.5q61 0 109 40.5t48 109.5v295z" />
    <glyph glyph-name="gjJ_TTA" horiz-adv-x="1263" 
d="M456 93q38 0 64.5 26.5t26.5 66.5q0 68 -65 154q-113 -53 -113 -161q0 -35 24.5 -60.5t62.5 -25.5zM821 524v112q69 30 166 30q96 0 162.5 -51.5t66.5 -137.5q0 -125 -161 -177q-9 -3 -36 -11t-39 -12.5t-33 -14.5t-31 -19.5t-18.5 -25.5t-8.5 -35q0 -47 38 -67t85 -20
q107 0 202 50v-111q-81 -41 -199 -41q-104 0 -175.5 52.5t-71.5 148.5q0 80 59 129q-85 47 -194 47q-14 0 -40 -2q71 -107 71 -193q0 -76 -56 -128.5t-151 -52.5q-81 0 -143 51t-62 139q0 78 44 138.5t119 97.5q-65 73 -110.5 108.5t-92.5 35.5q-32 0 -54 -18.5t-22 -51.5
q0 -29 21 -49t55 -20q25 0 45 8v-98q-22 -10 -64 -10q-76 0 -125.5 49.5t-49.5 118.5q0 76 53 124.5t134 48.5q45 0 87.5 -15t81.5 -44t70.5 -60t69.5 -75q2 -2 6.5 -7t6.5 -8q47 10 104 10q172 0 296 -93q11 4 47.5 16t49.5 18t34 18t29 26t8 32q0 42 -35 61t-83 19
q-83 0 -156 -40z" />
    <glyph glyph-name="gjJ_DDA" horiz-adv-x="1266" 
d="M456 93q38 0 64.5 26.5t26.5 66.5q0 73 -74 165q-48 -39 -76 -85t-28 -87q0 -35 24.5 -60.5t62.5 -25.5zM1166 643v-107q-74 28 -159 28q-123 0 -123 -80q0 -22 10 -37.5t32 -27t41 -18t53 -15.5q197 -53 197 -197q0 -94 -69.5 -145t-178.5 -51q-120 0 -203 43v111
q98 -52 206 -52q49 0 86.5 21.5t37.5 66.5q0 16 -5 29.5t-16.5 24t-21.5 18t-29 14.5t-30 10.5t-33 10t-30 8.5q-144 43 -165 147q-24 2 -38 2q-80 0 -163 -38q99 -133 99 -234q0 -76 -56 -128.5t-151 -52.5q-81 0 -143 51t-62 139q0 64 41 130t110 120q-59 65 -103 97.5
t-88 32.5q-32 0 -54 -18.5t-22 -51.5q0 -29 21 -49t55 -20q25 0 45 8v-98q-22 -10 -64 -10q-76 0 -125.5 49.5t-49.5 118.5q0 76 53 124.5t134 48.5q80 0 148.5 -45t142.5 -128q110 56 221 56q29 0 57 -3q22 57 80 88.5t141 31.5q102 0 171 -23z" />
    <glyph glyph-name="gjJ_TA" horiz-adv-x="1335" 
d="M1144 660h118v-660h-118v395h-116q-67 0 -106 -39t-39 -112q0 -68 30 -106t89 -38q18 0 37 3v-98q-25 -5 -47 -5q-101 0 -164 68t-63 178q0 91 52 146h-111q-60 0 -119 -14q77 -114 77 -203q0 -76 -56 -128.5t-151 -52.5q-81 0 -143 51t-62 139q0 72 43.5 133.5
t117.5 104.5q-64 72 -109.5 107t-91.5 35q-32 0 -54 -18.5t-22 -51.5q0 -29 21 -49t55 -20q25 0 45 8v-98q-22 -10 -64 -10q-76 0 -125.5 49.5t-49.5 118.5q0 76 53 124.5t134 48.5q45 0 87.5 -15t81.5 -44t70.5 -60t69.5 -75q0 -1 2 -2.5t2 -2.5q84 27 177 27h449v166z
M456 93q38 0 64.5 26.5t26.5 66.5q0 68 -64 153q-114 -64 -114 -160q0 -35 24.5 -60.5t62.5 -25.5z" />
    <glyph glyph-name="gjJ_DA" horiz-adv-x="1208" 
d="M456 93q38 0 64.5 26.5t26.5 66.5q0 73 -74 165q-48 -39 -76 -85t-28 -87q0 -35 24.5 -60.5t62.5 -25.5zM1028 -6q-98 0 -175 52t-77 143q0 62 38 101t98 51q-87 24 -117 100q-30 6 -67 6q-80 0 -163 -38q99 -133 99 -234q0 -76 -56 -128.5t-151 -52.5q-81 0 -143 51
t-62 139q0 64 41 130t110 120q-59 65 -103 97.5t-88 32.5q-32 0 -54 -18.5t-22 -51.5q0 -29 21 -49t55 -20q25 0 45 8v-98q-22 -10 -64 -10q-76 0 -125.5 49.5t-49.5 118.5q0 76 53 124.5t134 48.5q80 0 148.5 -45t142.5 -128q110 56 221 56q39 0 76 -6q18 60 76 91.5
t137 31.5q82 0 155 -21v-103q-72 22 -140 22q-52 0 -83.5 -22t-31.5 -66q0 -43 30.5 -65t73.5 -22h90v-100h-90q-47 0 -80.5 -23t-33.5 -71q0 -49 38.5 -74t96.5 -25q80 0 165 32v-105q-80 -29 -168 -29z" />
    <glyph glyph-name="gjJ_NA" horiz-adv-x="1442" 
d="M456 93q38 0 64.5 26.5t26.5 66.5q0 67 -66 156q-112 -57 -112 -163q0 -35 24.5 -60.5t62.5 -25.5zM1252 660h118v-660h-118v397h-154q51 -48 51 -119q0 -78 -54.5 -127t-141.5 -49q-89 0 -143.5 52.5t-54.5 132.5q0 64 37 109h-32q-97 0 -174 -17q78 -113 78 -204
q0 -76 -56 -128.5t-151 -52.5q-81 0 -143 51t-62 139q0 73 41.5 135t119.5 104q-64 71 -109.5 106t-91.5 35q-32 0 -54 -18.5t-22 -51.5q0 -29 21 -49t55 -20q25 0 45 8v-98q-22 -10 -64 -10q-76 0 -125.5 49.5t-49.5 118.5q0 76 53 124.5t134 48.5q45 0 87.5 -15t81.5 -44
t70.5 -60t69.5 -75q4 -4 6 -7q98 29 226 29h506v166zM870 298q0 -45 23 -71t59 -26t59.5 26t23.5 71t-23 71t-59 26t-59.5 -26t-23.5 -71z" />
    <glyph glyph-name="gjJ_MA" horiz-adv-x="1307" 
d="M458 93q36 0 62.5 26.5t26.5 66.5q0 71 -70 160q-108 -63 -108 -167q0 -35 25 -60.5t64 -25.5zM1117 660h118v-660h-118v255h-188v-111h-98l-36 73q-23 46 -23 77q0 42 47 54v33q-56 16 -137 16q-49 0 -101 -11q83 -119 83 -211q0 -76 -56 -128.5t-149 -52.5
q-82 0 -144.5 51t-62.5 139q0 72 42 136t114 108q-62 69 -106.5 102.5t-89.5 33.5q-32 0 -54 -18.5t-22 -51.5q0 -29 21 -49t55 -20q25 0 45 8v-98q-22 -10 -64 -10q-76 0 -125.5 49.5t-49.5 118.5q0 76 53 124.5t134 48.5q85 0 156.5 -50t150.5 -141q72 23 153 23
q87 0 154 -18v36q0 47 -51 47q-15 0 -32 -5v98l8 1q9 1 23 2.5t28 1.5q56 0 95 -36t39 -97v-174h188v306z" />
    <glyph glyph-name="gjJ_YA" horiz-adv-x="1356" 
d="M1165 660h118v-660h-118v193q-58 -79 -172 -79q-88 0 -156 56t-87 160q-64 42 -143 42h-16q73 -110 73 -197q0 -76 -56 -128.5t-151 -52.5q-83 0 -143.5 54t-60.5 139q0 79 42.5 141t113.5 99q-62 69 -107 103t-90 34q-32 0 -54 -18.5t-22 -51.5q0 -29 21 -49t55 -20
q20 0 41 6v-97q-24 -9 -60 -9q-76 0 -125.5 49.5t-49.5 118.5q0 76 53 124.5t134 48.5q45 0 87.5 -15t81.5 -44t70.5 -60t69.5 -75q1 -1 3 -3.5t3 -3.5q36 7 80 7q138 0 231 -76q99 35 99 99q0 34 -22.5 51.5t-56.5 17.5q-38 0 -74 -19v104q40 17 86 17q75 0 129 -48.5
t54 -124.5q0 -134 -170 -184q10 -45 46.5 -69.5t84.5 -24.5q62 0 110 40.5t48 109.5v295zM456 93q38 0 64.5 26.5t26.5 66.5q0 71 -68 158q-109 -52 -109 -162q0 -37 23.5 -63t62.5 -26z" />
    <glyph glyph-name="gjNY_JA" horiz-adv-x="1195" 
d="M918 93q38 0 64.5 26.5t26.5 66.5q0 70 -76 168l-34 -36q-45 -49 -59 -78.5t-14 -58.5q0 -36 26 -62t66 -26zM141 627q92 0 161.5 -56.5t80.5 -149.5h129q-27 38 -27 84q0 70 52 115.5t130 45.5q75 0 139 -39.5t132 -112.5l142 146h129v-9l-202 -217q119 -147 119 -259
q0 -76 -56 -128.5t-151 -52.5q-84 0 -147 49.5t-63 138.5q0 56 28 105t94 117l32 33q-56 63 -100.5 95t-87.5 32q-33 0 -55 -18.5t-22 -51.5q0 -29 21 -49t55 -20q25 0 46 8v-98q-22 -10 -65 -10h-278q-21 -79 -87.5 -125t-150.5 -46q-56 0 -110 22v103q43 -22 99 -22
q61 0 99 37t38 97q0 59 -37 96.5t-100 37.5q-37 0 -70 -13v103q41 12 83 12z" />
    <glyph glyph-name="gjTT_TTA" horiz-adv-x="544" 
d="M98 527v108q71 31 168 31q96 0 162.5 -44t66.5 -118q0 -64 -43.5 -99t-118.5 -56q-18 -5 -51.5 -13t-48.5 -12.5t-34.5 -13t-27 -20.5t-7.5 -28q0 -35 39.5 -50.5t85.5 -15.5q106 0 204 50v-109q-48 -24 -104 -33q17 -23 17 -57q0 -78 -108 -119q-12 -5 -39 -14
t-38.5 -14t-27.5 -14.5t-22.5 -21t-6.5 -26.5q0 -19 12.5 -33.5t32.5 -21.5t40 -10t40 -3q107 0 204 51v-110q-81 -41 -200 -41q-105 0 -176.5 46.5t-71.5 131.5q0 34 13 61t38.5 44.5t46 27.5t52.5 21q6 2 17 5.5t16.5 5.5t14.5 5.5t14 6t12 6.5t10.5 7t7 7.5t5 9.5t1.5 10
q0 21 -19 31q-98 5 -163.5 50.5t-65.5 124.5q0 37 16 65t46.5 46t59.5 29t70 21q7 2 20 5q43 11 62.5 17t38 20.5t18.5 35.5q0 28 -32.5 41.5t-82.5 13.5q-78 0 -163 -38z" />
    <glyph glyph-name="gjTT_TTHA" horiz-adv-x="537" 
d="M98 527v108q71 31 168 31q96 0 162.5 -44t66.5 -118q0 -64 -43.5 -99t-118.5 -56q-18 -5 -51.5 -13t-48.5 -12.5t-34.5 -13t-27 -20.5t-7.5 -28q0 -35 39.5 -50.5t85.5 -15.5q106 0 204 50v-109q-74 -37 -171 -40q-9 -18 -9 -34q0 -27 17 -40.5t50 -23.5
q168 -52 168 -162q0 -75 -71 -121.5t-190 -46.5q-118 0 -189 48t-71 126q0 62 49 102t141 52q-20 23 -20 58q0 25 12 50q-74 16 -119 58.5t-45 107.5q0 37 16 65t46.5 46t59.5 29t70 21q7 2 20 5q43 11 62.5 17t38 20.5t18.5 35.5q0 28 -32.5 41.5t-82.5 13.5
q-78 0 -163 -38zM144 -157q0 -36 37.5 -55.5t106.5 -19.5q70 0 107 19.5t37 55.5t-37 56t-107 20q-69 0 -106.5 -20t-37.5 -56z" />
    <glyph glyph-name="gjTT_YA" horiz-adv-x="1163" 
d="M973 660h118v-660h-118v135q-27 -37 -73 -58t-100 -21q-97 0 -168.5 65.5t-79.5 186.5q80 12 133 41.5t53 76.5q0 32 -22 50t-56 18q-39 0 -77 -21.5t-66 -49.5t-71.5 -61t-88.5 -50q-17 -7 -47.5 -16.5t-53 -17.5t-45.5 -20t-35.5 -31t-12.5 -45q0 -47 38 -67t85 -20
q107 0 202 50v-111q-79 -41 -198 -41q-104 0 -176 52.5t-72 148.5q0 52 24.5 90t60.5 56.5t79 35t79 27t60.5 31.5t24.5 50q0 42 -35 61t-83 19q-85 0 -156 -40v112q67 30 165 30q79 0 140 -38.5t76 -103.5q85 72 182 72q81 0 138 -47t57 -126q0 -133 -170 -181
q10 -41 46.5 -62.5t84.5 -21.5q62 0 110 40t48 109v353z" />
    <glyph glyph-name="gjTT_VA" horiz-adv-x="552" 
d="M107 527v108q71 31 168 31q96 0 162.5 -44t66.5 -118q0 -63 -42 -98t-117 -56q-16 -4 -50.5 -12.5t-49.5 -13t-35.5 -13.5t-28.5 -21t-8 -28q0 -35 39 -50.5t86 -15.5q106 0 204 50v-109q-28 -13 -47 -19v-360h-106v127q-49 -51 -125 -51q-73 0 -123.5 49.5t-50.5 121.5
q0 90 80 136q-77 47 -77 130q0 37 16.5 65t47.5 46t60 29t71 21q89 23 111 37q25 16 25 41q0 55 -114 55q-79 0 -163 -38zM247 -75q46 0 74 34t28 88v51q-40 -2 -62 -2q-54 0 -90.5 -21.5t-36.5 -69.5q0 -33 24 -56.5t63 -23.5z" />
    <glyph glyph-name="gjTTH_TTHA" horiz-adv-x="612" 
d="M310 192q70 0 107.5 20t37.5 55q0 33 -37.5 54t-107.5 21q-71 0 -109 -20.5t-38 -54.5q0 -35 38 -55t109 -20zM576 -163q0 -76 -70.5 -122t-193.5 -46q-119 0 -190.5 46.5t-71.5 123.5q0 63 49 104.5t142 53.5q-18 21 -18 55q0 24 10 45q-87 15 -137.5 60.5t-50.5 109.5
q0 48 32 84.5t90 57.5q-76 41 -76 108q0 73 65.5 111t168.5 38q90 0 169 -22v-103q-75 23 -164 23q-118 0 -118 -55q0 -16 12 -28.5t35 -20t44.5 -12t52.5 -9.5t46 -9q76 -17 124 -57t48 -105q0 -71 -62 -119.5t-165 -56.5q-11 -15 -11 -35q0 -24 17.5 -36.5t52.5 -22.5
q170 -50 170 -161zM168 -157q0 -35 39 -55t107 -20t107 20t39 55t-39 55.5t-107 20.5t-107 -20.5t-39 -55.5z" />
    <glyph glyph-name="gjTTH_YA" horiz-adv-x="1260" 
d="M1070 660h118v-660h-118v135q-27 -37 -73 -58t-100 -21q-97 0 -168.5 65.5t-79.5 186.5q80 12 133 41.5t53 76.5q0 33 -22.5 50.5t-57.5 17.5q-111 0 -238 -171q53 -51 53 -127q0 -89 -73.5 -146t-191.5 -57q-116 0 -189 57t-73 146q0 59 35 103t96 66q-86 50 -86 134
q0 81 65.5 124t168.5 43q80 0 144 -16v-103q-68 17 -140 17q-118 0 -118 -73q0 -21 12 -37t36 -26.5t44 -16.5t52.5 -13t46.5 -11q8 -2 24 -8q163 217 341 217q77 0 132 -48.5t55 -124.5q0 -133 -171 -181q11 -41 47.5 -62.5t84.5 -21.5q62 0 110 40t48 109v353zM307 93
q67 0 105.5 28.5t38.5 74.5t-39 74.5t-105 28.5q-68 0 -107 -28.5t-39 -74.5t39 -74.5t107 -28.5z" />
    <glyph glyph-name="gjDD_DDA" horiz-adv-x="534" 
d="M452 643v-106q-77 27 -162 27q-123 0 -123 -57q0 -31 30.5 -45t106.5 -31q198 -46 198 -168q0 -83 -67 -127.5t-175 -44.5h-20q-17 -9 -17 -27q0 -20 19.5 -30.5t61.5 -21.5q45 -13 75.5 -25.5t61 -32.5t46 -48t15.5 -65q0 -83 -67 -127.5t-175 -44.5q-124 0 -210 43v111
q101 -53 214 -53q50 0 84 16t34 49q0 14 -7 26t-16 19.5t-26.5 15t-29 11t-34 10t-32.5 9.5q-129 39 -129 133q0 27 14 49q-43 12 -72 26v111q101 -53 214 -53q50 0 84 16t34 49q0 17 -9 30t-29.5 21.5t-36 13.5t-47.5 12.5t-45 10.5q-168 44 -168 158q0 77 63.5 120
t167.5 43q102 0 174 -23z" />
    <glyph glyph-name="gjDD_DDHA" horiz-adv-x="561" 
d="M301 -330q-118 0 -203.5 63t-85.5 168q0 134 172 201q-65 8 -118 32v111q100 -53 213 -53q51 0 85 16t34 49q0 17 -9 30t-29.5 21.5t-36.5 13.5t-47.5 12t-44.5 11q-168 44 -168 158q0 77 63.5 120t167.5 43q103 0 173 -23v-106q-77 27 -162 27q-122 0 -122 -57
q0 -16 8 -27.5t30 -20.5t40 -14t58 -14q199 -46 199 -168q0 -45 -21.5 -79t-56 -55t-76 -38t-82.5 -34t-75.5 -36.5t-56 -51t-21.5 -73.5q0 -61 48 -94t124 -33q54 0 96.5 21.5t42.5 64.5q0 24 -16 39t-40 15q-25 0 -40.5 -16t-15.5 -39q0 -8 2 -22h-98q-8 20 -8 43
q0 58 45.5 94t111.5 36q77 0 124.5 -44t47.5 -110q0 -84 -73.5 -132.5t-178.5 -48.5z" />
    <glyph glyph-name="gjDD_YA" horiz-adv-x="1198" 
d="M1007 660h118v-660h-118v134q-27 -37 -72.5 -57.5t-99.5 -20.5q-98 0 -169.5 65.5t-78.5 186.5q80 12 132.5 41.5t52.5 76.5q0 33 -22.5 50.5t-56.5 17.5q-56 0 -117.5 -50.5t-119.5 -137.5q44 -49 44 -117q0 -94 -69.5 -145t-178.5 -51q-120 0 -203 43v111
q98 -52 206 -52q49 0 86.5 21.5t37.5 66.5q0 16 -5 29.5t-16.5 24t-21.5 18t-29 14.5t-30 10.5t-33 10t-30 8.5q-168 51 -168 183q0 86 63.5 135.5t168.5 49.5q88 0 154 -18v-106q-68 22 -142 22q-123 0 -123 -80q0 -22 10 -37.5t32 -27t41 -18t53 -15.5q42 -12 61 -21
q160 231 338 231q76 0 131 -48.5t55 -124.5q0 -133 -170 -181q10 -41 46.5 -62.5t84.5 -21.5q62 0 110 40t48 109v353z" />
    <glyph glyph-name="gjDD_VA" horiz-adv-x="547" 
d="M465 -242h-103v121q-49 -52 -125 -52q-72 0 -123 49t-51 121q0 70 49 114q-31 8 -60 23v111q100 -53 213 -53q51 0 85 16t34 49q0 17 -9 30t-29.5 21.5t-36.5 13.5t-47.5 12t-44.5 11q-167 44 -167 158q0 77 63.5 120t166.5 43q104 0 175 -24v-105q-77 27 -164 27
q-121 0 -121 -57q0 -31 30 -45t105 -31q199 -46 199 -168q0 -63 -39 -104v-401zM261 -82q43 0 72 34t29 89v62q-42 -11 -88 -11q-45 -1 -74 -26t-29 -63q0 -36 24.5 -60.5t65.5 -24.5z" />
    <glyph glyph-name="gjDDH_DDHA" horiz-adv-x="608" 
d="M161 -104q0 -61 48 -94t123 -33q54 0 97 21.5t43 64.5q0 24 -16.5 39t-39.5 15q-25 0 -41 -16t-16 -39q0 -13 3 -22h-98q-8 16 -8 43q0 58 45.5 94t111.5 36q76 0 123.5 -44t47.5 -110q0 -84 -73.5 -132.5t-178.5 -48.5q-118 0 -203.5 63t-85.5 168q0 138 165 202
q-74 26 -119.5 79.5t-45.5 127.5q0 62 32.5 110t78.5 75.5t92 49t78.5 42.5t32.5 45q0 14 -12 28h116q12 -21 12 -45q0 -41 -32 -72t-78 -52.5t-92 -44t-78 -58t-32 -83.5q0 -61 48 -94.5t123 -33.5q54 0 97 22t43 65q0 24 -16.5 39t-39.5 15q-25 0 -41 -16t-16 -39
q0 -12 3 -22h-98q-8 16 -8 43q0 58 45.5 94t111.5 36q76 0 123.5 -44t47.5 -110q0 -43 -17 -75t-52.5 -54t-65.5 -34.5t-81 -28.5q-49 -15 -78.5 -27t-63 -32.5t-49.5 -48t-16 -64.5z" />
    <glyph glyph-name="gjDDH_YA" horiz-adv-x="1258" 
d="M454 660q23 -32 23 -74q0 -51 -33 -88t-79.5 -61t-93.5 -48t-80 -63t-33 -92q0 -66 47 -103.5t122 -37.5q53 0 94 24t41 73q0 29 -15.5 44t-35.5 15q-24 0 -38.5 -15.5t-14.5 -37.5q0 -20 6 -34h-104q-11 26 -11 56q0 59 46 94.5t113 35.5q10 0 26 -2q154 250 328 250
q76 0 131 -48.5t55 -124.5q0 -71 -47.5 -115.5t-122.5 -65.5q11 -41 47.5 -62.5t84.5 -21.5q61 0 109 40t48 109v353h118v-660h-118v134q-27 -37 -72.5 -57.5t-99.5 -20.5q-98 0 -169.5 65.5t-78.5 186.5q80 12 133 41.5t53 76.5q0 32 -22.5 50t-55.5 18q-57 0 -116 -55
t-106 -138q46 -46 46 -116q0 -88 -73.5 -139.5t-178.5 -51.5q-119 0 -203 68.5t-84 182.5q0 67 33 118.5t80 81t93.5 53.5t79.5 49.5t33 55.5q0 32 -22 57h117z" />
    <glyph glyph-name="gjT_KA" horiz-adv-x="939" 
d="M647 -6q-124 0 -218 45v109q104 -52 209 -52q48 0 87.5 20t39.5 65t-31.5 69t-89.5 44l-245 -65v103l117 28q-31 18 -51 42h-151q-72 0 -114.5 -40t-42.5 -114q0 -70 32 -109t95 -39q16 0 36 3v-98q-25 -5 -47 -5q-105 0 -169.5 69t-64.5 181q0 118 71 184.5t200 66.5
h122q3 79 66.5 122t163.5 43q96 0 172 -23v-104q-84 25 -167 25q-53 0 -85 -20t-32 -60q0 -58 86 -88l263 68v-102l-121 -29q105 -52 105 -156q0 -83 -67.5 -133t-168.5 -50z" />
    <glyph glyph-name="gjT_K_YA" horiz-adv-x="1565" 
d="M1374 660h118v-660h-118v192q-27 -37 -72.5 -57.5t-99.5 -20.5q-83 0 -149 50.5t-89 144.5q-47 32 -107 32q-38 0 -84 -9q110 -48 110 -155q0 -83 -67.5 -133t-168.5 -50q-124 0 -218 45v109q104 -52 209 -52q48 0 87.5 20t39.5 65t-31.5 69t-89.5 44l-245 -65v103
l117 28q-31 18 -51 42h-151q-72 0 -114.5 -40t-42.5 -114q0 -70 32 -109t95 -39q16 0 36 3v-98q-25 -5 -47 -5q-105 0 -169.5 69t-64.5 181q0 118 71 184.5t200 66.5h122q3 79 66.5 122t163.5 43q96 0 172 -23v-104q-84 25 -167 25q-53 0 -85 -20t-32 -60q0 -57 88 -89l29 7
q119 32 190 32q96 0 165 -44q117 35 117 105q0 34 -22.5 51.5t-56.5 17.5q-37 0 -73 -19v104q39 17 85 17q75 0 129 -48.5t54 -124.5q0 -134 -170 -184q10 -45 46.5 -69.5t84.5 -24.5q62 0 110 40.5t48 109.5v295z" />
    <glyph glyph-name="gjT_K_RA" horiz-adv-x="939" 
d="M764 181q0 60 -72 100l-53 -114h-128l103 147l-216 -60v102l102 20q-18 14 -33 30h-153q-72 0 -114.5 -40t-42.5 -116q0 -71 32 -110.5t95 -39.5q16 0 36 3v-98q-25 -5 -47 -5q-104 0 -169 69.5t-65 182.5q0 120 71 186.5t200 66.5h122q1 77 66 119t164 42q96 0 172 -23
v-104q-84 25 -168 25q-52 0 -84 -20t-32 -60q0 -59 98 -86l251 60v-101l-129 -20q112 -52 112 -160q0 -89 -71.5 -136t-176.5 -47q-113 0 -206 34v109q102 -41 210 -41q48 0 87 20t39 65z" />
    <glyph glyph-name="gjT_K_VA" horiz-adv-x="1574" 
d="M1383 660h118v-660h-118v221q-56 -77 -165 -77q-94 0 -162.5 52.5t-88.5 138.5q-152 0 -192 -4q107 -49 107 -154q0 -83 -67.5 -133t-168.5 -50q-122 0 -218 45v109q106 -52 210 -52q48 0 87 20t39 65t-31.5 69t-89.5 44l-245 -65v103l118 28q-30 16 -51 42h-151
q-72 0 -114.5 -40t-42.5 -114q0 -70 32 -109t95 -39q16 0 36 3v-98q-25 -5 -47 -5q-105 0 -169.5 69t-64.5 181q0 118 71 184.5t200 66.5h122q3 79 66.5 122t163.5 43q96 0 172 -23v-104q-84 25 -168 25q-52 0 -84 -20t-32 -60q0 -57 88 -89l29 7q92 24 218 24h76
q9 98 78 161.5t174 63.5q37 0 71 -7v-100q-25 5 -46 5q-73 0 -115.5 -43t-42.5 -110q0 -65 40.5 -108t110.5 -43q58 0 102.5 37.5t49.5 97.5v280z" />
    <glyph glyph-name="gjT_K_SSA" horiz-adv-x="1132" 
d="M564 503q0 -60 69 -83q73 33 73 87q0 28 -19 46.5t-49 18.5q-31 0 -52.5 -20t-21.5 -49zM941 660h118v-660h-118v317h-228q-51 0 -97 13q-51 -25 -78.5 -51t-27.5 -65t27 -62t68 -23q46 0 80 32.5t34 79.5h113v-241h-115v97q-17 -26 -54 -43.5t-79 -17.5q-83 0 -138 48
t-55 125q0 64 34.5 101.5t94.5 64.5q-8 6 -22 20h-196q-67 0 -106 -39t-39 -112q0 -69 30 -106.5t90 -37.5q17 0 36 3v-98q-25 -5 -47 -5q-101 0 -164 68t-63 178q0 118 67.5 183t191.5 65h156q-1 5 -1 15q0 71 51 115t130 44q80 0 130 -41.5t50 -111.5q0 -64 -54 -108h181
v253z" />
    <glyph glyph-name="gjT_KHA" horiz-adv-x="1133" 
d="M943 660h118v-660h-118v303h-155q-5 -83 -55.5 -128t-136.5 -45q-90 0 -141 50.5t-51 141.5v45h-102q-67 0 -106 -34t-39 -101q0 -132 120 -132q17 0 36 3v-98q-25 -5 -47 -5q-101 0 -164 64.5t-63 169.5q0 111 67.5 171.5t191.5 60.5h106v50q0 47 -47 47q-15 0 -32 -5
v98l9 1q8 1 22 2.5t28 1.5q58 0 98 -36t40 -97v-220q0 -79 74 -79q75 0 75 79v202h118v-108h154v258z" />
    <glyph glyph-name="gjT_KH_NA" horiz-adv-x="1616" 
d="M672 510h118v-108h162q52 92 184 92h289v166h118v-660h-118v397h-153q51 -48 51 -119q0 -78 -55 -127t-142 -49q-90 0 -145 55.5t-55 140.5v5h-137q-5 -83 -55.5 -128t-136.5 -45q-90 0 -141 50.5t-51 141.5v45h-103q-67 0 -106 -34t-39 -101q0 -132 120 -132q17 0 36 3
v-98q-25 -5 -47 -5q-101 0 -164 64.5t-63 169.5q0 111 67.5 171.5t191.5 60.5h107v50q0 47 -47 47q-16 0 -33 -5v98l9 1q8 1 22 2.5t29 1.5q57 0 97.5 -36t40.5 -97v-220q0 -79 74 -79q75 0 75 79v202zM1044 298q0 -45 23 -71t59 -26t59 26t23 71t-23 71t-59 26t-59 -26
t-23 -71z" />
    <glyph glyph-name="gjT_KH_RA" horiz-adv-x="1133" 
d="M943 660h118v-660h-118v160l-229 -186h-162l391 317v18h-160q-17 -62 -65 -95.5t-122 -33.5q-89 0 -140 50t-51 137h-103q-67 0 -106 -34t-39 -101q0 -132 120 -132q17 0 36 3v-98q-25 -5 -47 -5q-101 0 -164 64.5t-63 169.5q0 111 67.5 171.5t191.5 60.5h107v50
q0 47 -47 47q-16 0 -33 -5v98l9 1q8 1 22 2.5t29 1.5q57 0 97.5 -36t40.5 -97v-170q0 -79 73 -79q76 0 76 79v152h118v-103h153v253z" />
    <glyph glyph-name="gjT_TA" horiz-adv-x="650" 
d="M459 660h118v-660h-118v395h-115q-68 0 -107 -39t-39 -112q0 -68 30 -106t90 -38q16 0 37 3v-98q-27 -5 -48 -5q-101 0 -164 67t-63 175q0 101 67 157h-120v95h432v166z" />
    <glyph glyph-name="gjT_T" horiz-adv-x="406" 
d="M307 0q-101 0 -164 67t-63 175q0 101 67 157h-120v95h529v-99h-212q-68 0 -107 -39t-39 -112q0 -68 30 -106t90 -38q16 0 37 3v-98q-27 -5 -48 -5z" />
    <glyph glyph-name="gjT_T_YA" horiz-adv-x="1033" 
d="M27 472h273q114 0 184 -84q123 36 123 107q0 34 -22.5 51.5t-56.5 17.5q-38 0 -74 -19v104q40 17 86 17q75 0 129 -48.5t54 -124.5q0 -74 -50.5 -120t-130.5 -67q51 -91 142 -91q62 0 110 40.5t48 109.5v295h118v-660h-118v193q-28 -37 -74 -58t-98 -21q-61 0 -108 27
t-75.5 65t-53.5 76t-56 65t-70 27q-53 0 -81 -35.5t-28 -96.5q0 -67 30 -104.5t89 -37.5q16 0 37 3v-98q-25 -5 -48 -5q-97 0 -160.5 63.5t-63.5 158.5q0 101 60 155h-115v95z" />
    <glyph glyph-name="gjT_T_VA" horiz-adv-x="1013" 
d="M822 660h118v-660h-118v220q-55 -76 -165 -76q-111 0 -184 71.5t-73 179.5h-56q-68 0 -107 -39t-39 -112q0 -68 30 -106t90 -38q16 0 37 3v-98q-27 -5 -48 -5q-101 0 -164 67t-63 175q0 101 67 157h-120v95h390q26 71 88 114t147 43q38 0 72 -7v-100q-25 5 -47 5
q-72 0 -114.5 -43t-42.5 -110q0 -65 40.5 -108t110.5 -43q58 0 102.5 37.5t48.5 97.5v280z" />
    <glyph glyph-name="gjT_THA" horiz-adv-x="1037" 
d="M847 660h118v-660h-118v193q-28 -38 -75.5 -58.5t-101.5 -20.5q-70 0 -122 26.5t-82.5 63.5t-56.5 74.5t-59 64t-74 26.5q-58 0 -88.5 -35t-30.5 -96q0 -66 30 -102t90 -36q17 0 36 3v-98q-25 -5 -47 -5q-101 0 -164 66.5t-63 173.5q0 110 59.5 171.5t168.5 61.5
q107 0 192 -93q91 22 137 53t46 79q0 27 -15 42.5t-37 15.5q-28 0 -41.5 -17.5t-13.5 -43.5q0 -20 7 -35h-111q-7 23 -7 47q0 64 43.5 106t118.5 42q74 0 119.5 -45t45.5 -118q0 -81 -66 -136.5t-161 -74.5q42 -82 147 -82q68 0 122 40t54 115v292z" />
    <glyph glyph-name="gjT_NA" horiz-adv-x="1068" 
d="M877 660h118v-660h-118v397h-153q51 -48 51 -119q0 -78 -55 -127t-142 -49q-89 0 -143.5 52.5t-54.5 132.5q0 64 36 108h-114q-67 0 -106 -39t-39 -112q0 -69 30 -106.5t90 -37.5q17 0 36 3v-98q-25 -5 -47 -5q-101 0 -164 68t-63 178q0 118 67.5 183t191.5 65h579v166z
M496 298q0 -45 23 -71t59 -26t59 26t23 71t-23 71t-59 26t-59 -26t-23 -71z" />
    <glyph glyph-name="gjT_N_YA" horiz-adv-x="1474" 
d="M580 102q-90 0 -145 52t-55 133q0 64 36 108h-114q-67 0 -106 -39t-39 -112q0 -69 30 -106.5t90 -37.5q17 0 36 3v-98q-25 -5 -47 -5q-101 0 -164 68t-63 178q0 118 67.5 183t191.5 65h314q183 0 319 -104q117 35 117 105q0 34 -22.5 51.5t-56.5 17.5q-37 0 -73 -19v104
q40 17 85 17q75 0 129 -48.5t54 -124.5q0 -134 -170 -184q11 -45 47.5 -69.5t83.5 -24.5q62 0 110 40.5t48 109.5v295h118v-660h-118v192q-27 -37 -72.5 -57.5t-99.5 -20.5q-81 0 -146 47.5t-90 137.5q-56 54 -135 82q36 -43 36 -103q0 -78 -54.5 -127t-141.5 -49zM498 298
q0 -45 23 -71t59 -26t59 26t23 71t-23 71t-59 26t-59 -26t-23 -71z" />
    <glyph glyph-name="gjT_PA" horiz-adv-x="902" 
d="M711 374v286h118v-660h-118v215q-45 -42 -121 -42q-88 0 -137 51t-49 143h-102q-67 0 -106 -34t-39 -101q0 -132 120 -132q17 0 36 3v-98q-25 -5 -47 -5q-101 0 -164 64.5t-63 169.5q0 111 67.5 171.5t191.5 60.5h106v52q0 45 -44 45q-17 0 -34 -5v98l8 1q9 1 23 2.5
t29 1.5q56 0 96 -35.5t40 -95.5v-164q0 -46 22.5 -72.5t68.5 -26.5q49 0 73.5 28.5t24.5 78.5z" />
    <glyph glyph-name="gjT_P_RA" horiz-adv-x="927" 
d="M736 660h118v-660h-118v215l-209 -232h-149l180 196q-62 15 -96 63.5t-34 124.5h-126q-67 0 -106 -34t-39 -101q0 -132 120 -132q17 0 36 3v-98q-25 -5 -47 -5q-101 0 -164 64.5t-63 169.5q0 111 67.5 171.5t191.5 60.5h130v52q0 45 -43 45q-18 0 -35 -5v98l8 1
q9 1 23 2.5t29 1.5q56 0 96 -35.5t40 -95.5v-164q0 -46 22.5 -72.5t68.5 -26.5q49 0 74 28.5t25 78.5v286z" />
    <glyph glyph-name="gjT_P_LA" horiz-adv-x="1377" 
d="M1186 660h118v-660h-118v282h-239v102h239v276zM1026 564q-92 0 -149 -66t-57 -167q0 -109 55.5 -172t149.5 -63q33 0 74 11v-101q-48 -12 -92 -12q-103 0 -178.5 55t-107.5 150q-54 -32 -116 -32q-92 0 -146.5 55.5t-54.5 144.5h-102q-67 0 -106 -34t-39 -101
q0 -132 120 -132q17 0 36 3v-98q-25 -5 -47 -5q-101 0 -164 64.5t-63 169.5q0 111 67.5 171.5t191.5 60.5h106v52q0 45 -44 45q-17 0 -34 -5v98l8 1q9 1 23 2.5t29 1.5q56 0 96 -35.5t40 -95.5v-164q0 -46 22.5 -72.5t68.5 -26.5q48 0 88 37q-1 9 -1 27q0 152 83.5 243.5
t217.5 91.5q49 0 98 -12v-102q-37 12 -73 12z" />
    <glyph glyph-name="gjT_PHA" horiz-adv-x="939" 
d="M679 -3q-79 0 -136 41v-133h-111v264h107q10 -36 43 -55t75 -19q44 0 76 23.5t32 63.5q0 45 -32 69t-90 43l-246 -65v103l118 28q-29 16 -52 42h-149q-72 0 -114.5 -40t-42.5 -114q0 -70 32 -109t95 -39q16 0 36 3v-98q-25 -5 -47 -5q-105 0 -169.5 69t-64.5 181
q0 118 71 184.5t200 66.5h120q3 79 66.5 122t163.5 43q95 0 173 -23v-104q-85 25 -168 25q-53 0 -85 -20t-32 -60q0 -58 86 -88l263 68v-102l-119 -29q105 -51 105 -156q0 -84 -60 -132t-144 -48z" />
    <glyph glyph-name="gjT_MA" horiz-adv-x="919" 
d="M729 660h118v-660h-118v266h-188v-120h-100l-34 75q-27 60 -27 85q0 41 45 53v37h-111q-72 0 -114.5 -39t-42.5 -111q0 -67 32 -106.5t95 -39.5q16 0 36 3v-98q-25 -5 -47 -5q-104 0 -169 69t-65 179q0 116 71 180.5t200 64.5h115v23q0 47 -47 47q-17 0 -32 -5v98l8 1
q9 1 23 2.5t28 1.5q56 0 96 -36t40 -97v-164h188v296z" />
    </font>
</defs>
</svg>
