<svg xmlns="http://www.w3.org/2000/svg" viewBox="0 0 512 512"><defs><style>.cls-1{fill:#fc4581;}.cls-2{fill:#e03b77;}.cls-3{fill:#32314b;}.cls-4{fill:#fff;}.cls-5{fill:#d8d8d8;}.cls-6{fill:#27273d;}.cls-7{fill:#db1b1b;}.cls-8{fill:#bc1919;}.cls-9{fill:#aa60fa;}.cls-10{fill:#984ef9;}</style></defs><title>Robot Avatars</title><g id="BULINE"><circle class="cls-1" cx="256" cy="256" r="256"/></g><g id="Icons"><path class="cls-2" d="M484.77,371a255.88,255.88,0,0,1-361,104.27l0,0A257.19,257.19,0,0,1,27.23,371a256.81,256.81,0,0,1,75-89.7q5.4-4.07,11-7.85,5.07-3.4,10.32-6.59h0a254.42,254.42,0,0,1,36.11-18.13q4.18-1.69,8.45-3.26h0a252.53,252.53,0,0,1,27-8.19c1.64-.4,3.29-.79,4.95-1.15q8.85-2,17.93-3.33a258.67,258.67,0,0,1,72.3-.51q9.78,1.31,19.32,3.35a251.31,251.31,0,0,1,34.85,10.08,254.65,254.65,0,0,1,44.61,21.57q4.67,2.83,9.19,5.88,5.61,3.75,11,7.8a256.81,256.81,0,0,1,75.46,90Z"/><rect class="cls-3" x="236.34" y="99.12" width="40.02" height="31"/><rect class="cls-3" x="236.34" y="347.98" width="40.02" height="22.31"/><path class="cls-4" d="M256.35,119.11h0A132.76,132.76,0,0,1,389.11,251.87v52.47a20.78,20.78,0,0,1-20.78,20.78H144.38a20.78,20.78,0,0,1-20.78-20.78V251.87A132.76,132.76,0,0,1,256.35,119.11Z"/><path class="cls-4" d="M388.9,474.84a255.71,255.71,0,0,1-265.09.43l0,0A116.26,116.26,0,0,1,236.34,365.51c1.17,0,2.34-.06,3.52-.06h33c1.18,0,2.35,0,3.52.06A116.25,116.25,0,0,1,388.9,474.84Z"/><path class="cls-5" d="M274.36,365.48A116.13,116.13,0,0,0,159.57,481.72v11.49a254.75,254.75,0,0,1-35.76-17.94A116.25,116.25,0,0,1,236.34,365.52c1.18,0,2.36-.06,3.55-.06h33C273.37,365.46,273.87,365.46,274.36,365.48Z"/><path class="cls-5" d="M159.67,251.87v52.48a20.79,20.79,0,0,0,20.79,20.78H144.38a20.78,20.78,0,0,1-20.78-20.78V251.87A132.84,132.84,0,0,1,274.4,120.33,132.77,132.77,0,0,0,159.67,251.87Z"/><path class="cls-4" d="M79.12,239.38h25.34a8.81,8.81,0,0,1,8.81,8.81V290a8.81,8.81,0,0,1-8.81,8.81H79.12a10.65,10.65,0,0,1-10.65-10.65V250A10.65,10.65,0,0,1,79.12,239.38Z"/><path class="cls-5" d="M113.27,248.19v41.86a8.81,8.81,0,0,1-8.82,8.81h-11a8.8,8.8,0,0,0,8.81-8.81V248.19a8.8,8.8,0,0,0-8.81-8.81h11A8.81,8.81,0,0,1,113.27,248.19Z"/><path class="cls-4" d="M408.95,239.38h25.34a8.81,8.81,0,0,1,8.81,8.81V290a8.81,8.81,0,0,1-8.81,8.81H408.95a10.65,10.65,0,0,1-10.65-10.65V250a10.65,10.65,0,0,1,10.65-10.65Z" transform="translate(841.4 538.24) rotate(-180)"/><path class="cls-5" d="M398.3,248.18V290a8.81,8.81,0,0,0,8.82,8.82h11a8.82,8.82,0,0,1-8.82-8.82V248.18a8.81,8.81,0,0,1,8.82-8.8h-11A8.8,8.8,0,0,0,398.3,248.18Z"/><path class="cls-3" d="M216.94,183.18h78.82a49,49,0,0,1,49,49v11.28a12.32,12.32,0,0,1-12.32,12.32H180.32A12.32,12.32,0,0,1,168,243.41V232.13A49,49,0,0,1,216.94,183.18Z"/><path class="cls-6" d="M195.15,232.13V243.4a12.33,12.33,0,0,0,12.32,12.33H180.32A12.33,12.33,0,0,1,168,243.4V232.13a49,49,0,0,1,49-49H244.1A49,49,0,0,0,195.15,232.13Z"/><rect class="cls-7" x="195.15" y="279.12" width="122.41" height="28.34" rx="14.17"/><path class="cls-8" d="M227.36,307.46h-18a14.17,14.17,0,1,1,0-28.34h18a14.17,14.17,0,0,0,0,28.34Z"/><circle class="cls-4" cx="206.79" cy="222.12" r="15.52"/><circle class="cls-4" cx="302.04" cy="222.12" r="15.52"/><path class="cls-4" d="M471.85,254.43a14.68,14.68,0,0,0-14.05,10.43H438.07a4.26,4.26,0,0,0,0,8.52H457.8a14.69,14.69,0,1,0,14.05-18.95Z"/><path class="cls-5" d="M475.71,283.36a14.69,14.69,0,1,1,0-28.48,14.69,14.69,0,0,0,0,28.48Z"/><path class="cls-4" d="M244.6,53.1h25.34a8.81,8.81,0,0,1,8.81,8.81v41.86a8.81,8.81,0,0,1-8.81,8.81H244.6A10.65,10.65,0,0,1,234,101.94V63.75A10.65,10.65,0,0,1,244.6,53.1Z" transform="translate(339.2 -173.51) rotate(90)"/><path class="cls-5" d="M235.42,105.24h41.86a8.82,8.82,0,0,0,8.82-8.82v-11a8.82,8.82,0,0,1-8.82,8.82H235.42a8.81,8.81,0,0,1-8.81-8.82v11A8.81,8.81,0,0,0,235.42,105.24Z"/><path class="cls-4" d="M241.67,31.69a14.67,14.67,0,0,0,10.42,14.05V65.47a4.26,4.26,0,1,0,8.52,0V45.74a14.68,14.68,0,1,0-18.94-14Z"/><path class="cls-5" d="M270.6,27.83a14.69,14.69,0,1,1-28.49,0,14.7,14.7,0,0,0,28.49,0Z"/><path class="cls-4" d="M44.15,283.81A14.68,14.68,0,0,0,58.2,273.38H77.93a4.26,4.26,0,0,0,0-8.52H58.2a14.69,14.69,0,1,0-14.05,18.95Z"/><path class="cls-5" d="M40.29,254.88a14.69,14.69,0,1,1,0,28.48,14.69,14.69,0,0,0,0-28.48Z"/><path class="cls-9" d="M310.25,325.13v2.77a23.88,23.88,0,0,1-23.88,23.89h-60a23.88,23.88,0,0,1-23.89-23.89v-2.77Z"/><path class="cls-10" d="M310.25,325.13v2.77a23.67,23.67,0,0,1-1.92,9.39H204.38a23.67,23.67,0,0,1-1.92-9.39v-2.77Z"/></g></svg>