<svg xmlns="http://www.w3.org/2000/svg" viewBox="0 0 512 512"><defs><style>.cls-1{fill:#366fca;}.cls-2{fill:#3366af;}.cls-3{fill:#fff;}.cls-4{fill:#27273d;}.cls-5{fill:#e0e1e2;}.cls-6{fill:#32314b;}.cls-7{fill:#7cc8fb;}.cls-8{fill:#41c0e3;}.cls-9{fill:#c7ebff;}.cls-10{fill:#db1b1b;}.cls-11{fill:#4f4f74;}</style></defs><title>Robot Avatars</title><g id="BULINE"><circle class="cls-1" cx="256" cy="256" r="256"/></g><g id="Icons"><path class="cls-2" d="M484.77,371a256.29,256.29,0,0,1-320,124.24c-1.73-.66-3.44-1.33-5.15-2a254.75,254.75,0,0,1-35.76-17.94l0,0A257.19,257.19,0,0,1,27.23,371a256.81,256.81,0,0,1,38-55.67c.12-.14.25-.28.38-.41q7.5-8.37,15.74-16.06,4.57-4.26,9.34-8.3,5.16-4.37,10.55-8.46l1-.8q5.4-4.07,11-7.85c1-.66,2-1.31,3-1.95,0,0,0,0,0,0,2.42-1.58,4.88-3.12,7.36-4.63h0q3.3-2,6.68-3.91a253.29,253.29,0,0,1,29.43-14.22q4.18-1.69,8.45-3.26h0c2.37-.86,4.75-1.7,7.15-2.49q9.74-3.24,19.83-5.7c1.64-.4,3.29-.79,4.95-1.15l2.74-.59q6.72-1.44,13.57-2.48c.54-.1,1.08-.18,1.62-.26q8.24-1.23,16.64-1.92Q245.23,230,256,230q10.1,0,20,.78,7.23.56,14.34,1.51c1.33.18,2.66.37,4,.57h0q7.06,1,14,2.5l1.33.28a251.31,251.31,0,0,1,34.85,10.08c1.76.65,3.52,1.32,5.26,2q7.86,3.08,15.44,6.67a255.36,255.36,0,0,1,23.91,12.89q2.75,1.66,5.45,3.42,1.88,1.21,3.74,2.46,5.61,3.75,11,7.8l.38.28a258.14,258.14,0,0,1,21,17.61q7.47,7,14.36,14.53A256.56,256.56,0,0,1,484.77,371Z"/><path class="cls-3" d="M363.86,433.73A108.6,108.6,0,0,1,344,496.46a257,257,0,0,1-179.31-1.22,109.14,109.14,0,0,1-6.31-112.58,1.19,1.19,0,0,1,.12-.22,109.08,109.08,0,0,1,184.2-13.22,107,107,0,0,1,8.23,13,1.24,1.24,0,0,1,.1.2A108.5,108.5,0,0,1,363.86,433.73Z"/><circle class="cls-4" cx="254.79" cy="398.93" r="59.73"/><path class="cls-3" d="M465.26,249.31c0,81.31-91.18,147.49-204.81,149.62-1.88,0-3.77.06-5.66.06s-3.78,0-5.66-.06C135.51,396.8,44.32,330.62,44.32,249.31c0-82.67,94.23-149.68,210.47-149.68S465.26,166.64,465.26,249.31Z"/><path class="cls-5" d="M429.77,331.8C392.11,372.29,327.5,399,254.13,399,137.89,399,43.66,332,43.66,249.31c0-41.25,23.45-78.59,61.39-105.66-22,23.65-34.83,52-34.83,82.49,0,82.67,94.23,149.68,210.47,149.68C338.94,375.82,391.67,359,429.77,331.8Z"/><circle class="cls-6" cx="168.97" cy="259.18" r="71.52"/><circle class="cls-7" cx="168.97" cy="259.18" r="54.15"/><path class="cls-8" d="M176.63,312.79a54.16,54.16,0,1,1,0-107.21,54.15,54.15,0,0,0,0,107.21Z"/><circle class="cls-9" cx="189.4" cy="240.45" r="14.3"/><circle class="cls-6" cx="341.64" cy="259.18" r="71.52"/><circle class="cls-7" cx="341.64" cy="259.18" r="54.15"/><path class="cls-8" d="M349.3,312.79a54.16,54.16,0,1,1,0-107.21,54.15,54.15,0,0,0,0,107.21Z"/><circle class="cls-9" cx="362.07" cy="240.45" r="14.3"/><path class="cls-6" d="M58.07,193.35H43.66v6.26c-10.08,9.31-17,28.06-17,49.7s6.89,40.38,17,49.69v6.26H58.07c17.34,0,31.39-25.05,31.39-55.95S75.41,193.35,58.07,193.35Z"/><ellipse class="cls-4" cx="43.66" cy="249.31" rx="31.38" ry="55.96"/><path class="cls-6" d="M313.82,117.35v-8.86h-6.26c-9.32-6.2-28.07-10.43-49.7-10.43s-40.39,4.23-49.7,10.43H201.9v8.86c0,10.66,25,19.29,56,19.29S313.82,128,313.82,117.35Z"/><ellipse class="cls-4" cx="257.86" cy="108.49" rx="55.96" ry="19.29"/><path class="cls-4" d="M453.13,193.35h14.41v6.26c10.08,9.31,17,28.06,17,49.7s-6.89,40.38-17,49.69v6.26H453.13c-17.34,0-31.39-25.05-31.39-55.95S435.79,193.35,453.13,193.35Z"/><ellipse class="cls-6" cx="467.54" cy="249.31" rx="31.38" ry="55.96"/><path class="cls-3" d="M257.68,108.49l6.26.19A10.28,10.28,0,0,0,274,95.15L257.86,46.83V45.76l-.18.53-.18-.53v1.07L241.37,95.15a10.28,10.28,0,0,0,10,13.53Z"/><circle class="cls-10" cx="257.68" cy="46.97" r="20.97"/><ellipse class="cls-11" cx="467.54" cy="233.64" rx="6.5" ry="14.3"/><ellipse class="cls-11" cx="467.54" cy="268.21" rx="5.03" ry="11.07"/></g></svg>