<svg xmlns="http://www.w3.org/2000/svg" viewBox="0 0 512 512"><defs><style>.cls-1{fill:#fc4581;}.cls-2{fill:#e03b77;}.cls-3{fill:none;stroke:#27273d;stroke-linecap:round;stroke-miterlimit:10;stroke-width:10px;}.cls-4{fill:#f6d372;}.cls-5{fill:#4f4f74;}.cls-6{fill:#fcc8bc;}.cls-7{fill:#fab3a7;}.cls-8{fill:#3e436d;}.cls-9{fill:#27273d;}.cls-10{fill:#f6c752;}.cls-11{fill:#f9df9b;}.cls-12{fill:#db1b1b;}.cls-13{fill:#ba1a1a;}.cls-14{fill:#fce2de;}.cls-15{fill:#32314b;}.cls-16{fill:#fff;}</style></defs><title>Robot Avatars</title><g id="BULINE"><circle class="cls-1" cx="256" cy="256" r="256"/></g><g id="Icons"><path class="cls-2" d="M484.77,371A257.06,257.06,0,0,1,388.9,474.84c-.92.56-1.85,1.12-2.78,1.66a255.68,255.68,0,0,1-260.25,0l-2.06-1.23,0,0A257.19,257.19,0,0,1,27.23,371a256.58,256.58,0,0,1,40.64-58.62q6.47-7,13.44-13.52c.88-.82,1.78-1.64,2.67-2.45.72-.66,1.44-1.3,2.17-1.94q7.77-6.92,16.1-13.17c1.86-1.4,3.74-2.77,5.63-4.13s3.58-2.5,5.39-3.72q5.07-3.4,10.32-6.59h0q5.72-3.47,11.61-6.62c1.18-.64,2.38-1.27,3.58-1.88q10.2-5.28,20.92-9.63,4.18-1.69,8.45-3.26h0q7.28-2.66,14.74-4.88,6.06-1.8,12.24-3.31c1.64-.4,3.29-.79,4.95-1.15q8.85-2,17.93-3.33a258.67,258.67,0,0,1,72.3-.51q9.78,1.31,19.32,3.35a254.11,254.11,0,0,1,63.15,22.51q2.07,1.07,4.11,2.16,6.21,3.33,12.2,7,4.67,2.83,9.19,5.88,2.73,1.83,5.41,3.72t5.6,4.08q8.56,6.4,16.55,13.5,1.72,1.51,3.41,3.08c.48.43,1,.87,1.42,1.31q6.88,6.43,13.27,13.35A256.36,256.36,0,0,1,484.77,371Z"/><line class="cls-3" x1="389.75" y1="294.47" x2="447" y2="294.47"/><circle class="cls-4" cx="447" cy="294.47" r="18"/><line class="cls-3" x1="123.33" y1="294.47" x2="66.08" y2="294.47"/><path class="cls-5" d="M97.4,279h51.88a11.19,11.19,0,0,1,11.19,11.19v19.72a0,0,0,0,1,0,0H86.21a0,0,0,0,1,0,0V290.21A11.19,11.19,0,0,1,97.4,279Z" transform="translate(-171.14 417.81) rotate(-90)"/><path class="cls-5" d="M362.32,279H414.2a11.19,11.19,0,0,1,11.19,11.19v19.72a0,0,0,0,1,0,0H351.13a0,0,0,0,1,0,0V290.21A11.19,11.19,0,0,1,362.32,279Z" transform="translate(682.73 -93.78) rotate(90)"/><path class="cls-6" d="M349.79,437.5H162.32a36.65,36.65,0,0,1-36.56-39.15l12.93-189.06a40.94,40.94,0,0,1,40.85-38.14h153a40.94,40.94,0,0,1,40.84,38.14l12.93,189.06A36.64,36.64,0,0,1,349.79,437.5Z"/><path class="cls-7" d="M208.68,437.5H162.31a36.64,36.64,0,0,1-36.55-39.14l12.93-189.07a40.94,40.94,0,0,1,40.84-38.14h46.36a40.94,40.94,0,0,0-40.84,38.14L172.12,398.36A36.64,36.64,0,0,0,208.68,437.5Z"/><path class="cls-8" d="M220.35,149h71.42a10.59,10.59,0,0,1,10.59,10.59v11.6a0,0,0,0,1,0,0H209.76a0,0,0,0,1,0,0v-11.6A10.59,10.59,0,0,1,220.35,149Z"/><path class="cls-5" d="M227.42,131.6H284.7a8.49,8.49,0,0,1,8.49,8.49v9.3a0,0,0,0,1,0,0H218.93a0,0,0,0,1,0,0v-9.3A8.49,8.49,0,0,1,227.42,131.6Z"/><circle class="cls-9" cx="189.89" cy="277.81" r="16.36"/><circle class="cls-9" cx="322.23" cy="277.81" r="16.36"/><rect class="cls-8" x="221.58" y="294.47" width="68.95" height="37.13" rx="7.36"/><path class="cls-4" d="M288,56.82a31.89,31.89,0,1,0-58,18.37,48.35,48.35,0,0,1,8.69,27.94v.23h34.76v-.23a50.49,50.49,0,0,1,9-28.38A31.72,31.72,0,0,0,288,56.82Z"/><path class="cls-10" d="M239.5,75.19a48.42,48.42,0,0,1,8.68,27.94v.23h-9.51v-.23A48.42,48.42,0,0,0,230,75.19a31.92,31.92,0,0,1,30.84-49.9,31.88,31.88,0,0,0-21.33,49.9Z"/><circle class="cls-11" cx="266.43" cy="46.88" r="10.37"/><path class="cls-9" d="M267.75,68H244.89a5.29,5.29,0,1,0,0,10.58h5.88v24.82a5.29,5.29,0,1,0,10.57,0V78.54h6.41a5.29,5.29,0,1,0,0-10.58Z"/><path class="cls-12" d="M274.36,116.9a6.77,6.77,0,0,0,0-13.54h-36.6a6.77,6.77,0,1,0,0,13.54,6.77,6.77,0,0,0-6.77,6.77h0a6.77,6.77,0,0,0,6.77,6.77h36.6a6.77,6.77,0,0,0,6.76-6.77h0A6.77,6.77,0,0,0,274.36,116.9Z"/><path class="cls-13" d="M242.66,123.67a6.78,6.78,0,0,0,6.77,6.77H237.76a6.77,6.77,0,1,1,0-13.54,6.77,6.77,0,1,1,0-13.54h11.67a6.77,6.77,0,0,0,0,13.54A6.77,6.77,0,0,0,242.66,123.67Z"/><ellipse class="cls-14" cx="327.39" cy="199.2" rx="6.5" ry="14.3" transform="translate(-55.13 222.48) rotate(-34.8)"/><ellipse class="cls-14" cx="347.12" cy="227.59" rx="5.03" ry="11.07" transform="translate(-67.8 238.82) rotate(-34.8)"/><circle class="cls-4" cx="66.08" cy="294.47" r="18"/><rect class="cls-8" x="123.33" y="437.5" width="263.11" height="39" rx="19.5"/><path class="cls-15" d="M386.12,476.5a255.68,255.68,0,0,1-260.25,0Z"/><rect class="cls-16" x="149" y="361.67" width="38.17" height="38.33" rx="7"/><rect class="cls-16" x="193" y="361.67" width="38.17" height="38.33" rx="7"/><rect class="cls-16" x="237" y="361.67" width="38.17" height="38.33" rx="7"/><rect class="cls-16" x="281" y="361.67" width="38.17" height="38.33" rx="7"/><rect class="cls-16" x="325" y="361.67" width="38.17" height="38.33" rx="7"/></g></svg>