<svg xmlns="http://www.w3.org/2000/svg" viewBox="0 0 512 512"><defs><style>.cls-1{fill:#f6c752;}.cls-2{fill:#d8ab48;}.cls-3{fill:#ccc;}.cls-4{fill:#a0a0a0;}.cls-5{fill:#b7b7b7;}.cls-6{fill:none;stroke:#27273d;stroke-linecap:round;stroke-miterlimit:10;stroke-width:10px;}.cls-7{fill:#db1b1b;}.cls-8{fill:#fff;}.cls-9{fill:#e5e5e5;}.cls-10{fill:#3586cb;}.cls-11{fill:#41c0e3;}.cls-12{fill:#27273d;}</style></defs><title>Robot Avatars</title><g id="BULINE"><circle class="cls-1" cx="256" cy="256" r="256"/></g><g id="Icons"><path class="cls-2" d="M484.77,371A257.06,257.06,0,0,1,388.9,474.84,254.12,254.12,0,0,1,295,509a258.72,258.72,0,0,1-77.52.08,254.6,254.6,0,0,1-93.67-33.85l0,0A257.19,257.19,0,0,1,27.23,371a256.81,256.81,0,0,1,75-89.7q2.69-2,5.43-4t5.59-3.86c1.22-.82,2.46-1.64,3.7-2.43q3.27-2.13,6.62-4.16h0q5.24-3.17,10.62-6.09l2.33-1.25q7.38-3.9,15-7.33,4-1.8,8.12-3.46t8.45-3.26h0q7.28-2.66,14.74-4.88,6.06-1.8,12.24-3.31c1.64-.4,3.29-.79,4.95-1.15s3.23-.71,4.86-1q5.46-1.12,11-2l2.05-.32a257.13,257.13,0,0,1,32-2.73q3-.07,6-.07c1.86,0,3.72,0,5.57.07a254.67,254.67,0,0,1,28.76,2.22q2.76.36,5.49.8c3.7.57,7.39,1.23,11,2l2.8.58q9.75,2.07,19.21,4.89,7.93,2.34,15.64,5.19a252.85,252.85,0,0,1,30.87,13.77l2.4,1.28q5.76,3.12,11.34,6.52c2,1.19,3.91,2.42,5.84,3.67,1.12.73,2.24,1.46,3.35,2.21,2,1.33,4,2.69,5.92,4.09q2.56,1.82,5.09,3.71a256.81,256.81,0,0,1,75.46,90Z"/><rect class="cls-3" x="217.48" y="441.71" width="77.52" height="48.72"/><path class="cls-3" d="M295,490.43V509a258.72,258.72,0,0,1-77.52.08V490.43Z"/><rect class="cls-4" x="217.48" y="441.71" width="77.52" height="16.12"/><rect class="cls-5" x="217.48" y="490.43" width="77.52" height="16.12"/><line class="cls-6" x1="167.27" y1="367.57" x2="121.16" y2="367.57"/><circle class="cls-7" cx="109.95" cy="367.57" r="23.68"/><line class="cls-6" x1="350.12" y1="367.57" x2="396.23" y2="367.57"/><circle class="cls-7" cx="407.44" cy="367.57" r="23.68"/><path class="cls-8" d="M362.84,54.92H149.64a45.57,45.57,0,0,0-45.57,45.57V234.11a26.66,26.66,0,0,0,26.66,26.66H158.8V415.35a26.36,26.36,0,0,0,26.36,26.36H327.32a26.36,26.36,0,0,0,26.36-26.36V260.77h28.07a26.65,26.65,0,0,0,26.65-26.66V100.49A45.56,45.56,0,0,0,362.84,54.92Z"/><path class="cls-9" d="M225.59,441.71H185.16a26.36,26.36,0,0,1-26.36-26.36V260.77H130.74a26.66,26.66,0,0,1-26.67-26.65V100.49a45.57,45.57,0,0,1,45.57-45.57h40.44a45.57,45.57,0,0,0-45.57,45.57V234.12a26.65,26.65,0,0,0,26.66,26.65h28.06V415.35A26.37,26.37,0,0,0,225.59,441.71Z"/><circle class="cls-10" cx="146.79" cy="218.36" r="70.74"/><circle class="cls-11" cx="146.79" cy="218.36" r="60.51"/><circle class="cls-12" cx="146.79" cy="218.36" r="42.42"/><circle class="cls-8" cx="171.6" cy="195.85" r="16.66"/><circle class="cls-10" cx="365.02" cy="218.36" r="70.74"/><circle class="cls-11" cx="365.02" cy="218.36" r="60.51"/><circle class="cls-12" cx="365.02" cy="218.36" r="42.42"/><circle class="cls-8" cx="389.84" cy="195.85" r="16.66"/><path class="cls-3" d="M205.9,303.44a233.21,233.21,0,0,0,99.79,0A14.24,14.24,0,0,1,323,317.34v31.94a14.27,14.27,0,0,1-12.19,14.09,364.22,364.22,0,0,1-110,.05,14.27,14.27,0,0,1-12.15-14.09v-32A14.24,14.24,0,0,1,205.9,303.44Z"/><rect class="cls-3" x="104.07" y="100.49" width="304.33" height="19.32"/><rect class="cls-3" x="158.8" y="386.13" width="194.88" height="19.32"/><rect class="cls-5" x="104.07" y="100.49" width="40.43" height="19.31"/><rect class="cls-5" x="158.8" y="386.13" width="40.43" height="19.32"/><circle class="cls-3" cx="158.8" cy="77.98" r="12.01"/><circle class="cls-3" cx="255.79" cy="77.98" r="12.01"/><circle class="cls-3" cx="255.79" cy="422.35" r="12.01"/><circle class="cls-3" cx="195.28" cy="422.35" r="12.01"/><circle class="cls-3" cx="316.53" cy="422.35" r="12.01"/><circle class="cls-3" cx="348.34" cy="77.98" r="12.01"/><circle class="cls-3" cx="255.79" cy="248.31" r="19.13"/></g></svg>