<svg xmlns="http://www.w3.org/2000/svg" viewBox="0 0 512 512"><defs><style>.cls-1{fill:#4acc97;}.cls-2{fill:#46b786;}.cls-3{fill:#fff;}.cls-4{fill:#27273d;}.cls-5{fill:#e5e5e5;}.cls-6{fill:#d6d6d6;}.cls-7{fill:#acdffc;}.cls-8{fill:#3e436d;}.cls-9{fill:#7cc8fb;}.cls-10{fill:#41c0e3;}.cls-11{fill:#d7f3ff;}</style></defs><title>Robot Avatars</title><g id="BULINE"><circle class="cls-1" cx="256" cy="256" r="256"/></g><g id="Icons"><path class="cls-2" d="M484.77,371a255.88,255.88,0,0,1-361,104.27l0,0A257.24,257.24,0,0,1,27.23,371,256.38,256.38,0,0,1,65,315.52q7.75-8.7,16.28-16.66c3.87-3.6,7.84-7.1,11.93-10.45,2.11-1.75,4.24-3.46,6.41-5.13.86-.66,1.73-1.33,2.6-2q3.65-2.74,7.4-5.37c1.2-.84,2.4-1.66,3.62-2.48q5.07-3.4,10.32-6.59h0c2.77-1.68,5.56-3.3,8.4-4.87q5.72-3.17,11.6-6.06,7.91-3.85,16.11-7.2,4.18-1.69,8.45-3.26h0a252.53,252.53,0,0,1,27-8.19l2.88-.68,2.07-.47q8.85-2,17.93-3.33c2-.29,4-.56,5.95-.81q6.11-.77,12.32-1.24,9.75-.75,19.7-.75,8.76,0,17.38.58,6.18.42,12.29,1.13c1.56.18,3.11.37,4.66.58q9.78,1.31,19.32,3.35c.59.13,1.18.25,1.76.39a246,246,0,0,1,27.37,7.67c1.92.64,3.82,1.32,5.72,2A252.84,252.84,0,0,1,379,261.46q5.12,2.81,10.08,5.83,4.67,2.83,9.19,5.88c1,.66,2,1.32,2.93,2q4.09,2.82,8.08,5.81c.64.48,1.28,1,1.91,1.45q10.14,7.74,19.47,16.44,8.52,8,16.28,16.66A256.38,256.38,0,0,1,484.77,371Z"/><path class="cls-3" d="M452.9,419.61a255.77,255.77,0,0,1-329.09,55.66l0,0A257.05,257.05,0,0,1,59.1,419.6c15.45-34.37,46.9-58.06,83.39-58.06h227C406,361.54,437.46,385.23,452.9,419.61Z"/><ellipse class="cls-4" cx="256" cy="354.99" rx="100.28" ry="51.37"/><path class="cls-3" d="M463,170.55,459.06,272.4C457.28,318.58,423.82,355,383.15,355H128.85c-40.67,0-74.13-36.41-75.91-82.59L49,170.55c-2.34-60.51,40.2-111,93.48-111h227C422.79,59.54,465.33,110,463,170.55Z"/><path class="cls-5" d="M167.22,355H128.85c-40.67,0-74.13-36.41-75.91-82.6L49,170.55c-2.34-60.52,40.2-111,93.48-111h38.36c-53.28,0-95.82,50.5-93.48,111L91.3,272.39C93.08,318.58,126.54,355,167.22,355Z"/><path class="cls-6" d="M331.6,355H180.4a17.43,17.43,0,0,1-.34-5.08l3.42-42.17a17.22,17.22,0,0,1,17.16-15.83H311.36a17.21,17.21,0,0,1,17.16,15.83l3.42,42.17A17.43,17.43,0,0,1,331.6,355Z"/><circle class="cls-4" cx="151.12" cy="213.15" r="86.98"/><circle class="cls-4" cx="358.6" cy="213.15" r="86.98"/><path class="cls-3" d="M307.16,374.46H204.84a15,15,0,0,1-14.94-16.19l3-36.72a15,15,0,0,1,14.94-13.78h96.38a15,15,0,0,1,14.94,13.78l3,36.72A15,15,0,0,1,307.16,374.46Z"/><path class="cls-5" d="M322.13,360a15,15,0,0,1-15,14.41H204.84a15,15,0,0,1-14.94-16.2l3-36.72a15,15,0,0,1,13.66-13.72l-2.92,36.09a15,15,0,0,0,14.94,16.19H320.87C321.3,360.08,321.72,360.06,322.13,360Z"/><ellipse class="cls-7" cx="386.87" cy="96.34" rx="7.41" ry="16.31" transform="translate(45.19 301.78) rotate(-45)"/><ellipse class="cls-7" cx="414.74" cy="124.21" rx="5.74" ry="12.62" transform="translate(33.65 329.64) rotate(-45)"/><circle class="cls-8" cx="151.12" cy="213.15" r="75.24"/><path class="cls-9" d="M203.56,213.15a52.44,52.44,0,1,1-52.44-52.44A52.32,52.32,0,0,1,203.56,213.15Z"/><path class="cls-10" d="M162.52,264.34a52.44,52.44,0,1,1-11.4-103.63,53.52,53.52,0,0,1,11.4,1.24,52.45,52.45,0,0,0,0,102.39Z"/><circle class="cls-11" cx="171.64" cy="195.1" r="14.82"/><circle class="cls-8" cx="358.6" cy="213.15" r="75.24"/><path class="cls-9" d="M411,213.15a52.44,52.44,0,1,1-52.44-52.44A52.32,52.32,0,0,1,411,213.15Z"/><path class="cls-10" d="M370,264.34a52.44,52.44,0,1,1-11.4-103.63A53.52,53.52,0,0,1,370,162a52.45,52.45,0,0,0,0,102.39Z"/><circle class="cls-11" cx="379.12" cy="195.1" r="14.82"/></g></svg>