<svg xmlns="http://www.w3.org/2000/svg" viewBox="0 0 512 512"><defs><style>.cls-1{fill:#7cc8fb;}.cls-2{fill:#f58d89;}.cls-3{fill:#ef7070;}.cls-4{fill:#3586cb;}.cls-5{fill:#366fca;}.cls-6{fill:#32314b;}.cls-7{fill:#27273d;}.cls-8{fill:#b0d46c;}.cls-9{fill:#41c0e3;}.cls-10{fill:#9eba60;}.cls-11{fill:#db1b1b;}.cls-12{fill:#fff;}</style></defs><title>Robot Avatars</title><g id="BULINE"><path class="cls-1" d="M476.57,386a256.08,256.08,0,0,1-441.14,0,256.21,256.21,0,0,1,24.7-34.84q4.07-4.83,8.35-9.44a257.39,257.39,0,0,1,50.63-42.08q9.74-6.18,20.06-11.48a256.4,256.4,0,0,1,234.81.6q10.51,5.46,20.45,11.86a257.28,257.28,0,0,1,50,42.06q4.25,4.6,8.26,9.43A256.3,256.3,0,0,1,476.57,386Z"/><circle class="cls-2" cx="256" cy="256" r="256"/></g><g id="Icons"><path class="cls-3" d="M484.77,371A257.06,257.06,0,0,1,388.9,474.84,255.56,255.56,0,0,1,256,512a257.25,257.25,0,0,1-40-3.11,254.56,254.56,0,0,1-92.19-33.62l0,0A257.19,257.19,0,0,1,27.23,371a256.81,256.81,0,0,1,75-89.7q5.4-4.07,11-7.85c1.35-.9,2.7-1.8,4.07-2.68l.56-.36q2.82-1.82,5.69-3.55h0q10.26-6.21,21.11-11.46l.55-.26q7.1-3.44,14.45-6.41,4.18-1.69,8.45-3.26h0c1.3-.47,2.6-.94,3.9-1.39q11.31-3.93,23.08-6.8c1.64-.4,3.29-.79,4.95-1.15q8.85-2,17.93-3.33a258.67,258.67,0,0,1,72.3-.51q9.78,1.31,19.32,3.35a251.31,251.31,0,0,1,34.85,10.08q11.67,4.29,22.79,9.68t21.82,11.89q2.81,1.69,5.55,3.48,1.83,1.19,3.64,2.4,5.61,3.75,11,7.8a256.81,256.81,0,0,1,75.46,90Z"/><path class="cls-4" d="M255.77,109.28h1A110.51,110.51,0,0,1,367.29,219.79v215.9a18.42,18.42,0,0,1-18.42,18.42H163.68a18.42,18.42,0,0,1-18.42-18.42V219.79A110.51,110.51,0,0,1,255.77,109.28Z"/><path class="cls-5" d="M367.29,359.63v-23.5H172.07V219.79a110.53,110.53,0,0,1,97.34-109.74,110.15,110.15,0,0,0-13.18-.78h-1a110.51,110.51,0,0,0-110.5,110.51V435.69a18.41,18.41,0,0,0,18.41,18.41h27.37a18.42,18.42,0,0,1-18.42-18.41V380.85a21.22,21.22,0,0,1,21.21-21.22Z"/><rect class="cls-6" x="246.8" y="41.63" width="18.41" height="75.5"/><rect class="cls-6" x="117.9" y="229.56" width="276.76" height="113" rx="37.35"/><path class="cls-7" d="M172.07,229.55v113H154.69a37.36,37.36,0,0,1-37.35-37.35v-38.3a37.38,37.38,0,0,1,27.37-36,37.8,37.8,0,0,1,10-1.35Z"/><rect class="cls-8" x="193.38" y="371.26" width="125.8" height="44.48" rx="12.8"/><ellipse class="cls-9" cx="305.37" cy="152.34" rx="8.74" ry="19.23" transform="translate(-31.58 206.4) rotate(-35.63)"/><ellipse class="cls-9" cx="332.45" cy="190.12" rx="6.77" ry="14.88" transform="translate(-48.52 229.25) rotate(-35.63)"/><rect class="cls-8" x="147.36" y="247.54" width="217.82" height="77.03" rx="22.17"/><path class="cls-10" d="M172.07,247.54v77H169a22.17,22.17,0,0,1-22.17-22.17V269.71A22.18,22.18,0,0,1,169,247.54Z"/><rect class="cls-11" x="181.49" y="271.02" width="149.58" height="28.81" rx="14.41"/><circle class="cls-11" cx="256" cy="28.97" r="21.67"/><path class="cls-6" d="M296,454.11v54.77a258.38,258.38,0,0,1-80,0V454.11Z"/><rect class="cls-7" x="216" y="454.11" width="80" height="27.19"/><circle class="cls-12" cx="209" cy="285.42" r="9.62"/><circle class="cls-12" cx="240.33" cy="285.42" r="9.62"/><circle class="cls-12" cx="271.67" cy="285.42" r="9.62"/><circle class="cls-12" cx="303" cy="285.42" r="9.62"/></g></svg>