<svg xmlns="http://www.w3.org/2000/svg" viewBox="0 0 512 512"><defs><style>.cls-1{fill:#9e4830;}.cls-2{fill:#7f3828;}.cls-3{fill:#fff;}.cls-4{fill:#27273d;}.cls-5{fill:#1d1d2d;}.cls-6{fill:#e0e0e0;}.cls-7{fill:#4f4f74;}.cls-8{fill:#3586cb;}.cls-9{fill:#7cc8fb;}.cls-10{fill:none;stroke:#7cc8fb;stroke-linecap:round;stroke-miterlimit:10;stroke-width:10px;}.cls-11{fill:#f58d89;}</style></defs><title>Robot Avatars</title><g id="BULINE"><circle class="cls-1" cx="256" cy="256" r="256"/></g><g id="Icons"><path class="cls-2" d="M484.77,371A257.06,257.06,0,0,1,388.9,474.84a256.48,256.48,0,0,1-229.33,18.37q-4.27-1.74-8.48-3.63a255.2,255.2,0,0,1-27.28-14.31l0,0A257.19,257.19,0,0,1,27.23,371a256.81,256.81,0,0,1,75-89.7l1.13-.84q4.86-3.63,9.89-7t10.32-6.59h0a254.9,254.9,0,0,1,26.84-14.15l.65-.29q4.26-1.92,8.62-3.69,4.18-1.69,8.45-3.26h0c2.68-1,5.39-1.92,8.11-2.8q3.56-1.18,7.16-2.23,2.61-.78,5.25-1.5,3.21-.87,6.46-1.66c1.64-.4,3.29-.79,4.95-1.15q8.85-2,17.93-3.33c1.29-.19,2.58-.37,3.88-.54,2.46-.33,4.94-.63,7.43-.88A255.28,255.28,0,0,1,256,230a257.85,257.85,0,0,1,26.65,1.38c2.48.25,5,.55,7.42.88l.26,0q9.78,1.31,19.32,3.35t18.91,4.8q3.6,1,7.15,2.22,4.43,1.46,8.79,3.06,7.53,2.78,14.83,6l.64.29a253.67,253.67,0,0,1,29.14,15.28q4.67,2.83,9.19,5.88,4.09,2.74,8.09,5.64c1,.71,1.95,1.43,2.92,2.16a256.81,256.81,0,0,1,75.46,90Z"/><path class="cls-3" d="M360,472.87V490a256.7,256.7,0,0,1-200.4,3.22q-4.27-1.74-8.48-3.63V472.87a21.16,21.16,0,0,1,21.16-21.16H338.82A21.15,21.15,0,0,1,360,472.87Z"/><path class="cls-4" d="M220,423.45h71.09a0,0,0,0,1,0,0v21A35.55,35.55,0,0,1,255.53,480h0A35.55,35.55,0,0,1,220,444.42v-21a0,0,0,0,1,0,0Z"/><path class="cls-4" d="M254.89,84.57h0A104.45,104.45,0,0,0,150.44,189V286.9a32.83,32.83,0,0,0,7.41,20.78l45.92,56.22A32.86,32.86,0,0,0,229.21,376h51.35A32.88,32.88,0,0,0,306,363.9l45.91-56.22a32.83,32.83,0,0,0,7.41-20.78V189A104.44,104.44,0,0,0,254.89,84.57Z"/><path class="cls-3" d="M208,96c-1.47.74-2.93,1.53-4.36,2.36Q205.78,97.13,208,96ZM189.1,108.42c-1.29,1.06-2.56,2.15-3.79,3.28C186.54,110.58,187.81,109.48,189.1,108.42ZM160.32,146c-.66,1.45-1.29,2.93-1.88,4.42Q159.32,148.22,160.32,146ZM297.54,29.2c-1.69-.5-3.39-1-5.11-1.4l-2.1-.52L289.1,27c-1.17-.27-2.34-.53-3.52-.77L284.24,26c-.52-.11-1-.21-1.57-.29-1-.2-2-.37-3-.54-1.2-.19-2.39-.37-3.59-.54q-2.83-.39-5.7-.69c-5.09-.51-10.26-.78-15.49-.78a151.43,151.43,0,0,0-48.6,8A149,149,0,0,0,185.36,40c-.9.46-1.79.94-2.68,1.42h0c-.88.47-1.75,1-2.62,1.45-1.79,1-3.55,2.07-5.28,3.15-1,.65-2.06,1.3-3.07,2-2,1.34-4,2.72-6,4.16q-2.2,1.6-4.35,3.29-4.29,3.38-8.33,7c-.9.82-1.78,1.65-2.66,2.48a151.08,151.08,0,0,0-47,109.67v116.1a74.3,74.3,0,0,0,20.88,51.64l72.57,75.12.66.67A37.31,37.31,0,0,0,220,428.66c1.21.12,2.42.18,3.65.18h62.49l1.38,0h.17c.43,0,.86,0,1.28-.07h.09c.46,0,.92-.08,1.38-.13l.13,0,.52-.07c.28,0,.57-.07.85-.12.48-.07.95-.16,1.43-.25.79-.16,1.57-.35,2.35-.56l1.22-.35.61-.18h0a37.26,37.26,0,0,0,15.42-9.56l72.58-75.12a74.32,74.32,0,0,0,20.87-51.65V174.61A151.56,151.56,0,0,0,297.54,29.2ZM360,286.9a32.82,32.82,0,0,1-7.4,20.78L317,351.2a13.78,13.78,0,0,1-21.1.3l-.3-.35A17.65,17.65,0,0,0,282.26,345H228.8a17.65,17.65,0,0,0-12.05,4.75,18.73,18.73,0,0,0-1.32,1.36l-.3.35c-.17.2-.35.39-.53.58a13.91,13.91,0,0,1-1.12,1.05,14.44,14.44,0,0,1-1.21.89,14.28,14.28,0,0,1-2,1.07q-.66.29-1.35.51c-.23.08-.46.14-.7.21a13.75,13.75,0,0,1-13.14-3.42,11,11,0,0,1-1.09-1.17L158.5,307.69a32.9,32.9,0,0,1-7.41-20.79V189c0-.7,0-1.4,0-2.1l0-1.15c0-.71.05-1.42.09-2.12s.07-1.34.12-2l0-.45c0-.41.06-.83.1-1.25s.08-.91.13-1.36l0-.38c.09-.83.18-1.66.29-2.49s.19-1.45.3-2.18a0,0,0,0,1,0,0c.07-.48.14-1,.22-1.44,0-.27.09-.53.14-.8s.13-.77.2-1.16q.47-2.55,1-5c.16-.67.32-1.34.5-2,.24-1,.5-1.91.77-2.86.19-.66.38-1.32.59-2q.07-.28.18-.57.33-1.06.69-2.13c.27-.81.55-1.61.85-2.41s.51-1.38.78-2.07c.07-.19.15-.38.23-.58q.88-2.23,1.88-4.42c.33-.74.67-1.47,1-2.2a.77.77,0,0,1,.07-.17c.35-.71.7-1.42,1.06-2.12a1.06,1.06,0,0,1,.11-.21c.36-.7.73-1.41,1.11-2.1s.81-1.48,1.23-2.21.75-1.28,1.13-1.92c.51-.85,1-1.7,1.59-2.54.42-.65.84-1.3,1.28-1.94s.94-1.39,1.43-2.07,1-1.47,1.6-2.19.92-1.21,1.39-1.81l0,0c.51-.66,1-1.31,1.57-2s1.07-1.29,1.62-1.92l1.5-1.7.16-.17c.56-.62,1.13-1.23,1.71-1.84s1.1-1.14,1.66-1.7a3.19,3.19,0,0,1,.26-.26c.53-.53,1.08-1.06,1.62-1.58s1.22-1.15,1.84-1.71c1.23-1.12,2.5-2.22,3.79-3.28.64-.53,1.29-1.06,2-1.57l1.85-1.43.14-.1c.67-.5,1.35-1,2-1.48s1.37-1,2.07-1.43l1.78-1.18c.23-.16.47-.31.71-.46.48-.3,1-.61,1.46-.9.84-.53,1.68-1,2.53-1.51Q205.78,97.13,208,96c.75-.39,1.51-.76,2.27-1.13.51-.25,1-.49,1.55-.72a103.93,103.93,0,0,1,43.41-9.58h.32A104.44,104.44,0,0,1,360,189Z"/><path class="cls-5" d="M216.75,349.78,242,376H229.21a32.9,32.9,0,0,1-25.45-12.07l-45.9-56.22a32.85,32.85,0,0,1-7.42-20.79V189a104.47,104.47,0,0,1,61.64-95.3c-.09.13-.18.27-.26.41a150.71,150.71,0,0,0-23.13,80.49v116.1a74.33,74.33,0,0,0,20.87,51.64Z"/><path class="cls-6" d="M289.65,423.45a36.77,36.77,0,0,1-7.52-6L242,376l-25.29-26.2a18.73,18.73,0,0,0-1.32,1.36l-.3.35c-.17.2-.35.39-.53.58-.36.37-.73.72-1.12,1.05a14.44,14.44,0,0,1-1.21.89,14.28,14.28,0,0,1-2,1.07,12.9,12.9,0,0,1-1.35.51c-.23.08-.46.15-.7.21a13.71,13.71,0,0,1-13.14-3.42,11,11,0,0,1-1.09-1.17L158.5,307.69a32.9,32.9,0,0,1-7.41-20.79V189c0-.7,0-1.4,0-2.1l0-1.15c0-.71.05-1.41.09-2.12s.07-1.33.12-2l0-.45c0-.42.06-.83.1-1.25s.08-.91.13-1.36l0-.38c.09-.83.18-1.66.29-2.49s.19-1.46.3-2.18a0,0,0,0,1,0,0c.07-.48.14-1,.22-1.44,0-.27.09-.53.14-.8s.13-.77.2-1.16q.47-2.55,1-5c.16-.67.32-1.34.5-2,.24-1,.5-1.91.77-2.86.19-.66.38-1.32.59-2q.07-.28.18-.57c.22-.72.45-1.42.69-2.13s.55-1.61.85-2.41.51-1.38.78-2.07c.07-.19.15-.38.23-.58.59-1.49,1.22-3,1.88-4.42.33-.74.67-1.47,1-2.2a.77.77,0,0,1,.07-.17c.34-.71.7-1.42,1.06-2.12a1.06,1.06,0,0,1,.11-.21q.53-1.07,1.11-2.1c.39-.74.8-1.48,1.23-2.21s.74-1.28,1.13-1.92c.51-.85,1-1.7,1.59-2.54.41-.65.83-1.3,1.28-1.94s.94-1.39,1.43-2.07,1-1.47,1.6-2.19.92-1.21,1.39-1.81l0,0c.51-.66,1-1.31,1.57-2s1.07-1.29,1.62-1.92,1-1.14,1.5-1.7l.16-.17c.56-.62,1.13-1.24,1.71-1.84s1.1-1.14,1.66-1.7a3.19,3.19,0,0,1,.26-.26c.53-.53,1.07-1.06,1.62-1.58s1.22-1.15,1.84-1.71c1.23-1.13,2.5-2.22,3.79-3.28.64-.54,1.29-1.06,2-1.57s1.23-1,1.85-1.43l.14-.1c.67-.51,1.35-1,2-1.48s1.37-1,2.07-1.43,1.18-.8,1.78-1.18c.23-.16.47-.31.71-.46.48-.31,1-.61,1.46-.9.84-.53,1.68-1,2.53-1.51,1.43-.83,2.89-1.62,4.36-2.36.75-.39,1.51-.77,2.27-1.13.52-.26,1-.51,1.57-.75.08-.13.16-.27.25-.39s0,0,0,0A151.78,151.78,0,0,1,297.54,29.2c-1.69-.5-3.39-1-5.11-1.4l-2.1-.52L289.1,27c-1.17-.27-2.34-.53-3.52-.77L284.24,26c-.52-.11-1-.21-1.57-.29-1-.2-2-.37-3-.54-1.19-.2-2.39-.38-3.59-.54q-2.83-.41-5.7-.69a149.58,149.58,0,0,0-15.49-.79,151.16,151.16,0,0,0-48.6,8A149,149,0,0,0,185.36,40c-.9.46-1.79.94-2.68,1.42h0c-.88.47-1.75,1-2.62,1.45-1.79,1-3.55,2.07-5.28,3.15-1,.64-2.05,1.3-3.07,2-2,1.34-4,2.72-6,4.16q-2.2,1.6-4.35,3.29-4.29,3.38-8.33,7c-.89.82-1.78,1.64-2.66,2.48a151.08,151.08,0,0,0-47,109.67v116.1a74.3,74.3,0,0,0,20.88,51.64l72.56,75.12c.22.23.44.45.67.67A37.31,37.31,0,0,0,220,428.66c1.21.12,2.42.18,3.65.18h62.49l1.38,0h.17c.43,0,.86,0,1.28-.07h.09c.46,0,.92-.08,1.38-.13l.13,0,.52-.07c.28,0,.57-.07.85-.12.48-.07.95-.16,1.43-.25a37.75,37.75,0,0,0,4.18-1.09,36.82,36.82,0,0,1-6.46-2.76C290.59,424,290.12,423.74,289.65,423.45Z"/><ellipse class="cls-7" cx="299.88" cy="133.87" rx="8.38" ry="18.44" transform="translate(-27.07 164.73) rotate(-29.45)"/><ellipse class="cls-7" cx="321.8" cy="172.69" rx="6.49" ry="14.27" transform="translate(-43.32 180.51) rotate(-29.45)"/><path class="cls-4" d="M78.23,175.23h25.15a0,0,0,0,1,0,0V276.72a0,0,0,0,1,0,0H78.23a10.31,10.31,0,0,1-10.31-10.31V185.54A10.31,10.31,0,0,1,78.23,175.23Z"/><path class="cls-4" d="M416.7,175.23h25.15a0,0,0,0,1,0,0V276.72a0,0,0,0,1,0,0H416.7a10.31,10.31,0,0,1-10.31-10.31V185.54A10.31,10.31,0,0,1,416.7,175.23Z" transform="translate(848.24 451.95) rotate(180)"/><circle class="cls-8" cx="200.46" cy="225.98" r="29.39"/><circle class="cls-9" cx="200.46" cy="225.98" r="22.35"/><circle class="cls-8" cx="311.52" cy="225.98" r="29.39"/><circle class="cls-9" cx="311.52" cy="225.98" r="22.35"/><path class="cls-10" d="M237.83,302.25a25,25,0,0,0,35.41,0"/><ellipse class="cls-11" cx="200.46" cy="285.71" rx="22.56" ry="16.55"/><ellipse class="cls-11" cx="311.52" cy="285.71" rx="22.56" ry="16.55"/></g></svg>