<svg xmlns="http://www.w3.org/2000/svg" viewBox="0 0 512 512"><defs><style>.cls-1{fill:#fc4581;}.cls-2{fill:#e03674;}.cls-3{fill:#fff;}.cls-4{fill:#32314b;}.cls-5{fill:#aa60fa;}.cls-6{fill:#934cf5;}.cls-7{fill:#d1d1d1;}.cls-8{fill:none;stroke:#32314b;stroke-linecap:round;stroke-miterlimit:10;stroke-width:15px;}.cls-9{fill:#db1b1b;}.cls-10{fill:#b71818;}.cls-11{fill:#ed4a4a;}.cls-12{fill:#223;}</style></defs><title>Robot Avatars</title><g id="BULINE"><circle class="cls-1" cx="256" cy="256" r="256"/></g><g id="Icons"><path class="cls-2" d="M484.77,371A256.92,256.92,0,0,1,408,462q-9.25,6.84-19.12,12.85a255.71,255.71,0,0,1-265.09.43l0,0Q113.41,469,103.7,461.77A257,257,0,0,1,27.23,371q5.72-11.34,12.5-22l.08-.13c1.52-2.4,3.08-4.76,4.68-7.1A257.41,257.41,0,0,1,78.11,301.9c1.06-1,2.12-2,3.2-3q8.67-8.08,18.07-15.37c1-.74,1.91-1.47,2.87-2.19q5.4-4.07,11-7.85,5.07-3.4,10.32-6.59h0l.87-.52a253.41,253.41,0,0,1,24.85-13.11l0,0q5.11-2.36,10.36-4.48c1-.42,2.06-.83,3.09-1.22h0c1.77-.71,3.56-1.38,5.35-2h0q10.44-3.81,21.28-6.73c1.89-.51,3.79-1,5.7-1.46,1.64-.4,3.29-.79,4.95-1.15q8.85-2,17.93-3.33a258.67,258.67,0,0,1,72.3-.51q9.78,1.31,19.32,3.35,5.72,1.22,11.33,2.69,12,3.12,23.52,7.39a254.15,254.15,0,0,1,39.39,18.47c1.76,1,3.49,2.05,5.22,3.1q4.67,2.83,9.19,5.88,5.61,3.75,11,7.8l3.14,2.39q9.48,7.33,18.24,15.5c.94.88,1.87,1.76,2.79,2.65a257.48,257.48,0,0,1,33.86,40c1.58,2.31,3.13,4.66,4.65,7l.07.12A254.35,254.35,0,0,1,484.77,371Z"/><path class="cls-3" d="M408,462q-9.25,6.84-19.12,12.85a255.71,255.71,0,0,1-265.09.43l0,0Q113.41,469,103.7,461.77a175.79,175.79,0,0,1,150.5-84.62h3.19A176.26,176.26,0,0,1,408,462Z"/><path class="cls-4" d="M117,386.46H394.56a0,0,0,0,1,0,0V415a18.85,18.85,0,0,1-18.85,18.85H135.88A18.85,18.85,0,0,1,117,415V386.46A0,0,0,0,1,117,386.46Z"/><circle class="cls-5" cx="78.11" cy="323.93" r="45.69"/><path class="cls-6" d="M123.8,324.17a45.69,45.69,0,1,1-90.89-6.68,45.68,45.68,0,0,0,90.39,0A44.6,44.6,0,0,1,123.8,324.17Z"/><circle class="cls-5" cx="433.48" cy="323.93" r="45.69"/><path class="cls-6" d="M479.17,324.17a45.69,45.69,0,0,1-91.38,0,44.6,44.6,0,0,1,.5-6.68,45.68,45.68,0,0,0,90.39,0A46,46,0,0,1,479.17,324.17Z"/><path class="cls-3" d="M254.2,126.23h3.2A176.09,176.09,0,0,1,433.48,302.32v66.94a17.2,17.2,0,0,1-17.2,17.2h-321a17.2,17.2,0,0,1-17.2-17.2V302.32A176.09,176.09,0,0,1,254.2,126.23Z"/><ellipse class="cls-7" cx="171.23" cy="188.74" rx="35.54" ry="12.97" transform="translate(-83.31 176.36) rotate(-45)"/><ellipse class="cls-7" cx="349.16" cy="188.74" rx="12.97" ry="35.54" transform="translate(-31.19 302.17) rotate(-45)"/><line class="cls-8" x1="171.23" y1="187.24" x2="103.49" y2="119.5"/><circle class="cls-9" cx="103.49" cy="119.5" r="40.66"/><path class="cls-10" d="M113.08,159a40.66,40.66,0,1,1,0-79,40.66,40.66,0,0,0,0,79Z"/><line class="cls-8" x1="350.56" y1="187.24" x2="418.29" y2="119.5"/><circle class="cls-9" cx="418.29" cy="119.5" r="40.66"/><path class="cls-10" d="M427.89,159a40.66,40.66,0,1,1,0-79,40.66,40.66,0,0,0,0,79Z"/><circle class="cls-7" cx="171.23" cy="286.14" r="50.77"/><circle class="cls-7" cx="338.11" cy="286.14" r="50.77"/><circle class="cls-9" cx="171.23" cy="286.14" r="39.53"/><path class="cls-10" d="M178,325.09a40.2,40.2,0,0,1-6.81.58A39.53,39.53,0,1,1,178,247.2a39.54,39.54,0,0,0,0,77.89Z"/><circle class="cls-9" cx="338.11" cy="286.14" r="39.53"/><path class="cls-10" d="M345.57,325.09a40.2,40.2,0,0,1-6.81.58,39.53,39.53,0,1,1,6.81-78.47,39.54,39.54,0,0,0,0,77.89Z"/><circle class="cls-11" cx="189.8" cy="274.3" r="11.76"/><circle class="cls-11" cx="357.33" cy="274.3" r="11.76"/><rect class="cls-5" x="216.31" y="336.91" width="78.22" height="33.85" rx="16.92"/><path class="cls-6" d="M246.77,370.75H233.23a16.92,16.92,0,1,1,0-33.84h13.54a16.92,16.92,0,0,0,0,33.84Z"/><rect class="cls-12" x="117.03" y="386.46" width="277.53" height="23.69"/></g></svg>