<svg xmlns="http://www.w3.org/2000/svg" viewBox="0 0 512 512"><defs><style>.cls-1{fill:#db1b1b;}.cls-2{fill:#bc1b1b;}.cls-3{fill:#4f4f74;}.cls-4{fill:#1e1e2d;}.cls-5{fill:#3e436d;}.cls-6{fill:#5b5b82;}.cls-7{fill:#fcc8bc;}.cls-8{fill:#fffdfd;}.cls-9{fill:#fab3a7;}.cls-10{fill:#27273d;}.cls-11{fill:#e0dede;}.cls-12{fill:#fc4581;}</style></defs><title>Robot Avatars</title><g id="BULINE"><circle class="cls-1" cx="256" cy="256" r="256"/></g><g id="Icons"><path class="cls-2" d="M484.77,371A257,257,0,0,1,401,467q-5.93,4.08-12.08,7.83a255.71,255.71,0,0,1-265.09.43l0,0q-6.8-4.11-13.32-8.64A257,257,0,0,1,27.23,371,257.21,257.21,0,0,1,69.9,310.22c.27-.3.55-.59.84-.89q2.3-2.41,4.66-4.78,2.91-2.88,5.91-5.69,2.72-2.52,5.49-5l.24-.21q7.36-6.48,15.21-12.38,5.4-4.07,11-7.85,5.07-3.4,10.32-6.59h0c1.21-.73,2.43-1.46,3.65-2.17l.8-.47a257.31,257.31,0,0,1,25.74-13l1-.41c1.64-.71,3.3-1.41,5-2.08q3.14-1.28,6.32-2.45c.71-.29,1.42-.55,2.13-.81h0q5.33-2,10.77-3.66l2.56-.8h0q6.74-2,13.62-3.72c1.64-.4,3.29-.79,4.95-1.15q8.85-2,17.93-3.33a258.67,258.67,0,0,1,72.3-.51q9.78,1.31,19.32,3.35a251.31,251.31,0,0,1,34.85,10.08q5.82,2.15,11.52,4.57a253,253,0,0,1,26.9,13.35c2.08,1.18,4.15,2.4,6.19,3.65q4.67,2.83,9.19,5.88,5.61,3.75,11,7.8,7,5.25,13.65,10.95l.24.21q3.81,3.3,7.49,6.73,2,1.84,3.91,3.73,2.83,2.76,5.58,5.61a252.89,252.89,0,0,1,19.72,23A255.46,255.46,0,0,1,484.77,371Z"/><path class="cls-3" d="M401,467q-5.93,4.08-12.08,7.83a255.71,255.71,0,0,1-265.09.43l0,0q-6.8-4.11-13.32-8.64A185.2,185.2,0,0,1,401,467Z"/><path class="cls-4" d="M187.34,383H323.77a0,0,0,0,1,0,0v12.23a15.32,15.32,0,0,1-15.32,15.32H202.66a15.32,15.32,0,0,1-15.32-15.32V383A0,0,0,0,1,187.34,383Z"/><path class="cls-3" d="M255,115.82h0A185.14,185.14,0,0,1,440.18,301v10.76a37.83,37.83,0,0,1-37.83,37.83H107.72A37.83,37.83,0,0,1,69.9,311.73V301A185.14,185.14,0,0,1,255,115.82Z"/><path class="cls-5" d="M157.8,311.72a37.84,37.84,0,0,0,37.84,37.84H108.57a37.83,37.83,0,0,1-37.83-37.84V301c0-102.26,82.89-185.15,185.14-185.15A185.26,185.26,0,0,1,299.41,121a185.51,185.51,0,0,0-119.55,92.28,182.32,182.32,0,0,0-8,16.76s0,0,0,0a184.13,184.13,0,0,0-12.79,48.9A188.85,188.85,0,0,0,157.8,301Z"/><ellipse class="cls-6" cx="346.11" cy="164.75" rx="6.74" ry="14.83" transform="translate(-15.12 292.99) rotate(-45)"/><ellipse class="cls-6" cx="371.45" cy="190.08" rx="5.21" ry="11.47" transform="translate(-25.61 318.33) rotate(-45)"/><rect class="cls-7" x="127.03" y="213.25" width="256.02" height="93.81" rx="46.9"/><rect class="cls-8" x="152.6" y="226.3" width="204.88" height="67.72" rx="33.86"/><path class="cls-9" d="M179.86,213.25a182.32,182.32,0,0,0-8,16.76s0,0,0,0a184.13,184.13,0,0,0-12.79,48.9A188.85,188.85,0,0,0,157.8,301v2.93a46.91,46.91,0,0,1,17-90.65Z"/><circle class="cls-10" cx="186.11" cy="260.16" r="19.69"/><path class="cls-11" d="M171.89,230a184.13,184.13,0,0,0-12.79,48.9A33.85,33.85,0,0,1,171.89,230Z"/><circle class="cls-10" cx="322.93" cy="260.16" r="19.69"/><rect class="cls-10" x="34.18" y="223.75" width="52.86" height="109.09" rx="24.75"/><path class="cls-4" d="M86.8,248.5v59.6a24.74,24.74,0,0,1-24.75,24.74H58.69a26.59,26.59,0,0,1-4-.32A24.76,24.76,0,0,0,75.4,308.1V248.5a24.76,24.76,0,0,0-20.73-24.43,25.36,25.36,0,0,1,4-.33h3.36A24.75,24.75,0,0,1,86.8,248.5Z"/><rect class="cls-8" x="50.93" y="147.95" width="19.37" height="84.74" rx="9.69"/><circle class="cls-12" cx="60.61" cy="142.6" r="26.43"/><rect class="cls-12" x="39.36" y="176.27" width="42.5" height="16.26" rx="8.13"/><rect class="cls-12" x="39.36" y="199" width="42.5" height="16.26" rx="8.13"/><rect class="cls-10" x="422.96" y="223.75" width="52.86" height="109.09" rx="24.75" transform="translate(898.78 556.59) rotate(-180)"/><path class="cls-4" d="M423.2,248.5v59.6A24.74,24.74,0,0,0,448,332.84h3.36a26.59,26.59,0,0,0,4-.32A24.76,24.76,0,0,1,434.6,308.1V248.5a24.76,24.76,0,0,1,20.73-24.43,25.36,25.36,0,0,0-4-.33H448A24.75,24.75,0,0,0,423.2,248.5Z"/><rect class="cls-8" x="439.7" y="147.95" width="19.37" height="84.74" rx="9.69" transform="translate(898.78 380.64) rotate(180)"/><circle class="cls-12" cx="449.39" cy="142.6" r="26.43"/><rect class="cls-12" x="428.14" y="176.27" width="42.5" height="16.26" rx="8.13" transform="translate(898.78 368.79) rotate(180)"/><rect class="cls-12" x="428.14" y="199" width="42.5" height="16.26" rx="8.13" transform="translate(898.78 414.25) rotate(-180)"/><path class="cls-10" d="M169.59,349.56H341.52a0,0,0,0,1,0,0V365a19.31,19.31,0,0,1-19.31,19.31H188.9A19.31,19.31,0,0,1,169.59,365V349.56A0,0,0,0,1,169.59,349.56Z"/></g></svg>