<svg xmlns="http://www.w3.org/2000/svg" viewBox="0 0 512 512"><defs><style>.cls-1{fill:#4f4f74;}.cls-2{fill:#40405b;}.cls-3{fill:#fff;}.cls-4{fill:#fc4581;}.cls-5{fill:#dd3e78;}.cls-6{fill:#7cc8fb;}.cls-7{fill:#41c0e3;}.cls-8{fill:#e0e0e0;}.cls-9{fill:#32314b;}.cls-10{fill:#acdffc;}.cls-11{fill:none;stroke:#32314b;stroke-linecap:round;stroke-miterlimit:10;stroke-width:10px;}.cls-12{fill:#c1c1c1;}</style></defs><title>Robot Avatars</title><g id="BULINE"><circle class="cls-1" cx="256" cy="256" r="256"/></g><g id="Icons"><path class="cls-2" d="M484.77,371A256.36,256.36,0,0,1,192.84,504.14a252.4,252.4,0,0,1-33.27-10.93q-6.91-2.82-13.62-6h0q-11.38-5.43-22.13-11.92l0,0A257.19,257.19,0,0,1,27.23,371a256.71,256.71,0,0,1,47-65.25q3.48-3.51,7.1-6.89a258.38,258.38,0,0,1,20.94-17.56c1.62-1.22,3.25-2.41,4.89-3.6q3-2.16,6.13-4.25,5.07-3.4,10.32-6.59h0q7.71-4.68,15.78-8.8,6.92-3.56,14.07-6.69,3.11-1.37,6.26-2.64,4.18-1.69,8.45-3.26h0q7.7-2.82,15.62-5.14,5.63-1.65,11.36-3.05c1.64-.4,3.29-.79,4.95-1.15q8.85-2,17.93-3.33a258.67,258.67,0,0,1,72.3-.51q9.78,1.31,19.32,3.35,7.89,1.68,15.58,3.84,9.79,2.73,19.27,6.24,6.24,2.29,12.33,4.91a255.55,255.55,0,0,1,32.28,16.66q4.67,2.83,9.19,5.88,2.29,1.53,4.54,3.12,3.27,2.28,6.47,4.68a257.59,257.59,0,0,1,21.38,17.89q3.07,2.86,6.06,5.84A257.32,257.32,0,0,1,484.77,371Z"/><rect class="cls-3" x="231.89" y="337.96" width="46.21" height="89.5"/><circle class="cls-4" cx="41.55" cy="222.89" r="31.87"/><path class="cls-5" d="M73.42,222.88a31.87,31.87,0,1,1-63.25-5.55,31.87,31.87,0,0,0,62.76,0A31.73,31.73,0,0,1,73.42,222.88Z"/><path class="cls-4" d="M147.8,492.63c.51,1.27,1,2.53,1.63,3.78C148.85,495.17,148.3,493.91,147.8,492.63Z"/><path class="cls-4" d="M149.44,496.42a76.78,76.78,0,0,0,16.38,22.39A76.16,76.16,0,0,1,149.44,496.42Z"/><path class="cls-4" d="M367.85,470.53a59.12,59.12,0,0,1-2.5,17,257,257,0,0,1-172.51,16.61,252.4,252.4,0,0,1-33.27-10.93q-6.91-2.82-13.62-6c.53,1.83,1.15,3.64,1.84,5.42-.7-1.78-1.32-3.6-1.85-5.43a58.93,58.93,0,0,1-2.4-16.66,59.73,59.73,0,0,1,3.53-20.16h0c.45-1.29,1-2.56,1.5-3.82a0,0,0,0,0,0,0c.54-1.26,1.13-2.51,1.75-3.74.33-.62.65-1.23,1-1.85.66-1.22,1.37-2.43,2.12-3.61,9.73-15.5,26.07-28.38,46.43-36.8q3.51-1.45,7.19-2.73a142.53,142.53,0,0,1,24.82-6.13,154.41,154.41,0,0,1,23.83-1.83c1,0,1.91,0,2.86,0l2.16.05c.7,0,1.4.05,2.09.09l1.69.08c.71,0,1.41.08,2.12.14q.62,0,1.23.09l.41,0,2.17.19q3.87.36,7.65.91C329.31,398.92,367.85,431.49,367.85,470.53Z"/><path class="cls-5" d="M275.24,391.08a138.31,138.31,0,0,0-43.35,12.65c-29.71,14.51-49.22,39-49.22,66.81a62,62,0,0,0,10.17,33.6,252.4,252.4,0,0,1-33.27-10.93q-6.91-2.82-13.62-6a58.87,58.87,0,0,1-2.4-16.66,59.77,59.77,0,0,1,3.52-20.17h0c.46-1.28,1-2.56,1.5-3.82a0,0,0,0,0,0,0c.55-1.26,1.13-2.5,1.75-3.74.33-.62.65-1.23,1-1.85.67-1.22,1.37-2.42,2.12-3.61,9.73-15.5,26.07-28.38,46.43-36.8q3.51-1.45,7.19-2.73a142.53,142.53,0,0,1,24.82-6.13,154.41,154.41,0,0,1,23.83-1.83c1,0,1.91,0,2.86,0l2.16.05c.7,0,1.4.05,2.09.09l1.69.08c.71,0,1.41.08,2.12.14q.62,0,1.23.09l.41,0,2.17.19C272.06,390.7,273.66,390.88,275.24,391.08Z"/><circle class="cls-4" cx="468.43" cy="222.89" r="31.87"/><path class="cls-5" d="M500.3,222.88a31.87,31.87,0,1,1-63.25-5.55,31.87,31.87,0,0,0,62.76,0A31.73,31.73,0,0,1,500.3,222.88Z"/><rect class="cls-6" x="107.14" y="141.18" width="295.7" height="163.41" rx="19.73"/><path class="cls-3" d="M464.27,191.29a121.55,121.55,0,0,0-117.33-89.9H163.05A121.58,121.58,0,0,0,43.31,243.58q.94,5.55,2.4,10.9a120.05,120.05,0,0,0,5.39,15.7q1.15,2.73,2.43,5.38a121.43,121.43,0,0,0,12.16,20q1.75,2.34,3.61,4.59,2.36,2.86,4.91,5.58c1,1,1.93,2.05,2.93,3.05q4.13,4.13,8.63,7.84,2.25,1.86,4.59,3.61c.78.58,1.57,1.16,2.36,1.72,1.58,1.13,3.2,2.22,4.84,3.27h0q2.46,1.58,5,3c.85.49,1.71,1,2.57,1.44,1.72.93,3.46,1.83,5.23,2.68.89.43,1.78.84,2.68,1.25,2.44,1.1,4.93,2.13,7.46,3.07q4.55,1.71,9.28,3c1.73.49,3.48,1,5.25,1.36a121.38,121.38,0,0,0,28,3.25H346.94a121.57,121.57,0,0,0,117.33-89.9h0q1.46-5.35,2.4-10.89a122.25,122.25,0,0,0-2.4-52.29Zm-61.43,93.57a19.73,19.73,0,0,1-19.73,19.73H126.87a19.73,19.73,0,0,1-19.73-19.73v-124a19.74,19.74,0,0,1,19.73-19.73H195a14,14,0,0,1,13.8,11.5l5.14,28.11a14.5,14.5,0,0,0,14.26,11.9h53.64a14.51,14.51,0,0,0,14.27-11.9l5.14-28.11A14,14,0,0,1,315,141.18h68.1a19.73,19.73,0,0,1,19.73,19.73Z"/><path class="cls-7" d="M165.78,141.18a121.49,121.49,0,0,0,0,163.41H126.87a19.73,19.73,0,0,1-19.73-19.73v-124a19.74,19.74,0,0,1,19.73-19.73Z"/><path class="cls-8" d="M169.78,308.8c-1.36-1.37-2.7-2.77-4-4.21H126.87a19.73,19.73,0,0,1-19.73-19.73v-124a19.74,19.74,0,0,1,19.73-19.73h38.91a121.13,121.13,0,0,1,89.91-39.79H163.05A121.58,121.58,0,0,0,43.31,243.58q.94,5.55,2.4,10.9a120.05,120.05,0,0,0,5.39,15.7q1.15,2.73,2.43,5.38a121.43,121.43,0,0,0,12.16,20c1.16,1.56,2.37,3.09,3.61,4.59q2.36,2.86,4.91,5.58c1,1,1.93,2.05,2.93,3.05q4.13,4.13,8.63,7.84c1.5,1.24,3,2.45,4.59,3.61.78.58,1.57,1.16,2.36,1.72,1.58,1.13,3.2,2.22,4.84,3.27h0c1.64,1.05,3.3,2.06,5,3,.85.49,1.71,1,2.57,1.44q2.58,1.41,5.23,2.68c.89.43,1.78.84,2.68,1.25q3.66,1.67,7.46,3.07,4.55,1.71,9.28,3,2.61.75,5.25,1.36a121.38,121.38,0,0,0,28,3.25h92.64a121.29,121.29,0,0,1-85.91-35.58Z"/><rect class="cls-9" x="144.57" y="191.02" width="40.02" height="63.74" rx="20.01"/><rect class="cls-9" x="324.66" y="191.02" width="40.02" height="63.74" rx="20.01"/><ellipse class="cls-10" cx="386.17" cy="166.38" rx="7.23" ry="15.9"/><ellipse class="cls-10" cx="386.17" cy="204.81" rx="5.59" ry="12.3"/><circle class="cls-3" cx="170.23" cy="208.99" r="9.63"/><circle class="cls-3" cx="349.85" cy="208.99" r="9.63"/><path class="cls-11" d="M235.08,268.23a28.16,28.16,0,0,0,39.83,0"/><rect class="cls-12" x="231.89" y="344.38" width="46.21" height="20.33"/></g></svg>