<svg xmlns="http://www.w3.org/2000/svg" viewBox="0 0 512 512"><defs><style>.cls-1{fill:#f6c752;}.cls-2{fill:#d8ab48;}.cls-3{fill:none;stroke:#fff;stroke-linecap:round;stroke-linejoin:round;stroke-width:10px;}.cls-4{fill:#27273d;}.cls-5{fill:#934cf5;}.cls-6{fill:#cd88f8;}.cls-7{fill:#8045dd;}.cls-8{fill:#b87fe2;}.cls-9{fill:#b880e0;}.cls-10{fill:#3e436d;}.cls-11{fill:#e2c7f9;}.cls-12{fill:#32314b;}.cls-13{fill:#fff;}.cls-14{fill:#d2d1d3;}</style></defs><title>Robot Avatars</title><g id="BULINE"><circle class="cls-1" cx="256" cy="256" r="256"/></g><g id="Icons"><path class="cls-2" d="M484.77,371a256.27,256.27,0,0,1-325.2,122.21q-5.4-2.19-10.68-4.63a255.44,255.44,0,0,1-25.08-13.31l0,0A257.19,257.19,0,0,1,27.23,371a257,257,0,0,1,54.08-72.14q8.31-7.74,17.28-14.76c1.21-.94,2.43-1.88,3.66-2.8q5.4-4.07,11-7.85,4.31-2.9,8.76-5.63h0l1.55-.95h0a254.56,254.56,0,0,1,25-13.28h0q5.49-2.55,11.14-4.84l.29-.11c.41-.17.83-.34,1.24-.49,2.29-.93,4.6-1.81,6.92-2.66h0a252.53,252.53,0,0,1,27-8.19c1.64-.4,3.29-.79,4.95-1.15q8.85-2,17.93-3.33c.64-.1,1.29-.19,1.93-.27h0A258.19,258.19,0,0,1,288,232l2.31.29q9.78,1.31,19.32,3.35a251.31,251.31,0,0,1,34.85,10.08c1.35.5,2.7,1,4,1.54,4.3,1.65,8.55,3.44,12.74,5.33a254.42,254.42,0,0,1,27.83,14.7c.95.57,1.89,1.16,2.82,1.74q3.22,2,6.37,4.14,5.61,3.75,11,7.8c2,1.51,4,3,6,4.61q8,6.33,15.41,13.28A257,257,0,0,1,484.77,371Z"/><line class="cls-3" x1="254.84" y1="149.37" x2="254.84" y2="55.08"/><path class="cls-4" d="M375.3,379.72l-9.73,107.71a256.71,256.71,0,0,1-206,5.78q-5.4-2.19-10.68-4.63l-9.83-108.86a28.05,28.05,0,0,1,28.05-28.05H347.25A28.05,28.05,0,0,1,375.3,379.72Z"/><polyline class="cls-3" points="80.65 234.95 47.87 234.95 47.87 172.93"/><rect class="cls-5" x="95.63" y="139.86" width="323.1" height="190.17" rx="65.48"/><rect class="cls-6" x="119.18" y="160.9" width="276" height="148.1" rx="59.39"/><path class="cls-7" d="M226.72,330H161.11a65.48,65.48,0,0,1-65.48-65.48V205.34a65.48,65.48,0,0,1,65.48-65.48h65.61a65.48,65.48,0,0,0-65.21,59.54c-.18,1.95-.27,3.94-.27,5.94v59.22c0,2,.09,4,.27,5.94A65.48,65.48,0,0,0,226.72,330Z"/><path class="cls-8" d="M161.51,270.5A65.25,65.25,0,0,0,178.63,309h0a59.39,59.39,0,0,1-59.39-59.39V220.29a59.39,59.39,0,0,1,59.39-59.39h0a65.25,65.25,0,0,0-17.12,38.5c-.18,1.95-.27,3.94-.27,5.94v59.22C161.24,266.56,161.33,268.55,161.51,270.5Z"/><circle class="cls-6" cx="47.87" cy="155.32" r="21.71"/><path class="cls-9" d="M51.29,176.75a20.36,20.36,0,0,1-3.43.28,21.71,21.71,0,0,1,0-43.42,21.46,21.46,0,0,1,3.43.27,21.71,21.71,0,0,0,0,42.87Z"/><path class="cls-10" d="M85.1,215.52H95.63a0,0,0,0,1,0,0v38.85a0,0,0,0,1,0,0H85.1a19.43,19.43,0,0,1-19.43-19.43v0A19.43,19.43,0,0,1,85.1,215.52Z"/><circle class="cls-11" cx="56.19" cy="149.37" r="8.33"/><rect class="cls-12" x="85.1" y="215.52" width="10.53" height="38.85"/><polyline class="cls-3" points="432.6 234.95 464.63 234.95 464.63 174.36"/><circle class="cls-6" cx="464.63" cy="157.15" r="21.21"/><path class="cls-9" d="M467.66,178.09a20.56,20.56,0,0,1-3.35.27,21.21,21.21,0,0,1,0-42.42,20.56,20.56,0,0,1,3.35.27,21.21,21.21,0,0,0,0,41.88Z"/><path class="cls-10" d="M437.05,215.52h10.53a0,0,0,0,1,0,0v38.85a0,0,0,0,1,0,0H437.05a19.43,19.43,0,0,1-19.43-19.43v0A19.43,19.43,0,0,1,437.05,215.52Z" transform="translate(865.21 469.9) rotate(-180)"/><circle class="cls-11" cx="473.56" cy="151.34" r="8.13"/><circle class="cls-6" cx="255" cy="38.91" r="21.21"/><path class="cls-9" d="M258,59.85a19.47,19.47,0,0,1-3.34.27,21.21,21.21,0,0,1,0-42.42A20.53,20.53,0,0,1,258,18a21.21,21.21,0,0,0,0,41.88Z"/><circle class="cls-11" cx="263.93" cy="33.1" r="8.13"/><rect class="cls-12" x="417.63" y="215.52" width="10.53" height="38.85" transform="translate(845.78 469.9) rotate(-180)"/><path class="cls-13" d="M299.9,330a43.27,43.27,0,1,1-86.54,0Z"/><path class="cls-14" d="M299.9,330a43,43,0,0,1-1.64,11.8H215a43,43,0,0,1-1.63-11.8Z"/><rect class="cls-13" x="148.12" y="196.94" width="213.43" height="76.02" rx="23.97"/><path class="cls-14" d="M161.24,264.56c0,2,.09,4,.27,5.94A24,24,0,0,1,148.13,249V220.92a24,24,0,0,1,13.38-21.52c-.18,1.95-.27,3.94-.27,5.94Z"/><circle class="cls-4" cx="188.47" cy="234.95" r="31.58"/><circle class="cls-13" cx="199.64" cy="223.78" r="11.17"/><circle class="cls-4" cx="319.45" cy="234.95" r="31.58"/><circle class="cls-13" cx="330.63" cy="223.78" r="11.17"/><line class="cls-3" x1="221.88" y1="86.41" x2="289.71" y2="86.41"/><line class="cls-3" x1="232.9" y1="116.41" x2="276.78" y2="116.41"/></g></svg>