<svg xmlns="http://www.w3.org/2000/svg" viewBox="0 0 512 512"><defs><style>.cls-1{fill:#366fca;}.cls-2{fill:#3366af;}.cls-3{fill:#e88032;}.cls-4{fill:#a65c3b;}.cls-5{fill:#ef975b;}.cls-6{fill:#c16629;}.cls-7{fill:#fff;}.cls-8{fill:#e2e2e2;}.cls-9{fill:#27273d;}.cls-10{fill:#1b1b28;}</style></defs><title>Robot Avatars</title><g id="BULINE"><circle class="cls-1" cx="256" cy="256" r="256"/></g><g id="Icons"><path class="cls-2" d="M484.77,371a255.88,255.88,0,0,1-361,104.27l0,0A257.47,257.47,0,0,1,27.23,371a256.61,256.61,0,0,1,45.32-63.55q4.28-4.41,8.76-8.59,3.7-3.45,7.54-6.76c4-3.45,8.11-6.79,12.33-10,.35-.28.71-.55,1.07-.82,3.06-2.3,6.16-4.54,9.33-6.69.56-.4,1.12-.78,1.69-1.16q5.07-3.4,10.32-6.59h0c1.11-.67,2.23-1.34,3.35-2q4.94-2.89,10-5.57,11.06-5.82,22.74-10.57,4.18-1.69,8.45-3.26h0c2.37-.86,4.75-1.7,7.15-2.49q9.74-3.24,19.83-5.7c1.64-.4,3.29-.79,4.95-1.15,1.39-.31,2.78-.61,4.17-.89q6.81-1.41,13.76-2.44l2-.29a258.59,258.59,0,0,1,70.28-.22c1.42.19,2.84.39,4.25.61q7.6,1.14,15.07,2.74l.78.17h0q11.61,2.5,22.8,6.06,5.68,1.78,11.26,3.85,2.22.83,4.43,1.69A248.44,248.44,0,0,1,375,259.3q5.91,3.09,11.65,6.51l2.46,1.48q4.67,2.83,9.19,5.88,5.61,3.75,11,7.8c.87.65,1.73,1.3,2.59,2q6.33,4.86,12.35,10.11,3.27,2.85,6.44,5.81,5,4.69,9.79,9.66A256.6,256.6,0,0,1,484.77,371Z"/><path class="cls-3" d="M433,384.55V441a255.71,255.71,0,0,1-309.14,34.29l0,0a256.58,256.58,0,0,1-42-31.75V384.55a21.07,21.07,0,0,1,21.07-21.07H411.88A21.07,21.07,0,0,1,433,384.55Z"/><rect class="cls-3" x="26.02" y="116.77" width="462.64" height="207.98" rx="103.99"/><rect class="cls-4" x="89.42" y="182.64" width="335.82" height="76.66" rx="38.33"/><ellipse class="cls-5" cx="268" cy="135.47" rx="18.96" ry="8.62"/><ellipse class="cls-5" cx="313.83" cy="135.47" rx="14.67" ry="6.67"/><circle class="cls-6" cx="135.58" cy="220.76" r="85.28"/><circle class="cls-7" cx="135.58" cy="220.97" r="70.15"/><path class="cls-8" d="M146.18,290.33a70.16,70.16,0,1,1,0-138.71,70.16,70.16,0,0,0,0,138.71Z"/><circle class="cls-9" cx="136.22" cy="220.97" r="44.86"/><circle class="cls-6" cx="379" cy="220.76" r="85.28"/><circle class="cls-7" cx="379" cy="220.97" r="70.15"/><path class="cls-8" d="M389.6,290.33a70.16,70.16,0,1,1,0-138.71,70.17,70.17,0,0,0,0,138.71Z"/><circle class="cls-9" cx="385.17" cy="220.97" r="44.86"/><circle class="cls-7" cx="152.15" cy="203.52" r="10.6"/><circle class="cls-7" cx="400.2" cy="203.52" r="10.6"/><path class="cls-9" d="M171.21,324.75H343.46a0,0,0,0,1,0,0v35a22.5,22.5,0,0,1-22.5,22.5H193.71a22.5,22.5,0,0,1-22.5-22.5v-35A0,0,0,0,1,171.21,324.75Z"/><rect class="cls-10" x="171.21" y="324.75" width="172.26" height="18.19"/><rect class="cls-7" x="219.49" y="280.15" width="75.7" height="20.83" rx="10.42"/></g></svg>