<svg xmlns="http://www.w3.org/2000/svg" viewBox="0 0 512 512"><defs><style>.cls-1{fill:#fc4581;}.cls-2{fill:#e03b77;}.cls-14,.cls-3{fill:none;stroke-linecap:round;stroke-miterlimit:10;stroke-width:10px;}.cls-3{stroke:#fff;}.cls-4{fill:#a99bd4;}.cls-5{fill:#8c84af;}.cls-6{fill:#beb5e5;}.cls-7{fill:#4f4f74;}.cls-8{fill:#fff;}.cls-9{fill:#32314b;}.cls-10{fill:#ddd;}.cls-11{fill:#f6c752;}.cls-12{fill:#f7bb38;}.cls-13{fill:#f6d372;}.cls-14{stroke:#f6d372;}</style></defs><title>Robot Avatars</title><g id="BULINE"><circle class="cls-1" cx="256" cy="256" r="256"/></g><g id="Icons"><path class="cls-2" d="M484.77,371a257,257,0,0,1-84.38,96.42q-5.64,3.85-11.49,7.42a256.48,256.48,0,0,1-229.33,18.37q-9.8-4-19.18-8.75-8.49-4.31-16.58-9.19l0,0q-7.35-4.46-14.38-9.38A257,257,0,0,1,27.23,371,256.81,256.81,0,0,1,81,299.12l.27-.26a258.38,258.38,0,0,1,20.94-17.56q5.4-4.07,11-7.85,5.07-3.4,10.32-6.59h0q8.44-5.12,17.31-9.59,6.6-3.33,13.44-6.29,2.66-1.15,5.36-2.25,4.18-1.69,8.45-3.26h0a252.53,252.53,0,0,1,27-8.19c1.64-.4,3.29-.79,4.95-1.15q1.2-.27,2.4-.51Q210.18,234,218,232.8l1.36-.19a258.17,258.17,0,0,1,70.25-.41l.69.09c5.92.79,11.79,1.79,17.57,3l1.75.37a251.31,251.31,0,0,1,34.85,10.08q6.51,2.4,12.84,5.14,6.5,2.77,12.78,5.94,9.74,4.84,19,10.49,4.67,2.83,9.19,5.88,5.61,3.75,11,7.8a257.59,257.59,0,0,1,21.38,17.89l.27.26A256.81,256.81,0,0,1,484.77,371Z"/><line class="cls-3" x1="254.89" y1="180.21" x2="254.89" y2="78.62"/><path class="cls-4" d="M446.39,231.87V288a11.08,11.08,0,0,1-11.08,11.08H74.47A11.08,11.08,0,0,1,63.39,288V231.87a40.4,40.4,0,0,1,40.42-40.41H406A40.42,40.42,0,0,1,446.39,231.87Z"/><path class="cls-5" d="M236.79,191.46A76.3,76.3,0,0,1,85.57,195.8a40.2,40.2,0,0,1,18.24-4.34Z"/><ellipse class="cls-6" cx="430.29" cy="244.25" rx="6.5" ry="14.3"/><ellipse class="cls-6" cx="430.29" cy="278.82" rx="5.03" ry="11.07"/><circle class="cls-7" cx="161.89" cy="191.45" r="60"/><circle class="cls-8" cx="161.89" cy="191.45" r="39.17"/><path class="cls-5" d="M272.57,191.46a76.3,76.3,0,0,0,151.22,4.34,40.2,40.2,0,0,0-18.24-4.34Z"/><circle class="cls-7" cx="348.89" cy="191.45" r="60"/><circle class="cls-8" cx="348.89" cy="191.45" r="39.17"/><rect class="cls-9" x="213.89" y="258.37" width="82" height="22.5" rx="11.25"/><rect class="cls-9" x="229.55" y="168.96" width="50.67" height="22.5" rx="8.84"/><rect class="cls-8" x="163.39" y="299.12" width="183" height="53.17"/><rect class="cls-10" x="163.39" y="299.12" width="183" height="21.67"/><path class="cls-4" d="M400.39,388.54v78.88q-5.64,3.85-11.49,7.42a256.48,256.48,0,0,1-229.33,18.37q-9.8-4-19.18-8.75-8.49-4.31-16.58-9.19l0,0q-7.35-4.46-14.38-9.38V388.54a36.25,36.25,0,0,1,36.25-36.25h218.5c.47,0,.93,0,1.39,0h.08l1.05.06c.43,0,.86.06,1.29.11l.68.08a35.56,35.56,0,0,1,4.77.91l.66.19c.58.16,1.15.34,1.71.53l.83.29c.28.1.56.2.83.32s.55.22.82.33l.81.35c.53.25,1.06.5,1.58.77l.78.41c.78.42,1.53.86,2.26,1.33l1,.67a36.13,36.13,0,0,1,7.05,6.36c.23.27.47.55.69.84s.51.65.77,1,.55.76.82,1.15.49.73.73,1.11.47.75.7,1.14l.57,1c.28.52.54,1,.8,1.57.16.33.31.66.46,1s.35.82.52,1.24A36,36,0,0,1,400.39,388.54Z"/><path class="cls-5" d="M397.79,375.06c-.88-.07-1.76-.1-2.65-.1H176.64a36.25,36.25,0,0,0-36.25,36.25v73.25q-8.49-4.31-16.58-9.19l0,0q-7.35-4.46-14.38-9.38V388.54a36.25,36.25,0,0,1,36.25-36.25h218.5c.47,0,.93,0,1.39,0h.08l1.05.06c.43,0,.86.06,1.29.11l.68.08a35.56,35.56,0,0,1,4.77.91l.66.19c.58.16,1.15.34,1.71.53l.83.29c.28.1.56.2.83.32s.55.22.82.33l.81.35c.53.24,1.06.5,1.58.77l.78.41c.78.42,1.53.86,2.26,1.33l1,.67a36.13,36.13,0,0,1,7.05,6.36c.23.27.47.55.69.84s.51.65.77,1,.55.76.82,1.15.49.73.73,1.11.47.75.7,1.14l.57,1c.28.52.54,1,.8,1.57.16.33.31.66.46,1S397.62,374.64,397.79,375.06Z"/><circle class="cls-11" cx="254.89" cy="64.29" r="29"/><path class="cls-12" d="M260.23,92.79a28.52,28.52,0,0,1-5.34.5,29,29,0,1,1,0-58,28.52,28.52,0,0,1,5.34.5,29,29,0,0,0,0,57Z"/><circle class="cls-13" cx="265.89" cy="61.62" r="11"/><path class="cls-14" d="M205.25,51.85a17.59,17.59,0,0,0,0,24.88"/><path class="cls-14" d="M180.71,43.32a29.65,29.65,0,0,0,0,41.93"/><path class="cls-14" d="M155.58,35a41.36,41.36,0,0,0,0,58.49"/><path class="cls-14" d="M306.41,76.73a17.59,17.59,0,0,0,0-24.88"/><path class="cls-14" d="M331,85.25a29.65,29.65,0,0,0,0-41.93"/><path class="cls-14" d="M356.09,93.53a41.36,41.36,0,0,0,0-58.49"/></g></svg>