<svg xmlns="http://www.w3.org/2000/svg" viewBox="0 0 512 512"><defs><style>.cls-1{fill:#f6c752;}.cls-2{fill:#d8ab48;}.cls-3{fill:#d8d8d8;}.cls-4{fill:#fa3268;}.cls-5{fill:#fff;}.cls-6{fill:#d82e62;}.cls-7{fill:#fc4581;}.cls-8{fill:#27273d;}.cls-9{fill:#b0d46c;}.cls-10{fill:#f970a2;}</style></defs><title>Robot Avatars</title><g id="BULINE"><circle class="cls-1" cx="256" cy="256" r="256"/></g><g id="Icons"><path class="cls-2" d="M484.77,371a255.88,255.88,0,0,1-361,104.27l0,0A257.18,257.18,0,0,1,27.23,371a256.72,256.72,0,0,1,51.45-69.64c.87-.84,1.75-1.67,2.63-2.5a258.38,258.38,0,0,1,20.94-17.56q5.4-4.07,11-7.85,5.07-3.4,10.32-6.59h0a253.08,253.08,0,0,1,27.5-14.44c1.06-.48,2.12-.95,3.19-1.41q2.69-1.17,5.42-2.28,4.18-1.69,8.45-3.26h0c.67-.25,1.34-.49,2-.72a249.37,249.37,0,0,1,25-7.47l1.38-.33c1.18-.29,2.37-.56,3.57-.82q8.85-2,17.93-3.33a258.67,258.67,0,0,1,72.3-.51q9.78,1.31,19.32,3.35,2.91.62,5.79,1.31,11.56,2.73,22.71,6.54c1.16.37,2.31.77,3.46,1.19l2.89,1c3.37,1.24,6.72,2.55,10,3.94a254.4,254.4,0,0,1,34.59,17.63q4.67,2.83,9.19,5.88,5.61,3.75,11,7.8a257.59,257.59,0,0,1,21.38,17.89l2,1.89A256.87,256.87,0,0,1,484.77,371Z"/><path class="cls-3" d="M443,430.86a255.73,255.73,0,0,1-319.15,44.41l0,0a257.28,257.28,0,0,1-55.44-45.14c8.07-15.61,20.8-29.86,37.15-42.09,16.64-12.45,37-22.8,60-30.34,6.94-2.29,14.13-4.31,21.52-6.06q8.33-2,17-3.45a307.81,307.81,0,0,1,100.91-.33,269.73,269.73,0,0,1,40.46,9.84C391.38,372.75,426.85,399,443,430.86Z"/><path class="cls-4" d="M71,230.07V265c0,8.38-5.3,15.57-12.61,17.09l-13.67,2.85c-11.65,2.42-22.39-7.67-22.39-21V231.17c0-13.37,10.74-23.46,22.39-21L58.39,213C65.7,214.5,71,221.69,71,230.07Z"/><path class="cls-4" d="M441,265V230.07c0-8.38,5.3-15.57,12.61-17.09l13.67-2.84c11.65-2.43,22.39,7.66,22.39,21v32.69c0,13.36-10.74,23.45-22.39,21L453.61,282C446.3,280.52,441,273.33,441,265Z"/><path class="cls-4" d="M224.87,340.59h59.6c14.32,0,26.61,9.07,29.2,21.55l4.87,23.36c4.14,19.91-13.1,38.26-35.94,38.26H226.73c-22.83,0-40.08-18.35-35.93-38.26l4.86-23.36C198.26,349.66,210.54,340.59,224.87,340.59Z"/><path class="cls-5" d="M452.45,245.85c0,69.4-88.2,125.66-197,125.66s-197-56.26-197-125.66c0-31.1,17.7-59.55,47-81.49C127.14,148.15,155.14,135.5,187,128a298.56,298.56,0,0,1,68.41-7.78C364.25,120.18,452.45,176.44,452.45,245.85Z"/><path class="cls-6" d="M319.05,389.15a305.58,305.58,0,0,1-128.76-.34,29.25,29.25,0,0,1,.5-3.3l4.17-20a300.75,300.75,0,0,0,60.48,6,301.68,301.68,0,0,0,59-5.73l4.1,19.73A27.27,27.27,0,0,1,319.05,389.15Z"/><path class="cls-3" d="M364.82,186.53l-9.93,35.78c-5.3,19.11-30.37,33-59.61,33H173.61c-29.24,0-54.31-13.87-59.61-33l-9.93-35.78a33.42,33.42,0,0,1,1.41-22.17C127.14,148.15,155.14,135.5,187,128H291.46C338.08,128,373.28,156.06,364.82,186.53Z"/><path class="cls-4" d="M316.27,237H194.61c-29.24,0-54.31-13.87-59.62-33l-9.92-35.78c-8.46-30.47,26.74-58.57,73.36-58.57h114c46.62,0,81.81,28.1,73.36,58.57L375.89,204C370.59,223.08,345.51,237,316.27,237Z"/><path class="cls-7" d="M301.07,191.62H209.81c-21.93,0-40.73-13.87-44.71-33l-7.45-35.78c-6.34-30.47,20.06-58.57,55-58.57h85.53c35,0,61.36,28.1,55,58.57l-7.44,35.78C341.81,177.75,323,191.62,301.07,191.62Z"/><rect class="cls-8" x="149.17" y="244.68" width="39" height="51" rx="19.5"/><rect class="cls-8" x="322" y="244.68" width="39" height="51" rx="19.5"/><path class="cls-8" d="M319,322.32c0,.52,0,1,0,1.55a21.52,21.52,0,0,1-21.48,20H213.38A21.54,21.54,0,0,1,191.91,324c0-.55-.06-1.1-.06-1.66s0-1.12.06-1.67a21.55,21.55,0,0,1,21.47-19.87H297.5A21.55,21.55,0,0,1,319,320.54C319,321.13,319,321.72,319,322.32Z"/><path class="cls-9" d="M319,322.32c0,.52,0,1,0,1.55h-4.16L313,330.32a1.66,1.66,0,0,1-3.19,0l-4.21-14.58-2.41,7a1.68,1.68,0,0,1-1.58,1.12h-7.19a1.69,1.69,0,0,1-1.37-.72l-5.76-8.38-4.38,8.32a1.64,1.64,0,0,1-1.47.89h-4.17l-3.59,9.47a1.67,1.67,0,0,1-1.45,1.07,1.66,1.66,0,0,1-1.58-.88l-5.19-9.77h-4a1.67,1.67,0,0,1-1.38-.74l-3.9-5.85-3.62,5.81a1.67,1.67,0,0,1-1.42.78h-5.34l-3.69,15.37a1.67,1.67,0,0,1-1.62,1.28h0a1.67,1.67,0,0,1-1.6-1.33l-5.75-27.38-3.65,10.6a1.65,1.65,0,0,1-1.57,1.13h-6.33l-3.4,7a1.7,1.7,0,0,1-1.49.94,1.64,1.64,0,0,1-1.5-.92l-3.74-7.43-4.7-6.61-5.93,6.83a1.67,1.67,0,0,1-1.26.58h-7.6c0-.55-.06-1.1-.06-1.66s0-1.12.06-1.67h6.84l6.83-7.86a1.66,1.66,0,0,1,2.61.13l6,8.43a1.55,1.55,0,0,1,.12.22l2.29,4.53,2.39-5a1.65,1.65,0,0,1,1.49-.94h6.19L231.9,305a1.66,1.66,0,0,1,3.2.2l5.47,26,2.27-9.45a1.66,1.66,0,0,1,1.62-1.28h5.73l4.51-7.21a1.66,1.66,0,0,1,2.79,0l4.84,7.25h4.1a1.67,1.67,0,0,1,1.47.89l3.94,7.4,2.69-7.11a1.66,1.66,0,0,1,1.55-1.07h4.33l5.19-9.87a1.66,1.66,0,0,1,2.84-.17l6.83,9.93h5.12l3.75-10.87a1.68,1.68,0,0,1,1.57-1.12h0a1.67,1.67,0,0,1,1.56,1.21l4.06,14.07.6-2.09a1.66,1.66,0,0,1,1.59-1.2H319C319,321.13,319,321.72,319,322.32Z"/><ellipse class="cls-10" cx="322" cy="104.51" rx="6.5" ry="14.3"/><ellipse class="cls-10" cx="322" cy="139.08" rx="5.03" ry="11.07"/></g></svg>