<svg xmlns="http://www.w3.org/2000/svg" viewBox="0 0 512 512"><defs><style>.cls-1{fill:#e88032;}.cls-2{fill:#cc6e2e;}.cls-3{fill:#e2e2e2;}.cls-4{fill:#3586cb;}.cls-5{fill:#366fca;}.cls-6{fill:#fff;}.cls-7{fill:#32314b;}.cls-8{fill:#27273d;}.cls-9{fill:#3e436d;}.cls-10{fill:#b0d46c;}.cls-11{fill:#db1b1b;}</style></defs><title>Robot Avatars</title><g id="BULINE"><circle class="cls-1" cx="256" cy="256" r="256"/></g><g id="Icons"><path class="cls-2" d="M484.77,371a255.88,255.88,0,0,1-361,104.27l0,0A257.56,257.56,0,0,1,27.23,371a256.38,256.38,0,0,1,38.15-55.87q1.78-2,3.65-4,5.91-6.36,12.28-12.29a258.38,258.38,0,0,1,20.94-17.56q5.4-4.07,11-7.85,5.07-3.4,10.32-6.59h0q5.28-3.19,10.72-6.15a253.83,253.83,0,0,1,25.39-12q4.18-1.69,8.45-3.26h0a252.53,252.53,0,0,1,27-8.19c1.64-.4,3.29-.79,4.95-1.15q8.85-2,17.93-3.33a258.67,258.67,0,0,1,72.3-.51q9.78,1.31,19.32,3.35a251.31,251.31,0,0,1,34.85,10.08,254.65,254.65,0,0,1,44.61,21.57q4.67,2.83,9.19,5.88,5.61,3.75,11,7.8a257.59,257.59,0,0,1,21.38,17.89q8.22,7.67,15.73,16c1.67,1.86,3.32,3.74,4.92,5.65A255.38,255.38,0,0,1,484.77,371Z"/><path class="cls-3" d="M423.18,449.87a255.71,255.71,0,0,1-299.37,25.4l0,0A255.67,255.67,0,0,1,92.54,453a74.67,74.67,0,0,1,65.28-38.39H359.74A74.67,74.67,0,0,1,423.18,449.87Z"/><circle class="cls-4" cx="70.95" cy="212.3" r="50.73"/><path class="cls-5" d="M121.68,213.56a50.73,50.73,0,0,1-101.45,0,49.8,49.8,0,0,1,1-9.83,50.72,50.72,0,0,0,99.53,0A50.57,50.57,0,0,1,121.68,213.56Z"/><circle class="cls-4" cx="441.13" cy="212.3" r="50.73"/><path class="cls-5" d="M491.85,213.56a50.73,50.73,0,1,1-100.49-9.83,50.73,50.73,0,0,0,99.54,0A50.57,50.57,0,0,1,491.85,213.56Z"/><circle class="cls-4" cx="258.78" cy="421.32" r="65.69"/><path class="cls-5" d="M324.48,423a65.7,65.7,0,1,1-130.15-12.73,65.69,65.69,0,0,0,128.9,0A65.19,65.19,0,0,1,324.48,423Z"/><path class="cls-6" d="M452.7,309.94a100.84,100.84,0,0,1-100.54,93.27H165.4A100.83,100.83,0,0,1,64.7,307.36a102.11,102.11,0,0,1,.48-15.78L83.26,124.11a74.7,74.7,0,0,1,74.56-70.27H359.74a74.69,74.69,0,0,1,74.56,70.27l18.08,167.47A100,100,0,0,1,452.7,309.94Z"/><path class="cls-3" d="M231.21,403.21H165.4A100.83,100.83,0,0,1,64.7,307.36a102.11,102.11,0,0,1,.48-15.78L83.26,124.11a74.7,74.7,0,0,1,74.56-70.27h65.81a74.69,74.69,0,0,0-74.56,70.27L131,291.58a100.88,100.88,0,0,0-.48,15.78A99.7,99.7,0,0,0,137,338.24,100.82,100.82,0,0,0,231.21,403.21Z"/><path class="cls-7" d="M452.7,309.94c-20.79,17.84-51.91,29.29-87.06,29.29h-211c-36.83,0-69.24-12.58-90-31.87a102.11,102.11,0,0,1,.48-15.78L83.26,124.11a74.7,74.7,0,0,1,74.56-70.27H359.74a74.69,74.69,0,0,1,74.56,70.27l18.08,167.47A100,100,0,0,1,452.7,309.94Z"/><path class="cls-8" d="M223.63,53.84a74.69,74.69,0,0,0-74.56,70.27L131,291.58a100.88,100.88,0,0,0-.48,15.78A99.7,99.7,0,0,0,137,338.24C107.53,334.92,82,323.49,64.7,307.36a102.11,102.11,0,0,1,.48-15.78L83.26,124.11a74.7,74.7,0,0,1,74.56-70.27Z"/><ellipse class="cls-9" cx="375.37" cy="95.78" rx="8.91" ry="19.61" transform="translate(42.22 293.48) rotate(-45)"/><ellipse class="cls-9" cx="408.88" cy="129.29" rx="6.9" ry="15.18" transform="translate(28.34 326.99) rotate(-45)"/><path class="cls-10" d="M410.09,184.92c0,1.24,0,2.47-.13,3.69h-9.88L395.67,204a4,4,0,0,1-7.6,0l-10-34.69L372.32,186a4,4,0,0,1-3.76,2.66H351.47a4,4,0,0,1-3.27-1.71l-13.7-20-10.43,19.81a3.94,3.94,0,0,1-3.5,2.12h-9.93l-8.54,22.53a4,4,0,0,1-7.21.45l-12.34-23.25H273a3.93,3.93,0,0,1-3.29-1.76l-9.27-13.91-8.64,13.82a4,4,0,0,1-3.36,1.85H235.76L227,225.18a4,4,0,0,1-3.85,3h-.06a4,4,0,0,1-3.82-3.15l-13.67-65.15-8.68,25.22a4,4,0,0,1-3.74,2.68H178.09L170,204.6a4,4,0,0,1-3.53,2.23,3.84,3.84,0,0,1-3.56-2.18L154,187l-11.17-15.71L128.69,187.5a4,4,0,0,1-3,1.38H107.62c-.1-1.31-.14-2.63-.14-4s0-2.66.14-4h16.27l16.24-18.71a3.92,3.92,0,0,1,3.18-1.36,4,4,0,0,1,3.05,1.66l14.25,20.07a3,3,0,0,1,.31.51l5.43,10.79L172,182.13a4,4,0,0,1,3.56-2.23h14.72l12.44-36.14a4,4,0,0,1,7.62.47l13,62,5.4-22.48a4,4,0,0,1,3.85-3h13.64L257,163.53a4,4,0,0,1,3.29-1.85,4.06,4.06,0,0,1,3.36,1.76l11.5,17.25h9.76a4,4,0,0,1,3.51,2.11l9.36,17.62,6.4-16.91A4,4,0,0,1,307.9,181h10.28l12.36-23.5a3.95,3.95,0,0,1,6.76-.41l16.26,23.64h12.18l8.92-25.86a4,4,0,0,1,3.74-2.66h.1a4,4,0,0,1,3.7,2.87l9.65,33.48,1.43-5a4,4,0,0,1,3.8-2.87h12.83Q410.09,182.78,410.09,184.92Z"/><path class="cls-11" d="M214.8,257.66h88a7.43,7.43,0,0,1,7.43,7.43v0a51.41,51.41,0,0,1-51.41,51.41h0a51.41,51.41,0,0,1-51.41-51.41v0a7.43,7.43,0,0,1,7.43-7.43Z"/></g></svg>