<svg xmlns="http://www.w3.org/2000/svg" viewBox="0 0 512 512"><defs><style>.cls-1{fill:#4acc97;}.cls-2{fill:#46b786;}.cls-3{fill:#32314b;}.cls-4{fill:none;stroke:#32314b;stroke-linecap:round;stroke-miterlimit:10;stroke-width:10px;}.cls-5{fill:#9188b7;}.cls-6{fill:#a99bd4;}.cls-7{fill:#7e789e;}.cls-8{fill:#c4bbea;}.cls-9{fill:#6a6789;}.cls-10{fill:#db1b1b;}.cls-11{fill:#fff;}</style></defs><title>Robot Avatars</title><g id="BULINE"><circle class="cls-1" cx="256" cy="256" r="256"/></g><g id="Icons"><path class="cls-2" d="M484.77,371A257.06,257.06,0,0,1,388.9,474.84a255.71,255.71,0,0,1-265.09.43l0,0A257.19,257.19,0,0,1,27.23,371a256,256,0,0,1,33.7-50.77q1.91-2.26,3.88-4.47l.16-.18q7.78-8.73,16.34-16.72t17.74-15.12c1.06-.82,2.13-1.63,3.2-2.44q5.4-4.07,11-7.85l1.52-1c2.89-1.91,5.82-3.78,8.8-5.58h0l.74-.44a253.8,253.8,0,0,1,35.37-17.69q4.18-1.69,8.45-3.26h0q7-2.58,14.27-4.74,6.28-1.89,12.71-3.45c1.64-.4,3.29-.79,4.95-1.15l1.11-.24q8.31-1.83,16.82-3.09a258.67,258.67,0,0,1,72.3-.51q9.78,1.31,19.32,3.35c1,.21,2,.42,2.93.65q9.46,2.11,18.66,5c4.47,1.37,8.9,2.87,13.26,4.48a254.65,254.65,0,0,1,44.61,21.57q4.67,2.83,9.19,5.88l.52.35q5.34,3.59,10.49,7.45,2.56,1.92,5.09,3.92,5.12,4,10,8.3,3.19,2.79,6.28,5.67t6.15,5.93q6.3,6.3,12.17,13c.7.79,1.39,1.59,2.06,2.4A256,256,0,0,1,484.77,371Z"/><path class="cls-3" d="M329.9,456.68a72.6,72.6,0,0,1-19.37,49.49,258.13,258.13,0,0,1-106.59.53,72.92,72.92,0,1,1,126-50Z"/><line class="cls-4" x1="256.99" y1="126.15" x2="256.99" y2="65.35"/><path class="cls-5" d="M200.86,105.43H313.13a24.28,24.28,0,0,1,24.28,24.28v17.15a0,0,0,0,1,0,0H176.57a0,0,0,0,1,0,0V129.72A24.28,24.28,0,0,1,200.86,105.43Z"/><rect class="cls-6" x="64.97" y="146.08" width="384.04" height="256.23" rx="34.48"/><path class="cls-5" d="M158.83,402.31H99.3a34.49,34.49,0,0,1-34.49-34.48V180.57A34.49,34.49,0,0,1,99.3,146.08h59.53a34.49,34.49,0,0,0-34.49,34.49V367.83A34.49,34.49,0,0,0,158.83,402.31Z"/><path class="cls-5" d="M439.89,250.78h59.67a18.9,18.9,0,0,1,18.9,18.9v22.52a0,0,0,0,1,0,0H421a0,0,0,0,1,0,0V269.68a18.9,18.9,0,0,1,18.9-18.9Z" transform="translate(741.22 -198.24) rotate(90)"/><path class="cls-7" d="M14.42,250.78H74.09A18.9,18.9,0,0,1,93,269.68v22.52a0,0,0,0,1,0,0H-4.48a0,0,0,0,1,0,0V269.68a18.9,18.9,0,0,1,18.9-18.9Z" transform="translate(-227.24 315.75) rotate(-90)"/><path class="cls-8" d="M325.4,425.63H185.45a20.37,20.37,0,0,1-20.37-20.37l-5.22-60.05c0-.4,0-.8,0-1.2.74-12.76,13.74-21.2,25.92-17.31q69.62,22.23,139.21,0c12.18-3.89,25.18,4.55,25.92,17.31,0,.4,0,.8,0,1.2l-5.22,60.05A20.37,20.37,0,0,1,325.4,425.63Z"/><rect class="cls-9" x="50.98" y="222.75" width="13.99" height="97.48"/><ellipse class="cls-8" cx="430.32" cy="300.56" rx="6.79" ry="14.94"/><ellipse class="cls-8" cx="430.32" cy="336.67" rx="5.25" ry="11.56"/><circle class="cls-10" cx="255.43" cy="51.43" r="30.81"/><circle class="cls-5" cx="155.68" cy="172.46" r="15.32"/><circle class="cls-5" cx="222.18" cy="172.46" r="15.32"/><circle class="cls-5" cx="288.67" cy="172.46" r="15.32"/><circle class="cls-5" cx="355.17" cy="172.46" r="15.32"/><rect class="cls-5" x="64.81" y="192.6" width="384.2" height="17.23"/><circle class="cls-3" cx="150.46" cy="260.53" r="56.4"/><circle class="cls-11" cx="150.46" cy="260.53" r="37.6"/><circle class="cls-3" cx="363.52" cy="260.53" r="56.4"/><circle class="cls-11" cx="363.52" cy="260.53" r="37.6"/></g></svg>