<svg xmlns="http://www.w3.org/2000/svg" viewBox="0 0 512 512"><defs><style>.cls-1{fill:#f58d89;}.cls-2{fill:#ef7070;}.cls-3{fill:#9e4830;}.cls-4{fill:#823c2b;}.cls-5{fill:#fa3268;}.cls-6{fill:#a65c3b;}.cls-7{fill:#fff;}.cls-8{fill:#32314b;}.cls-9{fill:#c67e61;}</style></defs><title>Robot Avatars</title><g id="BULINE"><circle class="cls-1" cx="256" cy="256" r="256"/></g><g id="Icons"><path class="cls-2" d="M484.77,371A256.25,256.25,0,0,1,160,493.38l-.43-.17a254.75,254.75,0,0,1-35.76-17.94l0,0A257.19,257.19,0,0,1,27.23,371a256.81,256.81,0,0,1,75-89.7q5.4-4.07,11-7.85,5.07-3.4,10.32-6.59h0q6.57-4,13.4-7.57,8.87-4.68,18.14-8.65c1.51-.65,3-1.29,4.57-1.91,2-.8,4-1.58,6-2.32.83-.33,1.66-.64,2.49-.94h0l.93-.33a250.29,250.29,0,0,1,26.05-7.86c1.64-.4,3.29-.79,4.95-1.15q8.85-2,17.93-3.33l1-.14q5.59-.82,11.26-1.38A256.63,256.63,0,0,1,256,230q12.75,0,25.2,1.24,4.59.44,9.13,1c.71.1,1.43.19,2.14.3,5.79.82,11.53,1.84,17.18,3a251.31,251.31,0,0,1,34.85,10.08l1.39.52q5.33,2,10.53,4.22,9.49,4,18.58,8.84,7.19,3.76,14.11,8,4.67,2.83,9.19,5.88,5.61,3.75,11,7.8a256.81,256.81,0,0,1,75.46,90Z"/><rect class="cls-3" x="92.75" y="207.58" width="49.5" height="14.5"/><rect class="cls-4" x="120.5" y="207.58" width="16.5" height="14.5"/><circle class="cls-5" cx="83.25" cy="214.83" r="15.5"/><rect class="cls-3" x="55.25" y="175.83" width="87" height="14.5"/><path class="cls-3" d="M149.38,150.83H362.62A12.38,12.38,0,0,1,375,163.21V293.33a0,0,0,0,1,0,0H137a0,0,0,0,1,0,0V163.21A12.38,12.38,0,0,1,149.38,150.83Z"/><path class="cls-4" d="M375,270.58v22.75H137V163.2a12.37,12.37,0,0,1,12.38-12.37h11.55v65.72a54,54,0,0,0,54,54Z"/><path class="cls-6" d="M107.58,286.17H404.42a9.08,9.08,0,0,1,9.08,9.08v33.17a44.08,44.08,0,0,1-44.08,44.08H142.58A44.08,44.08,0,0,1,98.5,328.42V295.25A9.08,9.08,0,0,1,107.58,286.17Z"/><circle class="cls-7" cx="191.75" cy="237.17" r="39"/><circle class="cls-8" cx="191.75" cy="237.17" r="27.67"/><circle class="cls-7" cx="319.75" cy="237.17" r="39"/><circle class="cls-8" cx="319.75" cy="237.17" r="27.67"/><rect class="cls-9" x="120.5" y="327.17" width="28.5" height="28.5" rx="6.04"/><rect class="cls-9" x="160" y="327.17" width="28.5" height="28.5" rx="6.04"/><rect class="cls-9" x="199.5" y="327.17" width="28.5" height="28.5" rx="6.04"/><rect class="cls-9" x="239" y="327.17" width="28.5" height="28.5" rx="6.04"/><rect class="cls-9" x="278.5" y="327.17" width="28.5" height="28.5" rx="6.04"/><rect class="cls-9" x="318" y="327.17" width="28.5" height="28.5" rx="6.04"/><rect class="cls-9" x="357.5" y="327.17" width="28.5" height="28.5" rx="6.04"/><rect class="cls-9" x="98.5" y="298.83" width="315" height="16"/><rect class="cls-4" x="120.5" y="175.83" width="16.5" height="14.5"/><circle class="cls-5" cx="48.25" cy="183.08" r="15.5"/><rect class="cls-3" x="370.75" y="175.83" width="87" height="14.5" transform="translate(828.5 366.17) rotate(-180)"/><rect class="cls-4" x="376" y="175.83" width="16.5" height="14.5" transform="translate(768.5 366.17) rotate(-180)"/><rect class="cls-3" x="370.75" y="207.58" width="49.5" height="14.5" transform="translate(791 429.67) rotate(-180)"/><rect class="cls-4" x="376" y="207.58" width="16.5" height="14.5" transform="translate(768.5 429.67) rotate(-180)"/><circle class="cls-5" cx="464.75" cy="183.08" r="15.5"/><circle class="cls-5" cx="429.75" cy="214.83" r="15.5"/><path class="cls-3" d="M281.25,127H261V106.17a5,5,0,0,0-5-5H233v-19h23a5,5,0,0,0,5-5v-11h20.25a5,5,0,0,0,0-10H261V37.33a5,5,0,1,0-10,0V56.17H230.75a5,5,0,0,0,0,10H251v6H228a5,5,0,0,0-5,5v29a5,5,0,0,0,5,5h23V127H230.75a5,5,0,0,0,0,10H251v13.83a5,5,0,1,0,10,0V137h20.25a5,5,0,0,0,0-10Z"/><ellipse class="cls-6" cx="316.58" cy="167.58" rx="14.3" ry="6.5"/><ellipse class="cls-6" cx="351.15" cy="167.58" rx="11.07" ry="5.03"/><rect class="cls-3" x="206.96" y="372.5" width="92.58" height="33.83"/><path class="cls-6" d="M346.5,428.83v66.71A256.9,256.9,0,0,1,160,493.38V428.83a22.25,22.25,0,0,1,22.25-22.25h142A22.25,22.25,0,0,1,346.5,428.83Z"/><rect class="cls-4" x="206.96" y="372.5" width="92.58" height="15.67"/><circle class="cls-5" cx="256" cy="33.17" r="15.5"/></g></svg>