<svg xmlns="http://www.w3.org/2000/svg" viewBox="0 0 512 512"><defs><style>.cls-1{fill:#fc4581;}.cls-2{fill:#e03674;}.cls-3{fill:#4f4f74;}.cls-4{fill:#3e436d;}.cls-5{fill:#7cc8fb;}.cls-6{fill:#41c0e3;}.cls-7{fill:#32314b;}.cls-8{fill:#27273d;}.cls-9{fill:#db1b1b;}.cls-10{fill:#b0d46c;}.cls-11{fill:#acdffc;}.cls-12{fill:#fff;}</style></defs><title>Robot Avatars</title><g id="BULINE"><circle class="cls-1" cx="256" cy="256" r="256"/></g><g id="Icons"><path class="cls-2" d="M484.77,371a255.88,255.88,0,0,1-361,104.27l0,0A257.65,257.65,0,0,1,27.23,371a256.61,256.61,0,0,1,41.43-59.46q1.44-1.56,2.92-3.09c.29-.31.59-.62.89-.92q4.31-4.44,8.84-8.67a258.38,258.38,0,0,1,20.94-17.56q5.4-4.07,11-7.85,3.11-2.08,6.27-4.08l.3-.19c1.24-.78,2.49-1.56,3.75-2.32h0q4.94-3,10-5.75h0q7.21-3.93,14.7-7.41,5.63-2.61,11.4-5,4.18-1.69,8.45-3.26h0a252.53,252.53,0,0,1,27-8.19c1.64-.4,3.29-.79,4.95-1.15q8.85-2,17.93-3.33a258.67,258.67,0,0,1,72.3-.51q9.78,1.31,19.32,3.35a251.31,251.31,0,0,1,34.85,10.08,254,254,0,0,1,31.33,14q5.37,2.85,10.58,5.93l.23.14c.83.49,1.65,1,2.47,1.49q4.67,2.83,9.19,5.88,5.61,3.75,11,7.8a257.59,257.59,0,0,1,21.38,17.89q4.67,4.35,9.09,8.93l.42.43.4.41A256.74,256.74,0,0,1,484.77,371Z"/><circle class="cls-3" cx="66.98" cy="253.5" r="55.13"/><path class="cls-4" d="M122.12,252.67A55.14,55.14,0,1,1,13.68,238.55a55.15,55.15,0,0,0,106.61,0A55.27,55.27,0,0,1,122.12,252.67Z"/><circle class="cls-3" cx="440.19" cy="253.5" r="55.13"/><path class="cls-4" d="M495.33,252.67a55.14,55.14,0,1,1-108.44-14.12,55.15,55.15,0,0,0,106.61,0A55.27,55.27,0,0,1,495.33,252.67Z"/><path class="cls-5" d="M254.43,33.17h0A185.77,185.77,0,0,1,440.2,218.94V354a32.37,32.37,0,0,1-32.37,32.37H101A32.37,32.37,0,0,1,68.66,354v-135A185.77,185.77,0,0,1,254.43,33.17Z"/><path class="cls-6" d="M294.25,37.45A185.86,185.86,0,0,0,148.31,218.94V354a32.37,32.37,0,0,0,32.37,32.38H101A32.38,32.38,0,0,1,68.66,354v-135c0-102.6,83.17-185.76,185.77-185.76A187.21,187.21,0,0,1,294.25,37.45Z"/><circle class="cls-7" cx="254.43" cy="209.76" r="131.25"/><path class="cls-8" d="M200.09,90.26a185.16,185.16,0,0,0-51.78,128.68v68A131.26,131.26,0,0,1,200.09,90.26Z"/><path class="cls-9" d="M228.35,264.72h56.09a14,14,0,0,1,14,14v0a42.07,42.07,0,0,1-42.07,42.07h0a42.07,42.07,0,0,1-42.07-42.07v0A14,14,0,0,1,228.35,264.72Z"/><circle class="cls-10" cx="186.28" cy="197.79" r="29.17"/><circle class="cls-10" cx="327.62" cy="197.79" r="29.17"/><ellipse class="cls-11" cx="408.39" cy="185.49" rx="9.69" ry="21.32"/><ellipse class="cls-11" cx="408.39" cy="237.01" rx="7.5" ry="16.5"/><circle class="cls-12" cx="191.89" cy="188.62" r="10.43"/><circle class="cls-12" cx="338.06" cy="188.62" r="10.43"/><rect class="cls-4" x="151.49" y="386.34" width="204.2" height="63.42"/><path class="cls-3" d="M423.3,449.76a255.7,255.7,0,0,1-299.49,25.51l0,0a256.59,256.59,0,0,1-35.06-25.49Z"/><rect class="cls-7" x="151.49" y="386.34" width="204.2" height="24.92"/></g></svg>