<svg xmlns="http://www.w3.org/2000/svg" viewBox="0 0 512 512"><defs><style>.cls-1{fill:#9e4830;}.cls-2{fill:#7f3828;}.cls-3{fill:#fc4581;}.cls-4{fill:#27273d;}.cls-5{fill:#fa3268;}.cls-6{fill:#fff;}.cls-7{fill:#dddbdc;}.cls-8{fill:#ff76a7;}.cls-9{fill:#b0d46c;}.cls-10{fill:none;stroke:#27273d;stroke-linecap:round;stroke-miterlimit:10;stroke-width:10px;}</style></defs><title>Robot Avatars</title><g id="BULINE"><circle class="cls-1" cx="256" cy="256" r="256"/></g><g id="Icons"><path class="cls-2" d="M484.77,371a255.88,255.88,0,0,1-361,104.27l0,0A257.53,257.53,0,0,1,27.23,371a256.86,256.86,0,0,1,47.2-65.46h0q3.38-3.4,6.88-6.67a258.38,258.38,0,0,1,20.94-17.56l.83-.62h0q5-3.75,10.18-7.23c1.39-.94,2.8-1.86,4.21-2.77,1.76-1.13,3.53-2.25,5.33-3.34l.78-.48h0a250.21,250.21,0,0,1,23.53-12.61q6.19-2.92,12.58-5.52c2.63-1.06,5.28-2.09,7.95-3.07l.5-.19h0a253.52,253.52,0,0,1,25.9-7.92l1.08-.27c1.64-.4,3.29-.79,4.95-1.15q8.85-2,17.93-3.33a258.67,258.67,0,0,1,72.3-.51q9.27,1.23,18.33,3.14l1,.21a251.06,251.06,0,0,1,25,6.68q5,1.59,9.85,3.4,6.9,2.53,13.61,5.47a250.79,250.79,0,0,1,24.05,12q3.51,2,6.95,4.08,4.67,2.83,9.19,5.88,4.8,3.21,9.45,6.65c.52.37,1,.76,1.56,1.15a257.59,257.59,0,0,1,21.38,17.89c1.88,1.75,3.73,3.54,5.56,5.35A256.88,256.88,0,0,1,484.77,371Z"/><path class="cls-3" d="M414.77,451.55c0,1.84-.08,3.67-.25,5.48a255.71,255.71,0,0,1-290.71,18.24l0,0a256.59,256.59,0,0,1-38-28.11c2.26-30.91,28.2-58.12,67.19-75.28A209.34,209.34,0,0,1,184.45,361h0a250,250,0,0,1,39.31-6.92q12.9-1.26,26.4-1.27A258.84,258.84,0,0,1,319.82,362a207.76,207.76,0,0,1,27.6,9.82C388.26,389.83,414.77,418.83,414.77,451.55Z"/><path class="cls-4" d="M152.91,346.33H347.42a0,0,0,0,1,0,0v31a26,26,0,0,1-26,26H179a26,26,0,0,1-26-26v-31A0,0,0,0,1,152.91,346.33Z"/><circle class="cls-4" cx="52.64" cy="243.93" r="39.7"/><circle class="cls-4" cx="456.7" cy="243.93" r="39.7"/><ellipse class="cls-3" cx="254.71" cy="243.72" rx="207.62" ry="124.57"/><path class="cls-5" d="M287.47,366.74c-10.67,1-21.61,1.55-32.76,1.55C140,368.29,47.1,312.52,47.1,243.72S140,119.14,254.71,119.14c11.15,0,22.09.53,32.76,1.55-71.11,6.76-130.2,35.18-157.91,73.64-10.91,15.14-17,31.84-17,49.39s6,34.23,16.94,49.37C157.25,331.56,216.35,360,287.47,366.74Z"/><ellipse class="cls-6" cx="254.71" cy="243.72" rx="179.73" ry="68.81"/><path class="cls-7" d="M112.61,243.72c0,17.54,6,34.23,16.94,49.37C95.9,280.6,75,263.09,75,243.72s20.91-36.88,54.57-49.39C118.65,209.47,112.61,226.17,112.61,243.72Z"/><circle class="cls-4" cx="154.87" cy="243.93" r="39.7"/><circle class="cls-4" cx="347.44" cy="243.93" r="39.7"/><ellipse class="cls-8" cx="383.42" cy="166.09" rx="6.45" ry="14.2" transform="translate(27.31 384.69) rotate(-54.97)"/><ellipse class="cls-8" cx="411.52" cy="185.79" rx="4.99" ry="10.99" transform="translate(23.15 416.09) rotate(-54.97)"/><circle class="cls-9" cx="154.87" cy="243.93" r="12.9"/><circle class="cls-9" cx="347.44" cy="243.93" r="12.9"/><path class="cls-10" d="M222.29,278.19a39.42,39.42,0,0,0,55.76,0"/></g></svg>