<svg xmlns="http://www.w3.org/2000/svg" viewBox="0 0 512 512"><defs><style>.cls-1{fill:#db1b1b;}.cls-2{fill:#bc1b1b;}.cls-3{fill:#27273d;}.cls-4{fill:#3586cb;}.cls-5{fill:#2c73a8;}.cls-6{fill:#fff;}.cls-7{fill:#e0e0e0;}.cls-8{fill:#41c0e3;}</style></defs><title>Robot Avatars</title><g id="BULINE"><circle class="cls-1" cx="256" cy="256" r="256"/></g><g id="Icons"><path class="cls-2" d="M484.77,371A257.06,257.06,0,0,1,388.9,474.84a256.72,256.72,0,0,1-202.83,27.49,251.58,251.58,0,0,1-26.5-9.12,254.75,254.75,0,0,1-35.76-17.94l0,0A257.19,257.19,0,0,1,27.23,371a256.87,256.87,0,0,1,51.7-69.88l2.38-2.26q1.91-1.78,3.86-3.52,7.38-6.63,15.28-12.67l.36-.27,0,0,1.42-1.08q5.4-4.07,11-7.85,5.07-3.4,10.32-6.59h0q7-4.26,14.32-8.05c.89-.47,1.78-.93,2.68-1.38q9.33-4.73,19.11-8.7,4.18-1.69,8.45-3.26h0q4.47-1.64,9-3.1,7.92-2.56,16.08-4.62l1.89-.47c1.64-.4,3.29-.79,4.95-1.15,1-.22,1.94-.43,2.92-.63q7.42-1.58,15-2.7a258.67,258.67,0,0,1,72.3-.51q9.78,1.31,19.32,3.35c.75.16,1.5.32,2.24.5a246.56,246.56,0,0,1,28.71,8.18c1.31.45,2.61.92,3.9,1.4q8.56,3.15,16.84,6.9,6.87,3.09,13.51,6.6,7.27,3.79,14.26,8.07,4.67,2.83,9.19,5.88,5.56,3.72,10.91,7.73l.1.07,1.26,1,.6.45q7.05,5.37,13.71,11.22c2,1.73,3.9,3.48,5.81,5.26l2.38,2.26A256.87,256.87,0,0,1,484.77,371Z"/><path class="cls-3" d="M329.42,486.76a31.21,31.21,0,0,1-4.24,15.77,257.56,257.56,0,0,1-139.11-.2,31.42,31.42,0,0,1,5.08-37.77,31.79,31.79,0,0,1,4.12-3.47,1.1,1.1,0,0,1,.14-.09,31.16,31.16,0,0,1,17.12-5.63h86a31.15,31.15,0,0,1,15.72,4.51q.78.47,1.53,1l.13.09A31.33,31.33,0,0,1,329.42,486.76Z"/><path class="cls-4" d="M74.58,210.49h26.25a0,0,0,0,1,0,0v90.63a0,0,0,0,1,0,0H74.58a16.75,16.75,0,0,1-16.75-16.75V227.24A16.75,16.75,0,0,1,74.58,210.49Z"/><path class="cls-4" d="M427.92,210.49h26.25a0,0,0,0,1,0,0v90.63a0,0,0,0,1,0,0H427.92a16.75,16.75,0,0,1-16.75-16.75V227.24A16.75,16.75,0,0,1,427.92,210.49Z" transform="translate(865.34 511.61) rotate(180)"/><rect class="cls-5" x="85.17" y="210.49" width="15.66" height="90.63"/><rect class="cls-5" x="409.21" y="210.49" width="15.66" height="90.63"/><path class="cls-6" d="M410.57,168.1V306.48c0,4.1-.17,8.15-.48,12.16a154.88,154.88,0,0,1-308.78.43q-.5-6.22-.5-12.59V168.1c0-46.8,20.75-76,53.55-92.94,27.16-14,62.59-19.49,101.33-19.49,38.54,0,73.79,5.46,100.89,19.29,3,1.5,5.85,3.13,8.62,4.85C393.23,97.22,410.57,125.33,410.57,168.1Z"/><path class="cls-4" d="M356.8,75l-17.65,77.79A44.29,44.29,0,0,1,294.85,197H215a44.28,44.28,0,0,1-44.29-44.29L154.57,75.16c27.16-14,62.59-19.49,101.34-19.49C294.44,55.67,329.69,61.13,356.8,75Z"/><path class="cls-4" d="M402.5,336.51a8.66,8.66,0,0,1,14.29,8.39,165.65,165.65,0,0,1-322.2.57,8.66,8.66,0,0,1,14.29-8.41l5.72,5.28a46.74,46.74,0,0,0,64.43-1l22.86-22.43a53.72,53.72,0,0,1,37.6-15.36h31.8a53.7,53.7,0,0,1,37.6,15.36l22.87,22.43a46.74,46.74,0,0,0,64.43,1Z"/><path class="cls-7" d="M274.09,460.24a157,157,0,0,1-18.76,1.13A154.72,154.72,0,0,1,101,319.07q-.49-6.22-.5-12.59V168.1c0-46.8,20.75-76,53.55-92.94,24.66-12.69,56.15-18.41,90.74-19.34q5.35-.15,10.81-.15c3.53,0,7.05,0,10.53.15,2.71.07,5.38.17,8.05.31-31.41,1.57-59.93,7.34-82.66,19-12.61,6.51-23.45,14.82-32,25.27-13.7,16.72-21.56,38.87-21.56,67.67V306.48q0,6.36.51,12.59A154.64,154.64,0,0,0,274.09,460.24Z"/><path class="cls-5" d="M274.24,56.12h-.11c-31.41,1.57-59.93,7.34-82.66,19-12.61,6.51-23.45,14.82-32,25.27l-5.27-25.27c24.61-12.66,56-18.39,90.53-19.34q5.35-.15,10.81-.15c3.53,0,7.05,0,10.53.15C268.82,55.88,271.54,56,274.24,56.12Z"/><path class="cls-5" d="M320.68,458.86A165.71,165.71,0,0,1,94.22,345.47a8.7,8.7,0,0,1,8.8-10.74,8.52,8.52,0,0,1,5.5,2.33l5.72,5.28a46.56,46.56,0,0,0,31.34,12.39,155.07,155.07,0,0,0,175.1,104.13Z"/><circle class="cls-3" cx="176.05" cy="258.52" r="35.47"/><circle class="cls-3" cx="339.4" cy="258.52" r="35.47"/><rect class="cls-3" x="207.32" y="358.37" width="96.72" height="41.2" rx="20.6"/><ellipse class="cls-8" cx="332.87" cy="102.83" rx="15.37" ry="6.99" transform="translate(177.07 414.44) rotate(-80.6)"/><ellipse class="cls-8" cx="326.8" cy="139.48" rx="11.9" ry="5.41" transform="translate(135.84 439.12) rotate(-80.6)"/><circle class="cls-6" cx="187.29" cy="247.28" r="11.24"/><circle class="cls-6" cx="351.45" cy="247.28" r="11.24"/></g></svg>