<svg xmlns="http://www.w3.org/2000/svg" viewBox="0 0 512 512"><defs><style>.cls-1{fill:#4f4f74;}.cls-2{fill:#40405b;}.cls-3{fill:#32314b;}.cls-4{fill:#fff;}.cls-5{fill:#ddd;}.cls-6{fill:#f7bb38;}.cls-7{fill:#968ebc;}.cls-8{fill:#a99bd4;}.cls-9{fill:#27273d;}.cls-10{fill:#b0d46c;}.cls-11{fill:#a2bf62;}.cls-12{fill:#c2bae5;}</style></defs><title>Robot Avatars</title><g id="BULINE"><circle class="cls-1" cx="256" cy="256" r="256"/></g><g id="Icons"><path class="cls-2" d="M484.77,371A257.06,257.06,0,0,1,388.9,474.84,255.13,255.13,0,0,1,256,512a257.09,257.09,0,0,1-55.09-5.94,254.84,254.84,0,0,1-77.1-30.79l0,0A257.19,257.19,0,0,1,27.23,371,256.89,256.89,0,0,1,81,299.19l.35-.33q8.73-8.14,18.2-15.47h0l2.74-2.08q4.8-3.62,9.79-7l1.23-.84c1.7-1.14,3.41-2.27,5.14-3.37h0q2.56-1.63,5.16-3.21h0a255,255,0,0,1,31.59-16.24h0l.34-.14q2.07-.89,4.17-1.74c.88-.36,1.76-.71,2.65-1,1.92-.77,3.86-1.51,5.8-2.22h0A252,252,0,0,1,194,237.58l1.2-.3c1.64-.4,3.29-.79,4.95-1.15.83-.19,1.66-.37,2.49-.53,1.54-.34,3.1-.66,4.66-.95,2.45-.48,4.93-.92,7.41-1.32,1.12-.19,2.24-.36,3.37-.53A256.09,256.09,0,0,1,254.68,230H256c1.57,0,3.13,0,4.69.05a254.08,254.08,0,0,1,29.64,2.24q9.78,1.31,19.32,3.35,4,.84,7.89,1.82,3.76.91,7.48,2c3,.84,6,1.74,9,2.7q5.3,1.68,10.48,3.6l1.54.58.74.28q8.16,3.09,16.05,6.72,7,3.19,13.72,6.82Q381.86,263,387,266l2.09,1.26c1.59,1,3.16,1.95,4.73,2.95.82.52,1.63,1.05,2.44,1.59l2,1.34,2,1.34q4.59,3.14,9,6.46c1.14.86,2.28,1.72,3.41,2.6q8.82,6.82,17,14.39l1,.9A257,257,0,0,1,484.77,371Z"/><path class="cls-3" d="M307.41,424.92v81.91a258.32,258.32,0,0,1-106.5-.77V424.92Z"/><rect class="cls-4" x="112.04" y="69.58" width="288.24" height="372" rx="144.12"/><path class="cls-5" d="M277.91,440a145.75,145.75,0,0,1-21.75,1.63A144.11,144.11,0,0,1,112.08,300.79c0-1.11,0-2.22,0-3.33V213.7A144,144,0,0,1,256.16,69.58a145.75,145.75,0,0,1,21.75,1.63A143.93,143.93,0,0,0,156.12,200.69q-.57,6.42-.58,13v83.76c0,.82,0,1.63,0,2.44A144,144,0,0,0,277.91,440Z"/><path class="cls-6" d="M94.16,205.57H112a0,0,0,0,1,0,0v96.55a0,0,0,0,1,0,0H94.16A31.18,31.18,0,0,1,63,270.93V236.75A31.18,31.18,0,0,1,94.16,205.57Z"/><path class="cls-6" d="M427.46,205.57h17.88a0,0,0,0,1,0,0v96.55a0,0,0,0,1,0,0H427.46a31.18,31.18,0,0,1-31.18-31.18V236.75a31.18,31.18,0,0,1,31.18-31.18Z" transform="translate(841.63 507.68) rotate(180)"/><rect class="cls-3" x="91.51" y="178.18" width="329.31" height="144.33" rx="72.17"/><path class="cls-7" d="M255.61,55.71S223.06,55,174.84,77A16.94,16.94,0,0,0,167,100.5l41.64,77.13h94l41.65-77.13A16.94,16.94,0,0,0,336.39,77C288.17,55,255.61,55.71,255.61,55.71Z"/><path class="cls-8" d="M255.61,29.84S236.5,29,208.18,55.7c-5.23,4.93-7.35,18-4.62,28.44L228,177.63h55.19l24.46-93.49c2.73-10.45.61-23.51-4.62-28.44C274.73,29,255.61,29.84,255.61,29.84Z"/><path class="cls-9" d="M155.56,299.9a144.42,144.42,0,0,0,2.11,22.36,72.16,72.16,0,0,1-45-122.94l.11-.1a71.93,71.93,0,0,1,47.17-20.95,144,144,0,0,0-3.81,22.42q-.57,6.42-.58,13v83.76C155.54,298.28,155.55,299.09,155.56,299.9Z"/><path class="cls-10" d="M397.92,250.34c0,1.27-.05,2.52-.14,3.77a50.39,50.39,0,0,1-50.26,46.64H164.81a50.4,50.4,0,0,1-50.24-46.38c-.11-1.33-.16-2.67-.16-4,0-1.18,0-2.34.13-3.5a50.38,50.38,0,0,1,50.27-46.9H347.52a50.41,50.41,0,0,1,50.26,46.64C397.87,247.82,397.92,249.08,397.92,250.34Z"/><path class="cls-4" d="M397.92,250.34c0,1.27-.05,2.52-.14,3.77h-7.35l-4.18,14.59a3.76,3.76,0,0,1-7.23,0l-9.5-33-5.46,15.85a3.79,3.79,0,0,1-3.57,2.53H344.24a3.81,3.81,0,0,1-3.1-1.63l-13-18.95-9.91,18.82a3.78,3.78,0,0,1-3.33,2h-9.44l-8.11,21.41a3.77,3.77,0,0,1-6.85.42l-11.73-22.09h-9a3.77,3.77,0,0,1-3.13-1.67l-8.81-13.22-8.2,13.13a3.77,3.77,0,0,1-3.19,1.76H234.29L226,288.86a3.77,3.77,0,0,1-3.66,2.89h-.06a3.76,3.76,0,0,1-3.63-3l-13-61.91-8.26,24a3.75,3.75,0,0,1-3.55,2.55H179.48l-7.69,15.94a3.78,3.78,0,0,1-3.36,2.12,3.66,3.66,0,0,1-3.39-2.07l-8.47-16.81L146,237.61l-13.41,15.45a3.81,3.81,0,0,1-2.85,1.31H114.57c-.11-1.33-.16-2.67-.16-4,0-1.18,0-2.34.13-3.5H128l15.43-17.78a3.73,3.73,0,0,1,3-1.3,3.85,3.85,0,0,1,2.9,1.58l13.55,19.08a2.87,2.87,0,0,1,.28.48l5.17,10.25,5.4-11.2a3.77,3.77,0,0,1,3.39-2.12h14l11.82-34.34a3.76,3.76,0,0,1,7.24.45l12.36,58.9,5.13-21.37a3.75,3.75,0,0,1,3.66-2.89h13l10.2-16.3a3.79,3.79,0,0,1,3.13-1.77,3.86,3.86,0,0,1,3.19,1.68l10.93,16.39H281a3.78,3.78,0,0,1,3.32,2l8.9,16.75,6.08-16.07a3.77,3.77,0,0,1,3.53-2.42h9.77l11.74-22.33a3.75,3.75,0,0,1,6.43-.39l15.45,22.46h11.58L366.28,222a3.77,3.77,0,0,1,3.56-2.53h.09a3.76,3.76,0,0,1,3.52,2.73L382.62,254l1.36-4.71a3.77,3.77,0,0,1,3.61-2.73h10.19C397.87,247.82,397.92,249.08,397.92,250.34Z"/><path class="cls-11" d="M155.54,297.46c0,.82,0,1.63,0,2.44a50.41,50.41,0,0,1-41-45.53c-.11-1.33-.16-2.67-.16-4,0-1.18,0-2.34.13-3.5a50.38,50.38,0,0,1,41.59-46.15q-.57,6.42-.58,13Z"/><path class="cls-5" d="M155.54,238.1v13l-9.6-13.5-13.41,15.45a3.81,3.81,0,0,1-2.85,1.31H114.56c-.11-1.33-.16-2.67-.16-4,0-1.18,0-2.34.13-3.5H128l15.43-17.78a3.73,3.73,0,0,1,3-1.3,3.85,3.85,0,0,1,2.9,1.58Z"/><rect class="cls-3" x="212.98" y="360.25" width="78" height="29.33" rx="14.67"/><ellipse class="cls-12" cx="283.48" cy="83.65" rx="19.89" ry="9.04" transform="translate(153.82 349.26) rotate(-80.42)"/><ellipse class="cls-12" cx="275.48" cy="131.05" rx="15.39" ry="6.99" transform="translate(100.42 380.88) rotate(-80.42)"/></g></svg>