<svg xmlns="http://www.w3.org/2000/svg" viewBox="0 0 512 512"><defs><style>.cls-1{fill:#e88032;}.cls-2{fill:#cc6e2e;}.cls-13,.cls-3{fill:none;stroke-linecap:round;stroke-miterlimit:10;stroke-width:10px;}.cls-3{stroke:#fff;}.cls-4{fill:#fff;}.cls-5{fill:#4f4f74;}.cls-6{fill:#b6e3fc;}.cls-7{fill:#9bc2d3;}.cls-8{fill:#7cc8fb;}.cls-9{fill:#366fca;}.cls-10{fill:#41c0e3;}.cls-11{fill:#3567af;}.cls-12{fill:#27273d;}.cls-13{stroke:#41c0e3;}.cls-14{fill:#acdffc;}</style></defs><title>Robot Avatars</title><g id="BULINE"><circle class="cls-1" cx="256" cy="256" r="256"/></g><g id="Icons"><path class="cls-2" d="M484.77,371A256.34,256.34,0,0,1,173.9,498.55q-7.26-2.46-14.33-5.34a254.75,254.75,0,0,1-35.76-17.94l0,0A257.31,257.31,0,0,1,27.23,371a257,257,0,0,1,53.83-71.9l.25-.24a258.38,258.38,0,0,1,20.94-17.56q5.4-4.07,11-7.85,5.07-3.4,10.32-6.59h0q1.94-1.17,3.89-2.31h0A254.14,254.14,0,0,1,154,251.13c1.89-.83,3.79-1.62,5.7-2.4l.88-.35c2.5-1,5-2,7.57-2.91h0a252.53,252.53,0,0,1,27-8.19c1.64-.4,3.29-.79,4.95-1.15q8.85-2,17.93-3.33,5.9-.87,11.89-1.48A255.56,255.56,0,0,1,256,230q9.86,0,19.53.75,7.47.54,14.8,1.54,9.78,1.31,19.32,3.35a251.31,251.31,0,0,1,34.85,10.08l.84.32a253.49,253.49,0,0,1,38,17.86q2.89,1.67,5.73,3.39,4.67,2.83,9.19,5.88,5.61,3.75,11,7.8A253.12,253.12,0,0,1,430,298.24l.68.62A257,257,0,0,1,484.77,371Z"/><line class="cls-3" x1="254.86" y1="124.34" x2="254.86" y2="45.59"/><path class="cls-4" d="M130.69,367.44l-9.12,23.44L96.21,456A255.53,255.53,0,0,1,72.1,434.08l23.69-60.85,6.55-16.83Z"/><path class="cls-4" d="M440.74,433.21a254,254,0,0,1-24.06,22.08l-25.12-64.52-9.08-23.33,28.35-11,6.35,16.31Z"/><circle class="cls-5" cx="130.15" cy="350.68" r="41.1"/><circle class="cls-5" cx="382.48" cy="350.68" r="41.1"/><path class="cls-6" d="M382.48,341.42,380,350.05l-10.5,36.57-.8,2.79-27.14,94.5a98.65,98.65,0,0,1-5.85,15.43,257.28,257.28,0,0,1-161.81-.79,96.57,96.57,0,0,1-5.49-14.64L141.5,390.19l-1.31-4.56L129.91,349.8l-2.41-8.38Z"/><path class="cls-7" d="M382.48,341.42l-13,45.2c-77.39,14.81-153.85,14.87-229.31-1L127.5,341.42Z"/><path class="cls-8" d="M375,351.09a713,713,0,0,1-239.11,0,67.89,67.89,0,0,1-56.49-67V188.69a67.92,67.92,0,0,1,55.86-66.88,676,676,0,0,1,240.37,0,67.93,67.93,0,0,1,55.87,66.88v95.42A67.9,67.9,0,0,1,375,351.09Z"/><path class="cls-9" d="M342.32,309.23a608,608,0,0,1-173.77,0c-23.72-3.41-41.06-20.92-41.06-41.37V208.92c0-20.3,17.1-37.72,40.61-41.3a576.6,576.6,0,0,1,174.67,0c23.52,3.58,40.61,21,40.61,41.3v58.94C383.38,288.31,366.05,305.82,342.32,309.23Z"/><path class="cls-10" d="M210.51,351.09a717,717,0,0,0,82.19,9.11,713.16,713.16,0,0,1-156.83-9.11,67.89,67.89,0,0,1-56.48-67V188.69a67.91,67.91,0,0,1,55.86-66.87,675.68,675.68,0,0,1,157.5-9.74,685.73,685.73,0,0,0-82.86,9.74A68,68,0,0,0,154,188.69v95.42a67.91,67.91,0,0,0,56.5,67Z"/><path class="cls-9" d="M79.39,192.53V279.7a43.59,43.59,0,1,1,0-87.17Z"/><path class="cls-9" d="M475.08,236.11a43.59,43.59,0,0,1-43.59,43.59V192.53a43.56,43.56,0,0,1,43.59,43.58Z"/><path class="cls-11" d="M79.39,192.53V279.7a43.32,43.32,0,0,1-17-3.43V196A43.49,43.49,0,0,1,79.39,192.53Z"/><path class="cls-11" d="M448.44,196v80.32a43.31,43.31,0,0,1-16.95,3.43V192.53A43.48,43.48,0,0,1,448.44,196Z"/><path class="cls-11" d="M157.83,306.6c-18.05-6.38-30.33-21.51-30.33-38.74V208.93c0-16.76,11.64-31.55,28.93-38.21a67.65,67.65,0,0,0-2.42,18v95.42A67.87,67.87,0,0,0,157.83,306.6Z"/><path class="cls-12" d="M230.59,238.22a35.7,35.7,0,1,1-2.33-12.73A35.73,35.73,0,0,1,230.59,238.22Z"/><path class="cls-4" d="M228.26,225.49a15,15,0,1,1-20.67-20.68A35.83,35.83,0,0,1,228.26,225.49Z"/><path class="cls-12" d="M346.21,238.22a35.75,35.75,0,1,1-2.34-12.73A35.36,35.36,0,0,1,346.21,238.22Z"/><path class="cls-4" d="M343.87,225.49a15,15,0,1,1-20.67-20.68A35.8,35.8,0,0,1,343.87,225.49Z"/><path class="cls-13" d="M237.87,290.34a24.84,24.84,0,0,0,35.13,0"/><ellipse class="cls-14" cx="383.53" cy="148.22" rx="6.69" ry="14.71" transform="translate(-3.1 288.15) rotate(-41.03)"/><ellipse class="cls-14" cx="406.87" cy="175.04" rx="5.18" ry="11.39" transform="translate(-14.98 310.06) rotate(-41.03)"/><circle class="cls-4" cx="254.86" cy="38.19" r="24.27"/><circle class="cls-4" cx="254.86" cy="82.36" r="12.13"/></g></svg>