<svg xmlns="http://www.w3.org/2000/svg" viewBox="0 0 512 512"><defs><style>.cls-1{fill:#366fca;}.cls-2{fill:#3366af;}.cls-3{fill:#27273d;}.cls-4{fill:#fff;}.cls-5{fill:#dddbdb;}.cls-6{fill:#32314b;}.cls-7{fill:#7cc8fb;}</style></defs><title>Robot Avatars</title><g id="BULINE"><circle class="cls-1" cx="256" cy="256" r="256"/></g><g id="Icons"><path class="cls-2" d="M484.77,371a255.88,255.88,0,0,1-361,104.27l0,0A257.45,257.45,0,0,1,27.23,371a257.16,257.16,0,0,1,54.08-72.14c2.11-2,4.25-3.9,6.42-5.78q7-6.16,14.52-11.78,5.4-4.07,11-7.85,5.07-3.4,10.32-6.59h0a254.42,254.42,0,0,1,36.11-18.13q4.18-1.69,8.45-3.26h0q4.85-1.77,9.78-3.35,8.48-2.72,17.2-4.84c1.64-.4,3.29-.79,4.95-1.15q8.85-2,17.93-3.33c1.17-.17,2.34-.34,3.52-.49A256,256,0,0,1,256,230a258.6,258.6,0,0,1,34.29,2.28h0q9.78,1.31,19.32,3.35a248.3,248.3,0,0,1,24.25,6.44q5.36,1.69,10.6,3.64a254.65,254.65,0,0,1,44.61,21.57q4.67,2.83,9.19,5.88,5.61,3.75,11,7.8,9.87,7.39,19,15.7c.8.72,1.59,1.45,2.38,2.19A257,257,0,0,1,484.77,371Z"/><path class="cls-3" d="M73.4,329.83h365a0,0,0,0,1,0,0v21.84a15.83,15.83,0,0,1-15.83,15.83H89.24A15.83,15.83,0,0,1,73.4,351.67V329.83A0,0,0,0,1,73.4,329.83Z"/><path class="cls-4" d="M462.3,241.22v77a11.61,11.61,0,0,1-11.62,11.61H61.13a11.61,11.61,0,0,1-11.61-11.61v-77a206.39,206.39,0,1,1,412.78,0Z"/><path class="cls-4" d="M462.3,366.44v41.15a255.79,255.79,0,0,1-338.49,67.68l0,0a257.06,257.06,0,0,1-74.25-67.92V366.44a11.61,11.61,0,0,1,11.62-11.61H450.69A11.61,11.61,0,0,1,462.3,366.44Z"/><path class="cls-5" d="M462.3,296.67v21.55a11.61,11.61,0,0,1-11.62,11.61H61.13a11.61,11.61,0,0,1-11.61-11.61v-77A206.07,206.07,0,0,1,132.46,75.81,205.54,205.54,0,0,0,84.52,208.06v77a11.61,11.61,0,0,0,11.61,11.61Z"/><path class="cls-6" d="M344.91,55V199.17a89,89,0,0,1-178,0V55a206.55,206.55,0,0,1,178,0Z"/><path class="cls-3" d="M305.65,40.87V196.34a49.75,49.75,0,0,1-99.49,0V40.87a207.87,207.87,0,0,1,99.49,0Z"/><circle class="cls-7" cx="255.9" cy="179.5" r="37.66"/><circle class="cls-1" cx="255.9" cy="179.5" r="22.67"/><circle class="cls-4" cx="269.9" cy="167.67" r="14"/><circle class="cls-4" cx="255.9" cy="189.58" r="7.92"/></g></svg>