<svg xmlns="http://www.w3.org/2000/svg" viewBox="0 0 512 512"><defs><style>.cls-1{fill:#f6c752;}.cls-2{fill:#d8ab48;}.cls-3{fill:#fff;}.cls-4{fill:#3366af;}.cls-5{fill:#366fca;}.cls-6{fill:#7cc8fb;}.cls-7{fill:#41c0e3;}.cls-8{fill:#32314b;}.cls-9{fill:#fc715a;}.cls-10{fill:#27273d;}.cls-11{fill:#acdffc;}</style></defs><title>Robot Avatars</title><g id="BULINE"><circle class="cls-1" cx="256" cy="256" r="256"/></g><g id="Icons"><path class="cls-2" d="M484.77,371a255.88,255.88,0,0,1-361,104.27l0,0A257.19,257.19,0,0,1,27.23,371a256.81,256.81,0,0,1,75-89.7q5.4-4.07,11-7.85,5.07-3.4,10.32-6.59h0a254.42,254.42,0,0,1,36.11-18.13q4.18-1.69,8.45-3.26h0a252.53,252.53,0,0,1,27-8.19c1.64-.4,3.29-.79,4.95-1.15q8.85-2,17.93-3.33a258.67,258.67,0,0,1,72.3-.51q9.78,1.31,19.32,3.35a251.31,251.31,0,0,1,34.85,10.08,254.65,254.65,0,0,1,44.61,21.57q4.67,2.83,9.19,5.88,5.61,3.75,11,7.8a256.81,256.81,0,0,1,75.46,90Z"/><rect class="cls-3" x="247.09" y="44.27" width="14.91" height="46.07"/><path class="cls-4" d="M225.82,82.6h60.36a9,9,0,0,1,9,9V114.1a0,0,0,0,1,0,0H216.87a0,0,0,0,1,0,0V91.55A9,9,0,0,1,225.82,82.6Z"/><path class="cls-5" d="M424.64,430.85a788.08,788.08,0,0,1-337.28,0c-10.8,0-19.56-10.73-19.56-24V363.53c0-13.23,8.76-23.95,19.56-23.95H424.64c10.8,0,19.56,10.72,19.56,23.95v43.36C444.2,420.12,435.44,430.85,424.64,430.85Z"/><path class="cls-6" d="M398.06,374.67Q256,414,113.94,374.67A19.22,19.22,0,0,1,100.2,352.6l25.12-133.8A131.81,131.81,0,0,1,256,104.27h0A131.81,131.81,0,0,1,386.68,218.8L411.8,352.6A19.22,19.22,0,0,1,398.06,374.67Z"/><path class="cls-7" d="M272.75,394.06q-79.41,2.6-158.8-19.38a19.23,19.23,0,0,1-13.75-22.07L125.33,218.8A131.87,131.87,0,0,1,272.74,105.33,131.8,131.8,0,0,0,158.81,218.8L133.68,352.61a19.23,19.23,0,0,0,13.75,22.07A532.49,532.49,0,0,0,272.75,394.06Z"/><path class="cls-4" d="M398.06,398Q256,437.3,113.94,398A19.22,19.22,0,0,1,100.2,375.9l2-10.59a19.15,19.15,0,0,0,11.75,9.36Q256,414,398.06,374.67a19.15,19.15,0,0,0,11.75-9.36l2,10.59A19.22,19.22,0,0,1,398.06,398Z"/><rect class="cls-3" x="171.53" y="300.96" width="168.95" height="68.74" rx="22.75"/><rect class="cls-8" x="205.69" y="300.96" width="14.91" height="68.74"/><rect class="cls-8" x="248.55" y="300.96" width="14.91" height="68.74"/><rect class="cls-8" x="291.4" y="300.96" width="14.91" height="68.74"/><rect class="cls-9" x="154.54" y="178.18" width="200.01" height="94.41" rx="47.21"/><rect class="cls-1" x="175.64" y="197.03" width="157.81" height="57.7" rx="28.85"/><circle class="cls-10" cx="209" cy="225.87" r="20.7"/><circle class="cls-9" cx="254.54" cy="31.6" r="20.7"/><circle class="cls-10" cx="298.86" cy="225.87" r="20.7"/><ellipse class="cls-11" cx="363.44" cy="194.35" rx="8.08" ry="17.77" transform="translate(-35.52 90.93) rotate(-13.6)"/><ellipse class="cls-11" cx="373.54" cy="236.09" rx="6.25" ry="13.75" transform="translate(-45.05 94.48) rotate(-13.6)"/></g></svg>