<svg xmlns="http://www.w3.org/2000/svg" viewBox="0 0 512 512"><defs><style>.cls-1{fill:#fc4581;}.cls-2{fill:#e03b77;}.cls-3{fill:#aa60fa;}.cls-4{fill:#934cf5;}.cls-5{fill:#fff;}.cls-6{fill:#d9dbda;}.cls-7{fill:#32314b;}.cls-8{fill:#27273d;}.cls-9{fill:#b0d46c;}.cls-10{fill:#9ebf56;}.cls-11{fill:#4f4f74;}</style></defs><title>Robot Avatars</title><g id="BULINE"><circle class="cls-1" cx="256" cy="256" r="256"/></g><g id="Icons"><path class="cls-2" d="M484.77,371A257.06,257.06,0,0,1,388.9,474.84c-.65.4-1.31.79-2,1.18a255.74,255.74,0,0,1-261.12.45l-2-1.2,0,0A257.19,257.19,0,0,1,27.23,371a257,257,0,0,1,54.08-72.14q1.77-1.65,3.57-3.26,8.36-7.53,17.37-14.3c1.92-1.44,3.85-2.86,5.81-4.25q2.58-1.83,5.21-3.6,5.07-3.4,10.32-6.59h0q5.78-3.5,11.75-6.7,10.41-5.58,21.4-10.2c1-.42,2-.83,3-1.23q2.11-.85,4.26-1.68c1.39-.54,2.79-1.07,4.19-1.58h.05a251.79,251.79,0,0,1,26.94-8.18l2.35-.56,2.6-.59c2.56-.57,5.14-1.11,7.74-1.59s5.09-.94,7.65-1.34l2.54-.4a257.37,257.37,0,0,1,30.76-2.7c2.39-.07,4.8-.1,7.21-.1.67,0,1.35,0,2,0,0,0,0,0,0,0,3.18,0,6.35.1,9.51.25q11.52.49,22.78,2,9.78,1.31,19.32,3.35,2.75.59,5.47,1.23,3.9.91,7.74,1.95,11,3,21.64,6.9a254.65,254.65,0,0,1,44.61,21.57q4.67,2.83,9.19,5.88,3.24,2.18,6.42,4.45,2.31,1.63,4.59,3.35,9.65,7.23,18.58,15.31c.94.86,1.87,1.71,2.8,2.58A257,257,0,0,1,484.77,371Z"/><path class="cls-3" d="M17.95,207.18H42.3a0,0,0,0,1,0,0v58.56a0,0,0,0,1,0,0H17.95a7.06,7.06,0,0,1-7.06-7.06V214.24A7.06,7.06,0,0,1,17.95,207.18Z"/><rect class="cls-4" x="30.65" y="207.18" width="11.65" height="58.56"/><path class="cls-3" d="M476.76,207.18h24.36a0,0,0,0,1,0,0v58.56a0,0,0,0,1,0,0H476.76a7.06,7.06,0,0,1-7.06-7.06V214.24a7.06,7.06,0,0,1,7.06-7.06Z" transform="translate(970.81 472.92) rotate(-180)"/><rect class="cls-4" x="469.7" y="207.18" width="11.65" height="58.56" transform="translate(951.04 472.92) rotate(-180)"/><rect class="cls-3" x="244.03" y="83.65" width="24.7" height="61.8"/><rect class="cls-4" x="244.03" y="122.97" width="24.7" height="22.49"/><rect class="cls-5" x="84.88" y="144.95" width="343.01" height="183.01" rx="17.03"/><path class="cls-5" d="M386.93,371.88V476a255.74,255.74,0,0,1-261.12.45V371.88a15.59,15.59,0,0,1,15.6-15.6H371.33A15.59,15.59,0,0,1,386.93,371.88Z"/><path class="cls-3" d="M49.34,193.74H84.88a0,0,0,0,1,0,0v85.44a0,0,0,0,1,0,0H49.34A10.3,10.3,0,0,1,39,268.88V204A10.3,10.3,0,0,1,49.34,193.74Z"/><rect class="cls-4" x="67.88" y="193.74" width="17" height="85.44"/><path class="cls-3" d="M438.19,193.74h35.54a0,0,0,0,1,0,0v85.44a0,0,0,0,1,0,0H438.19a10.3,10.3,0,0,1-10.3-10.3V204a10.3,10.3,0,0,1,10.3-10.3Z" transform="translate(901.63 472.92) rotate(180)"/><rect class="cls-4" x="427.89" y="193.74" width="17" height="85.44" transform="translate(872.78 472.92) rotate(180)"/><path class="cls-6" d="M152.38,328H101.91a17,17,0,0,1-17-17V162a17,17,0,0,1,17-17h50.47a17,17,0,0,0-17,17v149A17,17,0,0,0,152.38,328Z"/><circle class="cls-7" cx="256.37" cy="64.1" r="34.66"/><path class="cls-8" d="M264.17,97.91a35.14,35.14,0,0,1-7.67.85,34.67,34.67,0,0,1,0-69.33,35.14,35.14,0,0,1,7.67.85,34.67,34.67,0,0,0,0,67.63Z"/><rect class="cls-7" x="108.06" y="178.17" width="296.66" height="116.57" rx="16.17"/><path class="cls-8" d="M135.35,178.17V294.75H124.23a16.17,16.17,0,0,1-16.17-16.17V194.35a16.18,16.18,0,0,1,16.17-16.18Z"/><path class="cls-9" d="M404.72,241.74c0,1.21-.05,2.43-.13,3.62H394.9l-4.32,15.05a3.88,3.88,0,0,1-7.46,0l-9.8-34-5.64,16.36a3.91,3.91,0,0,1-3.68,2.61H347.24a3.94,3.94,0,0,1-3.2-1.68L330.6,224.13l-10.22,19.41a3.86,3.86,0,0,1-3.43,2.09h-9.74l-8.37,22.08a3.88,3.88,0,0,1-7.07.44l-12.1-22.79h-9.32a3.87,3.87,0,0,1-3.23-1.72L258,230l-8.47,13.54a3.86,3.86,0,0,1-3.29,1.82H233.8l-8.61,35.85a3.89,3.89,0,0,1-3.77,3h-.06a3.9,3.9,0,0,1-3.75-3.1l-13.4-63.87L195.69,242a3.85,3.85,0,0,1-3.66,2.62H177.25L169.32,261a3.91,3.91,0,0,1-3.47,2.2,3.77,3.77,0,0,1-3.49-2.15l-8.75-17.33-11-15.41-13.84,15.93a3.91,3.91,0,0,1-2.94,1.36H108.16c-.09-1.29-.14-2.58-.14-3.89s0-2.61.14-3.88h16L140,219.51a3.84,3.84,0,0,1,3.12-1.33,3.91,3.91,0,0,1,3,1.63l14,19.68a3.15,3.15,0,0,1,.3.5l5.32,10.58L171.32,239a3.88,3.88,0,0,1,3.5-2.19h14.43l12.19-35.44a3.88,3.88,0,0,1,7.47.47l12.76,60.77,5.29-22a3.88,3.88,0,0,1,3.78-3h13.37l10.52-16.82a3.91,3.91,0,0,1,3.23-1.82,4,4,0,0,1,3.29,1.73l11.28,16.91H282a3.9,3.9,0,0,1,3.43,2.07l9.18,17.27,6.28-16.57a3.88,3.88,0,0,1,3.63-2.5H314.6l12.12-23a3.87,3.87,0,0,1,6.63-.4l15.94,23.17h11.95L370,212.24a3.89,3.89,0,0,1,3.67-2.61h.09a3.9,3.9,0,0,1,3.64,2.81l9.46,32.83,1.4-4.86a3.88,3.88,0,0,1,3.72-2.82h12.59C404.65,239,404.72,240.34,404.72,241.74Z"/><path class="cls-10" d="M135.35,224.91v11.84l-6.53,7.52a3.9,3.9,0,0,1-2.93,1.35H108.16c0-.65-.08-1.28-.1-1.93s0-1.29,0-1.95,0-1.31,0-2,.06-1.28.1-1.92h16Z"/><circle class="cls-11" cx="268.74" cy="53.44" r="9.3"/><path class="cls-6" d="M215.34,328H297.4a0,0,0,0,1,0,0v33.73a33.9,33.9,0,0,1-33.9,33.9H249.23a33.9,33.9,0,0,1-33.9-33.9V328A0,0,0,0,1,215.34,328Z"/></g></svg>