<svg xmlns="http://www.w3.org/2000/svg" viewBox="0 0 512 512"><defs><style>.cls-1{fill:#e88032;}.cls-2{fill:#cc6e2e;}.cls-3{fill:#934cf5;}.cls-4{fill:#7d46d3;}.cls-5{fill:#fff;}.cls-6{fill:#d8d8d8;}.cls-7{fill:#a99bd4;}.cls-8{fill:#dadbd9;}.cls-9{fill:#27273d;}.cls-10{fill:#c7bfe8;}</style></defs><title>Robot Avatars</title><g id="BULINE"><circle class="cls-1" cx="256" cy="256" r="256"/></g><g id="Icons"><path class="cls-2" d="M484.77,371q-4.23,8.42-9.06,16.45a255.84,255.84,0,0,1-351.9,87.82l0,0a257.34,257.34,0,0,1-87.48-87.8q-4.82-8-9.06-16.45a256.66,256.66,0,0,1,41.66-59.71q5.56-6,11.52-11.58a2.73,2.73,0,0,1,.25-.23l.65-.62c.89-.83,1.8-1.66,2.7-2.48q8.76-8,18.24-15.08,5.4-4.07,11-7.85,5.07-3.4,10.32-6.59h0c.85-.52,1.71-1,2.57-1.53,2.5-1.49,5-2.92,7.6-4.31l1-.57a255.09,255.09,0,0,1,24.91-11.72q4.18-1.69,8.45-3.26h0q11.31-4.14,23.1-7.21c1.29-.34,2.58-.66,3.88-1,1.64-.4,3.29-.79,4.95-1.15l.8-.17q8.46-1.87,17.13-3.16a258.67,258.67,0,0,1,72.3-.51q6,.79,11.91,1.88,3.72.68,7.41,1.47l2.31.51a253.28,253.28,0,0,1,57.88,20.51q4.46,2.2,8.81,4.59,5.31,2.89,10.46,6,4.67,2.83,9.19,5.88,5.61,3.75,11,7.8,8.35,6.25,16.16,13.15,1.81,1.61,3.6,3.25l1.62,1.49q5.08,4.75,9.9,9.77A257,257,0,0,1,484.77,371Z"/><path class="cls-3" d="M59.72,261.64H80.41a0,0,0,0,1,0,0v78.79a0,0,0,0,1,0,0H59.72A24.71,24.71,0,0,1,35,315.72V286.35A24.71,24.71,0,0,1,59.72,261.64Z"/><path class="cls-3" d="M453.79,261.64h20.69a0,0,0,0,1,0,0v78.79a0,0,0,0,1,0,0H453.79a24.71,24.71,0,0,1-24.71-24.71V286.35A24.71,24.71,0,0,1,453.79,261.64Z" transform="translate(903.55 602.07) rotate(180)"/><rect class="cls-4" x="425.47" y="261.64" width="15.12" height="78.91"/><rect class="cls-4" x="68.89" y="261.64" width="15.12" height="78.91"/><path class="cls-5" d="M254.74,83h0A174.33,174.33,0,0,1,429.07,257.33v83.1a0,0,0,0,1,0,0H80.41a0,0,0,0,1,0,0v-83.1A174.33,174.33,0,0,1,254.74,83Z"/><path class="cls-6" d="M429.34,305.84v34.58H80.66V257.34a174.26,174.26,0,0,1,89.62-152.4,173.76,173.76,0,0,0-45.83,117.81h0a83.09,83.09,0,0,0,83.09,83.09Z"/><path class="cls-7" d="M87.17,340.43H422.31a47,47,0,0,1,47,47v0a0,0,0,0,1,0,0H40.15a0,0,0,0,1,0,0v0A47,47,0,0,1,87.17,340.43Z"/><path class="cls-5" d="M475.71,387.45a255.84,255.84,0,0,1-351.9,87.82l0,0a257.34,257.34,0,0,1-87.48-87.8Z"/><circle class="cls-8" cx="161.16" cy="244.61" r="40.66"/><circle class="cls-9" cx="161.16" cy="244.61" r="30.76"/><circle class="cls-8" cx="341.54" cy="244.61" r="40.66"/><circle class="cls-9" cx="341.54" cy="244.61" r="30.76"/><path class="cls-9" d="M201.89,286.05h95.79a0,0,0,0,1,0,0v0a45.7,45.7,0,0,1-45.7,45.7h-4.39a45.7,45.7,0,0,1-45.7-45.7v0A0,0,0,0,1,201.89,286.05Z"/><rect class="cls-3" x="116.79" y="162.79" width="81.32" height="28.67" rx="14.34" transform="translate(-62.31 88.4) rotate(-26.38)"/><rect class="cls-3" x="308.04" y="162.79" width="81.32" height="28.67" rx="14.34" transform="translate(582.4 490.75) rotate(-153.62)"/><ellipse class="cls-10" cx="419.88" cy="361.55" rx="14.91" ry="6.78"/><ellipse class="cls-10" cx="383.84" cy="361.55" rx="11.54" ry="5.25"/><circle class="cls-5" cx="170.55" cy="233.25" r="9.38"/><circle class="cls-5" cx="350.92" cy="233.25" r="9.38"/></g></svg>