<svg xmlns="http://www.w3.org/2000/svg" viewBox="0 0 512 512"><defs><style>.cls-1{fill:#4acc97;}.cls-2{fill:#46b786;}.cls-3{fill:#3e436d;}.cls-4{fill:#32314b;}.cls-5{fill:#4f4f74;}.cls-6{fill:#7cc8fb;}.cls-7{fill:#27273d;}.cls-8{fill:#41c0e3;}.cls-9{fill:#b0d46c;}.cls-10{fill:#9ab75c;}.cls-11{fill:#fff;}.cls-12{fill:#64648c;}</style></defs><title>Robot Avatars</title><g id="BULINE"><circle class="cls-1" cx="256" cy="256" r="256"/></g><g id="Icons"><path class="cls-2" d="M484.77,371a257,257,0,0,1-93.25,102.22c-.87.55-1.74,1.09-2.62,1.62a255.71,255.71,0,0,1-265.09.43l0,0q-4.78-2.89-9.44-6A257,257,0,0,1,27.23,371a257,257,0,0,1,54.08-72.14c1.76-1.64,3.54-3.26,5.35-4.84q7.53-6.66,15.59-12.72l1.49-1.11q4.68-3.48,9.53-6.74,5.07-3.4,10.32-6.59h0l1.89-1.13a255.36,255.36,0,0,1,27.18-14c2.33-1,4.67-2,7-3q4.18-1.69,8.45-3.26h0a252.53,252.53,0,0,1,27-8.19c1.64-.4,3.29-.79,4.95-1.15q7.05-1.57,14.25-2.75c1.22-.21,2.45-.4,3.68-.58a253.78,253.78,0,0,1,26.77-2.55q5.58-.25,11.2-.25c2.83,0,5.66.05,8.47.14a256.36,256.36,0,0,1,25.86,2.15c1.7.23,3.4.47,5.09.73q7.18,1.11,14.23,2.62a251.31,251.31,0,0,1,34.85,10.08,254.74,254.74,0,0,1,40,18.85q2.31,1.33,4.57,2.72,4.67,2.83,9.19,5.88t9,6.28c.69.5,1.37,1,2.05,1.52q6.87,5.14,13.39,10.73,4.07,3.49,8,7.16A257,257,0,0,1,484.77,371Z"/><rect class="cls-3" x="170.81" y="423.3" width="157.08" height="55.37" rx="13.54"/><path class="cls-3" d="M391.52,473.22c-.87.55-1.74,1.09-2.62,1.62a255.71,255.71,0,0,1-265.09.43l0,0q-4.78-2.89-9.44-6a26.45,26.45,0,0,1,9-1.57H375.4A26.06,26.06,0,0,1,391.52,473.22Z"/><path class="cls-4" d="M327.68,436.79A13.55,13.55,0,0,1,314.36,448h-130A13.54,13.54,0,0,1,171,436.79a13.51,13.51,0,0,1,13.32-11.18h130A13.52,13.52,0,0,1,327.68,436.79Z"/><path class="cls-5" d="M422.7,216.61V394.17a34,34,0,0,1-34,34h-268a34,34,0,0,1-34-34V216.61a168,168,0,0,1,336,0Z"/><path class="cls-4" d="M201.21,428.18H120.66a34,34,0,0,1-34-34V273.4A167.86,167.86,0,0,1,152.06,314,167.42,167.42,0,0,1,201.21,428.18Z"/><path class="cls-4" d="M308.14,428.18h80.55a34,34,0,0,0,34-34V273.4A168.19,168.19,0,0,0,308.14,428.18Z"/><path class="cls-6" d="M334.25,428.18h54.44a34,34,0,0,0,34-34V309.1a168.39,168.39,0,0,0-88.45,119.08Z"/><path class="cls-3" d="M152.67,394.17a34,34,0,0,0,34,34h-66a34,34,0,0,1-34-34V216.61a168.17,168.17,0,0,1,201-164.78,167.88,167.88,0,0,0-135,164.78Z"/><path class="cls-7" d="M186.68,428.18h-66a34,34,0,0,1-34-34V273.4A167.86,167.86,0,0,1,152.06,314c.21.2.42.41.61.62v79.6a34,34,0,0,0,34,34Z"/><path class="cls-6" d="M175.11,428.18H120.66a34,34,0,0,1-34-34V309.1a168.71,168.71,0,0,1,42,30.67A167.54,167.54,0,0,1,175.11,428.18Z"/><path class="cls-8" d="M175.11,428.18H120.66a34,34,0,0,1-34-34V309.1a168.71,168.71,0,0,1,42,30.67,167.76,167.76,0,0,1,24,30.31v24.09a34,34,0,0,0,22,31.82C174.83,426.72,175,427.44,175.11,428.18Z"/><rect class="cls-9" x="121.58" y="156.04" width="266.19" height="122.09" rx="26.18"/><rect class="cls-7" x="201.49" y="328.84" width="95.72" height="43.9" rx="9.41"/><path class="cls-10" d="M163.92,156a167.48,167.48,0,0,0-11.25,60.57v61.53h-4.92A26.17,26.17,0,0,1,121.58,252V182.22A26.18,26.18,0,0,1,147.75,156Z"/><circle class="cls-11" cx="174.82" cy="217.09" r="21.3"/><circle class="cls-11" cx="228.06" cy="217.09" r="21.3"/><circle class="cls-11" cx="281.3" cy="217.09" r="21.3"/><circle class="cls-11" cx="334.53" cy="217.09" r="21.3"/><ellipse class="cls-12" cx="335.5" cy="99.38" rx="6.92" ry="15.23" transform="translate(31.7 273) rotate(-46.25)"/><ellipse class="cls-12" cx="362.08" cy="124.84" rx="5.36" ry="11.79" transform="translate(21.51 300.05) rotate(-46.25)"/></g></svg>