<svg xmlns="http://www.w3.org/2000/svg" viewBox="0 0 512 512"><defs><style>.cls-1{fill:#f58d89;}.cls-2{fill:#ef7070;}.cls-3{fill:#fff;}.cls-4{fill:#32314b;}.cls-5{fill:#dbdbdb;}.cls-6{fill:#aa60fa;}.cls-7{fill:#934cf5;}.cls-8{fill:#27273d;}.cls-9{fill:#b0d46c;}.cls-10{fill:#a0bc62;}.cls-11{fill:#4f4f74;}.cls-12{fill:#d6ef9e;}</style></defs><title>Robot Avatars</title><g id="BULINE"><circle class="cls-1" cx="256" cy="256" r="256"/></g><g id="Icons"><path class="cls-2" d="M484.77,371A257.06,257.06,0,0,1,388.9,474.84q-4.77,2.9-9.67,5.59a255.73,255.73,0,0,1-248-.85c-2.5-1.4-5-2.84-7.41-4.31l0,0A257.19,257.19,0,0,1,27.23,371a256.81,256.81,0,0,1,75-89.7c3.38-2.54,6.82-5,10.33-7.38l.69-.47q5.07-3.4,10.32-6.59h0q4.59-2.78,9.29-5.36,2.19-1.22,4.43-2.38h0q10.89-5.72,22.37-10.38,4.14-1.68,8.35-3.22l.1,0h0q6.14-2.25,12.41-4.17c.62-.2,1.24-.39,1.87-.57q6.28-1.89,12.7-3.45c1.64-.4,3.29-.79,4.95-1.15q8.85-2,17.93-3.33a258.67,258.67,0,0,1,72.3-.51q9.78,1.31,19.32,3.35,10.1,2.15,19.89,5.09,7.59,2.27,15,5a251.94,251.94,0,0,1,28.17,12.37q2,1,4,2.07,6.35,3.39,12.48,7.13,4.31,2.63,8.5,5.42l.69.46q5.61,3.75,11,7.8a256.81,256.81,0,0,1,75.46,90Z"/><path class="cls-3" d="M379.23,480.43a255.73,255.73,0,0,1-248-.85c17-15.42,45.17-27.32,79.07-32.94a277.54,277.54,0,0,1,88.93,0C333.74,452.37,362.34,464.6,379.23,480.43Z"/><ellipse class="cls-4" cx="254.76" cy="442.88" rx="44.61" ry="45.17"/><rect class="cls-3" x="132.89" y="34.02" width="243.75" height="395.83" rx="121.87"/><path class="cls-5" d="M254.75,348c-31.41,0-60.64-7.5-85.12-20.4A122,122,0,0,1,168.06,308V155.89A121.87,121.87,0,0,1,272.35,35.29a121.91,121.91,0,0,0-139.46,120.6V300.67h0V308c0,.06,0,.13,0,.2,0,1.46,0,2.91.09,4.36,0,.34,0,.67,0,1,.06,1.47.16,2.94.27,4.4,0,.26.05.52.07.78q.42,4.71,1.18,9.31l0,.24h0A121.93,121.93,0,0,0,272.35,428.58a121.5,121.5,0,0,1-70-35.88c-11.23-11.61-1-30.7,14.93-28.23a192.81,192.81,0,0,0,29.5,2.26c54.17,0,101.88-22.3,129.85-56.14,0-.87,0-1.73,0-2.6v-7.33C348.05,329.52,304.07,348,254.75,348Z"/><ellipse class="cls-6" cx="254.76" cy="222" rx="156" ry="126"/><ellipse class="cls-4" cx="254.76" cy="222" rx="126.06" ry="101.82"/><path class="cls-7" d="M242,323.31a173.23,173.23,0,0,0,52.78,20.52,191.25,191.25,0,0,1-40,4.18c-86.15,0-156-56.41-156-126s69.85-126,156-126a191.92,191.92,0,0,1,40,4.17A173.5,173.5,0,0,0,242,120.71c-32.48,19.44-55.28,48.82-61.5,82.57a103.08,103.08,0,0,0,0,37.45C186.7,274.49,209.5,303.87,242,323.31Z"/><path class="cls-8" d="M242,323.31C178.36,318.14,128.7,274.76,128.7,222S178.36,125.87,242,120.71c-32.48,19.44-55.28,48.82-61.5,82.57a103.08,103.08,0,0,0,0,37.45C186.7,274.49,209.5,303.87,242,323.31Z"/><rect class="cls-9" x="159.45" y="203.28" width="195" height="37.45" rx="18.72"/><path class="cls-10" d="M178.76,222a102.81,102.81,0,0,0,1.71,18.72h-2.3a18.73,18.73,0,0,1,0-37.45h2.31A102,102,0,0,0,178.76,222Z"/><ellipse class="cls-11" cx="321.4" cy="155.06" rx="6.5" ry="14.3" transform="translate(-15.5 272.68) rotate(-45)"/><ellipse class="cls-11" cx="345.85" cy="179.5" rx="5.03" ry="11.07" transform="translate(-25.63 297.13) rotate(-45)"/><ellipse class="cls-12" cx="322.61" cy="221.72" rx="23.24" ry="10.22"/></g></svg>