<svg xmlns="http://www.w3.org/2000/svg" viewBox="0 0 512 512"><defs><style>.cls-1{fill:#fc4581;}.cls-2{fill:#e03674;}.cls-3{fill:#7cc8fb;}.cls-4{fill:#41c0e3;}.cls-5{fill:#acdffc;}.cls-6{fill:#f7bb38;}.cls-7{fill:#dba12e;}.cls-8{fill:#27273d;}.cls-9{fill:#b0d46c;}.cls-10{fill:#32314b;}.cls-11{fill:#fff;}.cls-12{fill:#e88032;}.cls-13{fill:#c1682b;}.cls-14{fill:#f7c96f;}</style></defs><title>Robot Avatars</title><g id="BULINE"><circle class="cls-1" cx="256" cy="256" r="256"/></g><g id="Icons"><path class="cls-2" d="M484.77,371a255.88,255.88,0,0,1-361,104.27l0,0A257.29,257.29,0,0,1,27.23,371a256.81,256.81,0,0,1,75-89.7q5.4-4.07,11-7.85l1.81-1.2q4.19-2.78,8.51-5.39h0c1.46-.88,2.92-1.75,4.4-2.61q6.13-3.56,12.5-6.77,9.38-4.76,19.21-8.75,4.18-1.69,8.45-3.26h0q2.33-.85,4.68-1.65,4.93-1.71,10-3.2,5.87-1.76,11.85-3.22l.48-.12c1.64-.4,3.29-.79,4.95-1.15q8.85-2,17.93-3.33a255.35,255.35,0,0,1,26.57-2.55c3.1-.14,6.22-.22,9.34-.24H256c2.8,0,5.6.05,8.38.14q7.2.23,14.29.86,5.86.51,11.66,1.29,9.78,1.31,19.32,3.35,8.64,1.85,17.07,4.26,5,1.44,9.95,3.08,3.94,1.31,7.83,2.74a248.81,248.81,0,0,1,24,10.28c.25.11.5.24.75.37q6.36,3.12,12.5,6.61,3.72,2.08,7.36,4.31,3.48,2.11,6.88,4.35l2.31,1.53q5.61,3.75,11,7.8a256.81,256.81,0,0,1,75.46,90Z"/><path class="cls-3" d="M368.5,187.41V365.24h-228V187.41a114,114,0,1,1,228,0Z"/><circle class="cls-4" cx="211" cy="219.33" r="45.33"/><circle class="cls-4" cx="298" cy="219.33" r="45.33"/><ellipse class="cls-5" cx="326.48" cy="129.06" rx="6.5" ry="14.3" transform="translate(-23.07 161.63) rotate(-26.89)"/><ellipse class="cls-5" cx="342.12" cy="159.89" rx="5.03" ry="11.07" transform="translate(-35.32 172.04) rotate(-26.89)"/><path class="cls-6" d="M394.05,393.66H372.3a14.21,14.21,0,0,0,14.2-14.21h0a14.21,14.21,0,0,0-14.2-14.21H136.71a14.21,14.21,0,0,0-14.21,14.21h0a14.21,14.21,0,0,0,14.21,14.21H115a14.21,14.21,0,0,0-14.21,14.21v10.91A14.21,14.21,0,0,0,115,433H394.05a14.21,14.21,0,0,0,14.2-14.21V407.87A14.21,14.21,0,0,0,394.05,393.66Z"/><path class="cls-7" d="M171.51,389.5a14.16,14.16,0,0,0,10,4.16H159.8a14.21,14.21,0,0,0-14.2,14.21v10.91A14.21,14.21,0,0,0,159.8,433H113.67a14.21,14.21,0,0,1-14.21-14.21V407.87a14.21,14.21,0,0,1,14.21-14.21h21.75a14.21,14.21,0,1,1,0-28.42h46.13a14.21,14.21,0,0,0-10,24.26Z"/><path class="cls-8" d="M341.32,308.39c0,.71,0,1.42-.07,2.12a29.41,29.41,0,0,1-29.32,27.27H197.08a29.41,29.41,0,0,1-29.31-27.12c-.05-.75-.08-1.5-.08-2.27s0-1.53.08-2.27A29.41,29.41,0,0,1,197.08,279H311.93a29.41,29.41,0,0,1,29.29,27C341.28,306.76,341.32,307.57,341.32,308.39Z"/><path class="cls-9" d="M341.32,308.39c0,.71,0,1.42-.07,2.12h-5.68l-2.52,8.81a2.28,2.28,0,0,1-4.37,0L323,299.41l-3.3,9.57a2.29,2.29,0,0,1-2.16,1.53h-9.81a2.3,2.3,0,0,1-1.87-1L298,298.08l-6,11.37a2.28,2.28,0,0,1-2,1.21h-5.7l-4.9,12.93a2.28,2.28,0,0,1-4.14.26l-7.08-13.34h-5.45a2.25,2.25,0,0,1-1.89-1l-5.32-8-5,7.93a2.26,2.26,0,0,1-1.92,1.06h-7.3l-5,21a2.28,2.28,0,0,1-2.21,1.75h0a2.28,2.28,0,0,1-2.19-1.81L224,294.05l-5,14.47a2.27,2.27,0,0,1-2.15,1.54h-8.64l-4.65,9.62a2.28,2.28,0,0,1-2,1.28,2.2,2.2,0,0,1-2-1.25l-5.12-10.15-6.41-9-8.1,9.32a2.27,2.27,0,0,1-1.72.79H167.77c-.05-.75-.08-1.5-.08-2.27s0-1.53.08-2.27h9.34l9.32-10.74a2.26,2.26,0,0,1,1.82-.78,2.31,2.31,0,0,1,1.75,1l8.18,11.51a1.69,1.69,0,0,1,.17.29l3.12,6.19,3.26-6.76a2.3,2.3,0,0,1,2.05-1.28h8.44l7.14-20.74a2.27,2.27,0,0,1,4.37.28l7.47,35.56,3.1-12.9a2.26,2.26,0,0,1,2.21-1.75h7.82l6.16-9.84a2.23,2.23,0,0,1,1.89-1.06,2.3,2.3,0,0,1,1.92,1l6.6,9.9h5.6a2.29,2.29,0,0,1,2,1.21l5.38,10.11,3.67-9.7a2.27,2.27,0,0,1,2.13-1.46h5.9l7.09-13.48a2.26,2.26,0,0,1,1.87-1.22,2.3,2.3,0,0,1,2,1L308.88,306h7L321,291.13a2.27,2.27,0,0,1,2.15-1.53h.05a2.28,2.28,0,0,1,2.13,1.65l5.54,19.21.81-2.85a2.3,2.3,0,0,1,2.19-1.65h7.36C341.28,306.76,341.32,307.57,341.32,308.39Z"/><circle class="cls-10" cx="211" cy="219.33" r="35.31"/><circle class="cls-10" cx="298" cy="219.33" r="35.31"/><path class="cls-8" d="M218,253.94a35.32,35.32,0,1,1,0-69.23,35.32,35.32,0,0,0,0,69.23Z"/><path class="cls-8" d="M305,253.94a35.32,35.32,0,1,1,0-69.23,35.32,35.32,0,0,0,0,69.23Z"/><circle class="cls-11" cx="223.34" cy="208.83" r="12.33"/><circle class="cls-11" cx="310.34" cy="208.83" r="12.33"/><path class="cls-4" d="M287.11,78.15a19,19,0,0,1-.1,2.38l-5.83,55.75a20,20,0,0,1-19.85,17.88h-30a20,20,0,0,1-19.85-17.88L206,84.22a114.31,114.31,0,0,1,81.1-6.07Z"/><path class="cls-12" d="M120.59,205.66H140.5a0,0,0,0,1,0,0v67.67a0,0,0,0,1,0,0H120.59A14.58,14.58,0,0,1,106,258.74v-38.5A14.58,14.58,0,0,1,120.59,205.66Z"/><rect class="cls-13" x="128" y="205.66" width="12.5" height="67.67"/><path class="cls-12" d="M383.84,205.66h19.92a0,0,0,0,1,0,0v67.67a0,0,0,0,1,0,0H383.84a14.58,14.58,0,0,1-14.58-14.58v-38.5a14.58,14.58,0,0,1,14.58-14.58Z" transform="translate(773.01 478.99) rotate(180)"/><rect class="cls-13" x="369.25" y="205.66" width="12.5" height="67.67" transform="translate(751.01 478.99) rotate(180)"/><path class="cls-6" d="M271.36,143.66h-30a20,20,0,0,1-19.85-17.88L215.64,70a20,20,0,0,1,19.85-22h41.7A20,20,0,0,1,297,70l-5.83,55.75A20,20,0,0,1,271.36,143.66Z"/><path class="cls-14" d="M265.84,143.66h-19c-6.46,0-11.88-9.49-12.55-22L230.6,53.09C229.82,38.6,235.66,26,243.15,26h26.37c7.49,0,13.33,12.61,12.56,27.1l-3.69,68.57C277.72,134.17,272.3,143.66,265.84,143.66Z"/><path class="cls-4" d="M441,433a255.74,255.74,0,0,1-317.14,42.28l0,0A257.26,257.26,0,0,1,71.05,433Z"/></g></svg>