<svg xmlns="http://www.w3.org/2000/svg" viewBox="0 0 512 512"><defs><style>.cls-1{fill:#9e4830;}.cls-2{fill:#7f3828;}.cls-3{fill:#999;}.cls-4{fill:#b7b7b7;}.cls-5{fill:#fdffff;}.cls-6{fill:#ddd;}.cls-7{fill:#3e436d;}.cls-8{fill:#b0d46c;}.cls-9{fill:#9eba61;}.cls-10{fill:#fff;}.cls-11{fill:#32314b;}.cls-12{fill:none;stroke:#27273d;stroke-linecap:round;stroke-linejoin:round;stroke-width:10px;}</style></defs><title>Robot Avatars</title><g id="BULINE"><circle class="cls-1" cx="256" cy="256" r="256"/></g><g id="Icons"><path class="cls-2" d="M484.77,371a255.88,255.88,0,0,1-361,104.27l0,0A257.19,257.19,0,0,1,27.23,371a256.81,256.81,0,0,1,75-89.7q5.4-4.07,11-7.85,5.07-3.4,10.32-6.59h0a254.42,254.42,0,0,1,36.11-18.13q4.18-1.69,8.45-3.26h0a252.53,252.53,0,0,1,27-8.19c1.64-.4,3.29-.79,4.95-1.15q8.85-2,17.93-3.33a258.67,258.67,0,0,1,72.3-.51q9.78,1.31,19.32,3.35a251.31,251.31,0,0,1,34.85,10.08,254.65,254.65,0,0,1,44.61,21.57q4.67,2.83,9.19,5.88,5.61,3.75,11,7.8a256.81,256.81,0,0,1,75.46,90Z"/><path class="cls-3" d="M47.86,232.76H65.35a0,0,0,0,1,0,0V302a0,0,0,0,1,0,0H47.86A10.86,10.86,0,0,1,37,291.14V243.62A10.86,10.86,0,0,1,47.86,232.76Z"/><path class="cls-4" d="M71,220.54H94.68a0,0,0,0,1,0,0v93.67a0,0,0,0,1,0,0H71a14.69,14.69,0,0,1-14.69-14.69V235.23A14.69,14.69,0,0,1,71,220.54Z"/><path class="cls-3" d="M457.51,232.76H475a0,0,0,0,1,0,0V302a0,0,0,0,1,0,0H457.51a10.86,10.86,0,0,1-10.86-10.86V243.62A10.86,10.86,0,0,1,457.51,232.76Z" transform="translate(921.65 534.75) rotate(180)"/><path class="cls-4" d="M432,220.54h23.66a0,0,0,0,1,0,0v93.67a0,0,0,0,1,0,0H432a14.69,14.69,0,0,1-14.69-14.69V235.23A14.69,14.69,0,0,1,432,220.54Z" transform="translate(872.98 534.75) rotate(180)"/><path class="cls-5" d="M382.17,127.79h-251A35.37,35.37,0,0,0,95.8,163.17V350A53.2,53.2,0,0,0,149,403.21h37.23v50.93a27.54,27.54,0,0,0,27.53,27.53h85.82a27.54,27.54,0,0,0,27.53-27.53V403.21h37.22A53.21,53.21,0,0,0,417.54,350V163.17A35.38,35.38,0,0,0,382.17,127.79Z"/><path class="cls-6" d="M266.65,481.67h-54a27.54,27.54,0,0,1-27.53-27.53V403.21H147.89A53.21,53.21,0,0,1,94.68,350V163.17a35.38,35.38,0,0,1,35.38-35.38h54a35.38,35.38,0,0,0-35.38,35.38V350a53.18,53.18,0,0,0,53.21,53.21h37.23v50.93A27.54,27.54,0,0,0,266.65,481.67Z"/><circle class="cls-7" cx="180.67" cy="253.67" r="57.17"/><circle class="cls-8" cx="180.67" cy="253.67" r="41"/><path class="cls-9" d="M187.67,293.89a41,41,0,1,1,0-80.44,41,41,0,0,0,0,80.44Z"/><circle class="cls-10" cx="196.67" cy="240.17" r="16"/><circle class="cls-7" cx="330.67" cy="253.67" r="57.17"/><circle class="cls-8" cx="330.67" cy="253.67" r="41"/><circle class="cls-8" cx="256.67" cy="39.64" r="25.64"/><path class="cls-9" d="M337.67,293.89a41,41,0,1,1,0-80.44,41,41,0,0,0,0,80.44Z"/><circle class="cls-10" cx="346.67" cy="240.17" r="16"/><rect class="cls-7" x="133.5" y="335.17" width="41" height="32.67" rx="7.75"/><path class="cls-11" d="M151.75,367.84H140.14a7.75,7.75,0,0,1-7.75-7.75V342.92a7.75,7.75,0,0,1,7.75-7.75h8.54V350A53,53,0,0,0,151.75,367.84Z"/><rect class="cls-7" x="184.84" y="335.17" width="41" height="32.67" rx="7.75"/><rect class="cls-7" x="236.17" y="335.17" width="41" height="32.67" rx="7.75"/><rect class="cls-7" x="287.5" y="335.17" width="41" height="32.67" rx="7.75"/><rect class="cls-7" x="338.84" y="335.17" width="41" height="32.67" rx="7.75"/><polyline class="cls-12" points="256.67 127.79 266.65 98.67 256.67 73.67 256.67 47.67"/></g></svg>