<svg xmlns="http://www.w3.org/2000/svg" viewBox="0 0 512 512"><defs><style>.cls-1{fill:#db1b1b;}.cls-2{fill:#bc1b1b;}.cls-3{fill:#b0d46c;}.cls-4{fill:#fff;}.cls-5{fill:#95b257;}.cls-6{fill:#859b50;}.cls-7{fill:none;stroke:#32314b;stroke-linecap:round;stroke-miterlimit:10;stroke-width:20px;}.cls-8{fill:#f58d89;}.cls-9{fill:#d6d6d6;}.cls-10{fill:#27273d;}</style></defs><title>Robot Avatars</title><g id="BULINE"><circle class="cls-1" cx="256" cy="256" r="256"/></g><g id="Icons"><path class="cls-2" d="M484.77,371a256.88,256.88,0,0,1-83.21,95.61q-6.19,4.31-12.66,8.23a255.71,255.71,0,0,1-265.09.43l0,0q-9.87-6-19.14-12.78A257.14,257.14,0,0,1,27.23,371,256.12,256.12,0,0,1,63,317.79c1.51-1.74,3-3.45,4.6-5.14q6.59-7.15,13.69-13.79,3.66-3.41,7.45-6.68,6.55-5.67,13.49-10.88,4.52-3.39,9.17-6.59l1.85-1.26q5.07-3.4,10.32-6.59h0q7.62-4.62,15.57-8.7,10-5.16,20.54-9.43c1.44-.58,2.9-1.16,4.36-1.72s2.72-1,4.09-1.54h0a252.53,252.53,0,0,1,27-8.19c1.64-.4,3.29-.79,4.95-1.15q8.85-2,17.93-3.33a258.67,258.67,0,0,1,72.3-.51q9.78,1.31,19.32,3.35a254,254,0,0,1,63.63,22.76q8.09,4.17,15.83,8.89,4.67,2.83,9.19,5.88c.76.51,1.52,1,2.27,1.54q4.44,3,8.74,6.26,6.1,4.57,11.93,9.5,4.83,4.08,9.45,8.39,7.31,6.81,14.05,14.19,2.16,2.34,4.24,4.74A256.12,256.12,0,0,1,484.77,371Z"/><path class="cls-3" d="M401.56,466.61q-6.19,4.31-12.66,8.23a255.71,255.71,0,0,1-265.09.43l0,0q-9.87-6-19.14-12.78a135,135,0,0,1,87.8-32.26H309.09A135.18,135.18,0,0,1,401.56,466.61Z"/><path class="cls-4" d="M44.26,231.63h44.5a0,0,0,0,1,0,0v86.17a0,0,0,0,1,0,0H44.26a13.5,13.5,0,0,1-13.5-13.5V245.13A13.5,13.5,0,0,1,44.26,231.63Z"/><path class="cls-4" d="M434.74,231.63h44.5a0,0,0,0,1,0,0v86.17a0,0,0,0,1,0,0h-44.5a13.5,13.5,0,0,1-13.5-13.5V245.13A13.5,13.5,0,0,1,434.74,231.63Z" transform="translate(900.48 549.42) rotate(180)"/><path class="cls-4" d="M230.81,374.75h57.29a0,0,0,0,1,0,0V485.67a0,0,0,0,1,0,0H230.81a17.38,17.38,0,0,1-17.38-17.38V392.13A17.38,17.38,0,0,1,230.81,374.75Z" transform="translate(-179.45 680.97) rotate(-90)"/><path class="cls-3" d="M450.24,274.71A135.66,135.66,0,0,1,314.57,410.37H197.91a135.67,135.67,0,0,1,0-271.33H314.57A135.67,135.67,0,0,1,450.24,274.71Z"/><path class="cls-5" d="M450.24,274.71A135.66,135.66,0,0,1,314.57,410.37H197.91A135.67,135.67,0,0,1,62.24,274.71Z"/><path class="cls-5" d="M296.91,410.37h-99a135.67,135.67,0,0,1,0-271.33h99a135.67,135.67,0,1,0,0,271.33Z"/><path class="cls-6" d="M296.91,410.37h-99A135.67,135.67,0,0,1,62.24,274.71h99A135.66,135.66,0,0,0,296.91,410.37Z"/><ellipse class="cls-6" cx="156.55" cy="176.88" rx="30" ry="15.42" transform="translate(-79.22 162.5) rotate(-45)"/><line class="cls-7" x1="152.5" y1="171.7" x2="95.5" y2="114.7"/><circle class="cls-8" cx="95.5" cy="114.7" r="27.74"/><ellipse class="cls-5" cx="361.45" cy="176.88" rx="15.42" ry="30" transform="translate(-19.21 307.39) rotate(-45)"/><line class="cls-7" x1="365.5" y1="171.7" x2="422.5" y2="114.7"/><circle class="cls-8" cx="422.5" cy="114.7" r="27.74"/><path class="cls-4" d="M284.31,367.29H228.18c-43,0-79.21-30-84.12-69.63l-5.84-47.19c-2.71-21.85,15.69-41,39.38-41H334.88c23.69,0,42.09,19.16,39.38,41l-5.84,47.19C363.51,337.34,327.33,367.29,284.31,367.29Z"/><path class="cls-9" d="M190.77,359.21c-25.09-11.48-43.33-34.21-46.71-61.55l-2.84-23-3-24.25c-2.71-21.84,15.69-41,39.38-41h.34a135.73,135.73,0,0,0,12.83,149.75Z"/><circle class="cls-10" cx="197.76" cy="264.54" r="25"/><circle class="cls-10" cx="312.59" cy="264.54" r="25"/><path class="cls-10" d="M215.53,303.54H298a11.9,11.9,0,0,1,11.9,11.9v0a31.27,31.27,0,0,1-31.27,31.27H234.9a31.27,31.27,0,0,1-31.27-31.27v0A11.9,11.9,0,0,1,215.53,303.54Z"/></g></svg>