<svg xmlns="http://www.w3.org/2000/svg" viewBox="0 0 512 512"><defs><style>.cls-1{fill:#4f4f74;}.cls-2{fill:#40405b;}.cls-3{fill:#db1b1b;}.cls-4{fill:#bc1b1b;}.cls-5{fill:none;stroke:#32314b;stroke-linecap:round;stroke-miterlimit:10;stroke-width:15px;}.cls-6{fill:#f6c752;}.cls-7{fill:#00b564;}.cls-8{fill:#d3a746;}.cls-9{fill:#049650;}.cls-10{fill:#f6d372;}.cls-11{fill:#3e436d;}.cls-12{fill:#f4d68e;}.cls-13{fill:#32314b;}.cls-14{fill:#bc923f;}.cls-15{fill:#fff;}</style></defs><title>Robot Avatars</title><g id="BULINE"><circle class="cls-1" cx="256" cy="256" r="256"/></g><g id="Icons"><path class="cls-2" d="M484.77,371A257.06,257.06,0,0,1,388.9,474.84Q387,476,385,477.16a253.71,253.71,0,0,1-65.65,26.93,257.8,257.8,0,0,1-122.87,1,254.29,254.29,0,0,1-66.86-26.37q-2.93-1.67-5.81-3.4l0,0A257.19,257.19,0,0,1,27.23,371a257,257,0,0,1,54.08-72.14c1.06-1,2.12-2,3.2-2.93q3.4-3.07,6.91-6,5.3-4.46,10.83-8.61c1.45-1.09,2.9-2.16,4.37-3.22q3.28-2.37,6.65-4.63,5.07-3.4,10.32-6.59h0q7.29-4.42,14.9-8.35,8.87-4.6,18.12-8.5l3.09-1.28q4.18-1.69,8.45-3.26h0a252.53,252.53,0,0,1,27-8.19c1.64-.4,3.29-.79,4.95-1.15q8.85-2,17.93-3.33a258.67,258.67,0,0,1,72.3-.51q9.78,1.31,19.32,3.35a254.14,254.14,0,0,1,69.85,26.08q4.88,2.67,9.61,5.57t9.19,5.88q5.61,3.75,11,7.8l2.07,1.57q7.85,6,15.2,12.57l.91.82c1.08,1,2.14,1.94,3.2,2.93A257,257,0,0,1,484.77,371Z"/><path class="cls-3" d="M319.35,454v50.12a257.8,257.8,0,0,1-122.87,1V454a21.89,21.89,0,0,1,21.9-21.9h79.07a21.89,21.89,0,0,1,21.9,21.9Z"/><path class="cls-4" d="M385,477.16a253.71,253.71,0,0,1-65.65,26.93,257.8,257.8,0,0,1-122.87,1,254.29,254.29,0,0,1-66.86-26.37,27.32,27.32,0,0,1,21.95-11H364.26A27.32,27.32,0,0,1,385,477.16Z"/><line class="cls-5" x1="255.75" y1="38.23" x2="255.75" y2="105.9"/><path class="cls-6" d="M125.89,139.23H392.11a19.27,19.27,0,0,1,19.27,19.27v129A152.38,152.38,0,0,1,259,439.9h0A152.38,152.38,0,0,1,106.62,287.52v-129a19.27,19.27,0,0,1,19.27-19.27Z"/><rect class="cls-7" x="138.5" y="187.07" width="241" height="149.5" rx="19.49"/><path class="cls-8" d="M284,437.85A152.46,152.46,0,0,1,106.62,287.52v-129a19.28,19.28,0,0,1,19.27-19.28h50a19.28,19.28,0,0,0-19.27,19.28v129A152.23,152.23,0,0,0,284,437.85Z"/><path class="cls-9" d="M164.69,336.57H158a19.49,19.49,0,0,1-19.49-19.49V206.56a19.46,19.46,0,0,1,18.12-19.43V287.52A152.18,152.18,0,0,0,164.69,336.57Z"/><path class="cls-10" d="M79.25,204.54h27.37a0,0,0,0,1,0,0v91.39a0,0,0,0,1,0,0H79.25a11.5,11.5,0,0,1-11.5-11.5V216A11.5,11.5,0,0,1,79.25,204.54Z"/><path class="cls-10" d="M422.88,204.54h27.37a0,0,0,0,1,0,0v91.39a0,0,0,0,1,0,0H422.88a11.5,11.5,0,0,1-11.5-11.5V216a11.5,11.5,0,0,1,11.5-11.5Z" transform="translate(861.63 500.47) rotate(180)"/><path class="cls-11" d="M193.58,99.23H324.42A15.58,15.58,0,0,1,340,114.82v24.42a0,0,0,0,1,0,0H178a0,0,0,0,1,0,0V114.82A15.58,15.58,0,0,1,193.58,99.23Z"/><ellipse class="cls-12" cx="393.75" cy="172.9" rx="6.5" ry="14.3"/><ellipse class="cls-12" cx="393.75" cy="207.47" rx="5.03" ry="11.07"/><rect class="cls-13" x="178" y="122.9" width="162" height="16.33"/><rect class="cls-14" x="91.42" y="204.54" width="15.21" height="91.39"/><rect class="cls-8" x="411.38" y="204.54" width="15.21" height="91.39"/><path class="cls-5" d="M234.78,368.89a34.26,34.26,0,0,0,48.44,0"/><circle class="cls-15" cx="207.87" cy="261.85" r="24"/><circle class="cls-15" cx="310.13" cy="261.85" r="24"/><circle class="cls-6" cx="255.75" cy="43.58" r="26.32"/></g></svg>