<svg xmlns="http://www.w3.org/2000/svg" viewBox="0 0 512 512"><defs><style>.cls-1{fill:#4acc97;}.cls-2{fill:#46b786;}.cls-3{fill:#8f86b5;}.cls-4{fill:#a99bd4;}.cls-5{fill:#7a759b;}.cls-6{fill:#7cc8fb;}.cls-7{fill:#53bdf9;}.cls-8{fill:#fff;}.cls-9{fill:#27273d;}.cls-10{fill:#b8afe2;}.cls-11{fill:#696787;}.cls-12{fill:#db1b1b;}.cls-13{fill:#bc1919;}</style></defs><title>Robot Avatars</title><g id="BULINE"><path class="cls-1" d="M512,256A256,256,0,1,1,0,256C0,114.62,114.62,0,256,0S512,114.62,512,256Z"/></g><g id="Icons"><path class="cls-2" d="M484.77,371a255.88,255.88,0,0,1-361,104.27l0,0A257.19,257.19,0,0,1,27.23,371a256.81,256.81,0,0,1,75-89.7q5.4-4.07,11-7.85,5.07-3.4,10.32-6.59h0a254.42,254.42,0,0,1,36.11-18.13q4.18-1.69,8.45-3.26h0a252.53,252.53,0,0,1,27-8.19c1.64-.4,3.29-.79,4.95-1.15q8.85-2,17.93-3.33a258.67,258.67,0,0,1,72.3-.51q9.78,1.31,19.32,3.35a251.31,251.31,0,0,1,34.85,10.08,254.65,254.65,0,0,1,44.61,21.57q4.67,2.83,9.19,5.88,5.61,3.75,11,7.8a256.81,256.81,0,0,1,75.46,90Z"/><path class="cls-3" d="M392,154.1H315a6.85,6.85,0,0,0,2.19-5V135.69a6.86,6.86,0,0,0-6.87-6.87H270.85L255,45.48l-15.86,83.34h-35.8a6.86,6.86,0,0,0-6.87,6.87v13.38a6.85,6.85,0,0,0,2.19,5H118a34.74,34.74,0,0,0-34.74,34.74V311H426.71V188.84A34.74,34.74,0,0,0,392,154.1Z"/><path class="cls-4" d="M460.72,253.62v58.94a38.12,38.12,0,0,1-38.12,38.12H87.4a38.12,38.12,0,0,1-38.12-38.12V253.62a20.42,20.42,0,0,1,20.43-20.43H97.48a21,21,0,0,1,20,14.72l12.29,39.17a22.92,22.92,0,0,0,21.86,16.05H358.32a22.92,22.92,0,0,0,21.86-16.05l12.29-39.17a21,21,0,0,1,20-14.72h27.77A20.42,20.42,0,0,1,460.72,253.62Z"/><path class="cls-5" d="M377.5,292.57A22.89,22.89,0,0,1,358.32,303H151.68a22.92,22.92,0,0,1-21.86-16l-12.29-39.17a21,21,0,0,0-20-14.73H83.29v-8h23.19a21,21,0,0,1,20,14.73l12.29,39.17a22.92,22.92,0,0,0,21.86,16H367.32A22.79,22.79,0,0,0,377.5,292.57Z"/><rect class="cls-6" x="143.5" y="189.82" width="223" height="84.33" rx="13.92"/><path class="cls-7" d="M366.5,258.69v1.74a13.92,13.92,0,0,1-13.92,13.92H157.42a13.92,13.92,0,0,1-13.92-13.92V203.94A13.92,13.92,0,0,1,157.42,190h3.41v54.75a13.92,13.92,0,0,0,13.92,13.92Z"/><circle class="cls-8" cx="190.83" cy="231.98" r="35"/><circle class="cls-9" cx="190.83" cy="231.98" r="25.77"/><circle class="cls-8" cx="318.83" cy="231.98" r="35"/><circle class="cls-9" cx="318.83" cy="231.98" r="25.77"/><rect class="cls-5" x="187.83" y="350.68" width="134.33" height="27.13"/><rect class="cls-3" x="172.33" y="377.82" width="166.34" height="27.13" rx="8.07"/><ellipse class="cls-10" cx="386.48" cy="172.09" rx="17.76" ry="8.07"/><ellipse class="cls-10" cx="343.57" cy="172.09" rx="13.74" ry="6.25"/><rect class="cls-11" x="187.83" y="350.68" width="134.33" height="10.8"/><path class="cls-4" d="M386.57,435.79v40.44a256.21,256.21,0,0,1-259.65.88V435.79a30.93,30.93,0,0,1,30.93-30.93H355.64A30.93,30.93,0,0,1,386.57,435.79Z"/><circle class="cls-12" cx="255" cy="45.48" r="24.6"/><path class="cls-13" d="M259.94,69.46a24.34,24.34,0,0,1-5.5.62,24.6,24.6,0,1,1,0-49.2,24.34,24.34,0,0,1,5.5.62,24.6,24.6,0,0,0,0,48Z"/></g></svg>