<svg xmlns="http://www.w3.org/2000/svg" viewBox="0 0 512 512"><defs><style>.cls-1{fill:#366fca;}.cls-2{fill:#3366af;}.cls-3{fill:#fff;}.cls-4{fill:#27273d;}.cls-5{fill:#b0d46c;}.cls-6{fill:#32314b;}.cls-7{fill:#ddd;}.cls-8{fill:#4f4f74;}</style></defs><title>Robot Avatars</title><g id="BULINE"><circle class="cls-1" cx="256" cy="256" r="256"/></g><g id="Icons"><path class="cls-2" d="M484.77,371A257.06,257.06,0,0,1,388.9,474.84q-2,1.21-4,2.39a255.68,255.68,0,0,1-257.26.3c-1.28-.74-2.55-1.5-3.82-2.26l0,0A257.19,257.19,0,0,1,27.23,371a256.81,256.81,0,0,1,75-89.7l.51-.38q5.16-3.87,10.51-7.47,5.07-3.4,10.32-6.59h0q2-1.22,4-2.39a254.24,254.24,0,0,1,32.08-15.74c.52-.21,1-.42,1.55-.61a5.21,5.21,0,0,1,.5-.2c2.12-.85,4.25-1.66,6.4-2.45h0q11.55-4.22,23.59-7.34l3.39-.85c1.64-.4,3.29-.79,4.95-1.15q8.85-2,17.93-3.33a258.67,258.67,0,0,1,72.3-.51q9.78,1.31,19.32,3.35a251.31,251.31,0,0,1,34.85,10.08c2.27.84,4.52,1.7,6.76,2.61a252.84,252.84,0,0,1,33.63,16.45c1.42.82,2.82,1.66,4.22,2.51q4.67,2.83,9.19,5.88,5.61,3.75,11,7.8l.45.34a256.94,256.94,0,0,1,75,89.69Z"/><path class="cls-3" d="M457.76,331.27a71.46,71.46,0,0,1-71.5,71.5h-1.37v74.46a255.68,255.68,0,0,1-257.26.3V402.77h-.37a71.16,71.16,0,0,1-23.5-4l-1-.36a71.52,71.52,0,0,1-47-67.18c0-1.68.06-3.34.17-5a71.51,71.51,0,0,1,46.83-62.19l1-.36a71.16,71.16,0,0,1,23.5-4h.37V167.9a128.63,128.63,0,0,1,257.26,0v91.87h1.37a71.49,71.49,0,0,1,71.44,68.57C457.74,329.31,457.76,330.29,457.76,331.27Z"/><path class="cls-4" d="M342.57,374.44c0,.71,0,1.42-.07,2.12a29.41,29.41,0,0,1-29.32,27.27H198.33A29.4,29.4,0,0,1,169,376.71c-.06-.75-.09-1.51-.09-2.27s0-1.53.09-2.27A29.39,29.39,0,0,1,198.33,345H313.18a29.4,29.4,0,0,1,29.29,27C342.54,372.81,342.57,373.62,342.57,374.44Z"/><path class="cls-5" d="M342.57,374.44c0,.71,0,1.42-.07,2.12h-5.67l-2.53,8.81a2.27,2.27,0,0,1-4.36,0l-5.74-19.91L320.9,375a2.29,2.29,0,0,1-2.15,1.53h-9.81a2.3,2.3,0,0,1-1.87-1l-7.87-11.45-6,11.36a2.26,2.26,0,0,1-2,1.22h-5.7l-4.9,12.93a2.27,2.27,0,0,1-4.13.25l-7.09-13.33h-5.45a2.27,2.27,0,0,1-1.89-1l-5.32-8-5,7.92a2.28,2.28,0,0,1-1.93,1.07h-7.3l-5,21a2.27,2.27,0,0,1-2.2,1.74h0a2.27,2.27,0,0,1-2.19-1.81l-7.85-37.38-5,14.48a2.26,2.26,0,0,1-2.14,1.53h-8.65l-4.64,9.63a2.3,2.3,0,0,1-2,1.28,2.22,2.22,0,0,1-2-1.25l-5.11-10.15-6.41-9-8.1,9.33a2.3,2.3,0,0,1-1.72.79H169c-.06-.75-.09-1.51-.09-2.27s0-1.53.09-2.27h9.33l9.32-10.74a2.25,2.25,0,0,1,1.83-.78,2.28,2.28,0,0,1,1.74,1l8.18,11.52a1.75,1.75,0,0,1,.18.29l3.12,6.19,3.26-6.76a2.27,2.27,0,0,1,2-1.28h8.45l7.13-20.74a2.28,2.28,0,0,1,4.38.27l7.46,35.57,3.1-12.9a2.28,2.28,0,0,1,2.21-1.75h7.83l6.15-9.84a2.28,2.28,0,0,1,1.89-1.07,2.37,2.37,0,0,1,1.93,1l6.6,9.9h5.6a2.3,2.3,0,0,1,2,1.21l5.37,10.11,3.67-9.7a2.28,2.28,0,0,1,2.13-1.46h5.9l7.09-13.49a2.27,2.27,0,0,1,3.88-.23L310.14,372h7l5.12-14.83a2.26,2.26,0,0,1,2.14-1.53h.06a2.27,2.27,0,0,1,2.12,1.64l5.54,19.21.82-2.84a2.27,2.27,0,0,1,2.18-1.65h7.36C342.54,372.81,342.57,373.62,342.57,374.44Z"/><path class="cls-6" d="M256.26,70.43h0a95,95,0,0,1,95,95V301.85a21.08,21.08,0,0,1-21.08,21.08H182.34a21.08,21.08,0,0,1-21.08-21.08V165.43a95,95,0,0,1,95-95Z"/><path class="cls-4" d="M351.76,291.77v10.08a21.08,21.08,0,0,1-21.08,21.09H182.84a21.08,21.08,0,0,1-21.08-21.09V165.44A94.93,94.93,0,0,1,205.1,85.69a94.57,94.57,0,0,0-13.34,48.58V270.69a21.08,21.08,0,0,0,21.08,21.08Z"/><path class="cls-7" d="M127.63,259.77v143h-1.37a71.16,71.16,0,0,1-23.5-4V263.73a71.16,71.16,0,0,1,23.5-4Z"/><path class="cls-7" d="M384.89,402.77v-143h1.37a71.16,71.16,0,0,1,23.5,4V398.81a71.16,71.16,0,0,1-23.5,4Z"/><ellipse class="cls-8" cx="327.76" cy="146.1" rx="6.5" ry="14.3"/><ellipse class="cls-8" cx="327.76" cy="180.67" rx="5.03" ry="11.07"/><rect class="cls-3" x="211.76" y="165.58" width="88" height="21.33" rx="10.67"/><rect class="cls-3" x="194.51" y="206.46" width="122.5" height="21.33" rx="10.67"/></g></svg>