<svg xmlns="http://www.w3.org/2000/svg" viewBox="0 0 512 512"><defs><style>.cls-1{fill:#f6c752;}.cls-2{fill:#d8ab48;}.cls-3{fill:#c1c1c1;}.cls-4{fill:none;stroke:#32314b;stroke-linecap:round;stroke-miterlimit:10;stroke-width:20px;}.cls-5{fill:#4f4f74;}.cls-6{fill:#3e436d;}.cls-7{fill:#fff;}.cls-8{fill:#366fca;}.cls-9{fill:#7cc8fb;}.cls-10{fill:#41c0e3;}.cls-11{fill:#acdffc;}</style></defs><title>Robot Avatars</title><g id="BULINE"><circle class="cls-1" cx="256" cy="256" r="256"/></g><g id="Icons"><path class="cls-2" d="M484.77,371A257,257,0,0,1,407,462.78q-8.74,6.41-18.05,12.06a255.71,255.71,0,0,1-265.09.43l0,0A257.42,257.42,0,0,1,27.23,371a256.56,256.56,0,0,1,41.11-59.12q6.24-6.74,13-13c.34-.32.68-.64,1-.94a255.06,255.06,0,0,1,19.91-16.62q5.4-4.07,11-7.85,3-2,6.06-3.95,2.11-1.33,4.26-2.64h0q9.94-6,20.45-11.14,3.19-1.56,6.45-3,3.58-1.63,7.25-3.15c.65-.28,1.3-.54,2-.81q4.18-1.69,8.45-3.26h0a252.53,252.53,0,0,1,27-8.19l1.74-.42c1.06-.25,2.13-.5,3.21-.73q8.85-2,17.93-3.33a258.67,258.67,0,0,1,72.3-.51q9.78,1.31,19.32,3.35l.38.08a250.47,250.47,0,0,1,34.47,10l1.41.53q8.26,3.09,16.24,6.74a4.9,4.9,0,0,1,.52.24,252.93,252.93,0,0,1,26.44,14.06q4.67,2.83,9.19,5.88,5.61,3.75,11,7.8,8.6,6.43,16.62,13.56c1.61,1.42,3.19,2.87,4.76,4.33q6.78,6.33,13.09,13.15A256.37,256.37,0,0,1,484.77,371Z"/><path class="cls-3" d="M407,462.78q-8.74,6.41-18.05,12.06a255.71,255.71,0,0,1-265.09.43l0,0a254.7,254.7,0,0,1-23.07-15.73c7.91-22.71,46.59-41.47,98.62-49.27a375.47,375.47,0,0,1,108.09,0C361.91,418.43,401.77,438.62,407,462.78Z"/><line class="cls-4" x1="456.02" y1="258.28" x2="456.02" y2="140.05"/><circle class="cls-5" cx="456.02" cy="115.52" r="34.63"/><circle class="cls-5" cx="253.36" cy="129.59" r="54.06"/><path class="cls-6" d="M264.73,182.45a54.06,54.06,0,1,1,0-105.72,54.07,54.07,0,0,0,0,105.72Z"/><circle class="cls-7" cx="253.36" cy="411.7" r="54.06"/><line class="cls-4" x1="56.66" y1="258.28" x2="56.66" y2="140.05"/><ellipse class="cls-8" cx="86.42" cy="258.28" rx="64.39" ry="55.83"/><ellipse class="cls-8" cx="426.25" cy="258.28" rx="64.39" ry="55.83"/><ellipse class="cls-9" cx="253.36" cy="258.28" rx="180.2" ry="125.54"/><path class="cls-10" d="M276.09,382.84q-11.18,1-22.73,1c-99.52,0-180.19-56.2-180.19-125.54s80.67-125.54,180.19-125.54q11.55,0,22.73,1c-88.79,7.8-157.47,60.59-157.47,124.56S187.3,375.05,276.09,382.84Z"/><rect class="cls-8" x="144.05" y="205.48" width="218.62" height="105.6" rx="21.98"/><circle class="cls-5" cx="56.66" cy="115.52" r="34.63"/><path class="cls-6" d="M64.92,149.16a34.64,34.64,0,1,1,0-67.27,34.63,34.63,0,0,0,0,67.27Z"/><path class="cls-6" d="M464.27,149.16a34.64,34.64,0,1,1,0-67.27,34.63,34.63,0,0,0,0,67.27Z"/><circle class="cls-7" cx="182.2" cy="258.28" r="25.97"/><circle class="cls-7" cx="322.9" cy="258.28" r="25.97"/><rect class="cls-7" x="193.03" y="330.89" width="117.97" height="29.4" rx="14.7"/><ellipse class="cls-11" cx="353.44" cy="181.23" rx="8.73" ry="19.2" transform="translate(-24.63 303) rotate(-45)"/><ellipse class="cls-11" cx="386.26" cy="214.05" rx="6.75" ry="14.86" transform="translate(-38.23 335.82) rotate(-45)"/></g></svg>