<svg xmlns="http://www.w3.org/2000/svg" viewBox="0 0 512 512"><defs><style>.cls-1{fill:#fc4581;}.cls-2{fill:#e03b77;}.cls-3{fill:none;stroke:#366fca;stroke-linecap:round;stroke-miterlimit:10;stroke-width:15px;}.cls-4{fill:#f6d372;}.cls-5{fill:#f7bb38;}.cls-6{fill:#4f4f74;}.cls-7{fill:#f6c752;}.cls-8{fill:#27273d;}.cls-9{fill:#d69f32;}.cls-10{fill:#32314b;}.cls-11{fill:#b0d46c;}.cls-12{fill:#a0bf5a;}.cls-13{fill:#f7dd9a;}</style></defs><title>Robot Avatars</title><g id="BULINE"><circle class="cls-1" cx="256" cy="256" r="256"/></g><g id="Icons"><path class="cls-2" d="M484.77,371a257,257,0,0,1-87.22,98.33q-4.26,2.85-8.65,5.51a255.71,255.71,0,0,1-265.09.43l0,0q-4.72-2.87-9.32-5.93A257,257,0,0,1,27.23,371a257,257,0,0,1,54.08-72.14c2-1.83,4-3.63,6-5.4q7.24-6.36,15-12.16c1.93-1.45,3.87-2.87,5.84-4.27h0q2.56-1.81,5.18-3.57,5.07-3.4,10.32-6.59h0q10.14-6.14,20.88-11.35l1.22-.59c2.4-1.15,4.83-2.26,7.27-3.34q3.34-1.47,6.74-2.85,4.18-1.69,8.45-3.26h0a250.54,250.54,0,0,1,26.46-8.06l.52-.13c1.64-.4,3.29-.79,4.95-1.15q5.22-1.17,10.51-2.11c2.46-.45,4.93-.85,7.42-1.22a258.67,258.67,0,0,1,72.3-.51q9.78,1.31,19.32,3.35,7.61,1.62,15,3.69,8.43,2.32,16.61,5.23l3.22,1.16q9.71,3.57,19,7.91,3.61,1.67,7.15,3.45,4.14,2.07,8.18,4.29,5.19,2.83,10.24,5.92,2.83,1.72,5.63,3.54c1.19.76,2.38,1.55,3.56,2.34q2.83,1.89,5.61,3.86t5.4,3.94q7.95,6,15.4,12.48c2,1.77,4,3.58,6,5.41A257,257,0,0,1,484.77,371Z"/><line class="cls-3" x1="256" y1="118.28" x2="256" y2="43.86"/><path class="cls-4" d="M256,94.36h0A168.71,168.71,0,0,1,424.71,263.07v143.4a21,21,0,0,1-21,21H108.29a21,21,0,0,1-21-21V263.07A168.71,168.71,0,0,1,256,94.36Z"/><path class="cls-5" d="M397.55,427.47v41.86q-4.26,2.85-8.65,5.51a255.71,255.71,0,0,1-265.09.43l0,0q-4.72-2.87-9.32-5.93V427.47Z"/><path class="cls-6" d="M330,407.05v20.42H182V407.05a40.56,40.56,0,0,1,40.61-40.6h66.85A40.55,40.55,0,0,1,330,407.05Z"/><path class="cls-7" d="M144.31,406.47a21,21,0,0,0,21,21h-57a21,21,0,0,1-21-21V263.07A168.85,168.85,0,0,1,284.51,96.76,168.44,168.44,0,0,0,145.7,241.35c-.51,4-.89,8-1.11,12q-.28,4.81-.28,9.69Z"/><path class="cls-8" d="M227.66,366.45v61h-17V368.23a40.47,40.47,0,0,1,11.93-1.78Z"/><rect class="cls-8" x="245.66" y="366.45" width="17.01" height="61.02"/><path class="cls-8" d="M297.68,367.29v60.18h-17v-61h8.76A40.72,40.72,0,0,1,297.68,367.29Z"/><rect class="cls-9" x="114.45" y="427.47" width="283.1" height="22.67"/><path class="cls-10" d="M406.27,261.64c0,1.23,0,2.46-.12,3.67a50.89,50.89,0,0,1-50.75,47.21H156.6a50.89,50.89,0,0,1-50.73-46.94c-.1-1.31-.14-2.61-.14-3.94s0-2.64.14-3.93a50.89,50.89,0,0,1,50.73-46.95H355.4a50.89,50.89,0,0,1,50.7,46.68C406.21,258.83,406.27,260.23,406.27,261.64Z"/><path class="cls-11" d="M406.27,261.64c0,1.23,0,2.46-.12,3.67h-9.82L392,280.56a3.93,3.93,0,0,1-7.55,0l-9.93-34.46-5.71,16.57a4,4,0,0,1-3.73,2.64h-17a4,4,0,0,1-3.24-1.7L331.2,243.8l-10.35,19.67a3.94,3.94,0,0,1-3.48,2.11H307.5L299,288a3.93,3.93,0,0,1-7.16.45L279.6,265.31h-9.44a3.92,3.92,0,0,1-3.27-1.75l-9.21-13.81-8.57,13.72a3.94,3.94,0,0,1-3.34,1.84H233.14l-8.72,36.32a3.94,3.94,0,0,1-3.82,3h-.07a3.93,3.93,0,0,1-3.79-3.13l-13.58-64.71-8.62,25.06a3.92,3.92,0,0,1-3.72,2.65h-15l-8,16.67a4,4,0,0,1-3.51,2.22,3.83,3.83,0,0,1-3.54-2.17l-8.86-17.57-11.09-15.61-14,16.15a4,4,0,0,1-3,1.37H105.87c-.1-1.31-.14-2.61-.14-3.94s0-2.64.14-3.93H122l16.13-18.58a3.9,3.9,0,0,1,3.16-1.36,4,4,0,0,1,3,1.66l14.16,19.93a3.25,3.25,0,0,1,.3.51l5.4,10.71,5.65-11.7a3.93,3.93,0,0,1,3.54-2.22H188l12.35-35.9a3.93,3.93,0,0,1,7.57.48l12.92,61.55,5.36-22.33a3.94,3.94,0,0,1,3.83-3h13.54l10.66-17a3.94,3.94,0,0,1,3.27-1.84,4.05,4.05,0,0,1,3.34,1.75l11.42,17.13H282a4,4,0,0,1,3.48,2.1l9.3,17.49,6.36-16.79a3.93,3.93,0,0,1,3.68-2.53H315l12.28-23.33A3.92,3.92,0,0,1,334,234l16.14,23.47h12.1l8.86-25.68a3.93,3.93,0,0,1,3.71-2.64h.1a4,4,0,0,1,3.68,2.85l9.58,33.25,1.42-4.93a4,4,0,0,1,3.78-2.85H406.1C406.21,258.83,406.27,260.23,406.27,261.64Z"/><path class="cls-8" d="M152.52,210.92a167.56,167.56,0,0,0-6.82,30.43c-.51,4-.89,8-1.11,12q-.28,4.81-.28,9.69V311a50.92,50.92,0,0,1-38.44-45.45c-.1-1.3-.14-2.61-.14-3.93s0-2.64.14-3.93a50.88,50.88,0,0,1,46.65-46.79Z"/><path class="cls-12" d="M145.7,241.35c-.51,4-.89,8-1.11,12l-3.78-5.31-14,16.14a4,4,0,0,1-3,1.36H105.87c-.1-1.3-.14-2.61-.14-3.93s0-2.64.14-3.93H122l16.14-18.58a3.9,3.9,0,0,1,3.16-1.36,4,4,0,0,1,3,1.66Z"/><ellipse class="cls-13" cx="329.62" cy="141.7" rx="10.73" ry="23.6" transform="translate(-3.66 274.58) rotate(-45)"/><ellipse class="cls-13" cx="369.95" cy="182.03" rx="8.3" ry="18.26" transform="translate(-20.36 314.91) rotate(-45)"/><circle class="cls-4" cx="256" cy="43.86" r="28.34"/></g></svg>