<svg xmlns="http://www.w3.org/2000/svg" viewBox="0 0 512 512"><defs><style>.cls-1{fill:#e88032;}.cls-2{fill:#cc6e2e;}.cls-3{fill:#7cc8fb;}.cls-4{fill:#32314b;}.cls-5{fill:#3586cb;}.cls-6{fill:#41c0e3;}.cls-7{fill:#366fca;}.cls-8{fill:#aa60fa;}.cls-9{fill:#27273d;}.cls-10{fill:#acdffc;}.cls-11{fill:#cdedfc;}</style></defs><title>Robot Avatars</title><g id="BULINE"><circle class="cls-1" cx="256" cy="256" r="256"/></g><g id="Icons"><path class="cls-2" d="M484.77,371a256.89,256.89,0,0,1-76.16,90.55q-9.53,7.09-19.71,13.29a255.71,255.71,0,0,1-265.09.43l0,0A257.28,257.28,0,0,1,27.23,371a257,257,0,0,1,54.08-72.14q7.14-6.66,14.77-12.77,2-1.62,4.07-3.19l2.1-1.6q5.4-4.07,11-7.85,5.07-3.4,10.32-6.59h0q8.55-5.19,17.53-9.7,7.34-3.69,15-6.92c1.2-.51,2.41-1,3.63-1.51q4.18-1.69,8.45-3.26h0a252.53,252.53,0,0,1,27-8.19c1.64-.4,3.29-.79,4.95-1.15q8.85-2,17.93-3.33a258.67,258.67,0,0,1,72.3-.51q9.78,1.31,19.32,3.35a251.31,251.31,0,0,1,34.85,10.08q5.78,2.13,11.41,4.52a254,254,0,0,1,33.2,17.05q4.67,2.83,9.19,5.88,5.61,3.75,11,7.8c.85.64,1.7,1.28,2.54,1.93.42.32.84.64,1.25,1q9.13,7.1,17.59,15A257,257,0,0,1,484.77,371Z"/><path class="cls-3" d="M415,436.9a51.9,51.9,0,0,1-6.42,24.65q-9.53,7.09-19.71,13.29a255.71,255.71,0,0,1-265.09.43l0,0a256.82,256.82,0,0,1-26.42-18.33,50.75,50.75,0,0,1-4.19-20c0-30.49,28.45-57.36,71.65-73.12A224.52,224.52,0,0,1,191.34,356q6.39-1.48,13.06-2.66,2.21-.41,4.44-.75a291.92,291.92,0,0,1,90.52,0q9,1.43,17.48,3.4a226.2,226.2,0,0,1,26.55,7.83C386.58,379.54,415,406.41,415,436.9Z"/><ellipse class="cls-4" cx="254.1" cy="397.57" rx="87.21" ry="59.94"/><circle class="cls-3" cx="254.1" cy="215.57" r="173"/><rect class="cls-5" x="60.1" y="168.57" width="388" height="114.33" rx="27.42"/><path class="cls-6" d="M281.6,386.4A173.32,173.32,0,0,1,94.69,282.9,173,173,0,0,1,254.1,42.57a174.26,174.26,0,0,1,27.5,2.17,172.73,172.73,0,0,0-144.91,156.5q-.6,7.09-.59,14.33a173.71,173.71,0,0,0,3.47,34.67,173,173,0,0,0,142,136.16Z"/><path class="cls-7" d="M149.69,282.9H87.51A27.41,27.41,0,0,1,60.1,255.49V196a27.41,27.41,0,0,1,27.41-27.42h55.05a171.75,171.75,0,0,0-5.87,32.67q-.6,7.09-.59,14.33a173.71,173.71,0,0,0,3.47,34.67A172,172,0,0,0,149.69,282.9Z"/><path class="cls-8" d="M198.18,302.74H310a7.08,7.08,0,0,1,7.08,7.08v8.83a41.25,41.25,0,0,1-41.25,41.25h-43.5a41.25,41.25,0,0,1-41.25-41.25v-8.83a7.08,7.08,0,0,1,7.08-7.08Z"/><rect class="cls-4" x="108.1" y="201.24" width="292" height="49" rx="24.5"/><path class="cls-9" d="M139.57,250.24h-7a24.5,24.5,0,0,1,0-49h4.09q-.6,7.09-.59,14.33A173.71,173.71,0,0,0,139.57,250.24Z"/><ellipse class="cls-10" cx="422.06" cy="210.07" rx="6.5" ry="14.3"/><ellipse class="cls-10" cx="422.06" cy="244.64" rx="5.03" ry="11.07"/><ellipse class="cls-11" cx="338.87" cy="90.64" rx="9.05" ry="19.91" transform="translate(35.16 266.16) rotate(-45)"/><ellipse class="cls-11" cx="372.89" cy="124.66" rx="7" ry="15.41" transform="translate(21.07 300.18) rotate(-45)"/></g></svg>