<svg xmlns="http://www.w3.org/2000/svg" viewBox="0 0 512 512"><defs><style>.cls-1{fill:#4acc97;}.cls-2{fill:#46b786;}.cls-3{fill:#c6396c;}.cls-4{fill:#fc4581;}.cls-5{fill:#dd3e78;}.cls-6{fill:#a83363;}.cls-7{fill:#27273d;}.cls-8{fill:none;stroke:#c6396c;stroke-linecap:round;stroke-miterlimit:10;stroke-width:15px;}.cls-9{fill:#fff;}.cls-10{fill:#fc75a5;}</style></defs><title>Robot Avatars</title><g id="BULINE"><circle class="cls-1" cx="256" cy="256" r="256"/></g><g id="Icons"><path class="cls-2" d="M484.77,371A257.06,257.06,0,0,1,388.9,474.84a256.48,256.48,0,0,1-229.33,18.37c-1.11-.45-2.22-.91-3.32-1.38a253.71,253.71,0,0,1-32.44-16.56l0,0A257.19,257.19,0,0,1,27.23,371,256.8,256.8,0,0,1,75,305c.84-.85,1.7-1.69,2.56-2.53,1.24-1.21,2.5-2.4,3.76-3.58a258.38,258.38,0,0,1,20.94-17.56q2.61-2,5.26-3.86c1.32-.94,2.66-1.88,4-2.79.58-.41,1.17-.8,1.76-1.2q5.07-3.4,10.32-6.59h0c1.76-1.06,3.53-2.11,5.31-3.13q7.83-4.49,16-8.42,7.28-3.52,14.81-6.58,4.18-1.69,8.45-3.26h0a252.53,252.53,0,0,1,27-8.19c1.64-.4,3.29-.79,4.95-1.15l.5-.11q8.61-1.91,17.43-3.22l.35-.05a258.62,258.62,0,0,1,71.88-.47h.07q9.18,1.23,18.14,3.1l1.18.25a247.42,247.42,0,0,1,24.65,6.57c3.43,1.09,6.83,2.27,10.2,3.51,2.49.92,5,1.87,7.42,2.87q5.55,2.24,11,4.74,8.4,3.85,16.47,8.31,5,2.72,9.75,5.65l1.14.7q4.08,2.5,8.05,5.18,5.61,3.75,11,7.8a257.59,257.59,0,0,1,21.38,17.89l.81.77c1.86,1.74,3.68,3.51,5.48,5.31A256.66,256.66,0,0,1,484.77,371Z"/><circle class="cls-3" cx="70.72" cy="262.68" r="42.5"/><circle class="cls-3" cx="432.42" cy="262.68" r="42.5"/><circle class="cls-4" cx="254.14" cy="251.37" r="183.77"/><path class="cls-4" d="M353.49,492.77a256.78,256.78,0,0,1-193.92.44c-1.11-.45-2.22-.91-3.32-1.38a183.6,183.6,0,0,1,197.24.94Z"/><path class="cls-5" d="M271.79,434.3q-8.71.84-17.65.84A183.78,183.78,0,0,1,70.36,251.36c0-101.49,82.28-183.77,183.78-183.77q8.94,0,17.65.84a183.79,183.79,0,0,0,0,365.87Z"/><rect class="cls-3" x="161.66" y="27.86" width="33.95" height="180.13" rx="15.01"/><rect class="cls-3" x="237.16" y="349.17" width="33.95" height="180.13" rx="15.01" transform="translate(693.38 185.1) rotate(90)"/><rect class="cls-6" x="237.16" y="407.67" width="33.95" height="131.03" rx="12.81" transform="translate(727.32 219.05) rotate(90)"/><rect class="cls-3" x="312.66" y="27.86" width="33.95" height="180.13" rx="15.01"/><circle class="cls-3" cx="178.64" cy="262.68" r="49.75"/><circle class="cls-7" cx="178.64" cy="262.68" r="34.53"/><circle class="cls-3" cx="329.64" cy="262.68" r="49.75"/><circle class="cls-7" cx="329.64" cy="262.68" r="34.53"/><path class="cls-8" d="M217.72,343.32a51.51,51.51,0,0,0,72.84,0"/><circle class="cls-9" cx="188.62" cy="251.37" r="11.32"/><circle class="cls-9" cx="340.95" cy="251.37" r="11.32"/><ellipse class="cls-10" cx="371.03" cy="155.41" rx="7.61" ry="16.74" transform="translate(-26.59 216.34) rotate(-31.44)"/><ellipse class="cls-10" cx="392.14" cy="189.93" rx="5.89" ry="12.96" transform="translate(-41.5 232.42) rotate(-31.44)"/></g></svg>