<svg xmlns="http://www.w3.org/2000/svg" viewBox="0 0 512 512"><defs><style>.cls-1{fill:#f58d89;}.cls-2{fill:#ef7070;}.cls-3{fill:#f6d372;}.cls-4{fill:#f6c752;}.cls-5{fill:#ffe9b3;}.cls-6{fill:#fff;}.cls-7{fill:#41c0e3;}.cls-8{fill:#d6d6d6;}.cls-9{fill:#3586cb;}.cls-10{fill:#366fca;}.cls-11{fill:#32314b;}.cls-12{fill:#27273d;}</style></defs><title>Robot Avatars</title><g id="BULINE"><circle class="cls-1" cx="256" cy="256" r="256"/></g><g id="Icons"><path class="cls-2" d="M484.77,371A257.06,257.06,0,0,1,388.9,474.84a256.48,256.48,0,0,1-229.33,18.37q-6.37-2.59-12.56-5.51a252.75,252.75,0,0,1-23.2-12.43l0,0A257.19,257.19,0,0,1,27.23,371a256.81,256.81,0,0,1,75-89.7q3.72-2.81,7.55-5.47h0c1.15-.81,2.3-1.6,3.46-2.38q5.07-3.4,10.32-6.59h0a255.59,255.59,0,0,1,27-14.21q4.51-2.06,9.13-3.92,4.18-1.69,8.45-3.26h0q10.47-3.83,21.36-6.75c1.86-.5,3.74-1,5.62-1.44,1.64-.4,3.29-.79,4.95-1.15q7.77-1.74,15.73-3l2.2-.34q7.74-1.16,15.63-1.83c7.36-.65,14.82-1,22.34-1q11.88,0,23.5,1.08,5.44.48,10.83,1.21c2.34.31,4.68.66,7,1q6.21,1,12.32,2.32,6.68,1.43,13.22,3.19,11,3,21.63,6.89a254.65,254.65,0,0,1,44.61,21.57q4.67,2.83,9.19,5.88,2.15,1.44,4.26,2.92,3.42,2.37,6.75,4.88a256.81,256.81,0,0,1,75.46,90Z"/><circle class="cls-3" cx="256.26" cy="190.69" r="169.38"/><path class="cls-4" d="M282.27,358.07a169.39,169.39,0,1,1-26-336.77,170.42,170.42,0,0,1,26,2,169.4,169.4,0,0,0,0,334.78Z"/><ellipse class="cls-5" cx="348.25" cy="91.02" rx="10.43" ry="22.94" transform="translate(8.89 211.01) rotate(-34.12)"/><ellipse class="cls-5" cx="379.35" cy="136.92" rx="8.07" ry="17.75" transform="translate(-11.5 236.36) rotate(-34.12)"/><path class="cls-6" d="M125.56,297.49H387a0,0,0,0,1,0,0V399.32a23.32,23.32,0,0,1-23.32,23.32H148.88a23.32,23.32,0,0,1-23.32-23.32V297.49A0,0,0,0,1,125.56,297.49Z"/><rect class="cls-7" x="104.22" y="336.21" width="304.08" height="47.79" rx="23.9"/><path class="cls-8" d="M191.86,422.64h-43a23.32,23.32,0,0,1-23.31-23.32V297.5h43V399.32A23.32,23.32,0,0,0,191.86,422.64Z"/><path class="cls-9" d="M168.54,336.21V384H128.11a23.89,23.89,0,0,1-2.55-47.65,21.56,21.56,0,0,1,2.55-.14Z"/><circle class="cls-6" cx="256.26" cy="177.95" r="90.25"/><circle class="cls-10" cx="256.7" cy="177.95" r="68.68"/><circle class="cls-7" cx="256.7" cy="177.95" r="57.8"/><circle class="cls-6" cx="282.27" cy="152.3" r="17.56"/><path class="cls-11" d="M365.5,422.64v64.82a256.69,256.69,0,0,1-205.93,5.75q-6.37-2.59-12.56-5.51V422.64Z"/><rect class="cls-12" x="147.01" y="422.64" width="216.74" height="39.83"/></g></svg>