<svg xmlns="http://www.w3.org/2000/svg" viewBox="0 0 512 512"><defs><style>.cls-1{fill:#fc4581;}.cls-2{fill:#e03674;}.cls-3{fill:#27273d;}.cls-4{fill:#4f4f74;}.cls-5{fill:#32314b;}.cls-6{fill:#fff;}.cls-7{fill:#3586cb;}.cls-8{fill:#3e436d;}.cls-9{fill:#ccc;}.cls-10{fill:#366fca;}.cls-11{fill:#b0d46c;}</style></defs><title>Robot Avatars</title><g id="BULINE"><circle class="cls-1" cx="256" cy="256" r="256"/></g><g id="Icons"><path class="cls-2" d="M484.77,371a256.93,256.93,0,0,1-67.3,83.66q-8.66,7.05-17.92,13.33-5.24,3.56-10.65,6.85t-11.16,6.42a255.63,255.63,0,0,1-243.45,0q-5.32-2.88-10.48-6l0,0Q118,471.77,112.45,468q-8.72-5.91-16.92-12.53A256.8,256.8,0,0,1,27.23,371a256.81,256.81,0,0,1,75-89.7q5.4-4.07,11-7.85,4-2.67,8.06-5.2l2.26-1.39h0a254,254,0,0,1,30.86-15.93c1.74-.75,3.49-1.49,5.25-2.2q4.18-1.69,8.45-3.26h0q5.69-2.08,11.49-3.88,7.65-2.4,15.49-4.31c1.64-.4,3.29-.79,4.95-1.15s3.39-.74,5.09-1.08q6.36-1.29,12.84-2.25a258.67,258.67,0,0,1,72.3-.51c5.86.78,11.67,1.77,17.39,3l1.93.4a251.31,251.31,0,0,1,34.85,10.08q7,2.59,13.89,5.59a253.9,253.9,0,0,1,30.72,16c.86.52,1.71,1,2.56,1.58,2.24,1.4,4.44,2.83,6.63,4.3q5.61,3.75,11,7.8a256.81,256.81,0,0,1,75.46,90Z"/><path class="cls-3" d="M399.55,468q-5.24,3.56-10.65,6.85t-11.16,6.42a255.63,255.63,0,0,1-243.45,0q-5.32-2.88-10.48-6l0,0Q118,471.77,112.45,468Z"/><path class="cls-4" d="M188.91,38.92H324.09a67.59,67.59,0,0,1,67.59,67.59v316.8a0,0,0,0,1,0,0H121.33a0,0,0,0,1,0,0V106.5A67.59,67.59,0,0,1,188.91,38.92Z"/><path class="cls-5" d="M417.47,443.4v11.26q-8.66,7.05-17.92,13.33-5.24,3.56-10.65,6.85t-11.16,6.42H134.29q-5.32-2.88-10.48-6l0,0Q118,471.77,112.45,468q-8.72-5.91-16.92-12.53V443.4a20.09,20.09,0,0,1,20.1-20.09H397.37A20.09,20.09,0,0,1,417.47,443.4Z"/><circle class="cls-6" cx="256.5" cy="208.49" r="110.49"/><circle class="cls-3" cx="256.5" cy="208.49" r="57.77"/><path class="cls-7" d="M359.82,208.49H153.18a16.72,16.72,0,0,1-16.47-19.42,121.36,121.36,0,0,1,239.58,0A16.72,16.72,0,0,1,359.82,208.49Z"/><path class="cls-8" d="M247.25,38.92a67.57,67.57,0,0,0-67.59,67.58V423.31H121.33V106.5a67.57,67.57,0,0,1,67.58-67.58Z"/><path class="cls-9" d="M179.66,129.11V287.88A110.13,110.13,0,0,1,146,208.49c0-.54,0-1.07,0-1.61A110.06,110.06,0,0,1,179.66,129.11Z"/><path class="cls-10" d="M179.66,114.58v93.91H153.19a16.53,16.53,0,0,1-7.16-1.61,16.76,16.76,0,0,1-9.32-17.82A121.2,121.2,0,0,1,179.66,114.58Z"/><path class="cls-3" d="M353.88,372.46c0,.79,0,1.59-.08,2.37a33,33,0,0,1-32.88,30.6H192.08A33,33,0,0,1,159.21,375q-.09-1.27-.09-2.55c0-.86,0-1.72.09-2.55a33,33,0,0,1,32.87-30.43H320.92a33,33,0,0,1,32.85,30.26C353.84,370.63,353.88,371.54,353.88,372.46Z"/><path class="cls-11" d="M353.88,372.46c0,.79,0,1.59-.08,2.37h-6.36l-2.84,9.88a2.52,2.52,0,0,1-2.44,1.85,2.56,2.56,0,0,1-2.45-1.85l-6.43-22.33-3.71,10.74a2.55,2.55,0,0,1-2.41,1.71h-11a2.57,2.57,0,0,1-2.1-1.1l-8.82-12.84-6.71,12.75a2.54,2.54,0,0,1-2.25,1.37h-6.39l-5.5,14.5a2.55,2.55,0,0,1-4.64.28l-7.94-15h-6.12a2.53,2.53,0,0,1-2.12-1.13l-6-8.95L252,373.64a2.53,2.53,0,0,1-2.16,1.19h-8.19L236,398.37a2.54,2.54,0,0,1-2.47,2h0a2.54,2.54,0,0,1-2.46-2l-8.8-41.93-5.59,16.23a2.54,2.54,0,0,1-2.41,1.72h-9.69l-5.22,10.8a2.54,2.54,0,0,1-2.27,1.44,2.46,2.46,0,0,1-2.29-1.41L189,373.77l-7.18-10.11-9.09,10.46a2.57,2.57,0,0,1-1.93.89H159.21q-.09-1.27-.09-2.55c0-.86,0-1.72.09-2.55h10.47l10.45-12a2.53,2.53,0,0,1,2.05-.88,2.59,2.59,0,0,1,2,1.07L193.32,371a1.77,1.77,0,0,1,.19.33l3.5,6.94,3.66-7.59a2.56,2.56,0,0,1,2.29-1.43h9.48l8-23.26a2.55,2.55,0,0,1,4.91.3l8.37,39.89,3.48-14.47a2.53,2.53,0,0,1,2.47-1.95h8.78l6.91-11.05a2.56,2.56,0,0,1,2.12-1.19,2.62,2.62,0,0,1,2.16,1.13l7.4,11.11h6.29a2.57,2.57,0,0,1,2.25,1.35l6,11.34,4.12-10.88a2.53,2.53,0,0,1,2.38-1.64h6.62l7.95-15.12a2.56,2.56,0,0,1,2.1-1.37,2.59,2.59,0,0,1,2.26,1.1l10.46,15.22h7.84l5.74-16.65a2.55,2.55,0,0,1,2.41-1.71h.06a2.55,2.55,0,0,1,2.39,1.85l6.21,21.54.91-3.19a2.56,2.56,0,0,1,2.45-1.84h8.26C353.84,370.63,353.88,371.54,353.88,372.46Z"/></g></svg>