<svg xmlns="http://www.w3.org/2000/svg" viewBox="0 0 512 512"><defs><style>.cls-1{fill:#9e4830;}.cls-2{fill:#7f3828;}.cls-3{fill:#939393;}.cls-4{fill:none;stroke:#27273d;stroke-linecap:round;stroke-miterlimit:10;stroke-width:10px;}.cls-5{fill:#ccc;}.cls-6{fill:#cd88f8;}.cls-7{fill:#fff;}.cls-8{fill:#27273d;}.cls-9{fill:#b2b2b2;}.cls-10{fill:#b5b5b5;}.cls-11{fill:#b66cea;}.cls-12{fill:#969696;}.cls-13{fill:#fcfcfc;}</style></defs><title>Robot Avatars</title><g id="BULINE"><circle class="cls-1" cx="256" cy="256" r="256"/></g><g id="Icons"><path class="cls-2" d="M484.77,371A257.06,257.06,0,0,1,388.9,474.84a255.71,255.71,0,0,1-265.09.43l0,0A257.19,257.19,0,0,1,27.23,371a257,257,0,0,1,54.08-72.14q4.77-4.44,9.76-8.65,5.46-4.62,11.18-8.91,4.53-3.42,9.23-6.63l1.79-1.22q5.07-3.4,10.32-6.59h0l.1-.06.31-.18a252.93,252.93,0,0,1,32.91-16.73c.92-.4,1.86-.78,2.79-1.16,1.74-.7,3.49-1.39,5.25-2,1.06-.42,2.13-.82,3.2-1.21h0q6.47-2.37,13.1-4.39,6.85-2.09,13.88-3.8c1.64-.4,3.29-.79,4.95-1.15,1.29-.29,2.59-.57,3.89-.83q5.47-1.14,11-2c1-.17,2-.32,3-.47a258.54,258.54,0,0,1,71.68-.59l.62.08q9.78,1.31,19.32,3.35l2.23.49q11.76,2.61,23.09,6.3,4.81,1.55,9.53,3.29c.91.33,1.81.67,2.71,1a255.1,255.1,0,0,1,41.9,20.55l.16.1c3.06,1.86,6.06,3.79,9,5.78l3.19,2.17q4,2.75,7.82,5.63,6.22,4.66,12.16,9.69,4.71,4,9.22,8.2A257,257,0,0,1,484.77,371Z"/><path class="cls-3" d="M325.12,409.72v92.83a257.63,257.63,0,0,1-137.26.28V409.72a69.8,69.8,0,0,1,.61-9.2A68.62,68.62,0,0,1,305,361.2c.56.56,1.11,1.12,1.64,1.7A68.33,68.33,0,0,1,325.12,409.72Z"/><line class="cls-4" x1="477.87" y1="248.21" x2="424.74" y2="248.21"/><line class="cls-4" x1="100.99" y1="248.21" x2="47.86" y2="248.21"/><path class="cls-5" d="M389.27,164.41V351.26a63.35,63.35,0,0,1-63.35,63.35H187.05a63.35,63.35,0,0,1-63.35-63.35V164.41a132.79,132.79,0,0,1,265.57,0Z"/><path class="cls-6" d="M389.27,307.61v43.65a63.35,63.35,0,0,1-63.35,63.35H187.05a63.35,63.35,0,0,1-63.35-63.35V307.61Z"/><rect class="cls-7" x="200.64" y="335.42" width="107.37" height="40.4" rx="20.2"/><circle class="cls-8" cx="316.26" cy="248.21" r="30.99"/><rect class="cls-9" x="123.7" y="164.41" width="265.57" height="24.77"/><path class="cls-10" d="M228.31,414.61h-41A63.34,63.34,0,0,1,124,351.26V164.41A132.89,132.89,0,0,1,277.27,33.19,132.81,132.81,0,0,0,165,164.41V351.26A63.35,63.35,0,0,0,228.31,414.61Z"/><path class="cls-11" d="M228.31,414.61h-41A63.34,63.34,0,0,1,124,351.26V307.61h41v43.65A63.35,63.35,0,0,0,228.31,414.61Z"/><rect class="cls-12" x="124.01" y="164.41" width="40.96" height="24.76"/><circle class="cls-9" cx="167.98" cy="137.52" r="13.28"/><circle class="cls-9" cx="211.15" cy="137.52" r="13.28"/><circle class="cls-9" cx="254.32" cy="137.52" r="13.28"/><circle class="cls-9" cx="297.49" cy="137.52" r="13.28"/><circle class="cls-9" cx="340.66" cy="137.52" r="13.28"/><circle class="cls-7" cx="322.9" cy="241.19" r="12.13"/><path class="cls-9" d="M123.7,200.89V303.64H123A44.68,44.68,0,0,1,78.28,258.9V245.62A44.68,44.68,0,0,1,123,200.89Z"/><path class="cls-3" d="M123.7,200.89V303.64H123a44.8,44.8,0,0,1-11.54-1.5V202.39a44.8,44.8,0,0,1,11.54-1.5Z"/><path class="cls-9" d="M389.27,303.64V200.89H390a44.69,44.69,0,0,1,44.74,44.74v13.28A44.69,44.69,0,0,1,390,303.64Z"/><path class="cls-3" d="M389.27,303.64V200.89H390a44.72,44.72,0,0,1,11.53,1.5v99.75a44.72,44.72,0,0,1-11.53,1.5Z"/><circle class="cls-7" cx="36.22" cy="248.21" r="22.14"/><circle class="cls-7" cx="477.87" cy="248.21" r="22.14"/><ellipse class="cls-13" cx="310.77" cy="65.24" rx="7.2" ry="15.83" transform="translate(44.89 238.85) rotate(-45)"/><ellipse class="cls-13" cx="337.82" cy="92.29" rx="5.57" ry="12.25" transform="translate(33.68 265.91) rotate(-45)"/><circle class="cls-8" cx="187.86" cy="248.21" r="30.99"/><circle class="cls-7" cx="193.39" cy="241.19" r="12.13"/></g></svg>