<svg xmlns="http://www.w3.org/2000/svg" viewBox="0 0 512 512"><defs><style>.cls-1{fill:#db1b1b;}.cls-2{fill:#bc1b1b;}.cls-3{fill:#b0d46c;}.cls-4{fill:#a3c163;}.cls-5{fill:#83964d;}.cls-6{fill:#97b25b;}.cls-7{fill:#27273d;}.cls-8{fill:#00b564;}.cls-9{fill:#cbe591;}.cls-10{fill:none;stroke:#27273d;stroke-linecap:round;stroke-miterlimit:10;stroke-width:15px;}.cls-11{fill:#f7bb38;}</style></defs><title>Robot Avatars</title><g id="BULINE"><circle class="cls-1" cx="256" cy="256" r="256"/></g><g id="Icons"><path class="cls-2" d="M484.77,371a255.88,255.88,0,0,1-361,104.27l0,0A257.19,257.19,0,0,1,27.23,371a256.81,256.81,0,0,1,75-89.7q5.4-4.07,11-7.85,5.07-3.4,10.32-6.59h0a254.42,254.42,0,0,1,36.11-18.13q4.18-1.69,8.45-3.26h0a252.53,252.53,0,0,1,27-8.19c1.64-.4,3.29-.79,4.95-1.15q8.85-2,17.93-3.33a258.67,258.67,0,0,1,72.3-.51q9.78,1.31,19.32,3.35a251.31,251.31,0,0,1,34.85,10.08,254.65,254.65,0,0,1,44.61,21.57q4.67,2.83,9.19,5.88,5.61,3.75,11,7.8a256.81,256.81,0,0,1,75.46,90Z"/><circle class="cls-3" cx="254.51" cy="264.17" r="172"/><path class="cls-4" d="M280,434.29a172,172,0,1,1,0-340.24,172,172,0,0,0,0,340.24Z"/><rect class="cls-5" x="198.01" y="78.01" width="113" height="122" rx="26.29"/><rect class="cls-6" x="206.04" y="86.67" width="96.95" height="104.67" rx="22.56"/><rect class="cls-7" x="152.51" y="215.59" width="204" height="86" rx="19.25"/><path class="cls-7" d="M192.68,348.21H316.34a0,0,0,0,1,0,0v.95a40,40,0,0,1-40,40H232.65a40,40,0,0,1-40-40v-.95A0,0,0,0,1,192.68,348.21Z"/><circle class="cls-8" cx="198.01" cy="258.59" r="20.44"/><circle class="cls-8" cx="311.01" cy="258.59" r="20.44"/><ellipse class="cls-9" cx="353.24" cy="155.6" rx="8.76" ry="19.27" transform="translate(-28.89 210.09) rotate(-31.89)"/><ellipse class="cls-9" cx="377.84" cy="195.15" rx="6.78" ry="14.91" transform="translate(-46.06 229.06) rotate(-31.89)"/><ellipse class="cls-5" cx="106.57" cy="264.26" rx="15.5" ry="48"/><ellipse class="cls-5" cx="404.3" cy="264.26" rx="15.5" ry="48"/><line class="cls-10" x1="106.57" y1="264.26" x2="36.57" y2="264.26"/><circle class="cls-11" cx="36.57" cy="264.26" r="25"/><line class="cls-10" x1="404.3" y1="264.26" x2="474.3" y2="264.26"/><circle class="cls-11" cx="474.3" cy="264.26" r="25"/></g></svg>