<svg xmlns="http://www.w3.org/2000/svg" viewBox="0 0 512 512"><defs><style>.cls-1{fill:#4f4f74;}.cls-2{fill:#40405b;}.cls-3{fill:#b21818;}.cls-4{fill:none;stroke:#fff;stroke-linecap:round;stroke-linejoin:round;stroke-width:15px;}.cls-5{fill:#f6d372;}.cls-6{fill:#d6b565;}.cls-7{fill:#db1b1b;}.cls-8{fill:#fff;}.cls-9{fill:#27273d;}.cls-10{fill:#f7e1a9;}.cls-11{fill:#e54c4c;}</style></defs><title>Robot Avatars</title><g id="BULINE"><circle class="cls-1" cx="256" cy="256" r="256"/></g><g id="Icons"><path class="cls-2" d="M484.77,371A257.06,257.06,0,0,1,388.9,474.84a255.71,255.71,0,0,1-265.09.43l0,0A257.19,257.19,0,0,1,27.23,371a256.81,256.81,0,0,1,75-89.7q5.4-4.07,11-7.85,5.07-3.4,10.32-6.59h0q6.14-3.72,12.49-7.09a251.38,251.38,0,0,1,23.62-11q4.18-1.69,8.45-3.26h0c2.56-.94,5.13-1.83,7.73-2.68q3.14-1,6.32-2,6.39-1.94,12.93-3.52c1.64-.4,3.29-.79,4.95-1.15q8.85-2,17.93-3.33,8.15-1.22,16.47-1.9,10.63-.9,21.5-.9,10.54,0,20.87.85,6.78.54,13.46,1.44,9.78,1.31,19.32,3.35,10.05,2.13,19.79,5.06,7.63,2.28,15.06,5a253.9,253.9,0,0,1,33.07,14.94q5.87,3.16,11.54,6.63,4.67,2.83,9.19,5.88,5.61,3.75,11,7.8a256.81,256.81,0,0,1,75.46,90Z"/><path class="cls-3" d="M323.86,475.81a68.28,68.28,0,0,1-6.29,28.73,257.76,257.76,0,0,1-124.93-.45,68.75,68.75,0,0,1,3.82-63.81h0a68.65,68.65,0,0,1,127.39,35.54Z"/><polyline class="cls-4" points="113 212.21 64 212.21 64 136.54"/><path class="cls-5" d="M257,54.54h0a122,122,0,0,1,122,122v76.92a18.75,18.75,0,0,1-18.75,18.75H153.75A18.75,18.75,0,0,1,135,253.46V176.54a122,122,0,0,1,122-122Z"/><path class="cls-5" d="M237.62,294.87h38.76A102.62,102.62,0,0,1,379,397.49v32.63a18.75,18.75,0,0,1-18.75,18.75H153.75A18.75,18.75,0,0,1,135,430.12V397.49A102.62,102.62,0,0,1,237.62,294.87Z" transform="translate(514 743.75) rotate(180)"/><path class="cls-6" d="M175.9,176.54v76.92a18.74,18.74,0,0,0,18.75,18.75h-40.9A18.74,18.74,0,0,1,135,253.46V176.54A122.09,122.09,0,0,1,277.45,56.25,122,122,0,0,0,175.9,176.54Z"/><path class="cls-6" d="M277.45,448.87H237.62A102.62,102.62,0,0,1,135,346.26V313.63a18.74,18.74,0,0,1,18.75-18.75h40.9a18.74,18.74,0,0,0-18.75,18.75v32.63A102.61,102.61,0,0,0,277.45,448.87Z"/><rect class="cls-7" x="155.29" y="313.9" width="44.88" height="15.52" rx="7.76"/><rect class="cls-7" x="210.33" y="313.9" width="44.88" height="15.52" rx="7.76"/><rect class="cls-7" x="265.37" y="313.9" width="44.88" height="15.52" rx="7.76"/><rect class="cls-7" x="320.41" y="313.9" width="44.88" height="15.52" rx="7.76"/><circle class="cls-8" cx="200.67" cy="195.21" r="49.17"/><circle class="cls-8" cx="310.75" cy="195.21" r="49.17"/><circle class="cls-9" cx="200.67" cy="195.21" r="33.33"/><circle class="cls-7" cx="64" cy="112.87" r="33.33"/><circle class="cls-9" cx="310.25" cy="195.21" r="33.33"/><path class="cls-7" d="M103.33,184.79H135a0,0,0,0,1,0,0v54.84a0,0,0,0,1,0,0H103.33A12.33,12.33,0,0,1,91,227.29V197.12A12.33,12.33,0,0,1,103.33,184.79Z"/><polyline class="cls-4" points="401 212.21 450 212.21 450 136.54"/><circle class="cls-7" cx="450" cy="112.87" r="33.33"/><path class="cls-7" d="M391.33,184.79H423a0,0,0,0,1,0,0v54.84a0,0,0,0,1,0,0H391.33A12.33,12.33,0,0,1,379,227.29V197.12a12.33,12.33,0,0,1,12.33-12.33Z" transform="translate(802 424.41) rotate(-180)"/><ellipse class="cls-10" cx="316.65" cy="96.1" rx="9.16" ry="20.16" transform="translate(11.21 223.42) rotate(-39.51)"/><ellipse class="cls-10" cx="347.65" cy="133.69" rx="7.09" ry="15.6" transform="translate(-5.62 251.72) rotate(-39.51)"/><circle class="cls-8" cx="210.33" cy="184.79" r="10.16"/><circle class="cls-8" cx="320.41" cy="184.79" r="10.16"/><circle class="cls-11" cx="460.16" cy="100.29" r="10.16"/><circle class="cls-11" cx="74.16" cy="100.29" r="10.16"/><rect class="cls-3" x="122.5" y="184.79" width="12.5" height="54.84"/><rect class="cls-3" x="379" y="184.79" width="12.5" height="54.84"/></g></svg>