<svg xmlns="http://www.w3.org/2000/svg" viewBox="0 0 512 512"><defs><style>.cls-1{fill:#f58d89;}.cls-2{fill:#ef7070;}.cls-3{fill:#3e436d;}.cls-4{fill:#27273d;}.cls-5{fill:#353b5b;}.cls-6{fill:#4f4f74;}.cls-7{fill:#32314b;}.cls-8{fill:#fff;}</style></defs><title>Robot Avatars</title><g id="BULINE"><circle class="cls-1" cx="256" cy="256" r="256"/></g><g id="Icons"><path class="cls-2" d="M484.77,371A257.06,257.06,0,0,1,388.9,474.84q-6.28,3.82-12.8,7.29a255.66,255.66,0,0,1-241-.43q-5.73-3.07-11.29-6.43l0,0A257.19,257.19,0,0,1,27.23,371a256.82,256.82,0,0,1,50.94-69.15c1-1,2.08-2,3.14-3a258.38,258.38,0,0,1,20.94-17.56q5.4-4.07,11-7.85,5.07-3.4,10.32-6.59h0q2.9-1.75,5.85-3.44,9.31-5.31,19.11-9.84,5.5-2.57,11.15-4.85,3.06-1.24,6.17-2.4c.76-.3,1.52-.58,2.28-.86h0q2.28-.83,4.57-1.61,11-3.8,22.41-6.58c1.64-.4,3.29-.79,4.95-1.15,2.86-.64,5.75-1.23,8.65-1.77l1.44-.26c1.31-.25,2.63-.47,3.95-.69s2.59-.42,3.89-.61a258.67,258.67,0,0,1,72.3-.51q5.81.78,11.52,1.81l1.4.26.43.08c2,.37,4,.78,6,1.2A248.34,248.34,0,0,1,339,243.78q2.76.93,5.47,1.94l1.38.52q8.94,3.34,17.56,7.34,9.66,4.47,18.87,9.71,3.44,1.95,6.8,4,4.67,2.83,9.19,5.88,5.61,3.75,11,7.8a257.59,257.59,0,0,1,21.38,17.89l2.33,2.21A256.92,256.92,0,0,1,484.77,371Z"/><path class="cls-3" d="M376.1,416.45v65.68a255.66,255.66,0,0,1-241-.43V416.45a34.61,34.61,0,0,1,34.6-34.61H341.49A34.62,34.62,0,0,1,376.1,416.45Z"/><rect class="cls-4" x="177.27" y="330.84" width="156.64" height="52"/><path class="cls-5" d="M74.28,171.51l22.23,3.1v-43l-22.23,3.1a5,5,0,0,0-4.33,5v26.85A5,5,0,0,0,74.28,171.51Z"/><path class="cls-3" d="M149.94,52.66H361.25A20.78,20.78,0,0,1,382,73.43V253.58a0,0,0,0,1,0,0H129.16a0,0,0,0,1,0,0V73.43A20.78,20.78,0,0,1,149.94,52.66Z"/><rect class="cls-3" x="78.17" y="234.1" width="354.86" height="97.75" rx="13.47"/><ellipse class="cls-6" cx="322.73" cy="73.77" rx="14.87" ry="6.76"/><ellipse class="cls-6" cx="358.68" cy="73.77" rx="11.51" ry="5.23"/><path class="cls-7" d="M129.45,234.36h36.43a0,0,0,0,1,0,0V268.5a4.65,4.65,0,0,1-4.65,4.65H138.17a8.72,8.72,0,0,1-8.72-8.72V234.36A0,0,0,0,1,129.45,234.36Z"/><path class="cls-7" d="M172.74,234.36h36.43a0,0,0,0,1,0,0v34.36a4.43,4.43,0,0,1-4.43,4.43H177.17a4.43,4.43,0,0,1-4.43-4.43V234.36A0,0,0,0,1,172.74,234.36Z"/><path class="cls-7" d="M216,234.36h36.43a0,0,0,0,1,0,0v34.36a4.43,4.43,0,0,1-4.43,4.43H220.46a4.43,4.43,0,0,1-4.43-4.43V234.36A0,0,0,0,1,216,234.36Z"/><path class="cls-7" d="M259.31,234.36h36.43a0,0,0,0,1,0,0v34.36a4.43,4.43,0,0,1-4.43,4.43H263.74a4.43,4.43,0,0,1-4.43-4.43V234.36A0,0,0,0,1,259.31,234.36Z"/><path class="cls-7" d="M302.6,234.36H339a0,0,0,0,1,0,0v34.36a4.43,4.43,0,0,1-4.43,4.43H307a4.43,4.43,0,0,1-4.43-4.43V234.36A0,0,0,0,1,302.6,234.36Z"/><path class="cls-7" d="M345.88,234.36h36.43a0,0,0,0,1,0,0v30.07a8.72,8.72,0,0,1-8.72,8.72H350.54a4.65,4.65,0,0,1-4.65-4.65V234.36A0,0,0,0,1,345.88,234.36Z"/><path class="cls-3" d="M130.51,122.3v61.62l-1.06-.15-18-2.5-12.83-1.79a7.21,7.21,0,0,1-6.2-7.13V133.87a7.2,7.2,0,0,1,6.2-7.12L111.47,125l18-2.51Z"/><polygon class="cls-7" points="129.45 122.45 129.45 183.78 111.47 181.27 111.47 124.96 129.45 122.45"/><path class="cls-5" d="M437.49,171.51l-22.24,3.1v-43l22.24,3.1a5,5,0,0,1,4.32,5v26.85A5,5,0,0,1,437.49,171.51Z"/><path class="cls-3" d="M381.25,122.3v61.62l1.06-.15,18-2.5,12.83-1.79a7.21,7.21,0,0,0,6.2-7.13V133.87a7.2,7.2,0,0,0-6.2-7.12L400.29,125l-18-2.51Z"/><polygon class="cls-7" points="382.31 122.45 382.31 183.78 400.29 181.27 400.29 124.96 382.31 122.45"/><circle class="cls-8" cx="190.95" cy="153.11" r="50.7"/><circle class="cls-4" cx="190.95" cy="153.11" r="36.77"/><circle class="cls-8" cx="202.84" cy="141.05" r="12.06"/><circle class="cls-8" cx="318.71" cy="153.11" r="50.7"/><circle class="cls-4" cx="318.71" cy="153.11" r="36.77"/><circle class="cls-8" cx="330.78" cy="141.05" r="12.06"/></g></svg>