<svg xmlns="http://www.w3.org/2000/svg" viewBox="0 0 512 512"><defs><style>.cls-1{fill:#366fca;}.cls-2{fill:#3366af;}.cls-3{fill:#fc4581;}.cls-4{fill:#27273d;}.cls-5{fill:#dd3e78;}.cls-6{fill:#a83363;}.cls-7{fill:#fff;}.cls-8{fill:#acdffc;}.cls-9{fill:none;stroke:#fff;stroke-linecap:round;stroke-miterlimit:10;stroke-width:10px;}</style></defs><title>Robot Avatars</title><g id="BULINE"><circle class="cls-1" cx="256" cy="256" r="256"/></g><g id="Icons"><path class="cls-2" d="M484.77,371a255.88,255.88,0,0,1-361,104.27l0,0A257.37,257.37,0,0,1,27.23,371,257.62,257.62,0,0,1,74,306q3.57-3.63,7.3-7.1a258.38,258.38,0,0,1,20.94-17.56q5.4-4.07,11-7.85,5.07-3.4,10.32-6.59h0a254.42,254.42,0,0,1,36.11-18.13q4.18-1.69,8.45-3.26h0c2-.74,4.07-1.46,6.12-2.14q10.25-3.47,20.86-6.05c1.64-.4,3.29-.79,4.95-1.15,2.36-.53,4.72-1,7.11-1.47q5.37-1,10.82-1.86a258.67,258.67,0,0,1,72.3-.51c4.86.65,9.69,1.44,14.46,2.36q2.44.47,4.86,1a248.44,248.44,0,0,1,28.05,7.69q3.42,1.14,6.8,2.39a254.65,254.65,0,0,1,44.61,21.57q4.67,2.83,9.19,5.88,5.61,3.75,11,7.8a256.27,256.27,0,0,1,51.37,51.27A254.88,254.88,0,0,1,484.77,371Z"/><path class="cls-3" d="M415.63,456.14a255.7,255.7,0,0,1-291.82,19.13l0,0a255.73,255.73,0,0,1-27.41-19.12c15-12.31,34.54-22.81,57.35-30.72A285.52,285.52,0,0,1,200,413.76a345.58,345.58,0,0,1,112,0,285.89,285.89,0,0,1,46.28,11.65C381.1,433.33,400.66,443.81,415.63,456.14Z"/><circle class="cls-4" cx="256" cy="423.96" r="56.93"/><path class="cls-3" d="M499.64,259.59c0,73.94-109.09,133.87-243.64,133.87S12.36,333.53,12.36,259.59c0-47.69,45.39-89.56,113.73-113.27,37.61-13.06,82.16-20.6,129.91-20.6s92.32,7.55,129.91,20.6C454.25,170,499.64,211.9,499.64,259.59Z"/><path class="cls-5" d="M279.31,392.85q-11.51.6-23.31.61c-134.56,0-243.64-59.93-243.64-133.87,0-47.69,45.39-89.56,113.73-113.27,37.61-13.06,82.16-20.6,129.91-20.6q11.81,0,23.31.61c-38.92,2-75.17,9.08-106.59,20C104.38,170,59,211.9,59,259.59,59,329.2,155.69,386.4,279.31,392.85Z"/><path class="cls-5" d="M385.91,146.32a130,130,0,0,1-259.82,0c37.61-13.06,82.16-20.6,129.91-20.6S348.32,133.27,385.91,146.32Z"/><circle class="cls-6" cx="256" cy="142.24" r="104.49"/><circle class="cls-7" cx="256" cy="142.24" r="77.99"/><circle class="cls-4" cx="256" cy="141.57" r="61.16"/><rect class="cls-4" x="158.46" y="291.84" width="202.02" height="58.29" rx="29.14"/><circle class="cls-7" cx="279.7" cy="125.72" r="20.23"/><ellipse class="cls-8" cx="423.69" cy="208.31" rx="11" ry="24.2" transform="translate(-23.2 360.6) rotate(-45)"/><ellipse class="cls-8" cx="465.05" cy="249.67" rx="8.51" ry="18.73" transform="translate(-40.33 401.96) rotate(-45)"/><line class="cls-9" x1="197.93" y1="320.98" x2="320.25" y2="320.98"/></g></svg>