<svg xmlns="http://www.w3.org/2000/svg" viewBox="0 0 512 512"><defs><style>.cls-1{fill:#9e4830;}.cls-2{fill:#7f3828;}.cls-3{fill:#41c0e3;}.cls-4{fill:#3eb3ce;}.cls-5{fill:#32314b;}.cls-6{fill:#fff;}.cls-7{fill:#b0d46c;}.cls-8{fill:#a3c163;}.cls-9{fill:#7cc8fb;}.cls-10{fill:#acdffc;}.cls-11{fill:#cae58f;}</style></defs><title>Robot Avatars</title><g id="BULINE"><circle class="cls-1" cx="256" cy="256" r="256"/></g><g id="Icons"><path class="cls-2" d="M484.77,371A256.32,256.32,0,0,1,175.23,499q-7.95-2.64-15.66-5.78l-2.16-.89-.18-.07a255.69,255.69,0,0,1-33.42-17l0,0A257.19,257.19,0,0,1,27.23,371a256.81,256.81,0,0,1,75-89.7q5.4-4.07,11-7.85,5.07-3.4,10.32-6.59h0q5.59-3.39,11.38-6.5,10.91-5.87,22.43-10.68l2.3-1q4.18-1.69,8.45-3.26h0c2.22-.81,4.46-1.6,6.72-2.35q4.17-1.4,8.4-2.64,2.94-.87,5.92-1.67t5.94-1.53c1.64-.4,3.29-.79,4.95-1.15q8.85-2,17.93-3.33,8.15-1.22,16.45-1.9,10.65-.9,21.52-.9,8.16,0,16.2.51T287.93,232l2.4.3q9.78,1.31,19.32,3.35,11.55,2.46,22.71,6,6.13,1.91,12.14,4.13c1.26.46,2.52.94,3.77,1.43.7.26,1.39.53,2.08.81q10.47,4.14,20.47,9.19,9.38,4.69,18.29,10.14,4.67,2.83,9.19,5.88,5.61,3.75,11,7.8a256.81,256.81,0,0,1,75.46,90Z"/><path class="cls-3" d="M350.35,456.62v37.43A257.07,257.07,0,0,1,175.23,499q-7.95-2.64-15.66-5.78l-2.16-.89v-35.7a26.79,26.79,0,0,1,25.41-26.75c.4,0,.79,0,1.19,0H323.38l1.09,0A26.77,26.77,0,0,1,350.35,456.62Z"/><path class="cls-4" d="M348.69,447.85a26.72,26.72,0,0,0-7.31-1H202a26.78,26.78,0,0,0-26.78,26.78V499q-7.95-2.64-15.66-5.78l-2.16-.89-.18-.07V456.62a26.77,26.77,0,0,1,25.59-26.75c.4,0,.79,0,1.19,0H323.38l1.09,0A26.78,26.78,0,0,1,348.69,447.85Z"/><rect class="cls-5" x="223.04" y="365.17" width="61.69" height="102" rx="29.96"/><rect class="cls-6" x="246.91" y="36.33" width="17.52" height="19.46" transform="translate(301.73 -209.62) rotate(90)"/><path class="cls-5" d="M252.51,39.53h14.44a0,0,0,0,1,0,0V92.65a0,0,0,0,1,0,0H252.51a8.1,8.1,0,0,1-8.1-8.1V47.63a8.1,8.1,0,0,1,8.1-8.1Z" transform="translate(321.76 -189.58) rotate(90)"/><circle class="cls-7" cx="255.67" cy="29.09" r="16.96"/><path class="cls-8" d="M255.68,46.06a17,17,0,1,1,0-33.93,15.63,15.63,0,0,1,3.57.39,17,17,0,0,0,0,33.15A16.21,16.21,0,0,1,255.68,46.06Z"/><rect class="cls-6" x="370.82" y="230.86" width="17.52" height="19.46" transform="translate(759.16 481.17) rotate(-180)"/><path class="cls-5" d="M356.38,214h14.44a0,0,0,0,1,0,0v53.13a0,0,0,0,1,0,0H356.38a8.1,8.1,0,0,1-8.1-8.1V222.13A8.1,8.1,0,0,1,356.38,214Z" transform="translate(719.09 481.17) rotate(-180)"/><circle class="cls-7" cx="396.54" cy="240.59" r="16.96"/><path class="cls-8" d="M379.58,240.58a17,17,0,1,0,33.93,0,16.21,16.21,0,0,0-.39-3.57A17,17,0,0,1,380,237,16.2,16.2,0,0,0,379.58,240.58Z"/><rect class="cls-6" x="117.35" y="230.86" width="17.52" height="19.46"/><path class="cls-5" d="M143,214h14.44a0,0,0,0,1,0,0v53.13a0,0,0,0,1,0,0H143a8.1,8.1,0,0,1-8.1-8.1V222.13A8.1,8.1,0,0,1,143,214Z"/><path class="cls-9" d="M226.94,75.11h53.88a80,80,0,0,1,80,80v0a0,0,0,0,1,0,0h-214a0,0,0,0,1,0,0v0a80,80,0,0,1,80-80Z"/><ellipse class="cls-10" cx="312.38" cy="109.3" rx="6.82" ry="15" transform="translate(32.03 285.18) rotate(-51.39)"/><ellipse class="cls-10" cx="340.7" cy="131.92" rx="5.28" ry="11.61" transform="translate(25.01 315.82) rotate(-51.39)"/><rect class="cls-9" x="157.41" y="175.08" width="192.94" height="155.89"/><path class="cls-4" d="M350.35,175.07v28.67h-123a44.72,44.72,0,0,0-44.72,44.72V331H157.41V175.07Z"/><path class="cls-3" d="M296.44,408.22H211.33a70.57,70.57,0,0,1-70.56-70.57v-34A12.76,12.76,0,0,1,151.88,291a791.48,791.48,0,0,1,204,0A12.76,12.76,0,0,1,367,303.65v34A70.57,70.57,0,0,1,296.44,408.22Z"/><path class="cls-4" d="M236.49,408.22H211.33a70.55,70.55,0,0,1-70.56-70.57v-34A12.74,12.74,0,0,1,151.88,291a791.09,791.09,0,0,1,114.41-6.5,795,795,0,0,0-89.24,6.5,12.74,12.74,0,0,0-11.12,12.63v34A70.56,70.56,0,0,0,236.49,408.22Z"/><rect class="cls-3" x="134.87" y="154.46" width="238.03" height="20.62" rx="10.31"/><circle class="cls-7" cx="203.53" cy="231.35" r="30.96"/><circle class="cls-7" cx="109.14" cy="240.59" r="16.96"/><path class="cls-8" d="M126.11,240.58a17,17,0,1,1-33.93,0,15.63,15.63,0,0,1,.39-3.57,17,17,0,0,0,33.15,0A16.21,16.21,0,0,1,126.11,240.58Z"/><path class="cls-8" d="M211.39,261.3a31,31,0,1,1-7.86-60.9,30.41,30.41,0,0,1,7.86,1,31,31,0,0,0,0,59.89Z"/><circle class="cls-11" cx="216.09" cy="222.44" r="8.91"/><circle class="cls-7" cx="303.15" cy="231.35" r="30.96"/><path class="cls-8" d="M311,261.3a31,31,0,1,1-7.86-60.9,30.46,30.46,0,0,1,7.86,1,31,31,0,0,0,0,59.89Z"/><circle class="cls-11" cx="315.71" cy="222.44" r="8.91"/><rect class="cls-6" x="181.22" y="296.37" width="30.41" height="30.93" rx="5.24"/><rect class="cls-6" x="220.55" y="296.37" width="30.41" height="30.93" rx="5.24"/><rect class="cls-6" x="259.87" y="296.37" width="30.41" height="30.93" rx="5.24"/><rect class="cls-6" x="299.19" y="296.37" width="30.41" height="30.93" rx="5.24"/><rect class="cls-5" x="171.94" y="189.41" width="63.18" height="14.33" rx="7.17"/><rect class="cls-5" x="271.56" y="189.41" width="63.18" height="14.33" rx="7.17"/></g></svg>