<svg xmlns="http://www.w3.org/2000/svg" viewBox="0 0 512 512"><defs><style>.cls-1{fill:#fc4581;}.cls-2{fill:#e03674;}.cls-3{fill:#fff;}.cls-4{fill:#32314b;}.cls-5{fill:#41c0e3;}.cls-6{fill:#3eb1cc;}.cls-7{fill:#27273d;}.cls-8{fill:#3586cb;}.cls-9{fill:#7cc8fb;}.cls-10{fill:#f58d89;}.cls-11{fill:none;stroke:#7cc8fb;stroke-linecap:round;stroke-miterlimit:10;stroke-width:15px;}.cls-12{fill:#3e436d;}</style></defs><title>Robot Avatars</title><g id="BULINE"><circle class="cls-1" cx="256" cy="256" r="256"/></g><g id="Icons"><path class="cls-2" d="M484.77,371q-3.21,6.38-6.78,12.55a253.24,253.24,0,0,1-20.34,30.17,255.78,255.78,0,0,1-333.84,61.55l0,0a257.15,257.15,0,0,1-70.68-63.17,254.2,254.2,0,0,1-20.17-30.43Q30,376.4,27.23,371a256.81,256.81,0,0,1,75-89.7q2.37-1.79,4.77-3.51c2.06-1.48,4.14-2.92,6.25-4.34q5.07-3.4,10.32-6.59h0l2.16-1.29a253.36,253.36,0,0,1,28-14.35q2.94-1.29,5.91-2.49,4.18-1.69,8.45-3.26h0q5.21-1.91,10.51-3.58,8.12-2.58,16.47-4.61c1.64-.4,3.29-.79,4.95-1.15q8.85-2,17.93-3.33,6.5-1,13.1-1.6h0Q243.41,230,256,230q3.9,0,7.79.13,7.95.23,15.78,1h0q5.42.49,10.75,1.21,9.78,1.31,19.32,3.35a251.31,251.31,0,0,1,34.85,10.08,253.89,253.89,0,0,1,40.24,19c1.47.85,2.92,1.72,4.37,2.6q4.67,2.83,9.19,5.88c1.45,1,2.9,2,4.33,3,.29.19.57.39.85.59,2,1.38,3.91,2.8,5.83,4.24a257.59,257.59,0,0,1,21.38,17.89,253.85,253.85,0,0,1,18.7,19.41A256.55,256.55,0,0,1,484.77,371Z"/><path class="cls-3" d="M478,383.55a253.24,253.24,0,0,1-20.34,30.17l-38.18-57.65-16-24.14-.85-1.29L392.27,315l10.36-6.86.85-.57,16.81-11.13,24.43,36.88Z"/><path class="cls-4" d="M402.63,264.81a47.18,47.18,0,1,1,0,94.35Z"/><path class="cls-3" d="M117.39,315,107,330.66,90.19,356.07l-37.1,56a254.2,254.2,0,0,1-20.17-30.43l32-48.33,24.43-36.88L107,308.13Z"/><rect class="cls-5" x="107.02" y="46.57" width="296.46" height="417.43" rx="19.79"/><path class="cls-6" d="M173.59,464H126.82A19.8,19.8,0,0,1,107,444.21V66.37a19.79,19.79,0,0,1,19.8-19.79h46.77A19.78,19.78,0,0,0,153.8,66.37V444.21A19.8,19.8,0,0,0,173.59,464Z"/><rect class="cls-4" x="125.76" y="72.96" width="258.99" height="239.04" rx="14"/><path class="cls-7" d="M153.8,73V312h-14a14,14,0,0,1-14-14V87a14,14,0,0,1,14-14Z"/><rect class="cls-8" x="208.79" y="324.26" width="92.92" height="14.46" rx="7.23"/><rect class="cls-8" x="208.79" y="347.41" width="92.92" height="14.46" rx="7.23"/><rect class="cls-8" x="208.79" y="370.55" width="92.92" height="14.46" rx="7.23"/><circle class="cls-9" cx="193.09" cy="164.95" r="14.41"/><circle class="cls-9" cx="318.98" cy="164.95" r="14.41"/><ellipse class="cls-10" cx="335.37" cy="216.84" rx="23.41" ry="14.41"/><ellipse class="cls-10" cx="180.2" cy="216.84" rx="23.41" ry="14.41"/><path class="cls-11" d="M221.23,223.58a48.13,48.13,0,0,0,68,0"/><ellipse class="cls-12" cx="315.08" cy="102.26" rx="16.71" ry="7.6"/><ellipse class="cls-12" cx="355.46" cy="102.26" rx="12.93" ry="5.88"/><rect class="cls-7" x="107.02" y="397.41" width="296.46" height="34.27"/><path class="cls-4" d="M107,264.81a47.18,47.18,0,0,0,0,94.35Z"/></g></svg>