<svg xmlns="http://www.w3.org/2000/svg" viewBox="0 0 512 512"><defs><style>.cls-1{fill:#db1b1b;}.cls-2{fill:#bc1b1b;}.cls-3{fill:#cd88f8;}.cls-4{fill:#32314b;}.cls-5{fill:#27273d;}.cls-6{fill:#d7aaf7;}.cls-7{fill:#b47add;}.cls-8{fill:#bb9ad8;}.cls-9{fill:#b0d46c;}.cls-10{fill:#9ab75c;}.cls-11{fill:#dfc4f7;}</style></defs><title>Robot Avatars</title><g id="BULINE"><circle class="cls-1" cx="256" cy="256.05" r="256"/></g><g id="Icons"><path class="cls-2" d="M484.77,371a255.88,255.88,0,0,1-361,104.27l0,0A257.43,257.43,0,0,1,27.23,371a256.64,256.64,0,0,1,36.44-54q8.37-9.53,17.64-18.18a258.38,258.38,0,0,1,20.94-17.56c.57-.43,1.14-.86,1.72-1.28h0q4.56-3.37,9.29-6.56,5.07-3.4,10.32-6.59h0q5.13-3.11,10.4-6h0q8.18-4.42,16.69-8.28,4.45-2,9-3.87,4.18-1.69,8.45-3.26h0q7-2.53,14.09-4.68,6.38-1.92,12.89-3.51c1.64-.4,3.29-.79,4.95-1.15,1.12-.25,2.24-.49,3.37-.72q7.2-1.51,14.56-2.61a258.67,258.67,0,0,1,72.3-.51c3.62.48,7.23,1,10.8,1.68q4.29.76,8.52,1.67,8.25,1.76,16.29,4,9.44,2.67,18.56,6A251.75,251.75,0,0,1,376,259.83c4.45,2.35,8.82,4.85,13.11,7.46q4.67,2.83,9.19,5.88,3.88,2.59,7.66,5.33c1.12.81,2.24,1.64,3.35,2.47a257.59,257.59,0,0,1,21.38,17.89q8.47,7.92,16.21,16.58A256.34,256.34,0,0,1,484.77,371Z"/><path class="cls-3" d="M427.89,439.06a64.6,64.6,0,0,1-.37,7,255.71,255.71,0,0,1-303.71,29.23l0,0A256.62,256.62,0,0,1,82.3,444c-.13-1.65-.19-3.31-.19-5,0-15.49,5.43-30.21,15.17-43.47a112.65,112.65,0,0,1,20.94-21.34,148.6,148.6,0,0,1,12.19-8.65q3.69-2.34,7.6-4.55h0a187.41,187.41,0,0,1,20.31-9.84q7-2.93,14.58-5.41c1.59-.53,3.2-1.05,4.82-1.54q9.59-2.94,19.81-5.15l1.5-.32c6.47-1.36,13.12-2.49,19.91-3.37,8.24-1.07,16.71-1.79,25.34-2.1q5.31-.21,10.71-.21t10.71.21q12.77.46,25,2.05,10.38,1.33,20.27,3.42c.38.07.77.16,1.15.25q10.5,2.23,20.34,5.28c6.71,2.05,13.16,4.38,19.33,6.93a188.2,188.2,0,0,1,20.2,9.8q3.91,2.2,7.61,4.55a148.6,148.6,0,0,1,12.19,8.65,112.65,112.65,0,0,1,20.94,21.34C422.46,408.85,427.89,423.57,427.89,439.06Z"/><ellipse class="cls-4" cx="255" cy="377.55" rx="175.74" ry="40.88"/><ellipse class="cls-5" cx="255" cy="365.68" rx="141.63" ry="32.94"/><path class="cls-3" d="M376.27,365.68H133.73a74.74,74.74,0,0,1-74.65-78.34l7-145a74.74,74.74,0,0,1,74.65-71.14H369.27a74.74,74.74,0,0,1,74.65,71.14l7,145A74.74,74.74,0,0,1,376.27,365.68Z"/><path class="cls-6" d="M349.22,365.68H160.78a58.08,58.08,0,0,1-58-60.87l5.44-112.64a58.08,58.08,0,0,1,58-55.28H343.78a58.08,58.08,0,0,1,58,55.28l5.44,112.64A58.08,58.08,0,0,1,349.22,365.68Z"/><path class="cls-7" d="M223.68,365.68h-90a74.74,74.74,0,0,1-74.65-78.34l7-145a74.75,74.75,0,0,1,74.65-71.14h90a74.74,74.74,0,0,0-74.28,66.5c-.17,1.53-.3,3.08-.37,4.64l-.44,9.19L149,287.34c-.1,2.21-.12,4.39,0,6.56A74.73,74.73,0,0,0,223.68,365.68Z"/><path class="cls-8" d="M223.68,365.68h-62.9a58.06,58.06,0,0,1-58-60.86l5.44-112.65a58.09,58.09,0,0,1,48.18-54.45c-.17,1.53-.3,3.08-.37,4.64l-.44,9.19L149,287.34c-.1,2.21-.12,4.39,0,6.56A74.73,74.73,0,0,0,223.68,365.68Z"/><ellipse class="cls-9" cx="66.83" cy="237.19" rx="35.87" ry="54.97"/><ellipse class="cls-10" cx="61.3" cy="237.19" rx="17.94" ry="27.48"/><ellipse class="cls-9" cx="443.17" cy="237.19" rx="35.87" ry="54.97"/><ellipse class="cls-10" cx="448.7" cy="237.19" rx="17.94" ry="27.48"/><rect class="cls-5" x="197.54" y="298.94" width="21.42" height="52.82" rx="4.82"/><rect class="cls-5" x="290.69" y="298.94" width="21.42" height="52.82" rx="4.82"/><rect class="cls-5" x="332.45" y="314.46" width="21.42" height="37.3" rx="4.05"/><rect class="cls-5" x="156.31" y="314.46" width="21.42" height="37.3" rx="4.05"/><rect class="cls-5" x="244.29" y="289.3" width="21.42" height="62.46" rx="5.24"/><path class="cls-4" d="M344,294.91q-89-25.7-178.08,0a24.88,24.88,0,0,1-27.52-9.65A25.9,25.9,0,0,1,134,270.73V176c0-.45,0-.89,0-1.34.83-16.54,17.76-27.29,33.44-22q87.53,29.67,175,0c15.68-5.32,32.61,5.43,33.44,22,0,.45,0,.89,0,1.34v94.76a25.9,25.9,0,0,1-4.44,14.53A24.88,24.88,0,0,1,344,294.91Z"/><path class="cls-5" d="M149,287.34c-.1,2.21-.12,4.39,0,6.56a24,24,0,0,1-10.56-8.65A25.91,25.91,0,0,1,134,270.73V176c0-.45,0-.9,0-1.34.62-12.34,10.21-21.46,21.55-23.08Z"/><circle class="cls-9" cx="188.97" cy="222.72" r="19.27"/><circle class="cls-9" cx="316.78" cy="222.72" r="19.27"/><ellipse class="cls-11" cx="388.36" cy="104.35" rx="6.96" ry="15.32" transform="translate(52.77 325.92) rotate(-48.47)"/><ellipse class="cls-11" cx="416.07" cy="128.89" rx="5.39" ry="11.85" transform="translate(43.74 354.94) rotate(-48.47)"/></g></svg>