<svg xmlns="http://www.w3.org/2000/svg" viewBox="0 0 512 512"><defs><style>.cls-1{fill:#4f4f74;}.cls-2{fill:#40405b;}.cls-3{fill:#fa3268;}.cls-4{fill:#dddbdc;}.cls-5{fill:none;stroke:#27273d;stroke-linecap:round;stroke-miterlimit:10;stroke-width:10px;}.cls-6{fill:#fff;}.cls-7{fill:#dd2c63;}.cls-8{fill:#27273d;}.cls-9{fill:#32314b;}.cls-10{fill:#1f1f30;}.cls-11{fill:#f95588;}</style></defs><title>Robot Avatars</title><g id="BULINE"><circle class="cls-1" cx="256" cy="256" r="256"/></g><g id="Icons"><path class="cls-2" d="M484.77,371A257.06,257.06,0,0,1,388.9,474.84a256.48,256.48,0,0,1-229.33,18.37q-7.73-3.15-15.2-6.77-10.56-5.13-20.56-11.17l0,0A257.19,257.19,0,0,1,27.23,371a256.81,256.81,0,0,1,75-89.7l2.47-1.84.33-.24q4-3,8.22-5.77,5.07-3.4,10.32-6.59h0c2.1-1.27,4.22-2.52,6.36-3.73q4.53-2.56,9.19-5l.35-.18q9.85-5.06,20.21-9.26,2.21-.9,4.44-1.75l.35-.13q1.83-.71,3.66-1.38h0q4.76-1.74,9.6-3.29,3.51-1.12,7.08-2.16,5.1-1.47,10.3-2.74c1.64-.4,3.29-.79,4.95-1.15q5.33-1.19,10.73-2.14c2.39-.44,4.79-.83,7.2-1.19q5.25-.78,10.57-1.34A255.76,255.76,0,0,1,256,230q10.11,0,20,.78c2.45.19,4.88.41,7.31.68s4.67.52,7,.83q3,.39,5.89.86,6.78,1.07,13.43,2.49,6.47,1.38,12.81,3.08,11.24,3,22,7l2,.75a249.29,249.29,0,0,1,25,11q9,4.56,17.61,9.8,4.67,2.83,9.19,5.88,3.84,2.56,7.59,5.28,1.73,1.24,3.42,2.52a256.81,256.81,0,0,1,75.46,90Z"/><path class="cls-3" d="M372.14,456.21A85.41,85.41,0,0,1,366.39,487a256.7,256.7,0,0,1-206.82,6.17q-7.73-3.15-15.2-6.77a85.68,85.68,0,0,1-5.51-30.23c0-37.25,24.11-69.7,59.78-86.67q2.42-1.16,4.91-2.21c1.65-.71,3.32-1.37,5-2a135.52,135.52,0,0,1,98.88,2q2.49,1.05,4.91,2.21C348,386.51,372.14,419,372.14,456.21Z"/><circle class="cls-4" cx="255.5" cy="369.54" r="52"/><line class="cls-5" x1="420.5" y1="235.54" x2="455.5" y2="235.54"/><circle class="cls-3" cx="471.5" cy="235.54" r="17"/><line class="cls-5" x1="91.5" y1="235.54" x2="56.5" y2="235.54"/><circle class="cls-3" cx="40.5" cy="235.54" r="17"/><path class="cls-3" d="M409.08,200.21H435.5a0,0,0,0,1,0,0v70.67a0,0,0,0,1,0,0H409.08a11.58,11.58,0,0,1-11.58-11.58v-47.5a11.58,11.58,0,0,1,11.58-11.58Z" transform="translate(833 471.08) rotate(180)"/><path class="cls-3" d="M88.08,200.21H114.5a0,0,0,0,1,0,0v70.67a0,0,0,0,1,0,0H88.08A11.58,11.58,0,0,1,76.5,259.29v-47.5A11.58,11.58,0,0,1,88.08,200.21Z"/><path class="cls-6" d="M358.64,369.54H151.77a40.08,40.08,0,0,1-39.53-33.3,649.43,649.43,0,0,1,0-219.9A40.09,40.09,0,0,1,151.77,83H358.64a40.1,40.1,0,0,1,39.46,32.89,611.86,611.86,0,0,1,0,220.72A40.09,40.09,0,0,1,358.64,369.54Z"/><path class="cls-4" d="M226.48,369.54H151.42a40.08,40.08,0,0,1-39.53-33.3,649.43,649.43,0,0,1,0-219.9A40.09,40.09,0,0,1,151.42,83h75.06A40.09,40.09,0,0,0,187,116.34q-5.37,31.47-7.66,62.95-1.12,15.38-1.5,30.75-.66,25.5.72,51,.83,15.38,2.4,30.75,2.25,22.23,6,44.45A40.08,40.08,0,0,0,226.48,369.54Z"/><path class="cls-3" d="M286,231.46H225a21.91,21.91,0,0,1-21.76-19.4l-15-130.37a21.9,21.9,0,0,1,21.76-24.4h90.88a21.9,21.9,0,0,1,21.76,24.4l-15,130.37A21.91,21.91,0,0,1,286,231.46Z"/><path class="cls-7" d="M274.05,206.71H237c-6.78,0-12.47-8.35-13.25-19.4L214.59,56.94c-.91-13,5.28-24.4,13.25-24.4h55.32c8,0,14.16,11.4,13.25,24.4L287.3,187.31C286.52,198.36,280.83,206.71,274.05,206.71Z"/><path class="cls-8" d="M255.5,343a42.22,42.22,0,0,1-30.05-12.45A7.5,7.5,0,1,1,236.06,320,27.51,27.51,0,0,0,275,320a7.5,7.5,0,0,1,10.6,10.61A42.25,42.25,0,0,1,255.5,343Z"/><rect class="cls-8" x="139.5" y="179.29" width="232" height="112.5" rx="16.58"/><rect class="cls-9" x="164.5" y="210.04" width="182" height="51" rx="13.29"/><circle class="cls-6" cx="197.5" cy="235.54" r="13.42"/><circle class="cls-6" cx="309.43" cy="235.54" r="13.42"/><path class="cls-10" d="M180.91,291.79H155.73a16.58,16.58,0,0,1-16.58-16.58V195.88a16.58,16.58,0,0,1,16.58-16.59h23.56q-1.12,15.38-1.5,30.75-.66,25.5.72,51Q179.34,276.42,180.91,291.79Z"/><path class="cls-8" d="M178.51,261h-1.07a13.29,13.29,0,0,1-13.29-13.29V223.33A13.29,13.29,0,0,1,177.44,210h.35Q177.13,235.54,178.51,261Z"/><ellipse class="cls-11" cx="271.5" cy="81.29" rx="6.5" ry="14.3"/><ellipse class="cls-11" cx="271.5" cy="115.86" rx="5.03" ry="11.07"/></g></svg>