<?xml version="1.0" encoding="utf-8"?>
<svg version="1.1" xmlns="http://www.w3.org/2000/svg" xmlns:xlink="http://www.w3.org/1999/xlink" viewBox="0 0 392.2 392.2" xml:space="preserve">
	<style type="text/css">
		.st0{ 
			fill: #3B8DE0;
		}
	</style>
	<g>
		<circle class="st0" cx="132" cy="157.6" r="15.7" />
		<circle class="st0" cx="262.6" cy="157.6" r="15.7" />
		<path class="st0" d="M346.6,41.3L346.6,41.3h-265H44.9c-4.4,0-7.4,1.5-10.3,3.7l-0.7,0.7c-2.2,2.2-3.7,5.9-3.7,10.3v187v26.5
		c0,8.1,6.6,14.7,14.7,14.7h61.8v54.5c0,12.5,16.2,19.1,25,10.3l67.7-67.7h148c8.1,0,14.7-6.6,14.7-14.7V81.7V55.2
		C361.4,47.9,354.7,41.3,346.6,41.3z M261.8,205.5h-3.1H130.4c-25.9,0-47.1-21.2-47.1-47.1s21.2-47.1,47.1-47.1s47.1,21.2,47.1,47.1
		c0,5.5-0.8,11-2.4,15.7h42.7c-1.6-4.7-2.4-10.2-2.4-15.7c0-25.9,21.2-47.1,47.1-47.1l0,0c25.9,0,46.3,21.2,46.3,47.1
		C308.9,184.3,287.7,205.5,261.8,205.5z" />
	</g>
</svg>